<svg width="1115" height="582" viewBox="0 0 1115 582" fill="none" xmlns="http://www.w3.org/2000/svg">
<path d="M1114.29 430.319V443.319H1059.39V430.319H1114.29ZM1094.37 409.862V464.76H1079.36V409.862H1094.37Z" fill="#02BB4E"/>
<circle cx="1102.42" cy="116.087" r="7.41855" fill="white"/>
<circle cx="317.019" cy="339.019" r="31.796" transform="rotate(30 317.019 339.019)" fill="white" stroke="#98FF98" stroke-width="5"/>
<circle cx="1030.46" cy="254.815" r="42.2857" fill="#98FF98"/>
<circle cx="319.772" cy="91.7719" r="20.7719" fill="white"/>
<ellipse cx="865" cy="512.5" rx="69" ry="69.5" fill="#98FF98"/>
<path fill-rule="evenodd" clip-rule="evenodd" d="M853.435 21.1158V31H865.79V21.1158H875V9.88393H865.79V0H853.435V9.88393H844V21.1158H853.435Z" fill="#02BB4E"/>
<path fill-rule="evenodd" clip-rule="evenodd" d="M489.391 243.304L489.391 250H497.761V243.304H504V235.696H497.761V229H489.391L489.391 235.696H483V243.304H489.391Z" fill="#98FF98"/>
<path fill-rule="evenodd" clip-rule="evenodd" d="M215.565 518.884L215.565 531H230.71V518.884H242V505.116H230.71V493H215.565L215.565 505.116H204V518.884H215.565Z" fill="#98FF98"/>
<path fill-rule="evenodd" clip-rule="evenodd" d="M6.99983 477.667L6.99983 485H16.1665V477.667H23V469.333H16.1665V462H6.99983L6.99983 469.333H0V477.667H6.99983Z" fill="#98FF98"/>
</svg>
