<svg width="1069" height="776" viewBox="0 0 1069 776" fill="none" xmlns="http://www.w3.org/2000/svg">
<circle cx="578.019" cy="645.019" r="31.796" transform="rotate(30 578.019 645.019)" fill="white" stroke="#98FF98" stroke-width="5"/>
<circle cx="125.019" cy="505.019" r="31.796" transform="rotate(30 125.019 505.019)" fill="white" stroke="#98FF98" stroke-width="5"/>
<circle cx="924.019" cy="482.019" r="31.796" transform="rotate(30 924.019 482.019)" fill="white" stroke="#98FF98" stroke-width="5"/>
<circle cx="42.2857" cy="733.286" r="42.2857" fill="#98FF98"/>
<circle cx="503.772" cy="582.772" r="20.7719" fill="white"/>
<ellipse cx="1000" cy="663.5" rx="69" ry="69.5" fill="#98FF98"/>
<path fill-rule="evenodd" clip-rule="evenodd" d="M185.565 570.884L185.565 583H200.71V570.884H212V557.116H200.71V545H185.565L185.565 557.116H174V570.884H185.565Z" fill="#98FF98"/>
<path d="M483 355.042V363.33H448V355.042H483ZM470.305 342V377H460.73V342H470.305Z" fill="#98FF98"/>
<path d="M784 478.042V486.33H749V478.042H784ZM771.305 465V500H761.73V465H771.305Z" fill="#98FF98"/>
<circle cx="245.128" cy="16.1278" r="13.6278" fill="white" stroke="#98FF98" stroke-width="5"/>
<circle cx="269.128" cy="489.128" r="13.6278" fill="white" stroke="#98FF98" stroke-width="5"/>
<circle cx="931.128" cy="26.1278" r="11.1278" fill="#98FF98"/>
<circle cx="834.128" cy="594.128" r="11.1278" fill="#98FF98"/>
<circle cx="269.5" cy="296.5" r="21.5" fill="#98FF98"/>
<circle cx="125.5" cy="691.5" r="21.5" fill="#98FF98"/>
<circle cx="56.4185" cy="369.419" r="9.91855" fill="white" stroke="#98FF98" stroke-width="5"/>
<path fill-rule="evenodd" clip-rule="evenodd" d="M929.435 221.116V231H941.79V221.116H951V209.884H941.79V200H929.435V209.884H920V221.116H929.435Z" fill="#98FF98"/>
<path fill-rule="evenodd" clip-rule="evenodd" d="M817.435 326.116V336H829.79V326.116H839V314.884H829.79V305H817.435V314.884H808V326.116H817.435Z" fill="#02BB4E"/>
</svg>
