<svg width="23" height="23" viewBox="0 0 23 23" fill="none" xmlns="http://www.w3.org/2000/svg">
<path d="M11.4718 0.685303C5.49747 0.685303 0.656982 5.5694 0.656982 11.5001C0.656982 17.4743 5.49747 22.3149 11.4718 22.3149C17.4025 22.3149 22.2866 17.4743 22.2866 11.5001C22.2866 5.5694 17.4025 0.685303 11.4718 0.685303ZM15.8326 16.6022C15.6581 16.6022 15.5272 16.5586 15.3965 16.4714C12.6492 14.8143 9.50941 14.7708 6.36963 15.3811C6.1952 15.4248 5.97716 15.512 5.84633 15.512C5.41025 15.512 5.14861 15.1632 5.14861 14.8143C5.14861 14.3782 5.41025 14.1602 5.75912 14.073C9.33498 13.288 12.9544 13.3752 16.0942 15.2067C16.3559 15.3811 16.4868 15.5556 16.4868 15.9481C16.4868 16.3406 16.1814 16.6022 15.8326 16.6022ZM17.0101 13.7677C16.7919 13.7677 16.6175 13.6369 16.4868 13.5933C13.7394 11.9798 9.68384 11.3257 6.06438 12.285C5.84633 12.3286 5.75912 12.4159 5.54108 12.4159C5.105 12.4159 4.71253 12.0234 4.71253 11.5437C4.71253 11.1076 4.93057 10.8024 5.36665 10.6715C6.58767 10.3227 7.8523 10.061 9.64023 10.061C12.4748 10.061 15.2221 10.7588 17.3589 12.067C17.7078 12.2414 17.8822 12.5467 17.8822 12.8955C17.8385 13.3752 17.4897 13.7677 17.0101 13.7677ZM18.3618 10.4535C18.1437 10.4535 18.013 10.3663 17.7949 10.2791C14.6988 8.40392 9.16054 7.96784 5.54108 8.97082C5.41025 9.01443 5.19221 9.10165 4.97417 9.10165C4.40727 9.10165 3.97119 8.62196 3.97119 8.05506C3.97119 7.44454 4.36366 7.13929 4.75613 7.00846C6.28242 6.57238 7.98313 6.35434 9.85827 6.35434C13.0417 6.35434 16.3994 7.00846 18.7979 8.44753C19.1468 8.62196 19.3647 8.88361 19.3647 9.4069C19.3647 10.0174 18.8851 10.4535 18.3618 10.4535Z" fill="#00C63F"/>
</svg>
