<svg width="23" height="19" viewBox="0 0 23 19" fill="none" xmlns="http://www.w3.org/2000/svg">
<path d="M19.3579 2.33711C17.922 1.67822 16.3821 1.19277 14.772 0.914741C14.7427 0.909375 14.7134 0.922784 14.6983 0.949605C14.5003 1.30184 14.2809 1.76135 14.1273 2.12253C12.3956 1.86328 10.6728 1.86328 8.97659 2.12253C8.82294 1.75333 8.59561 1.30184 8.39668 0.949605C8.38157 0.923679 8.35229 0.910269 8.32296 0.914741C6.71381 1.19188 5.17394 1.67733 3.73706 2.33711C3.72462 2.34247 3.71396 2.35142 3.70688 2.36303C0.786061 6.72668 -0.0140752 10.9831 0.378445 15.1867C0.380221 15.2073 0.391765 15.2269 0.407751 15.2394C2.33483 16.6546 4.20153 17.5138 6.03357 18.0833C6.06289 18.0922 6.09395 18.0815 6.11261 18.0573C6.54598 17.4655 6.93229 16.8415 7.26351 16.1853C7.28306 16.1469 7.2644 16.1013 7.22445 16.0861C6.6117 15.8536 6.02824 15.5702 5.46699 15.2484C5.42259 15.2225 5.41904 15.159 5.45988 15.1286C5.57799 15.0401 5.69613 14.948 5.8089 14.855C5.82931 14.838 5.85774 14.8344 5.88173 14.8452C9.56891 16.5286 13.5607 16.5286 17.2044 14.8452C17.2284 14.8335 17.2568 14.8371 17.2781 14.8541C17.3909 14.9471 17.509 15.0401 17.628 15.1286C17.6689 15.159 17.6662 15.2225 17.6218 15.2484C17.0605 15.5765 16.4771 15.8536 15.8634 16.0852C15.8235 16.1004 15.8057 16.1469 15.8253 16.1853C16.1636 16.8406 16.5499 17.4646 16.9753 18.0564C16.993 18.0815 17.025 18.0922 17.0543 18.0833C18.8952 17.5138 20.7619 16.6546 22.689 15.2394C22.7059 15.2269 22.7166 15.2081 22.7183 15.1876C23.1881 10.3277 21.9315 6.10625 19.3872 2.36392C19.381 2.35142 19.3704 2.34247 19.3579 2.33711ZM7.81414 12.6271C6.70404 12.6271 5.78936 11.608 5.78936 10.3564C5.78936 9.10474 6.6863 8.08559 7.81414 8.08559C8.95082 8.08559 9.85666 9.11369 9.83888 10.3564C9.83888 11.608 8.94194 12.6271 7.81414 12.6271ZM15.3004 12.6271C14.1903 12.6271 13.2757 11.608 13.2757 10.3564C13.2757 9.10474 14.1726 8.08559 15.3004 8.08559C16.4371 8.08559 17.3429 9.11369 17.3252 10.3564C17.3252 11.608 16.4371 12.6271 15.3004 12.6271Z" fill="#00C63F"/>
</svg>
