<svg width="22" height="19" viewBox="0 0 22 19" fill="none" xmlns="http://www.w3.org/2000/svg">
<path d="M19.8441 5.14277C20.6733 4.51732 21.4195 3.76678 22 2.89115C21.2536 3.22473 20.383 3.47491 19.5124 3.5583C20.4244 3.01624 21.0878 2.18231 21.4195 1.1399C20.5903 1.64026 19.6368 2.01553 18.6833 2.22401C17.8541 1.34838 16.7346 0.848022 15.4908 0.848022C13.0861 0.848022 11.1375 2.80776 11.1375 5.22616C11.1375 5.55973 11.179 5.8933 11.2619 6.22688C7.65493 6.01839 4.42107 4.26714 2.26517 1.64026C1.89204 2.26571 1.68474 3.01624 1.68474 3.85017C1.68474 5.35125 2.43101 6.68554 3.63334 7.47777C2.92853 7.43608 2.22371 7.26929 1.64328 6.93572V6.97742C1.64328 9.10394 3.13583 10.8552 5.12589 11.2722C4.79421 11.3556 4.37962 11.4389 4.00648 11.4389C3.71626 11.4389 3.4675 11.3972 3.17729 11.3556C3.71626 13.1068 5.33319 14.3576 7.24033 14.3994C5.74778 15.5669 3.8821 16.2758 1.85058 16.2758C1.47744 16.2758 1.14576 16.234 0.814087 16.1923C2.72123 17.4433 5.00151 18.1521 7.48909 18.1521C15.4908 18.1521 19.8441 11.5223 19.8441 5.72652C19.8441 5.51804 19.8441 5.35125 19.8441 5.14277Z" fill="#00C63F"/>
</svg>
