<svg width="24" height="17" viewBox="0 0 24 17" fill="none" xmlns="http://www.w3.org/2000/svg">
<path d="M23.154 3.09092C22.9021 2.09992 22.1037 1.31539 21.1373 1.06764C19.3307 0.572144 12.188 0.572144 12.188 0.572144C12.188 0.572144 5.00328 0.572144 3.19661 1.06764C2.23024 1.31539 1.43194 2.09992 1.17985 3.09092C0.675659 4.82515 0.675659 8.54138 0.675659 8.54138C0.675659 8.54138 0.675659 12.2163 1.17985 13.9918C1.43194 14.9828 2.23024 15.7261 3.19661 15.9738C5.00328 16.428 12.188 16.428 12.188 16.428C12.188 16.428 19.3307 16.428 21.1373 15.9738C22.1037 15.7261 22.9021 14.9828 23.154 13.9918C23.6582 12.2163 23.6582 8.54138 23.6582 8.54138C23.6582 8.54138 23.6582 4.82515 23.154 3.09092ZM9.8351 11.886V5.19678L15.8013 8.54138L9.8351 11.886Z" fill="#00C63F"/>
</svg>
