<svg width="512" height="512" viewBox="0 0 512 512" fill="none" xmlns="http://www.w3.org/2000/svg">
<path d="M48.5359 508.793C35.9831 509.523 23.6379 505.35 14.1035 497.154C-4.70019 478.238 -4.70019 447.688 14.1035 428.773L425.842 17.0323C445.4 -1.2683 476.089 -0.250979 494.389 19.3065C510.938 36.9922 511.903 64.1756 496.647 82.9889L82.4828 497.154C73.0714 505.231 60.9242 509.397 48.5359 508.793Z" fill="#1D344B"/>
<path d="M459.791 508.793C447.069 508.739 434.875 503.689 425.842 494.729L14.1018 82.9874C-3.31886 62.6442 -0.950431 32.0287 19.3928 14.6065C37.5497 -0.942397 64.3274 -0.942397 82.4827 14.6065L496.647 426.347C516.2 444.652 517.211 475.343 498.906 494.895C498.177 495.673 497.425 496.425 496.647 497.154C486.506 505.973 473.16 510.187 459.791 508.793Z" fill="#1D344B"/>
</svg>
