<svg width="22" height="22" viewBox="0 0 22 22" fill="none" xmlns="http://www.w3.org/2000/svg">
<path d="M10.9279 8.77075C9.49196 8.77075 8.32806 9.93527 8.32806 11.3713C8.32806 12.8072 9.49196 13.9718 10.9279 13.9718C12.3639 13.9718 13.5285 12.8072 13.5285 11.3713C13.5285 9.93527 12.3639 8.77075 10.9279 8.77075Z" fill="#C44EFF"/>
<path d="M17.0102 6.77054C16.8685 6.40608 16.7 6.14584 16.4267 5.87312C16.1533 5.6004 15.8937 5.43066 15.5292 5.28962C15.254 5.18352 14.8409 5.05559 14.0802 5.02127C13.257 4.98382 13.0099 4.97571 10.9273 4.97571C8.84482 4.97571 8.59769 4.9832 7.77578 5.02127C7.01504 5.05559 6.60191 5.18228 6.32669 5.28962C5.96161 5.43066 5.70199 5.59978 5.42928 5.87312C5.15656 6.14647 4.98743 6.40608 4.84577 6.77054C4.73968 7.04575 4.61174 7.45889 4.57742 8.21963C4.53997 9.04278 4.53186 9.28929 4.53186 11.3724C4.53186 13.4556 4.53935 13.7027 4.57742 14.5252C4.61174 15.286 4.73843 15.6991 4.84577 15.9743C4.98681 16.3388 5.15593 16.5984 5.42928 16.8711C5.70262 17.1438 5.96223 17.313 6.32669 17.4546C6.60128 17.562 7.01504 17.6887 7.77578 17.723C8.59769 17.7611 8.84419 17.7685 10.9273 17.7685C13.0105 17.7685 13.2576 17.7611 14.0802 17.723C14.8409 17.6887 15.254 17.562 15.5292 17.4546C15.8937 17.313 16.1539 17.1438 16.4267 16.8711C16.6994 16.5984 16.8685 16.3388 17.0102 15.9743C17.1169 15.6997 17.2442 15.286 17.2785 14.5252C17.3166 13.7021 17.3241 13.4556 17.3241 11.3724C17.3241 9.28929 17.3166 9.04278 17.2785 8.21963C17.2442 7.45826 17.1175 7.04513 17.0102 6.77054ZM10.928 15.3777C8.71563 15.3777 6.92205 13.5841 6.92205 11.3718C6.92205 9.15886 8.71563 7.3659 10.928 7.3659C13.1403 7.3659 14.9339 9.15948 14.9339 11.3718C14.9339 13.5841 13.1403 15.3777 10.928 15.3777ZM15.0924 8.14349C14.575 8.14349 14.1563 7.72412 14.1563 7.20676C14.1569 6.69003 14.5757 6.27128 15.0924 6.27066H15.093C15.6104 6.27066 16.0291 6.69003 16.0291 7.20739C16.0291 7.72474 15.6091 8.14349 15.0924 8.14349Z" fill="#C44EFF"/>
<path d="M21.3319 6.15148C21.2751 4.90271 21.0673 4.22435 20.8913 3.77315C20.6585 3.17528 20.382 2.74842 19.9333 2.30034C19.4846 1.85225 19.0584 1.57392 18.4605 1.34239C18.0081 1.16765 17.3309 0.958583 16.0822 0.901793C14.7304 0.840634 14.326 0.826904 10.9061 0.826904C7.48747 0.826904 7.08119 0.839386 5.7307 0.901169C4.48194 0.957959 3.80295 1.16578 3.35174 1.34176C2.75326 1.57329 2.32702 1.85163 1.87894 2.29971C1.43148 2.74904 1.15377 3.17528 0.920987 3.77315C0.746247 4.2256 0.537183 4.90271 0.480392 6.15148C0.419857 7.50322 0.406128 7.90762 0.406128 11.3282C0.406128 14.7487 0.418609 15.1537 0.481016 16.5036C0.537807 17.7523 0.745623 18.4307 0.921611 18.8819C1.15314 19.4798 1.43085 19.906 1.87956 20.3541C2.32827 20.8022 2.75451 21.0793 3.35237 21.312C3.80357 21.488 4.48194 21.6959 5.7307 21.7526C7.08057 21.815 7.48622 21.8269 10.9055 21.8269C14.3254 21.8269 14.7317 21.8144 16.0816 21.7526C17.3303 21.6959 18.0087 21.488 18.4599 21.312C19.0577 21.0793 19.4846 20.8022 19.9327 20.3541C20.3808 19.906 20.6579 19.4798 20.8906 18.8819C21.0654 18.4307 21.2745 17.7523 21.3312 16.5036C21.393 15.1525 21.4055 14.7468 21.4055 11.3275C21.4061 7.90699 21.3936 7.5026 21.3319 6.15148ZM18.6821 14.5883C18.6446 15.4189 18.5123 15.9862 18.3195 16.4817C18.1198 16.9947 17.8539 17.4303 17.4196 17.8634C16.9852 18.2972 16.5502 18.5636 16.0379 18.7633C15.5417 18.9562 14.9751 19.0879 14.1444 19.1259C13.3125 19.1646 13.0467 19.1734 10.928 19.1734C8.80925 19.1734 8.54402 19.164 7.71151 19.1259C6.88087 19.0879 6.31421 18.9562 5.81807 18.7633C5.30446 18.5636 4.87011 18.2965 4.43638 17.8634C4.00265 17.4303 3.73555 16.9941 3.53647 16.4817C3.34363 15.9856 3.21195 15.4189 3.17388 14.5883C3.13519 13.7564 3.12645 13.4906 3.12645 11.3718C3.12645 9.25312 3.13519 8.98726 3.17388 8.15537C3.21195 7.32474 3.34363 6.75745 3.53647 6.26194C3.73555 5.74833 4.00203 5.31335 4.43638 4.88025C4.87073 4.44652 5.30571 4.17942 5.81807 3.98034C6.31359 3.7875 6.88149 3.65582 7.71151 3.61775H7.71213C8.54464 3.57906 8.81112 3.57032 10.9292 3.57032C13.0473 3.57032 13.3132 3.57968 14.1451 3.61775C14.9751 3.6552 15.5424 3.7875 16.0385 3.98034C16.5509 4.17942 16.9865 4.44589 17.4196 4.88025C17.8533 5.3146 18.1198 5.74958 18.3195 6.26194C18.5123 6.75745 18.644 7.32474 18.6821 8.15537C18.7201 8.98726 18.7289 9.25312 18.7289 11.3718C18.7289 13.4906 18.7201 13.7558 18.6821 14.5883Z" fill="#C44EFF"/>
</svg>
