<svg width="24" height="17" viewBox="0 0 24 17" fill="none" xmlns="http://www.w3.org/2000/svg">
<path d="M22.902 2.9177C22.65 1.92671 21.8516 1.14217 20.8852 0.894422C19.0786 0.398926 11.9359 0.398926 11.9359 0.398926C11.9359 0.398926 4.75121 0.398926 2.94453 0.894422C1.97817 1.14217 1.17987 1.92671 0.927773 2.9177C0.423584 4.65194 0.423584 8.36816 0.423584 8.36816C0.423584 8.36816 0.423584 12.0431 0.927773 13.8186C1.17987 14.8095 1.97817 15.5529 2.94453 15.8005C4.75121 16.2548 11.9359 16.2548 11.9359 16.2548C11.9359 16.2548 19.0786 16.2548 20.8852 15.8005C21.8516 15.5529 22.65 14.8095 22.902 13.8186C23.4061 12.0431 23.4061 8.36816 23.4061 8.36816C23.4061 8.36816 23.4061 4.65194 22.902 2.9177ZM9.58302 11.7128V5.02356L15.5493 8.36816L9.58302 11.7128Z" fill="#C44EFF"/>
</svg>
