<svg width="22" height="22" viewBox="0 0 22 22" fill="none" xmlns="http://www.w3.org/2000/svg">
<path fill-rule="evenodd" clip-rule="evenodd" d="M18.2587 3.88082C16.2963 1.91261 13.6836 0.826904 10.9026 0.826904C5.16637 0.826904 0.492606 5.49486 0.492606 11.2311C0.492606 13.0658 0.968691 14.854 1.88022 16.4332L0.405518 21.8269L5.92114 20.3812C7.44229 21.2115 9.15503 21.6469 10.8968 21.6469H10.9026C16.6389 21.6469 21.3068 16.979 21.3068 11.2427C21.3068 8.46168 20.2269 5.84902 18.2587 3.88082ZM15.9886 14.9527C15.7738 15.5623 14.7345 16.1139 14.2352 16.1894C13.7882 16.2532 13.2192 16.2823 12.5979 16.0849C12.2206 15.9687 11.7387 15.8062 11.1174 15.5391C8.51058 14.4127 6.80364 11.7885 6.67591 11.6143C6.54237 11.4401 5.61342 10.2093 5.61342 8.92616C5.61342 7.64305 6.28691 7.01601 6.52495 6.75475C6.763 6.49348 7.04168 6.42961 7.21586 6.42961C7.39004 6.42961 7.56421 6.43542 7.71517 6.44123C7.87773 6.45284 8.09255 6.38317 8.30156 6.88828C8.51638 7.41081 9.03892 8.69392 9.10278 8.82165C9.16665 8.94938 9.21309 9.10034 9.126 9.27451C9.03891 9.44869 8.99247 9.559 8.86474 9.70996C8.73701 9.86091 8.59186 10.0467 8.47574 10.1628C8.34221 10.2905 8.20867 10.4299 8.35962 10.6912C8.51058 10.9524 9.03311 11.8001 9.8053 12.491C10.7981 13.3735 11.6342 13.6522 11.8954 13.7799C12.1567 13.9134 12.3076 13.8902 12.4586 13.716C12.6096 13.5419 13.1089 12.9555 13.283 12.6942C13.4572 12.4387 13.6314 12.4794 13.8694 12.5665C14.1075 12.6536 15.3848 13.2864 15.646 13.4141C15.9015 13.5419 16.0757 13.6057 16.1396 13.716C16.2034 13.8264 16.2034 14.3431 15.9886 14.9527Z" fill="#C44EFF"/>
</svg>
