<svg width="31" height="31" viewBox="0 0 31 31" fill="none" xmlns="http://www.w3.org/2000/svg">
<path d="M14.3359 3.92725C13.2309 3.92725 12.3359 4.82225 12.3359 5.92725H4.33594C3.23094 5.92725 2.33594 6.82225 2.33594 7.92725V16.9272C2.33594 18.0322 3.23094 18.9272 4.33594 18.9272H26.3359C27.4409 18.9272 28.3359 18.0322 28.3359 16.9272V7.92725C28.3359 6.82225 27.4409 5.92725 26.3359 5.92725H18.3359C18.3359 4.82225 17.4409 3.92725 16.3359 3.92725H14.3359ZM7.33594 13.9272C7.88794 13.9272 8.33594 14.3752 8.33594 14.9272V15.9272C8.33594 16.4792 7.88794 16.9272 7.33594 16.9272C6.78394 16.9272 6.33594 16.4792 6.33594 15.9272V14.9272C6.33594 14.3752 6.78394 13.9272 7.33594 13.9272ZM23.3359 13.9272C23.8879 13.9272 24.3359 14.3752 24.3359 14.9272V15.9272C24.3359 16.4792 23.8879 16.9272 23.3359 16.9272C22.7839 16.9272 22.3359 16.4792 22.3359 15.9272V14.9272C22.3359 14.3752 22.7839 13.9272 23.3359 13.9272ZM2.33594 20.3706V23.9272C2.33594 25.0322 3.23094 25.9272 4.33594 25.9272H26.3359C27.4409 25.9272 28.3359 25.0322 28.3359 23.9272V20.3706C27.7449 20.7146 27.0679 20.9272 26.3359 20.9272H4.33594C3.60394 20.9272 2.92694 20.7146 2.33594 20.3706Z" fill="#FF9900"/>
</svg>
