<svg width="31" height="31" viewBox="0 0 31 31" fill="none" xmlns="http://www.w3.org/2000/svg">
<path d="M9.33642 5.92725C6.57542 5.92725 4.33642 8.16625 4.33642 10.9272V11.9272C4.33642 14.6882 6.57542 16.9272 9.33642 16.9272C12.0974 16.9272 14.3364 14.6882 14.3364 11.9272V10.9272C14.3364 8.16625 12.0974 5.92725 9.33642 5.92725ZM21.3364 5.92725C18.5754 5.92725 16.3364 8.16625 16.3364 10.9272V11.9272C16.3364 14.6882 18.5754 16.9272 21.3364 16.9272C24.0974 16.9272 26.3364 14.6882 26.3364 11.9272V10.9272C26.3364 8.16625 24.0974 5.92725 21.3364 5.92725ZM9.33642 7.92725C10.9904 7.92725 12.3364 9.27325 12.3364 10.9272V11.9272C12.3364 13.5812 10.9904 14.9272 9.33642 14.9272C7.68242 14.9272 6.33642 13.5812 6.33642 11.9272V10.9272C6.33642 9.27325 7.68242 7.92725 9.33642 7.92725ZM9.33447 18.9272C6.05647 18.9272 1.85111 20.8013 0.641108 22.8413C-0.105892 24.1013 0.605514 25.9272 1.83251 25.9272H13.8325H16.8403H28.8403C30.0673 25.9272 30.7778 24.1013 30.0298 22.8413C28.8198 20.8013 24.6125 18.9272 21.3345 18.9272C19.3834 18.9272 17.1148 19.5975 15.3345 20.5659C13.5531 19.5989 11.2847 18.9272 9.33447 18.9272ZM9.33447 20.9272C12.1045 20.9272 15.544 22.5678 16.311 23.8608C16.322 23.8788 16.3266 23.9022 16.3306 23.9272H2.34033C2.34433 23.9022 2.35181 23.8788 2.36181 23.8608C3.12981 22.5678 6.56547 20.9272 9.33447 20.9272Z" fill="#FF6671"/>
</svg>
