<svg width="31" height="31" viewBox="0 0 31 31" fill="none" xmlns="http://www.w3.org/2000/svg">
<path d="M15.6278 4.72559C11.739 4.72559 10.1274 7.22004 10.1274 10.226C10.1274 11.2381 10.6108 12.2547 10.6108 12.2547C10.4165 12.3665 10.0969 12.7215 10.1775 13.3523C10.3279 14.5284 10.8378 14.828 11.1623 14.8527C11.2861 15.9501 12.4651 17.3537 12.8776 17.5582V19.3917C12.8756 19.3977 12.8707 19.4018 12.8687 19.4078C12.5655 19.4454 12.295 19.6243 12.1578 19.902L11.8714 20.4785C9.60879 21.7472 4.62695 21.4326 4.62695 26.7256H14.0737L15.1695 23.1356L14.1256 21.2251H15.6046H17.1301L16.0862 23.1356L17.182 26.7256H26.6287C26.6287 21.4326 21.6469 21.7472 19.3843 20.4785L19.0979 19.902C18.9607 19.6243 18.6902 19.4454 18.387 19.4078C18.385 19.4018 18.3801 19.3977 18.3781 19.3917V17.5582C18.7906 17.3537 19.9696 15.9501 20.0934 14.8527C20.4179 14.828 20.9278 14.5284 21.0782 13.3523C21.1588 12.7206 20.8392 12.3665 20.6449 12.2547C20.6449 12.2547 21.1283 11.3362 21.1283 10.226C21.1283 8.00019 20.2546 6.1007 18.3781 6.1007C18.3781 6.1007 17.7263 4.72559 15.6278 4.72559Z" fill="#1D344B"/>
</svg>
