<svg width="31" height="31" viewBox="0 0 31 31" fill="none" xmlns="http://www.w3.org/2000/svg">
<path d="M29.146 16.1401H18.126C17.576 16.1401 17.126 16.5901 17.126 17.1401V25.1501C17.126 25.7001 17.576 26.1501 18.126 26.1501H29.146C29.696 26.1501 30.146 25.7001 30.146 25.1501V17.1401C30.146 16.5901 29.696 16.1401 29.146 16.1401ZM20.176 25.1501C20.456 23.6101 22.056 23.8201 22.636 23.2401V22.1701C22.456 21.9701 22.206 21.6201 22.176 21.3301C22.056 21.3301 21.876 21.2101 21.816 20.7801C21.786 20.5501 21.906 20.4201 21.976 20.3801C21.976 20.3801 21.796 20.0101 21.796 19.6401C21.796 18.5501 22.466 17.6401 23.636 17.6401C24.346 17.6401 24.466 18.1401 24.466 18.1401C25.146 18.1401 25.466 18.8301 25.466 19.6401C25.466 20.0401 25.286 20.3801 25.286 20.3801C25.356 20.4201 25.476 20.5501 25.446 20.7801C25.396 21.2101 25.206 21.3201 25.086 21.3301C25.056 21.6201 24.816 21.9801 24.626 22.1701V23.2401C25.196 23.8201 26.796 23.6101 27.086 25.1501H20.166H20.176Z" fill="#C44EFF"/>
<path d="M6.75594 20.8303C7.23594 18.2203 9.94594 18.5703 10.9159 17.5903V15.7803C10.6059 15.4503 10.1959 14.8503 10.1359 14.3503C9.93594 14.3303 9.62594 14.1503 9.52594 13.4303C9.47594 13.0403 9.67594 12.8203 9.79594 12.7503C9.79594 12.7503 9.49594 12.1203 9.49594 11.5003C9.49594 9.65031 10.6359 8.11031 12.6059 8.11031C13.8059 8.11031 14.0159 8.96031 14.0159 8.96031C15.1759 8.96031 15.7159 10.1303 15.7159 11.5003C15.7159 12.1803 15.4159 12.7503 15.4159 12.7503C15.5359 12.8203 15.7359 13.0403 15.6859 13.4303C15.5959 14.1603 15.2759 14.3403 15.0759 14.3503C15.0159 14.8503 14.6159 15.4403 14.2959 15.7803V17.5903C14.6159 17.9203 15.1359 18.0903 15.7059 18.2803V17.1303C15.7059 15.8003 16.7859 14.7203 18.1159 14.7203H23.6259V7.27031C23.6259 6.33031 22.8659 5.57031 21.9259 5.57031H3.28594C2.34594 5.57031 1.58594 6.33031 1.58594 7.27031V20.8303C1.58594 21.7703 2.34594 22.5303 3.28594 22.5303H15.7159V20.8303H6.75594Z" fill="#C44EFF"/>
</svg>
