<svg width="26" height="23" viewBox="0 0 26 23" fill="none" xmlns="http://www.w3.org/2000/svg">
<path d="M7.79346 5.62978C9.61233 2.47941 10.5218 0.90423 11.7091 0.375603C12.7447 -0.0854881 13.9273 -0.0854881 14.963 0.375603C16.1503 0.90423 17.0597 2.47941 18.8786 5.62979L23.3565 13.3858C25.1754 16.5362 26.0848 18.1114 25.949 19.4039C25.8305 20.5314 25.2392 21.5555 24.322 22.2219C23.2706 22.9858 21.4517 22.9858 17.814 22.9858H8.85807C5.22034 22.9858 3.40147 22.9858 2.35001 22.2219C1.43288 21.5555 0.841563 20.5314 0.723065 19.4039C0.587212 18.1114 1.49665 16.5362 3.31551 13.3858L7.79346 5.62978Z" fill="white"/>
</svg>
