<svg width="31" height="31" viewBox="0 0 31 31" fill="none" xmlns="http://www.w3.org/2000/svg">
<path d="M11.8662 4.86523C10.8053 4.86523 9.78793 5.28666 9.03778 6.03681C8.28764 6.78695 7.86621 7.80437 7.86621 8.86523C7.86621 9.9261 8.28764 10.9435 9.03778 11.6937C9.78793 12.4438 10.8053 12.8652 11.8662 12.8652C12.9271 12.8652 13.9445 12.4438 14.6946 11.6937C15.4448 10.9435 15.8662 9.9261 15.8662 8.86523C15.8662 7.80437 15.4448 6.78695 14.6946 6.03681C13.9445 5.28666 12.9271 4.86523 11.8662 4.86523ZM21.8662 12.8652C21.0706 12.8652 20.3075 13.1813 19.7449 13.7439C19.1823 14.3065 18.8662 15.0696 18.8662 15.8652C18.8662 16.6609 19.1823 17.4239 19.7449 17.9866C20.3075 18.5492 21.0706 18.8652 21.8662 18.8652C22.6619 18.8652 23.4249 18.5492 23.9875 17.9866C24.5501 17.4239 24.8662 16.6609 24.8662 15.8652C24.8662 15.0696 24.5501 14.3065 23.9875 13.7439C23.4249 13.1813 22.6619 12.8652 21.8662 12.8652ZM11.8662 14.8652C8.00021 14.8652 4.86621 17.9992 4.86621 21.8652V26.8652H14.8662V25.8652C14.8662 23.2152 16.3533 20.9146 18.5303 19.7266C18.5013 19.6346 18.4637 19.5461 18.4307 19.4551C17.7827 18.8381 17.2978 18.0568 17.0518 17.1738C15.7718 15.7598 13.9252 14.8652 11.8662 14.8652ZM21.8662 20.8652C19.1052 20.8652 16.8662 23.1042 16.8662 25.8652V26.8652H26.8662V25.8652C26.8662 23.1042 24.6272 20.8652 21.8662 20.8652Z" fill="#C44EFF"/>
</svg>
