<svg width="30" height="31" viewBox="0 0 30 31" fill="none" xmlns="http://www.w3.org/2000/svg">
<path d="M8 3.58569C6.343 3.58569 5 4.92869 5 6.58569V24.5857C5.00002 24.7175 5.02609 24.8479 5.0767 24.9696C5.12732 25.0913 5.20148 25.2018 5.29492 25.2947C5.64776 26.5587 6.63036 27.5857 8 27.5857H24C24.1325 27.5876 24.2641 27.5631 24.387 27.5137C24.51 27.4643 24.6219 27.3909 24.7163 27.2979C24.8107 27.2048 24.8856 27.0939 24.9368 26.9717C24.9879 26.8494 25.0142 26.7182 25.0142 26.5857C25.0142 26.4532 24.9879 26.322 24.9368 26.1997C24.8856 26.0774 24.8107 25.9666 24.7163 25.8735C24.6219 25.7805 24.51 25.7071 24.387 25.6577C24.2641 25.6083 24.1325 25.5838 24 25.5857H8C7.43497 25.5857 7 25.1507 7 24.5857C7 24.0207 7.43497 23.5857 8 23.5857H23C24.105 23.5857 25 22.6907 25 21.5857V5.58569C25 4.48069 24.105 3.58569 23 3.58569H8ZM12 9.58569H19C19.552 9.58569 20 10.0337 20 10.5857C20 11.1377 19.552 11.5857 19 11.5857H12C11.448 11.5857 11 11.1377 11 10.5857C11 10.0337 11.448 9.58569 12 9.58569Z" fill="#1D344B"/>
</svg>
