<svg width="31" height="31" viewBox="0 0 31 31" fill="none" xmlns="http://www.w3.org/2000/svg">
<path d="M6.86666 3.36523C6.07104 3.36523 5.308 3.68129 4.74541 4.24389C4.18282 4.80648 3.86676 5.56951 3.86676 6.36514C3.86676 7.16076 4.18282 7.9238 4.74541 8.48639C5.308 9.04898 6.07104 9.36504 6.86666 9.36504C7.66229 9.36504 8.42532 9.04898 8.98792 8.48639C9.55051 7.9238 9.86657 7.16076 9.86657 6.36514C9.86657 5.56951 9.55051 4.80648 8.98792 4.24389C8.42532 3.68129 7.66229 3.36523 6.86666 3.36523ZM22.8661 3.36523C22.0705 3.36523 21.3075 3.68129 20.7449 4.24389C20.1823 4.80648 19.8662 5.56951 19.8662 6.36514C19.8662 7.16076 20.1823 7.9238 20.7449 8.48639C21.3075 9.04898 22.0705 9.36504 22.8661 9.36504C23.6618 9.36504 24.4248 9.04898 24.9874 8.48639C25.55 7.9238 25.8661 7.16076 25.8661 6.36514C25.8661 5.56951 25.55 4.80648 24.9874 4.24389C24.4248 3.68129 23.6618 3.36523 22.8661 3.36523ZM25.868 7.36706C25.868 7.36706 25.791 8.78611 26.618 9.61308C27.445 10.4401 28.864 10.3631 28.864 10.3631C28.864 10.3631 28.941 8.94401 28.114 8.11703C27.2871 7.29006 25.868 7.36706 25.868 7.36706ZM5.86669 11.365C4.22178 11.365 2.86679 12.72 2.86679 14.3649V20.3647C2.86499 20.4971 2.88953 20.6286 2.93898 20.7515C2.98842 20.8744 3.06179 20.9863 3.15483 21.0806C3.24786 21.1749 3.3587 21.2498 3.48092 21.3009C3.60313 21.352 3.73429 21.3783 3.86676 21.3783V27.3313C3.86676 27.9012 4.32995 28.3644 4.89993 28.3644C5.44391 28.3644 5.89515 27.9426 5.93115 27.3996L6.36863 20.8295C6.38663 20.5685 6.60367 20.3647 6.86666 20.3647C7.12965 20.3647 7.34669 20.5695 7.36469 20.8315L7.80218 27.3996C7.83818 27.9416 8.28941 28.3644 8.8334 28.3644C9.40338 28.3644 9.86657 27.9012 9.86657 27.3313V21.5443C9.89666 21.7234 9.97492 21.8908 10.093 22.0287C10.211 22.1667 10.3643 22.2699 10.5365 22.3273C10.7088 22.3847 10.8934 22.3941 11.0705 22.3546C11.2477 22.3151 11.4108 22.2281 11.5423 22.1029C11.5529 22.0927 11.5634 22.0823 11.5735 22.0717L12.2923 21.3549L11.8685 27.2942C11.8592 27.4252 11.8758 27.5569 11.9174 27.6815C11.959 27.8062 12.0248 27.9214 12.1109 28.0206C12.1971 28.1199 12.3019 28.2011 12.4195 28.2599C12.5371 28.3186 12.6651 28.3535 12.7961 28.3628C12.9272 28.372 13.0588 28.3553 13.1835 28.3137C13.3081 28.272 13.4233 28.2062 13.5225 28.1201C13.6218 28.0339 13.703 27.929 13.7617 27.8114C13.8204 27.6939 13.8553 27.5659 13.8645 27.4348L13.8703 27.3625L14.2551 24.6575C14.3561 23.9495 15.3787 23.9495 15.4797 24.6575L15.8605 27.3352L15.8683 27.4348C15.8775 27.5659 15.9125 27.6939 15.9711 27.8114C16.0298 27.929 16.1111 28.0339 16.2103 28.1201C16.3095 28.2062 16.4247 28.272 16.5493 28.3137C16.674 28.3553 16.8056 28.372 16.9367 28.3628C17.0678 28.3535 17.1957 28.3186 17.3133 28.2599C17.4309 28.2011 17.5357 28.1199 17.6219 28.0206C17.708 27.9214 17.7738 27.8062 17.8154 27.6815C17.857 27.5569 17.8736 27.4252 17.8644 27.2942L17.4405 21.3529L18.1397 22.0521C18.1449 22.0581 18.1501 22.0639 18.1554 22.0697L18.1593 22.0717C18.1688 22.0816 18.1786 22.0914 18.1886 22.101C18.3201 22.2267 18.4835 22.3141 18.6611 22.3539C18.8387 22.3936 19.0238 22.3841 19.1964 22.3264C19.369 22.2688 19.5226 22.1651 19.6406 22.0266C19.7587 21.8881 19.8367 21.72 19.8662 21.5404V22.3646V27.3313C19.8662 27.9012 20.3294 28.3644 20.8994 28.3644C21.4434 28.3644 21.8946 27.9426 21.9306 27.3996L22.2666 22.3646H23.4657L23.8017 27.3996C23.8377 27.9416 24.2889 28.3644 24.8329 28.3644C25.4029 28.3644 25.8661 27.9012 25.8661 27.3313V22.3646H26.866C27.0158 22.3646 27.1636 22.331 27.2986 22.2662C27.4336 22.2015 27.5523 22.1072 27.6461 21.9904C27.7398 21.8736 27.8061 21.7373 27.8401 21.5915C27.8741 21.4457 27.875 21.2941 27.8426 21.1479L26.2742 14.0993C26.0783 13.2188 25.5289 12.5379 24.8075 12.0935C24.318 11.6747 23.6972 11.4119 23.0107 11.3786C22.9629 11.3706 22.9146 11.366 22.8661 11.365C21.2362 11.365 19.8124 12.5073 19.4581 14.0993L18.2706 19.4331C17.3687 18.7481 16.2656 18.3648 15.1203 18.3648H14.6125C13.5435 18.3648 12.5105 18.6967 11.6439 19.2983L11.0579 14.0329C10.8894 12.5221 9.59766 11.365 8.07756 11.365H5.86669ZM14.8664 13.3649C14.336 13.3649 13.8273 13.5756 13.4522 13.9507C13.0772 14.3257 12.8665 14.8344 12.8665 15.3648C12.8665 15.8953 13.0772 16.404 13.4522 16.779C13.8273 17.1541 14.336 17.3648 14.8664 17.3648C15.3968 17.3648 15.9055 17.1541 16.2806 16.779C16.6556 16.404 16.8663 15.8953 16.8663 15.3648C16.8663 14.8344 16.6556 14.3257 16.2806 13.9507C15.9055 13.5756 15.3968 13.3649 14.8664 13.3649Z" fill="#C44EFF"/>
</svg>
