<svg width="30" height="31" viewBox="0 0 30 31" fill="none" xmlns="http://www.w3.org/2000/svg">
<path d="M12 3.5857C11.9184 3.58554 11.837 3.59538 11.7578 3.61499L3.75781 5.61499C3.54131 5.66905 3.3491 5.79397 3.21178 5.96987C3.07446 6.14577 2.99991 6.36254 3 6.5857V10.5857C3.00003 10.8509 3.10539 11.1052 3.29292 11.2928C3.48045 11.4803 3.73479 11.5857 4 11.5857H7V26.5857C7.00003 26.8509 7.10539 27.1052 7.29292 27.2928C7.48045 27.4803 7.73479 27.5857 8 27.5857H22C22.2652 27.5857 22.5195 27.4803 22.7071 27.2928C22.8946 27.1052 23 26.8509 23 26.5857V11.5857H26C26.2652 11.5857 26.5195 11.4803 26.7071 11.2928C26.8946 11.1052 27 10.8509 27 10.5857V6.5857C27.0001 6.36254 26.9255 6.14577 26.7882 5.96987C26.6509 5.79397 26.4587 5.66905 26.2422 5.61499L18.2422 3.61499C18.163 3.59538 18.0816 3.58554 18 3.5857H12ZM12.1621 5.5857H17.8379C17.5733 6.77005 16.8727 8.5857 15 8.5857C13.1273 8.5857 12.4267 6.77005 12.1621 5.5857Z" fill="#1D344B"/>
</svg>
