<svg width="31" height="31" viewBox="0 0 31 31" fill="none" xmlns="http://www.w3.org/2000/svg">
<g clip-path="url(#clip0_7120_994)">
<path d="M2.33594 24.9272H19.3359C20.4359 24.9272 21.3359 24.0272 21.3359 22.9272V8.92725C21.3359 7.82725 20.4359 6.92725 19.3359 6.92725H2.33594C1.23594 6.92725 0.335938 7.82725 0.335938 8.92725V22.9272C0.335938 24.0272 1.23594 24.9272 2.33594 24.9272ZM10.8359 12.9272C12.4959 12.9272 13.8359 14.2672 13.8359 15.9272C13.8359 17.5872 12.4959 18.9272 10.8359 18.9272C9.17594 18.9272 7.83594 17.5872 7.83594 15.9272C7.83594 14.2672 9.17594 12.9272 10.8359 12.9272ZM29.3359 8.92725C29.0839 8.92725 28.8609 9.02825 28.6849 9.18225L28.6749 9.17725L23.3359 13.9272V15.9272V17.9272L28.6749 22.6772L28.6859 22.6722C28.8609 22.8262 29.0839 22.9272 29.3359 22.9272C29.8879 22.9272 30.3359 22.4792 30.3359 21.9272V15.9272V9.92725C30.3359 9.37525 29.8879 8.92725 29.3359 8.92725Z" fill="#2962FF"/>
</g>
<defs>
<clipPath id="clip0_7120_994">
<rect width="30" height="30" fill="white" transform="translate(0.335938 0.927246)"/>
</clipPath>
</defs>
</svg>
