<svg width="31" height="31" viewBox="0 0 31 31" fill="none" xmlns="http://www.w3.org/2000/svg">
<path d="M25.3349 9.51859L18.8349 3.01859C18.6469 2.83059 18.3929 2.72559 18.1279 2.72559H7.62793C6.52293 2.72559 5.62793 3.62059 5.62793 4.72559V26.7256C5.62793 27.8306 6.52293 28.7256 7.62793 28.7256H23.6279C24.7329 28.7256 25.6279 27.8306 25.6279 26.7256V10.2256C25.6279 9.96059 25.5229 9.70659 25.3349 9.51859ZM22.3349 17.4326L18.3349 21.4326C18.1399 21.6276 17.8839 21.7256 17.6279 21.7256C17.3719 21.7256 17.1159 21.6276 16.9209 21.4326L13.6279 18.1396L10.3349 21.4326C9.94393 21.8236 9.31193 21.8236 8.92093 21.4326C8.52993 21.0416 8.52993 20.4096 8.92093 20.0186L12.9209 16.0186C13.3119 15.6276 13.9439 15.6276 14.3349 16.0186L17.6279 19.3116L20.9209 16.0186C21.3119 15.6276 21.9439 15.6276 22.3349 16.0186C22.7259 16.4096 22.7259 17.0416 22.3349 17.4326ZM18.6279 10.7256C18.0759 10.7256 17.6279 10.2776 17.6279 9.72559V4.62959L23.7239 10.7256H18.6279Z" fill="#1D344B"/>
</svg>
