<svg width="31" height="31" viewBox="0 0 31 31" fill="none" xmlns="http://www.w3.org/2000/svg">
<path d="M7.63737 4.92725C6.79954 4.92725 6.16927 5.84391 6.16927 5.84391C1.37052 5.84391 4.01807 13.5035 2.60824 14.6328C2.60824 14.6328 3.47244 15.7017 6.16927 15.7017V16.6165C5.42402 18.558 1.58594 17.8403 1.58594 21.4272H8.94076C9.58609 21.0367 11.6693 19.9538 11.6693 19.9538C11.1715 19.4221 10.4535 18.5029 10.1922 17.8071C9.62022 17.5202 9.13652 17.183 8.91927 16.6165V15.6909C9.09344 15.6909 9.60701 15.6507 9.7876 15.6104C9.37876 14.9806 9.03385 13.5452 9.03385 12.7404C9.03385 10.6935 9.91536 9.00984 11.3774 7.95475C10.9365 6.26717 9.95745 4.92725 7.63737 4.92725ZM22.6693 4.92725C20.6315 4.92725 19.3803 6.32902 19.0778 8.16602C20.5591 8.95985 21.5234 10.6713 21.5234 12.8263C21.5234 13.5001 21.3663 14.1484 21.1958 14.6507C21.2591 14.8991 21.2943 15.1762 21.2943 15.4832C21.2943 17.7474 19.0026 20.0057 19.0026 20.0057C19.5004 20.2229 21.0928 21.0322 21.7437 21.4272H29.0859C29.0859 16.6147 25.1782 17.9897 24.5026 15.9272V14.5522C24.8069 14.3992 25.5317 13.3451 25.6234 12.522C25.8617 12.5036 26.3359 11.921 26.3359 11.3994C26.3359 10.8778 26.1701 10.6584 26.0262 10.5741C26.0262 10.5741 26.3359 9.8855 26.3359 9.05225C26.3359 7.383 25.8849 5.84391 24.5026 5.84391C24.5026 5.84391 24.1057 4.92725 22.6693 4.92725ZM15.3359 8.59391C12.8683 8.59391 10.8672 10.0802 10.8672 12.7404C10.8672 13.8651 11.4974 14.742 11.4974 14.742C11.4974 14.742 11.2109 14.8828 11.2109 15.4832C11.2109 16.6502 11.9611 16.9299 11.9611 16.9299C12.0656 17.8539 13.5026 19.2072 13.5026 19.2072V20.7523C12.7308 23.0678 8.0026 21.5418 8.0026 26.9272H22.6693C22.6693 21.5235 17.9411 23.0678 17.1693 20.7523V19.2072C17.1693 19.2072 18.6063 17.8539 18.7108 16.9299C18.7108 16.9299 19.4609 16.4118 19.4609 15.4832C19.4609 14.8397 19.1745 14.742 19.1745 14.742C19.1745 14.742 19.6901 13.7613 19.6901 12.8263C19.6901 10.9518 18.7496 9.51058 17.1693 9.51058C17.1693 9.51058 16.4983 8.59391 15.3359 8.59391Z" fill="#7EDB08"/>
</svg>
