<svg width="31" height="31" viewBox="0 0 31 31" fill="none" xmlns="http://www.w3.org/2000/svg">
<path d="M4.62793 2.72559C4.07593 2.72559 3.62793 3.17359 3.62793 3.72559V24.7256C3.62793 26.9346 5.41893 28.7256 7.62793 28.7256H22.6279H23.6279H24.6279C26.8369 28.7256 28.6279 26.9346 28.6279 24.7256V10.7256C28.6279 10.1736 28.1799 9.72559 27.6279 9.72559H25.6279V24.7256C25.6279 25.2786 25.1799 25.7256 24.6279 25.7256C24.0759 25.7256 23.6279 25.2786 23.6279 24.7256V3.72559C23.6279 3.17359 23.1799 2.72559 22.6279 2.72559H4.62793ZM6.62793 6.72559H20.6279V9.72559H6.62793V6.72559ZM6.62793 13.7256H12.6279V15.7256H6.62793V13.7256ZM14.6279 13.7256H20.6279V15.7256H14.6279V13.7256ZM6.62793 17.7256H12.6279V19.7256H6.62793V17.7256ZM14.6279 17.7256H20.6279V19.7256H14.6279V17.7256ZM6.62793 21.7256H12.6279V23.7256H6.62793V21.7256ZM14.6279 21.7256H20.6279V23.7256H14.6279V21.7256Z" fill="#1D344B"/>
</svg>
