<svg width="31" height="31" viewBox="0 0 31 31" fill="none" xmlns="http://www.w3.org/2000/svg">
<path d="M10.7598 3.42725C10.2071 3.42732 9.67704 3.64694 9.28625 4.03778C8.89546 4.42863 8.67592 4.95869 8.67592 5.51139C8.67592 6.06409 8.89546 6.59416 9.28625 6.985C9.67704 7.37585 10.2071 7.59546 10.7598 7.59554C11.3125 7.59546 11.8425 7.37585 12.2333 6.985C12.6241 6.59416 12.8436 6.06409 12.8436 5.51139C12.8436 4.95869 12.6241 4.42863 12.2333 4.03778C11.8425 3.64694 11.3125 3.42732 10.7598 3.42725ZM7.91035 7.59066C7.80198 7.58232 7.69145 7.59476 7.58308 7.62811L5.0821 8.46176C4.90703 8.52012 4.75717 8.63716 4.65713 8.79555L2.98981 11.2965C2.73138 11.68 2.84079 12.196 3.22428 12.4461C3.59942 12.7045 4.11538 12.5967 4.37382 12.2132L5.88319 9.95323L7.62541 9.37846C7.15023 11.1625 6.21698 14.2467 6.21698 14.255V14.2648C6.19197 14.3982 6.17465 14.5399 6.17465 14.6816C6.17465 15.3236 6.47509 15.889 6.92527 16.2724L6.93341 16.2903L10.1769 18.8499L11.118 23.1762L11.201 23.593C11.2761 23.9765 11.6182 24.259 12.0184 24.259C12.4769 24.259 12.8521 23.8838 12.8521 23.4253C12.8521 23.3669 12.8441 23.3176 12.8358 23.2592V23.2511L11.994 18.2654C11.969 18.157 11.9272 18.0496 11.8605 17.9495L10.3006 15.0985V15.0724L11.2857 11.7378L12.1601 13.0469C12.2142 13.1086 12.2687 13.1692 12.3229 13.2309L13.8355 14.5563C13.7188 14.7147 13.6605 14.9224 13.6939 15.1392C13.7606 15.4977 14.0695 15.7644 14.4363 15.7644L16.8445 15.5935L17.1783 15.5479L19.5213 15.0887L21.1887 18.4233L18.5623 19.2668C18.5373 19.2751 18.5043 19.2829 18.4793 19.2912L18.4711 19.2993C18.3461 19.3494 18.237 19.4319 18.1536 19.5403L14.7359 23.3846C14.5275 23.6514 14.5279 24.0101 14.7197 24.2769C14.653 24.2685 14.594 24.2687 14.5357 24.2687H3.67367C3.21516 24.2604 2.83207 24.626 2.82373 25.0845C2.82373 25.543 3.19074 25.9277 3.64925 25.936H14.5112C14.7197 25.936 15.3526 25.9689 15.9278 26.3024C16.3746 26.5558 16.7878 26.9951 16.9487 27.7271C17.0371 28.1264 17.3616 28.4272 17.771 28.4272H17.7791C18.2851 28.4272 18.6972 27.9757 18.6046 27.478C18.2862 25.7665 17.1111 24.8948 15.9832 24.513C15.9657 24.4196 15.9632 24.4028 15.9457 24.3094L19.2885 21.5675L22.5222 20.8755L25.3407 20.216L25.466 19.6575C25.5744 19.2324 25.5237 18.7985 25.3569 18.4233L23.0725 13.8561L25.3569 14.255L26.3909 15.8149C26.3992 15.8399 26.4084 15.8487 26.4251 15.8654C26.7502 16.1822 27.2822 16.1822 27.599 15.8654C27.9325 15.5319 27.9256 15.0068 27.6088 14.6816L26.3909 12.8808C26.2658 12.6974 26.0656 12.5641 25.8405 12.5307L22.5824 11.8713C22.2173 11.7971 21.8396 11.8462 21.5062 12.013L18.6877 13.4214L15.7959 14.0564L13.4854 12.0292L11.8767 9.62921C11.8017 9.50416 11.6859 9.40426 11.5609 9.3459L8.22623 7.67858C8.12619 7.62856 8.01873 7.59899 7.91035 7.59066ZM19.2087 7.59066C18.2402 7.54135 17.3395 8.17523 17.0871 9.15051C16.8003 10.2643 17.4689 11.4005 18.5835 11.6889C19.6981 11.9766 20.8359 11.3072 21.1235 10.1926C21.4111 9.07798 20.741 7.94177 19.6255 7.65416C19.4861 7.61821 19.3471 7.5977 19.2087 7.59066ZM6.14208 17.365L5.70734 18.7832L4.00746 22.8929L3.9407 23.0003L3.91628 23.0508L3.90651 23.0589C3.85649 23.1757 3.82347 23.3002 3.82347 23.4253C3.82347 23.8838 4.19862 24.259 4.65713 24.259C4.9239 24.259 5.17445 24.1338 5.33285 23.917L5.34913 23.8926L7.96734 18.8581L6.14208 17.365ZM24.9401 22.0169L22.5645 22.5835L22.5808 23.4595C22.5725 23.5262 22.5806 23.601 22.5889 23.676V23.7005L22.5971 23.7086C22.6221 23.817 22.6639 23.9183 22.7306 24.0017L25.3651 28.1114C25.6235 28.4532 26.0997 28.5194 26.4332 28.2693C26.775 28.0109 26.8412 27.5363 26.5912 27.2028L26.4739 27.053L24.6731 23.2348L24.9401 22.0169Z" fill="#00C63F"/>
</svg>
