<svg width="31" height="31" viewBox="0 0 31 31" fill="none" xmlns="http://www.w3.org/2000/svg">
<path d="M15.6279 3.72559C8.44793 3.72559 2.62793 8.65059 2.62793 14.7256C2.62793 18.0936 4.42126 21.1041 7.23926 23.1221C7.31121 24.6581 7.07321 26.779 4.9541 27.7568L4.9502 27.7588C4.85552 27.7948 4.77401 27.8587 4.71646 27.9421C4.65891 28.0254 4.62804 28.1243 4.62793 28.2256C4.62793 28.3582 4.68061 28.4854 4.77438 28.5791C4.86814 28.6729 4.99532 28.7256 5.12793 28.7256C5.14227 28.7256 5.15661 28.7249 5.1709 28.7236C7.60492 28.708 9.6712 27.3926 11.0967 26.0029C11.5487 25.5619 12.1788 25.3449 12.7998 25.4619C13.7098 25.6349 14.6559 25.7256 15.6279 25.7256C22.8079 25.7256 28.6279 20.8006 28.6279 14.7256C28.6279 8.65059 22.8079 3.72559 15.6279 3.72559ZM15.6279 7.72559C17.8339 7.72559 19.6279 9.51959 19.6279 11.7256C19.6279 13.4406 18.5573 14.4296 17.6963 15.2256C17.0343 15.8366 16.6279 16.2376 16.6279 16.7256H14.6279C14.6279 15.3366 15.5769 14.4599 16.3389 13.7549C17.1379 13.0169 17.6279 12.5246 17.6279 11.7256C17.6279 10.6226 16.7309 9.72559 15.6279 9.72559C14.5249 9.72559 13.6279 10.6226 13.6279 11.7256H11.6279C11.6279 9.51959 13.4219 7.72559 15.6279 7.72559ZM15.6279 19.2256C16.4559 19.2256 17.1279 19.8976 17.1279 20.7256C17.1279 21.5536 16.4559 22.2256 15.6279 22.2256C14.7999 22.2256 14.1279 21.5536 14.1279 20.7256C14.1279 19.8976 14.7999 19.2256 15.6279 19.2256Z" fill="#1D344B"/>
</svg>
