<svg width="42" height="33" viewBox="0 0 42 33" fill="none" xmlns="http://www.w3.org/2000/svg">
<path d="M21.3182 8.48145C17.7857 8.48293 14.3958 9.90548 11.8808 12.4417C9.36583 14.9779 7.92787 18.424 7.87769 22.0354H13.0363C13.0767 19.8163 13.9668 17.7019 15.5154 16.1466C17.0639 14.5912 19.1474 13.719 21.3182 13.7172C23.4893 13.7183 25.5734 14.5903 27.1225 16.1457C28.6716 17.7011 29.562 19.8158 29.6025 22.0354H34.756C34.7058 18.4245 33.2682 14.9787 30.7538 12.4426C28.2394 9.90651 24.8501 8.48364 21.3182 8.48145Z" fill="#1D344B"/>
<path d="M21.3187 1.59375C15.9999 1.59536 10.8967 3.74351 7.11855 7.57122C3.34038 11.3989 1.19265 16.5967 1.14227 22.0347H6.39784C6.44807 18.0217 8.04192 14.1902 10.8344 11.3698C13.6269 8.54927 17.3934 6.96663 21.3187 6.96438C25.2445 6.96584 29.0117 8.54813 31.8049 11.3687C34.598 14.1893 36.1923 18.0211 36.2425 22.0347H41.4925C41.4421 16.5972 39.2947 11.3998 35.5171 7.57218C31.7395 3.74454 26.637 1.59607 21.3187 1.59375Z" fill="#1D344B"/>
<path d="M21.3186 15.2871C19.555 15.2887 17.8621 15.9955 16.6014 17.2564C15.3408 18.5174 14.6125 20.2324 14.5722 22.035H28.0673C28.027 20.232 27.2983 18.5166 26.0372 17.2556C24.7761 15.9946 23.0825 15.2881 21.3186 15.2871Z" fill="#1D344B"/>
<path d="M1.13327 23.8555V25.725H3.31737V31.8354H5.4497V25.725H7.63379V23.8555H1.13327Z" fill="#1D344B"/>
<path d="M28.6874 23.8555L25.6971 31.8064H28.049L28.4218 30.7089H31.5234L31.8962 31.8064H34.2481L31.2578 23.8555C30.401 23.8555 29.5442 23.8555 28.6874 23.8555ZM29.9726 26.1429L30.9036 28.8842H29.0415L29.9726 26.1429Z" fill="#1D344B"/>
<path d="M33.381 23.8555L36.4247 28.6358V31.8063H38.4717V28.6358L41.5006 23.8555H39.1651L37.4512 26.7536L35.7372 23.8555L33.381 23.8555Z" fill="#1D344B"/>
<path d="M17.9017 23.874V31.8147H21.4233C26.6135 31.8944 27.2794 23.9605 21.4233 23.874H17.9017ZM20.0238 25.7141H21.5557C24.1642 25.7141 23.8488 29.9955 21.5557 29.9955H20.0238V25.7141Z" fill="#1D344B"/>
<path d="M12.403 23.7471C9.66874 23.7471 8.16412 25.5808 8.16412 27.8428C8.16412 30.1049 9.83418 31.9956 12.4443 31.9956C15.0337 31.9956 16.6418 30.1049 16.6418 27.8428C16.6418 25.5808 15.0337 23.7471 12.403 23.7471ZM12.4322 25.6135C13.7481 25.6135 14.5525 26.6173 14.5525 27.8557C14.5525 29.0941 13.7481 30.1292 12.4529 30.1292C11.1474 30.1292 10.3121 29.0941 10.3121 27.8557C10.3121 26.6173 11.0646 25.6135 12.4322 25.6135Z" fill="#1D344B"/>
</svg>
