<svg width="75" height="33" viewBox="0 0 75 33" fill="none" xmlns="http://www.w3.org/2000/svg">
<path d="M31.3803 3.29492C31.3758 3.35484 31.3666 3.41475 31.3666 3.47928C31.3666 5.36893 31.3666 7.25859 31.3666 9.14825C31.3666 9.20355 31.3712 9.25425 31.3758 9.3326C31.4263 9.30034 31.463 9.28191 31.4905 9.25425C32.6107 8.03289 34.0063 7.78862 35.5259 8.20342C36.9858 8.60439 37.7295 9.70132 38.0325 11.1301C38.1198 11.5403 38.1657 11.9689 38.1657 12.3883C38.1795 14.702 38.1703 17.0111 38.1703 19.3247C38.1703 19.3939 38.1611 19.4584 38.1565 19.5414C36.8481 19.5414 35.5535 19.5414 34.2221 19.5414C34.2221 19.4446 34.2221 19.357 34.2221 19.2648C34.2221 17.3429 34.2267 15.4256 34.2175 13.5037C34.2175 13.1995 34.1762 12.8907 34.0982 12.5957C33.9558 12.0749 33.5977 11.7569 33.056 11.6924C32.4959 11.6278 32.0231 11.7938 31.7063 12.2823C31.4492 12.6741 31.3849 13.1211 31.3849 13.582C31.3849 15.4717 31.3849 17.3613 31.3849 19.251C31.3849 19.3432 31.3849 19.4307 31.3849 19.5367C30.0628 19.5367 28.7681 19.5367 27.4368 19.5367C27.4368 14.1167 27.4368 8.70579 27.4368 3.29492C28.7498 3.29492 30.0628 3.29492 31.3803 3.29492Z" fill="#1D344B"/>
<path d="M74.5348 3.34101C74.4889 3.42858 74.4384 3.51154 74.4017 3.60372C73.0749 6.82074 71.7481 10.0378 70.4168 13.2594C70.3892 13.3285 70.3571 13.3977 70.3204 13.4806C68.7732 13.4806 67.2215 13.4806 65.6469 13.4806C65.6882 13.3792 65.7157 13.2917 65.7524 13.2087C67.0792 9.99168 68.406 6.77005 69.7327 3.55302C69.7649 3.47006 69.7832 3.38249 69.8108 3.29492C71.3258 3.29492 72.8408 3.29492 74.3558 3.29492C74.4109 3.29492 74.4751 3.32718 74.5348 3.34101Z" fill="#1D344B"/>
<path d="M45.984 30.2802C45.8463 30.2664 45.7132 30.2387 45.58 30.2064C45.4056 30.1696 45.2311 30.1143 45.0658 30.0497C44.7491 29.9207 44.4598 29.7317 44.2165 29.4967C43.9778 29.2662 43.785 28.9989 43.6335 28.7085C42.9311 27.3858 43.0872 25.6667 44.0329 24.5836C44.7858 23.7217 45.7407 23.4313 46.8517 23.6894C47.2327 23.777 47.5587 23.9752 47.8296 24.2609C47.8755 24.307 47.926 24.3531 48.0178 24.4407C48.0362 24.1964 48.0499 24.0074 48.0637 23.7954C48.7891 23.7954 49.4915 23.7954 50.226 23.7954C50.226 25.8833 50.226 27.9665 50.226 30.0728C49.5144 30.0728 48.8028 30.0728 48.0683 30.0728C48.0545 29.8654 48.0407 29.6672 48.027 29.4644C47.9994 29.4506 47.9719 29.4368 47.9489 29.4229C47.8892 29.5013 47.8433 29.5935 47.7745 29.6626C47.4898 29.9391 47.1317 30.1189 46.7461 30.2064C46.5946 30.2387 46.4477 30.2802 46.2962 30.294C46.1814 30.2986 46.0804 30.294 45.984 30.2802ZM46.7461 28.2476C47.5082 28.2476 48.1004 27.6669 48.1004 26.9249C48.1004 26.2059 47.4898 25.6021 46.7599 25.5975C46.0116 25.5929 45.4102 26.1875 45.4102 26.9341C45.4102 27.6761 45.9932 28.2476 46.7461 28.2476Z" fill="#1D344B"/>
<path d="M66.6889 30.2565C66.4273 30.2426 66.1702 30.2104 65.8993 30.1412C65.656 30.0813 65.4219 29.9938 65.2015 29.8785C64.7745 29.6573 64.4073 29.3393 64.1318 28.9429C63.7783 28.4405 63.5947 27.8322 63.5671 27.2238C63.5166 26.0347 63.8747 25.03 64.8205 24.2833C66.2482 23.1541 68.4978 23.4307 69.5169 24.8502C70.0724 25.6199 70.2148 26.5002 70.1367 27.4773C68.6768 27.4773 67.2261 27.4773 65.7524 27.4773C65.7845 27.9474 66.0049 28.2378 66.3722 28.3945C66.9874 28.6526 67.5383 28.5373 68.0019 28.0073C68.6263 28.247 69.2507 28.4866 69.9072 28.7401C69.8521 28.8277 69.8153 28.8968 69.7694 28.9614C69.4573 29.39 69.0395 29.731 68.5574 29.9431C68.3233 30.0445 68.08 30.1228 67.8275 30.1643C67.4419 30.2426 67.0654 30.2749 66.6889 30.2565ZM67.9606 26.2006C67.9652 25.6337 67.4051 25.2374 66.7808 25.2834C66.1794 25.3341 65.7524 25.7397 65.8121 26.2006C66.5237 26.2006 67.2353 26.2006 67.9606 26.2006Z" fill="#1D344B"/>
<path d="M61.3589 30.2711C60.9641 30.2527 60.5738 30.1651 60.1882 30.013C59.7337 29.8333 59.3251 29.5521 58.9992 29.188C58.485 28.6119 58.2187 27.8561 58.2049 27.091C58.1774 25.5101 58.9441 24.3072 60.3122 23.814C61.1247 23.5191 61.9419 23.5191 62.7637 23.791C62.8555 23.8233 62.9427 23.8693 63.0346 23.9108C63.0346 24.5745 63.0346 25.2244 63.0346 25.8881C62.7958 25.8097 62.5801 25.7175 62.3505 25.6668C61.9511 25.5746 61.5609 25.5977 61.189 25.7913C60.707 26.0401 60.4682 26.4503 60.482 26.985C60.5004 27.538 60.8309 27.9667 61.3451 28.1464C61.8409 28.3216 62.323 28.2616 62.7912 28.045C62.8555 28.0174 62.9152 27.9851 62.9749 27.9575C62.9795 27.9528 62.9886 27.9575 63.0208 27.9575C63.0208 28.6073 63.0208 29.2618 63.0208 29.9808C63.0208 30.0683 62.3918 30.1697 62.3184 30.1882C61.997 30.2573 61.6757 30.2896 61.3589 30.2711Z" fill="#1D344B"/>
<path d="M22.2811 19.5322C22.2811 19.2004 22.2811 18.887 22.2811 18.5459C22.2261 18.5782 22.1985 18.5874 22.1847 18.6059C21.4594 19.4493 20.5091 19.7996 19.4394 19.8318C17.0016 19.9102 14.9403 18.3938 14.215 15.9327C13.5401 13.642 13.9074 11.5266 15.505 9.71064C16.8409 8.19431 18.9528 7.63663 20.7294 8.27727C21.0141 8.37866 21.2941 8.52154 21.5466 8.68746C21.7991 8.85338 22.0195 9.07 22.2766 9.28662C22.2766 8.95939 22.2766 8.64137 22.2766 8.30492C23.562 8.30492 24.8153 8.30492 26.0824 8.30492C26.0824 12.0474 26.0824 15.7806 26.0824 19.5322C24.8199 19.5322 23.5712 19.5322 22.2811 19.5322ZM20.0408 16.2553C21.3446 16.2599 22.3592 15.2552 22.3684 13.9462C22.3776 12.6465 21.3676 11.6187 20.0683 11.6095C18.7553 11.5957 17.727 12.605 17.7132 13.9186C17.704 15.2275 18.7232 16.2507 20.0408 16.2553Z" fill="#1D344B"/>
<path d="M8.36167 23.7169C6.96145 23.7169 5.58418 23.7169 4.16559 23.7169C4.74404 22.3481 5.30872 21.0023 5.878 19.6426C4.28955 15.8771 2.7011 12.1117 1.09888 8.31391C2.53583 8.31391 3.94523 8.31391 5.38218 8.31391C6.2269 10.4801 7.07622 12.6647 7.93012 14.8447C7.94849 14.8447 7.96685 14.8447 7.98521 14.8447C8.84371 12.6647 9.70221 10.4847 10.5561 8.30469C11.9472 8.30469 13.3198 8.30469 14.7292 8.30469C12.5991 13.4575 10.4827 18.5826 8.36167 23.7169Z" fill="#1D344B"/>
<path d="M63.6867 13.6188C63.6867 17.0386 61.4647 19.5044 58.3888 19.7948C56.3504 19.9883 54.5416 19.4445 53.1689 17.8775C51.5988 16.0846 51.2821 13.9875 52.0901 11.7799C52.8889 9.60446 54.5508 8.41536 56.8141 8.08813C58.1868 7.88994 59.509 8.09734 60.7209 8.78868C62.7042 9.91787 63.6224 11.6831 63.6867 13.6188ZM57.6955 16.209C58.9672 16.2044 59.9405 15.2181 59.9359 13.9322C59.9359 12.6417 58.9672 11.66 57.6955 11.6554C56.4147 11.6508 55.4368 12.651 55.4414 13.9461C55.446 15.2273 56.4239 16.209 57.6955 16.209Z" fill="#1D344B"/>
<path d="M51.0063 13.5818C51.0063 17.0523 48.7981 19.5042 45.69 19.7992C43.6425 19.9928 41.8291 19.4351 40.461 17.845C38.9139 16.0475 38.6063 13.9551 39.4189 11.7612C40.2223 9.59504 41.8796 8.41977 44.1383 8.08793C45.4192 7.90357 46.6679 8.06949 47.8202 8.66865C49.9366 9.77018 50.9328 11.5769 51.0063 13.5818ZM45.006 16.2088C46.2777 16.2088 47.2555 15.2271 47.2601 13.9459C47.2647 12.6508 46.2822 11.6506 45.006 11.6552C43.7343 11.6598 42.7656 12.6415 42.7656 13.932C42.761 15.2225 43.7343 16.2042 45.006 16.2088Z" fill="#1D344B"/>
<path d="M51.3232 23.7864C52.0716 23.7864 52.7877 23.7864 53.5315 23.7864C53.5406 24.0076 53.5498 24.215 53.5636 24.4777C53.6462 24.4086 53.6921 24.3809 53.7243 24.3394C54.289 23.6343 55.0373 23.4822 55.8728 23.6573C56.6992 23.8324 57.1766 24.3901 57.3878 25.1875C57.4521 25.4317 57.4842 25.6852 57.4888 25.9387C57.498 27.243 57.4934 28.5474 57.4934 29.8563C57.4934 29.9254 57.4842 29.99 57.4796 30.0775C56.7451 30.0775 56.0243 30.0775 55.276 30.0775C55.2668 29.9669 55.253 29.8655 55.253 29.7595C55.2439 28.6626 55.253 27.5657 55.2209 26.4687C55.2025 25.8604 54.7205 25.5239 54.165 25.6852C53.8253 25.782 53.6646 26.0447 53.5911 26.372C53.559 26.5287 53.5452 26.69 53.5452 26.8513C53.5406 27.8284 53.5452 28.8009 53.5452 29.7779C53.5452 29.8701 53.5452 29.9577 53.5452 30.0775C52.7969 30.0775 52.0716 30.0775 51.3232 30.0775C51.3232 27.9805 51.3232 25.8972 51.3232 23.7864Z" fill="#1D344B"/>
<path d="M42.4675 30.0771C41.7283 30.0771 41.0076 30.0771 40.2638 30.0771C40.2547 29.9665 40.2455 29.8697 40.2455 29.7729C40.2455 28.7682 40.2501 27.7634 40.2409 26.7541C40.2409 26.5559 40.2087 26.3531 40.1537 26.1687C40.0572 25.8415 39.8048 25.6664 39.4742 25.6433C39.1437 25.6203 38.8498 25.7401 38.7167 26.0535C38.6157 26.2932 38.5606 26.5697 38.5514 26.8278C38.5331 27.8003 38.5423 28.7774 38.5423 29.7545C38.5423 29.8513 38.5423 29.9527 38.5423 30.0725C37.7848 30.0725 37.0594 30.0725 36.3157 30.0725C36.3157 27.9754 36.3157 25.8922 36.3157 23.7905C37.0548 23.7905 37.7756 23.7905 38.5193 23.7905C38.5331 24.0118 38.5514 24.2284 38.5698 24.4865C38.6433 24.4219 38.6708 24.3989 38.6938 24.3713C39.2952 23.6016 40.0986 23.4541 40.98 23.6891C41.8477 23.9196 42.2701 24.5694 42.4261 25.4175C42.4629 25.6111 42.4767 25.8138 42.4767 26.012C42.4812 27.2887 42.4812 28.5608 42.4767 29.8374C42.4812 29.9112 42.4721 29.9849 42.4675 30.0771Z" fill="#1D344B"/>
<path d="M28.3184 25.5886C28.02 25.5886 27.7721 25.5886 27.4874 25.5886C27.4874 24.9802 27.4874 24.3995 27.4874 23.7819C27.7491 23.7819 28.0016 23.7819 28.3 23.7819C28.3092 22.473 28.6351 21.3576 29.9665 20.8506C30.6506 20.5879 31.6697 20.6064 32.1793 20.8737C32.1793 21.4636 32.1793 22.0628 32.1793 22.6758C31.656 22.5698 31.1464 22.4591 30.7607 22.9246C30.5679 23.1551 30.5128 23.4408 30.5863 23.7681C31.0821 23.7681 31.5687 23.7681 32.0829 23.7681C32.0829 24.3764 32.0829 24.9618 32.0829 25.5794C31.5871 25.5794 31.0913 25.5794 30.5587 25.5794C30.5587 27.0957 30.5587 28.5798 30.5587 30.0777C29.7921 30.0777 29.0713 30.0777 28.3184 30.0777C28.3184 28.5844 28.3184 27.1095 28.3184 25.5886Z" fill="#1D344B"/>
<path d="M66.7533 19.7489C65.3164 19.7443 64.2008 18.6197 64.2008 17.1725C64.2008 15.6792 65.3807 14.4993 66.8681 14.5039C68.3097 14.5085 69.4252 15.6331 69.4206 17.0803C69.4206 18.5736 68.2454 19.7489 66.7533 19.7489Z" fill="#1D344B"/>
<path d="M35.2277 23.791C35.2277 25.8973 35.2277 27.9713 35.2277 30.073C34.4932 30.073 33.7632 30.073 33.0149 30.073C33.0149 27.9759 33.0149 25.8927 33.0149 23.791C33.754 23.791 34.4748 23.791 35.2277 23.791Z" fill="#1D344B"/>
<path d="M34.1258 23.1039C33.4188 23.1039 32.8633 22.5601 32.8633 21.8595C32.8633 21.1682 33.4326 20.5967 34.1212 20.5967C34.8144 20.5967 35.3791 21.1636 35.3837 21.8549C35.3791 22.5601 34.8374 23.1039 34.1258 23.1039Z" fill="#1D344B"/>
</svg>
