<svg width="43" height="33" viewBox="0 0 43 33" fill="none" xmlns="http://www.w3.org/2000/svg">
<path d="M7.60655 28.0302C7.45093 27.2721 6.82684 27.0715 6.12978 27.0116C3.87746 26.8013 3.47805 28.4777 3.47805 29.1838C3.47805 30.3953 3.83327 31.3983 6.04523 31.3983C6.45229 31.3983 7.57755 30.9779 7.57755 30.3007H10.7574C10.6289 32.3146 7.23008 32.795 5.74779 32.795C2.67359 32.795 0.0447984 32.226 0.169615 29.2146C0.261713 27.0598 2.30286 25.5493 6.36401 25.6439C8.62792 25.6959 10.8015 26.402 10.8111 28.0301H7.60655M39.4513 28.0302C39.2939 27.2721 38.6737 27.0715 37.9767 27.0116C35.7222 26.8013 35.3268 28.4777 35.3268 29.1838C35.3268 30.3953 35.6781 31.3983 37.8883 31.3983C38.2973 31.3983 39.4244 30.9779 39.4244 30.3007H42.6023C42.4738 32.3146 39.0749 32.795 37.5927 32.795C34.5204 32.795 31.8895 32.226 32.0164 29.2146C32.1067 27.0598 34.1477 25.5493 38.209 25.6439C40.4748 25.6959 42.6503 26.402 42.6561 28.0301H39.4513M11.3787 25.7878H15.5069L19.0267 30.705H19.0554V25.7878H21.7013V32.6169H17.7478L14.0534 27.6995H14.0248V32.6168H11.3787V25.7878ZM25.4225 31.1856H26.2521C27.794 31.1856 28.3605 31.0236 28.3605 30.4951C28.3605 29.9259 27.6461 29.7369 26.4941 29.7369H25.4226L25.4225 31.1856ZM25.4225 28.4406H26.2521C27.5309 28.4406 28.2088 28.3441 28.2088 27.8136C28.2088 27.2446 27.6461 27.0574 26.494 27.0574H25.4225V28.4406ZM22.5174 25.788H27.5309C29.9407 25.788 31.3597 26.4593 31.3597 27.474C31.3597 28.0701 30.7644 28.809 29.4413 29.025V29.0443C31.037 29.1408 31.6227 30.142 31.6227 30.7419C31.6227 31.9456 30.2401 32.6152 27.5462 32.6152H22.5174V25.788Z" fill="#1D344B"/>
<path d="M13.0731 9.78809L18.8298 22.9098L6.95162 14.8037C3.97154 12.8381 4.57639 9.46793 6.22769 7.98248C8.56266 6.01668 11.8654 6.69756 13.0731 9.78809Z" fill="#1D344B"/>
<path d="M20.9642 6.69701L18.8712 21.3811L12.911 7.42025C11.6246 3.92856 14.522 1.64068 16.4537 1.60205C18.6696 1.35905 21.4481 3.04524 20.9642 6.69701Z" fill="#1D344B"/>
<path d="M30.0261 7.38064L24.1044 21.382L22.213 8.74453C22.0517 6.81929 23.2596 6.77873 23.7031 6.41802C23.6242 6.13638 23.0176 6.13638 23.0176 6.13638H21.8905C21.7694 2.84533 24.3482 1.40236 26.4393 1.56052C28.6935 1.64162 31.2322 4.25169 30.0261 7.38064Z" fill="#1D344B"/>
<path d="M36.0653 14.7225L24.1873 22.8671L29.7844 9.9076C31.4742 5.814 35.4202 6.61846 36.8277 8.18299C38.3618 9.70696 38.8035 12.7974 36.0653 14.7226" fill="#1D344B"/>
<path d="M37.3134 24.3158H23.5804L34.7365 16.5685C37.4727 14.7649 40.3722 16.4104 41.1384 18.7773C41.9447 21.4261 40.1303 24.3158 37.3134 24.3158Z" fill="#1D344B"/>
<path d="M1.75808 18.6163C2.80463 15.8867 5.70398 14.924 8.28093 16.5677L19.4352 24.315H5.9057C3.08687 24.315 0.872894 21.7473 1.75808 18.6163Z" fill="#1D344B"/>
</svg>
