<svg width="127" height="33" viewBox="0 0 127 33" fill="none" xmlns="http://www.w3.org/2000/svg">
<path d="M13.7309 12.885L13.4937 13.8432C13.4812 13.9094 13.4453 13.9692 13.3922 14.0119C13.3391 14.0545 13.2723 14.0773 13.2038 14.0762H7.40511C7.01855 14.0762 6.79891 14.1884 6.74619 14.4128L6.66711 14.7236C6.63197 14.9307 6.79011 15.0343 7.14154 15.0343H10.9106C12.1406 15.0343 12.7556 15.4831 12.7556 16.3808C12.7556 16.6052 12.7205 16.8556 12.6502 17.1318L12.2548 18.7114C12.0985 19.3413 11.7262 19.8991 11.2006 20.2911C10.6558 20.7054 10.0057 20.9125 9.25019 20.9125H1.47487C1.43136 20.9103 1.38892 20.8984 1.35072 20.8778C1.31252 20.8573 1.27952 20.8285 1.2542 20.7937C1.22887 20.7588 1.21187 20.7188 1.20444 20.6766C1.19701 20.6345 1.19936 20.5912 1.2113 20.55L1.44852 19.5919C1.46621 19.5304 1.50441 19.4766 1.55699 19.439C1.60957 19.4015 1.67347 19.3823 1.73844 19.3847H7.56339C7.91483 19.3847 8.12569 19.2466 8.19597 18.9704L8.27505 18.7115C8.34533 18.4353 8.19597 18.2972 7.82698 18.2972H3.95255C2.79288 18.2972 2.21305 17.8483 2.21305 16.9506C2.21714 16.7056 2.25256 16.462 2.31848 16.2256L2.71383 14.6201C2.87198 13.9986 3.24977 13.498 3.8472 13.1182C4.44463 12.7384 5.11233 12.5485 5.85032 12.5485H13.4412C13.4842 12.5478 13.5267 12.5565 13.5659 12.5739C13.605 12.5914 13.6397 12.6171 13.6674 12.6493C13.6951 12.6815 13.7153 12.7194 13.7263 12.7602C13.7373 12.801 13.739 12.8436 13.7312 12.8851L13.7309 12.885ZM25.1699 15.0602L24.3265 18.4265C23.9048 20.0838 22.8241 20.9124 21.0845 20.9124H17.6317C17.0869 20.9124 16.797 20.6362 16.7619 20.0838H16.7092L15.7603 23.9421C15.7486 23.9808 15.7241 24.0145 15.6907 24.038C15.6573 24.0614 15.6168 24.0732 15.5758 24.0716H11.6749C11.6483 24.0718 11.6219 24.0664 11.5976 24.0558C11.5733 24.0451 11.5517 24.0294 11.5342 24.0097C11.5166 23.99 11.5036 23.9668 11.4961 23.9417C11.4885 23.9167 11.4866 23.8903 11.4904 23.8644L14.337 12.6779C14.3473 12.6433 14.3678 12.6125 14.396 12.5895C14.4241 12.5664 14.4586 12.5521 14.4951 12.5484H18.1588C18.1855 12.5481 18.2118 12.5535 18.2361 12.5642C18.2604 12.5749 18.2821 12.5906 18.2996 12.6103C18.3171 12.63 18.3301 12.6532 18.3377 12.6782C18.3452 12.7033 18.3471 12.7297 18.3433 12.7556C18.317 12.9368 18.5015 13.0404 18.6333 12.9368C18.932 12.6779 19.2219 12.5484 19.5031 12.5484H23.1931C24.5812 12.5484 25.2753 13.1181 25.2753 14.2574C25.2716 14.5281 25.2364 14.7975 25.1699 15.0602ZM20.9791 14.7753C20.9974 14.699 21.0062 14.6207 21.0055 14.5423C21.0055 14.3006 20.8386 14.1798 20.5047 14.1798H18.7915C18.4225 14.1798 18.1853 14.3783 18.0799 14.7753L17.0783 18.6596C17.0583 18.7357 17.0494 18.8142 17.0519 18.8927C17.0519 19.1516 17.2013 19.2811 17.5 19.2811H19.2132C19.6173 19.2811 19.8721 19.0739 19.9776 18.6596L20.9791 14.7753ZM37.1359 14.9566L36.2661 18.4782C36.0553 19.2896 35.739 19.8852 35.3173 20.265C34.8428 20.6966 34.1663 20.9124 33.2877 20.9124H26.4084C25.1433 20.9124 24.5107 20.4377 24.5107 19.4882C24.5107 19.212 24.5634 18.8754 24.6688 18.4783L25.565 14.9567C25.7582 14.1453 26.0657 13.5497 26.4875 13.1699C26.9795 12.7555 27.6559 12.5484 28.5169 12.5484H35.4224C36.67 12.5484 37.2938 13.0231 37.2938 13.9726C37.2938 14.2488 37.241 14.5768 37.1356 14.9566H37.1359ZM32.9188 14.8012C32.9459 14.726 32.9637 14.6477 32.9715 14.5682C32.9715 14.3092 32.8046 14.1798 32.4707 14.1798H30.6257C30.2391 14.1798 29.9931 14.3869 29.8877 14.8012L28.9125 18.6337C28.8838 18.7174 28.866 18.8045 28.8598 18.8926C28.8598 19.1516 29.0179 19.2811 29.3342 19.2811H31.1792C31.5834 19.2811 31.8382 19.0653 31.9436 18.6337L32.9188 14.8012ZM46.44 13.0923L46.071 14.5424C46.048 14.6361 45.9942 14.7198 45.918 14.7807C45.8418 14.8415 45.7474 14.876 45.6493 14.879H43.8306C43.1277 14.879 42.6182 14.9653 42.3019 15.138C41.9856 15.3106 41.7747 15.6558 41.6693 16.1737L40.5359 20.5758C40.5129 20.6696 40.4591 20.7533 40.3829 20.8141C40.3068 20.8749 40.2124 20.9095 40.1142 20.9125H36.7669C36.698 20.9144 36.6296 20.9007 36.567 20.8724C36.5045 20.8441 36.4493 20.802 36.406 20.7494C36.3626 20.6968 36.3322 20.6351 36.3171 20.5691C36.302 20.503 36.3026 20.4345 36.3188 20.3687L38.2166 12.8851C38.2407 12.7871 38.2984 12.7001 38.3799 12.6388C38.4615 12.5776 38.562 12.5457 38.6646 12.5485H41.6958C41.7624 12.5505 41.8278 12.5671 41.887 12.597C41.9463 12.627 41.9981 12.6696 42.0385 12.7217C42.0789 12.7738 42.1069 12.8341 42.1206 12.8982C42.1343 12.9623 42.1332 13.0286 42.1175 13.0923L41.9066 13.895H41.9594C42.2932 13.3771 42.6446 13.0232 43.0136 12.8333C43.3826 12.6434 43.8746 12.5485 44.4896 12.5485H45.992C46.0609 12.5466 46.1292 12.5603 46.1918 12.5886C46.2544 12.6169 46.3095 12.6589 46.3529 12.7115C46.3962 12.7641 46.4266 12.8259 46.4418 12.8919C46.4569 12.9579 46.4563 13.0265 46.44 13.0923ZM56.0868 13.0923L55.9023 13.8432C55.8782 13.9413 55.8205 14.0282 55.739 14.0895C55.6574 14.1508 55.5569 14.1827 55.4542 14.1798H52.7658C52.6631 14.177 52.5626 14.2089 52.4811 14.2702C52.3995 14.3315 52.3418 14.4184 52.3177 14.5165L51.2898 18.6596C51.2631 18.735 51.2454 18.8132 51.2371 18.8926C51.2371 19.1516 51.4303 19.2811 51.8169 19.2811H54.3736C54.4424 19.2791 54.5108 19.2929 54.5734 19.3211C54.636 19.3494 54.6911 19.3915 54.7345 19.4441C54.7778 19.4967 54.8082 19.5584 54.8233 19.6245C54.8385 19.6905 54.8379 19.7591 54.8217 19.8248L54.6371 20.5758C54.613 20.6739 54.5554 20.7608 54.4738 20.8221C54.3922 20.8834 54.2917 20.9153 54.1891 20.9124H48.7331C48.1708 20.9124 47.7315 20.7657 47.4152 20.4722C47.0989 20.1787 46.9408 19.7731 46.9408 19.2552C46.9384 19.0113 46.9649 18.768 47.0199 18.5301L47.9951 14.7495C48.0163 14.6821 48.0207 14.6106 48.0079 14.5411C47.9951 14.4717 47.9655 14.4063 47.9215 14.3504C47.8776 14.2946 47.8206 14.2499 47.7555 14.2202C47.6903 14.1905 47.6188 14.1767 47.547 14.1798H46.9145C46.8427 14.1829 46.7712 14.1691 46.706 14.1394C46.6408 14.1097 46.5839 14.065 46.5399 14.0092C46.496 13.9533 46.4664 13.8879 46.4536 13.8185C46.4408 13.749 46.4452 13.6775 46.4664 13.6101L46.6509 12.885C46.675 12.787 46.7327 12.7001 46.8142 12.6388C46.8958 12.5775 46.9963 12.5456 47.0989 12.5484H48.1796C48.2822 12.5512 48.3827 12.5193 48.4643 12.4581C48.5459 12.3968 48.6035 12.3098 48.6277 12.2118L48.9176 11.0724C48.9417 10.9744 48.9994 10.8874 49.081 10.8261C49.1625 10.7649 49.263 10.733 49.3657 10.7358H52.6867C52.7556 10.7339 52.824 10.7476 52.8866 10.7759C52.9492 10.8042 53.0043 10.8462 53.0476 10.8988C53.091 10.9515 53.1214 11.0132 53.1365 11.0792C53.1516 11.1452 53.151 11.2138 53.1348 11.2796L52.9767 11.9787C52.9562 12.0441 52.9515 12.1132 52.9629 12.1806C52.9743 12.248 53.0016 12.3119 53.0425 12.3672C53.0834 12.4225 53.1369 12.4676 53.1987 12.4991C53.2604 12.5305 53.3288 12.5474 53.3984 12.5484H55.6388C55.7077 12.5465 55.7761 12.5602 55.8386 12.5885C55.9012 12.6168 55.9563 12.6589 55.9997 12.7115C56.043 12.7641 56.0735 12.8258 56.0886 12.8919C56.1037 12.9579 56.1031 13.0265 56.0868 13.0923ZM67.5522 12.9369L67.3413 13.8173C67.3242 13.8883 67.2842 13.952 67.2271 13.9987C67.1701 14.0454 67.0992 14.0726 67.025 14.0763H61.2528C60.8662 14.0763 60.6466 14.1885 60.5939 14.4129L60.5148 14.7236C60.4621 14.9308 60.6202 15.0344 60.9892 15.0344H64.7583C65.9883 15.0344 66.6033 15.4832 66.6033 16.3809C66.6033 16.6053 66.5682 16.8556 66.4979 17.1318L66.1026 18.7115C65.9394 19.3451 65.5574 19.9034 65.0219 20.2911C64.4772 20.7054 63.8358 20.9126 63.0978 20.9126H55.3751C55.3249 20.9101 55.2758 20.8968 55.2313 20.8736C55.1869 20.8504 55.1482 20.8179 55.118 20.7784C55.0878 20.7388 55.0669 20.6932 55.0566 20.6448C55.0464 20.5964 55.0472 20.5464 55.0588 20.4983L55.2697 19.6179C55.2915 19.5517 55.3335 19.4937 55.3902 19.452C55.4468 19.4103 55.5152 19.3868 55.586 19.3848H61.4109C61.7624 19.3848 61.9732 19.2467 62.0435 18.9705L62.1226 18.7116C62.1929 18.4354 62.0435 18.2972 61.6745 18.2972H57.8001C56.6228 18.2972 56.0341 17.8484 56.0341 16.9507C56.0382 16.7056 56.0736 16.4621 56.1395 16.2257L56.5613 14.6202C56.7018 13.9987 57.0796 13.4981 57.6946 13.1183C58.3096 12.7385 58.9773 12.5486 59.6977 12.5486H67.2359C67.2835 12.5516 67.3298 12.5644 67.3721 12.586C67.4143 12.6076 67.4515 12.6377 67.4813 12.6742C67.5111 12.7108 67.5328 12.753 67.545 12.7983C67.5572 12.8435 67.5596 12.8907 67.5522 12.9369ZM77.9106 13.0405L75.8547 14.387C75.802 14.4183 75.7608 14.4653 75.7371 14.5212C75.7134 14.5771 75.7084 14.6389 75.7229 14.6977L77.6997 20.55C77.7117 20.5912 77.714 20.6344 77.7066 20.6766C77.6992 20.7188 77.6822 20.7588 77.6568 20.7936C77.6315 20.8285 77.5985 20.8572 77.5603 20.8778C77.5221 20.8984 77.4797 20.9103 77.4362 20.9125H73.0873C73.0268 20.9093 72.9689 20.8877 72.9216 20.8505C72.8744 20.8134 72.8401 20.7626 72.8237 20.7054L71.9803 17.3909C71.9666 17.3507 71.9439 17.314 71.914 17.2835C71.884 17.2529 71.8475 17.2294 71.8071 17.2145C71.7667 17.1996 71.7234 17.1938 71.6804 17.1974C71.6374 17.201 71.5958 17.2141 71.5585 17.2355L71.1105 17.5204C71.0586 17.5591 71.0214 17.6138 71.005 17.6757L70.2143 20.7054C70.1979 20.7626 70.1637 20.8134 70.1164 20.8505C70.0691 20.8877 70.0112 20.9094 69.9508 20.9125H66.2607C66.22 20.9096 66.1805 20.8982 66.1445 20.8792C66.1086 20.8602 66.0772 20.8339 66.0523 20.8021C66.0274 20.7704 66.0097 20.7338 66.0002 20.6948C65.9907 20.6558 65.9896 20.6153 65.9972 20.5759L68.7384 9.72604C68.7561 9.66457 68.7943 9.61073 68.8468 9.57316C68.8994 9.53559 68.9633 9.51647 69.0283 9.51888H72.7183C72.759 9.52183 72.7986 9.53319 72.8345 9.55222C72.8704 9.57124 72.9019 9.5975 72.9268 9.62927C72.9516 9.66105 72.9694 9.69762 72.9789 9.73661C72.9884 9.77559 72.9894 9.81611 72.9819 9.85551L71.7168 14.7754C71.707 14.8305 71.7139 14.8872 71.7367 14.9384C71.7595 14.9896 71.7971 15.0331 71.8449 15.0635C71.8927 15.0939 71.9485 15.1098 72.0054 15.1092C72.0622 15.1086 72.1177 15.0916 72.1648 15.0603L75.9076 12.6003C75.954 12.5682 76.009 12.5502 76.0658 12.5485H77.7527C78.0162 12.5485 78.148 12.9111 77.9108 13.0405L77.9106 13.0405ZM90.3512 14.9308L89.6659 17.6239H82.5232L82.3123 18.4267C82.2931 18.5204 82.2842 18.6159 82.286 18.7115C82.286 19.0913 82.5144 19.2812 82.9712 19.2812H89.0598L88.6645 20.9125H79.7821C78.5169 20.9125 77.8843 20.4378 77.8843 19.4883C77.8843 19.1948 77.937 18.8409 78.0424 18.4266L78.9122 14.9308C79.1231 14.1194 79.4482 13.5238 79.8874 13.144C80.3619 12.747 81.0296 12.5484 81.8906 12.5484H88.5853C89.868 12.5484 90.5093 13.0232 90.5093 13.9726C90.5093 14.2489 90.4566 14.5683 90.3512 14.9308ZM86.2131 14.8272C86.231 14.7333 86.2398 14.6379 86.2395 14.5424C86.2395 14.3007 86.0638 14.1798 85.7124 14.1798H84.0255C83.6037 14.1798 83.3314 14.3956 83.2084 14.8272L82.9184 15.9925H85.9231L86.2131 14.8272ZM102.501 14.9308L101.816 17.6239H94.6734L94.4625 18.4267C94.4433 18.5204 94.4344 18.6159 94.4362 18.7115C94.4362 19.0913 94.6734 19.2812 95.1478 19.2812H101.236L100.815 20.9125H91.9323C90.6671 20.9125 90.0345 20.4378 90.0345 19.4883C90.0345 19.1948 90.0872 18.8409 90.1927 18.4266L91.0888 14.9308C91.2821 14.1194 91.5984 13.5238 92.0377 13.144C92.5297 12.747 93.1974 12.5484 94.0408 12.5484H100.735C102.018 12.5484 102.66 13.0232 102.66 13.9726C102.66 14.2489 102.607 14.5683 102.501 14.9308ZM98.3633 14.8272C98.3812 14.7333 98.39 14.6379 98.3897 14.5424C98.3897 14.3007 98.214 14.1798 97.8626 14.1798H96.1757C95.7539 14.1798 95.4904 14.3956 95.3849 14.8272L95.095 15.9925H98.0734L98.3633 14.8272ZM115.653 9.72594L112.833 20.783C112.823 20.8175 112.802 20.8483 112.774 20.8714C112.746 20.8944 112.712 20.9087 112.675 20.9124H108.88C108.853 20.9127 108.827 20.9073 108.802 20.8966C108.778 20.886 108.756 20.8702 108.739 20.8505C108.721 20.8309 108.708 20.8077 108.701 20.7826C108.693 20.7575 108.691 20.7312 108.695 20.7053C108.694 20.6754 108.685 20.6464 108.669 20.6207C108.654 20.595 108.632 20.5735 108.606 20.5582C108.58 20.5428 108.55 20.534 108.52 20.5325C108.489 20.5311 108.459 20.5371 108.432 20.5499C108.15 20.7916 107.896 20.9124 107.667 20.9124H103.951C102.563 20.9124 101.869 20.3428 101.869 19.2035C101.87 18.9241 101.906 18.6459 101.974 18.3748L102.844 15.0344C103.266 13.3771 104.346 12.5484 106.086 12.5484H109.512C110.075 12.5484 110.373 12.816 110.409 13.3511H110.435L111.384 9.64819C111.395 9.60951 111.42 9.57577 111.453 9.55232C111.487 9.52887 111.527 9.51704 111.568 9.51871H115.469C115.496 9.51844 115.522 9.52383 115.546 9.53452C115.571 9.5452 115.592 9.56092 115.61 9.5806C115.627 9.60028 115.64 9.62346 115.648 9.64853C115.656 9.67361 115.657 9.69999 115.654 9.72587L115.653 9.72594ZM110.092 14.7754C110.112 14.6993 110.121 14.6208 110.118 14.5423C110.118 14.3006 109.96 14.1798 109.644 14.1798H107.957C107.553 14.1798 107.298 14.3783 107.193 14.7754L106.191 18.6597C106.164 18.735 106.147 18.8132 106.139 18.8927C106.139 19.1517 106.314 19.2811 106.666 19.2811H108.353C108.739 19.2811 108.985 19.074 109.091 18.6597L110.092 14.7754ZM126.249 15.5263L124.905 20.7829C124.9 20.8154 124.884 20.8455 124.86 20.8688C124.837 20.892 124.806 20.9073 124.773 20.9124H121.004C120.981 20.9127 120.958 20.908 120.937 20.8987C120.915 20.8893 120.897 20.8755 120.882 20.8582C120.866 20.8409 120.855 20.8205 120.849 20.7986C120.843 20.7766 120.842 20.7536 120.846 20.7311L121.03 19.9802H121.004C120.723 20.6017 120.108 20.9124 119.159 20.9124H115.943C114.625 20.9124 113.966 20.4377 113.966 19.4882C113.966 19.1947 114.028 18.8495 114.151 18.4524L114.335 17.6756C114.564 16.8124 114.907 16.1909 115.363 15.8111C115.82 15.4313 116.47 15.2414 117.314 15.2414H121.926C121.956 15.2381 121.984 15.2267 122.007 15.2083C122.031 15.19 122.048 15.1656 122.058 15.1378L122.19 14.7235C122.197 14.6719 122.197 14.6197 122.19 14.5681C122.19 14.3092 122.014 14.1797 121.663 14.1797H115.811C115.791 14.1766 115.771 14.1694 115.753 14.1585C115.734 14.1476 115.719 14.1333 115.707 14.1164C115.694 14.0995 115.686 14.0804 115.681 14.0601C115.676 14.0399 115.676 14.0189 115.68 13.9985L116.022 12.6519C116.032 12.6242 116.05 12.5997 116.073 12.5814C116.096 12.5631 116.124 12.5516 116.154 12.5483H124.193C125.687 12.5483 126.433 13.1353 126.433 14.3092C126.433 14.6544 126.372 15.0602 126.249 15.5263ZM121.584 17.0541C121.588 17.0317 121.586 17.0086 121.58 16.9867C121.574 16.9647 121.563 16.9444 121.548 16.9271C121.533 16.9098 121.514 16.896 121.493 16.8866C121.472 16.8772 121.449 16.8725 121.425 16.8729H119.739C119.37 16.8729 119.115 16.9333 118.974 17.0541C118.834 17.175 118.728 17.3476 118.658 17.572L118.368 18.5819C118.348 18.6756 118.339 18.7712 118.342 18.8668C118.342 19.143 118.588 19.2811 119.08 19.2811H120.239C120.573 19.2811 120.802 19.212 120.925 19.0739C121.048 18.9358 121.162 18.6596 121.267 18.2453L121.584 17.0541Z" fill="#1D344B"/>
</svg>
