<svg width="112" height="115" viewBox="0 0 112 115" fill="none" xmlns="http://www.w3.org/2000/svg">
<g clip-path="url(#clip0_7929_7489)">
<path d="M111.176 3.27087C111.176 35.352 111.176 67.422 111.176 99.5031C111.176 104.805 92.2558 102.629 88.9963 101.97C84.1071 100.988 79.5193 98.9562 74.686 97.7618C69.8526 96.5674 64.9634 97.3376 60.2416 98.1971C55.7431 99.0232 52.7739 101.434 50.0502 105.029C47.7954 108.009 45.7192 111.402 42.0913 112.854C36.2645 115.187 28.9977 114.372 23.6397 111.179C20.8044 109.494 18.8286 107.228 17.3551 104.314C15.3459 100.374 16.1719 96.2214 16.3617 91.9014C16.3952 91.1647 16.4287 90.4168 16.1942 89.7136C15.7589 88.3629 14.4864 87.4811 13.3143 86.6885C4.79728 80.951 -1.27514 72.78 1.21411 61.9747C2.24106 57.5097 3.94893 53.9488 7.86698 51.281C9.64182 50.0642 11.5618 49.3945 12.6557 47.3629C14.185 44.5165 13.8501 41.1677 14.3971 38.0757C15.011 34.6153 16.9868 32.1595 19.8667 30.2284C25.8833 26.2099 31.1967 21.4212 37.3584 17.5589C46.6233 11.7544 56.1673 5.89406 66.928 3.32668C74.4627 1.54067 82.243 0.792782 89.9898 0.826269C91.9991 0.826269 111.187 1.2058 111.187 3.27087H111.176Z" fill="#8968E7"/>
<path d="M8.6936 73.2932C7.88989 70.9602 7.97919 68.6607 9.70939 66.7073C16.1502 59.4628 31.5322 58.5363 37.8948 66.1826C41.1989 70.1565 44.8379 76.374 45.5188 81.5423C46.2221 86.9003 46.2444 93.1402 43.8333 98.1521C40.4734 105.14 31.7554 105.43 25.1807 103.209C21.7873 102.07 20.8719 100.106 20.5147 96.154C20.1017 91.6779 20.5817 87.7821 17.1102 84.4111C13.8507 81.2297 10.2117 77.7135 8.70476 73.3043L8.6936 73.2932Z" fill="#1D344B"/>
<path d="M52.663 46.2796C52.663 46.2796 52.6407 46.2349 52.6184 46.2126C52.4286 45.9782 52.0937 45.9224 51.7924 45.9447C50.5198 46.034 49.225 46.1122 47.9413 46.101C46.9032 46.0898 45.2958 45.4759 44.8939 44.4154C44.7153 43.9578 44.7711 43.4331 44.8269 42.942C44.8604 42.6964 44.8827 42.4508 44.9609 42.2164C45.0502 41.9708 45.1841 41.7476 45.3404 41.5578C46.2781 40.3969 47.6845 40.3411 49.0464 40.2183C50.0398 40.129 51.7142 40.2853 52.3393 39.2918C52.5291 38.9793 52.5068 38.5886 52.4844 38.2202C52.4175 37.4389 52.3505 36.6575 52.2835 35.8761C52.2389 35.2956 52.183 34.6929 52.384 34.1571C52.9309 32.6725 54.5049 31.8911 55.9895 31.679C57.2285 31.5004 59.7401 31.6567 60.287 33.052C61.0126 34.905 60.0303 37.0482 60.5438 38.9793C60.5661 39.0686 60.5996 39.1691 60.6666 39.236C60.7447 39.303 60.8452 39.3365 60.9456 39.3588C62.7428 39.7607 64.6404 39.1802 66.3818 39.9058C68.112 40.6313 67.699 42.4062 67.4757 43.8908C67.3083 45.0182 66.4153 45.4536 65.2544 45.4536C64.1604 45.4536 63.0442 45.487 61.9726 45.6768C60.968 45.8554 60.354 46.514 60.421 47.6303C60.4322 47.8647 60.4433 48.0879 60.421 48.3223C60.1196 51.9836 56.1792 53.8813 53.4221 51.1241C53.1877 50.8897 52.9756 50.6218 52.8528 50.3204C52.663 49.8628 52.6742 49.3493 52.6965 48.847C52.7188 48.2219 52.7523 47.5968 52.7747 46.9605C52.7747 46.7261 52.7858 46.4694 52.6742 46.2684L52.663 46.2796Z" fill="#1D344B"/>
</g>
<defs>
<clipPath id="clip0_7929_7489">
<rect width="110.531" height="113.378" fill="white" transform="translate(0.645508 0.826172)"/>
</clipPath>
</defs>
</svg>
