<svg width="1447" height="1195" viewBox="0 0 1447 1195" fill="none" xmlns="http://www.w3.org/2000/svg">
<path fill-rule="evenodd" clip-rule="evenodd" d="M683.624 55.6068C686.329 56.3315 687.681 56.6939 688.573 57.4971C689.358 58.2037 689.899 59.1405 690.118 60.1733C690.368 61.3474 690.006 62.6999 689.281 65.4047L686.961 74.0606C686.237 76.7654 685.874 78.1179 686.124 79.292C686.343 80.3248 686.884 81.2617 687.669 81.9682C688.561 82.7714 689.913 83.1338 692.618 83.8585L707.302 87.7931C710.007 88.5179 711.36 88.8803 712.534 88.6307C713.567 88.4112 714.503 87.8703 715.21 87.0856C716.013 86.1935 716.376 84.8411 717.1 82.1363L719.42 73.4804C720.144 70.7755 720.507 69.4231 721.31 68.5311C722.017 67.7464 722.953 67.2055 723.986 66.986C725.16 66.7364 726.513 67.0988 729.218 67.8235L736.23 69.7024C738.935 70.4272 740.287 70.7896 741.461 70.54C742.494 70.3205 743.431 69.7796 744.137 68.9949C744.94 68.1028 745.303 66.7504 746.028 64.0456L749.228 52.1014C749.953 49.3966 750.315 48.0442 750.066 46.87C749.846 45.8372 749.305 44.9004 748.521 44.1938C747.628 43.3906 746.276 43.0282 743.571 42.3035L736.559 40.4246C733.854 39.6998 732.502 39.3375 731.61 38.5342C730.825 37.8277 730.284 36.8909 730.065 35.8581C729.815 34.6839 730.177 33.3315 730.902 30.6266L733.222 21.97C733.947 19.2652 734.309 17.9128 734.059 16.7386C733.84 15.7058 733.299 14.769 732.514 14.0624C731.622 13.2592 730.27 12.8968 727.565 12.1721L712.881 8.23749C710.176 7.51273 708.824 7.15035 707.649 7.39993C706.617 7.61946 705.68 8.16033 704.973 8.94501C704.17 9.83708 703.808 11.1895 703.083 13.8944L700.763 22.551C700.039 25.2558 699.676 26.6082 698.873 27.5003C698.167 28.285 697.23 28.8259 696.197 29.0454C695.023 29.295 693.67 28.9326 690.965 28.2078L683.405 26.182C680.7 25.4572 679.348 25.0948 678.174 25.3444C677.141 25.564 676.204 26.1048 675.497 26.8895C674.694 27.7816 674.332 29.134 673.607 31.8388L670.407 43.783C669.682 46.4878 669.319 47.8402 669.569 49.0144C669.789 50.0472 670.329 50.984 671.114 51.6906C672.006 52.4938 673.359 52.8562 676.063 53.5809L683.624 55.6068Z" fill="#23C52A"/>
<g filter="url(#filter0_b_8102_2831)">
<path fill-rule="evenodd" clip-rule="evenodd" d="M1359.33 778.619C1362.04 779.344 1363.39 779.707 1364.28 780.51C1365.07 781.216 1365.61 782.153 1365.83 783.186C1366.08 784.36 1365.71 785.713 1364.99 788.417L1363.24 794.932C1362.52 797.637 1362.16 798.989 1362.41 800.164C1362.63 801.196 1363.17 802.133 1363.95 802.84C1364.84 803.643 1366.2 804.005 1368.9 804.73L1380.91 807.947C1383.61 808.672 1384.97 809.035 1386.14 808.785C1387.17 808.565 1388.11 808.025 1388.82 807.24C1389.62 806.348 1389.98 804.995 1390.71 802.291L1392.45 795.776C1393.18 793.071 1393.54 791.719 1394.34 790.827C1395.05 790.042 1395.99 789.501 1397.02 789.281C1398.19 789.032 1399.55 789.394 1402.25 790.119L1407.27 791.463C1409.97 792.188 1411.32 792.551 1412.5 792.301C1413.53 792.081 1414.47 791.541 1415.17 790.756C1415.98 789.864 1416.34 788.511 1417.07 785.807L1419.61 776.296C1420.34 773.591 1420.7 772.238 1420.45 771.064C1420.23 770.031 1419.69 769.095 1418.91 768.388C1418.01 767.585 1416.66 767.222 1413.96 766.498L1408.94 765.153C1406.23 764.429 1404.88 764.066 1403.99 763.263C1403.21 762.556 1402.66 761.62 1402.45 760.587C1402.2 759.413 1402.56 758.06 1403.28 755.355L1405.03 748.84C1405.75 746.135 1406.12 744.783 1405.87 743.608C1405.65 742.576 1405.11 741.639 1404.32 740.932C1403.43 740.129 1402.08 739.767 1399.37 739.042L1387.36 735.824C1384.66 735.1 1383.31 734.737 1382.13 734.987C1381.1 735.206 1380.16 735.747 1379.46 736.532C1378.65 737.424 1378.29 738.777 1377.57 741.481L1375.82 747.997C1375.1 750.702 1374.73 752.054 1373.93 752.946C1373.22 753.731 1372.29 754.272 1371.25 754.491C1370.08 754.741 1368.73 754.378 1366.02 753.654L1360.51 752.176C1357.8 751.451 1356.45 751.088 1355.27 751.338C1354.24 751.558 1353.3 752.098 1352.6 752.883C1351.8 753.775 1351.43 755.128 1350.71 757.832L1348.16 767.343C1347.43 770.048 1347.07 771.401 1347.32 772.575C1347.54 773.608 1348.08 774.544 1348.87 775.251C1349.76 776.054 1351.11 776.417 1353.82 777.141L1359.33 778.619Z" fill="#23C52A"/>
</g>
<g filter="url(#filter1_b_8102_2831)">
<ellipse cx="482.503" cy="763.809" rx="269.049" ry="227.915" fill="#E6FFE6"/>
</g>
<ellipse cx="230.87" cy="746.826" rx="230.87" ry="201.044" fill="#FFBB02"/>
<g filter="url(#filter2_b_8102_2831)">
<circle cx="1219.64" cy="490.737" r="98.9164" fill="#FF7C33"/>
</g>
<path fill-rule="evenodd" clip-rule="evenodd" d="M163.819 414.052C166.523 414.777 167.876 415.14 168.768 415.943C169.553 416.649 170.094 417.586 170.313 418.619C170.563 419.793 170.2 421.146 169.475 423.85L155.345 476.585C154.621 479.29 154.258 480.642 154.508 481.816C154.727 482.849 155.268 483.786 156.053 484.493C156.945 485.296 158.297 485.658 161.002 486.383L230.786 505.081C233.491 505.806 234.843 506.169 236.017 505.919C237.05 505.699 237.987 505.159 238.693 504.374C239.496 503.482 239.859 502.129 240.584 499.425L254.714 446.69C255.439 443.985 255.801 442.633 256.604 441.741C257.311 440.956 258.248 440.415 259.28 440.196C260.455 439.946 261.807 440.308 264.512 441.033L312.6 453.918C315.305 454.643 316.657 455.005 317.831 454.756C318.864 454.536 319.801 453.995 320.508 453.211C321.311 452.319 321.673 450.966 322.398 448.261L339.02 386.227C339.745 383.522 340.107 382.17 339.858 380.995C339.638 379.963 339.097 379.026 338.312 378.319C337.42 377.516 336.068 377.154 333.363 376.429L285.275 363.544C282.57 362.819 281.218 362.457 280.326 361.653C279.541 360.947 279 360.01 278.781 358.977C278.531 357.803 278.893 356.451 279.618 353.746L293.749 301.009C294.474 298.304 294.836 296.951 294.587 295.777C294.367 294.744 293.826 293.808 293.042 293.101C292.149 292.298 290.797 291.935 288.092 291.211L218.309 272.512C215.604 271.787 214.251 271.425 213.077 271.675C212.044 271.894 211.108 272.435 210.401 273.22C209.598 274.112 209.235 275.464 208.511 278.169L194.38 330.906C193.655 333.611 193.293 334.963 192.489 335.856C191.783 336.64 190.846 337.181 189.813 337.401C188.639 337.65 187.287 337.288 184.582 336.563L134.947 323.263C132.242 322.539 130.89 322.176 129.716 322.426C128.683 322.645 127.746 323.186 127.04 323.971C126.236 324.863 125.874 326.215 125.149 328.92L108.527 390.955C107.802 393.66 107.44 395.012 107.689 396.186C107.909 397.219 108.45 398.156 109.235 398.863C110.127 399.666 111.479 400.028 114.184 400.753L163.819 414.052Z" fill="#02FE51"/>
<g filter="url(#filter3_b_8102_2831)">
<ellipse cx="1208.69" cy="967.533" rx="184.794" ry="154.919" transform="rotate(30 1208.69 967.533)" fill="#6729FF"/>
</g>
<circle cx="1266.08" cy="350.246" r="116.583" fill="white"/>
<circle cx="914.078" cy="222.335" r="125.843" transform="rotate(30 914.078 222.335)" fill="white" stroke="#FFBB02" stroke-width="87"/>
<g filter="url(#filter4_b_8102_2831)">
<path fill-rule="evenodd" clip-rule="evenodd" d="M455.797 133.61L455.797 155.2H482.785V133.61H502.911V109.075H482.785V87.4829L455.797 87.4829L455.797 109.075H435.193V133.61H455.797Z" fill="#FFBB02"/>
</g>
<g filter="url(#filter5_b_8102_2831)">
<circle cx="319.513" cy="147.316" r="17.4571" fill="#2D4660"/>
</g>
<circle cx="634.023" cy="881.231" r="18.2996" fill="#FF7C33"/>
<path fill-rule="evenodd" clip-rule="evenodd" d="M439.749 1109.86C442.454 1110.59 443.807 1110.95 444.699 1111.75C445.483 1112.46 446.024 1113.39 446.244 1114.43C446.493 1115.6 446.131 1116.95 445.406 1119.66L440.933 1136.35C440.209 1139.06 439.846 1140.41 440.096 1141.58C440.315 1142.62 440.856 1143.55 441.641 1144.26C442.533 1145.06 443.885 1145.42 446.59 1146.15L471.32 1152.78C474.025 1153.5 475.378 1153.86 476.552 1153.61C477.585 1153.39 478.521 1152.85 479.228 1152.07C480.031 1151.18 480.393 1149.82 481.118 1147.12L485.591 1130.43C486.316 1127.72 486.678 1126.37 487.481 1125.48C488.188 1124.69 489.125 1124.15 490.158 1123.93C491.332 1123.68 492.684 1124.04 495.389 1124.77L509.891 1128.65C512.595 1129.38 513.948 1129.74 515.122 1129.49C516.155 1129.27 517.092 1128.73 517.798 1127.95C518.601 1127.06 518.964 1125.7 519.689 1123L525.336 1101.92C526.061 1099.22 526.423 1097.86 526.174 1096.69C525.954 1095.66 525.413 1094.72 524.628 1094.01C523.736 1093.21 522.384 1092.85 519.679 1092.12L505.178 1088.24C502.473 1087.51 501.12 1087.15 500.228 1086.35C499.444 1085.64 498.903 1084.7 498.683 1083.67C498.434 1082.5 498.796 1081.14 499.521 1078.44L503.994 1061.75C504.718 1059.04 505.081 1057.69 504.831 1056.52C504.612 1055.48 504.071 1054.55 503.286 1053.84C502.394 1053.04 501.042 1052.67 498.337 1051.95L473.607 1045.32C470.902 1044.6 469.55 1044.24 468.375 1044.48C467.343 1044.7 466.406 1045.25 465.699 1046.03C464.896 1046.92 464.534 1048.27 463.809 1050.98L459.336 1067.67C458.611 1070.38 458.249 1071.73 457.446 1072.62C456.739 1073.41 455.802 1073.95 454.769 1074.17C453.595 1074.42 452.243 1074.05 449.538 1073.33L434.307 1069.25C431.602 1068.52 430.249 1068.16 429.075 1068.41C428.042 1068.63 427.106 1069.17 426.399 1069.96C425.596 1070.85 425.234 1072.2 424.509 1074.9L418.861 1095.98C418.137 1098.69 417.774 1100.04 418.024 1101.21C418.243 1102.25 418.784 1103.18 419.569 1103.89C420.461 1104.69 421.813 1105.05 424.518 1105.78L439.749 1109.86Z" fill="#BAFBC8"/>
<defs>
<filter id="filter0_b_8102_2831" x="1297.24" y="684.908" width="173.286" height="173.956" filterUnits="userSpaceOnUse" color-interpolation-filters="sRGB">
<feFlood flood-opacity="0" result="BackgroundImageFix"/>
<feGaussianBlur in="BackgroundImageFix" stdDeviation="25"/>
<feComposite in2="SourceAlpha" operator="in" result="effect1_backgroundBlur_8102_2831"/>
<feBlend mode="normal" in="SourceGraphic" in2="effect1_backgroundBlur_8102_2831" result="shape"/>
</filter>
<filter id="filter1_b_8102_2831" x="163.454" y="485.894" width="638.099" height="555.83" filterUnits="userSpaceOnUse" color-interpolation-filters="sRGB">
<feFlood flood-opacity="0" result="BackgroundImageFix"/>
<feGaussianBlur in="BackgroundImageFix" stdDeviation="25"/>
<feComposite in2="SourceAlpha" operator="in" result="effect1_backgroundBlur_8102_2831"/>
<feBlend mode="normal" in="SourceGraphic" in2="effect1_backgroundBlur_8102_2831" result="shape"/>
</filter>
<filter id="filter2_b_8102_2831" x="1070.72" y="341.82" width="297.833" height="297.833" filterUnits="userSpaceOnUse" color-interpolation-filters="sRGB">
<feFlood flood-opacity="0" result="BackgroundImageFix"/>
<feGaussianBlur in="BackgroundImageFix" stdDeviation="25"/>
<feComposite in2="SourceAlpha" operator="in" result="effect1_backgroundBlur_8102_2831"/>
<feBlend mode="normal" in="SourceGraphic" in2="effect1_backgroundBlur_8102_2831" result="shape"/>
</filter>
<filter id="filter3_b_8102_2831" x="980.855" y="754.616" width="455.674" height="425.834" filterUnits="userSpaceOnUse" color-interpolation-filters="sRGB">
<feFlood flood-opacity="0" result="BackgroundImageFix"/>
<feGaussianBlur in="BackgroundImageFix" stdDeviation="25"/>
<feComposite in2="SourceAlpha" operator="in" result="effect1_backgroundBlur_8102_2831"/>
<feBlend mode="normal" in="SourceGraphic" in2="effect1_backgroundBlur_8102_2831" result="shape"/>
</filter>
<filter id="filter4_b_8102_2831" x="385.193" y="37.4829" width="167.717" height="167.717" filterUnits="userSpaceOnUse" color-interpolation-filters="sRGB">
<feFlood flood-opacity="0" result="BackgroundImageFix"/>
<feGaussianBlur in="BackgroundImageFix" stdDeviation="25"/>
<feComposite in2="SourceAlpha" operator="in" result="effect1_backgroundBlur_8102_2831"/>
<feBlend mode="normal" in="SourceGraphic" in2="effect1_backgroundBlur_8102_2831" result="shape"/>
</filter>
<filter id="filter5_b_8102_2831" x="252.056" y="79.8589" width="134.914" height="134.914" filterUnits="userSpaceOnUse" color-interpolation-filters="sRGB">
<feFlood flood-opacity="0" result="BackgroundImageFix"/>
<feGaussianBlur in="BackgroundImageFix" stdDeviation="25"/>
<feComposite in2="SourceAlpha" operator="in" result="effect1_backgroundBlur_8102_2831"/>
<feBlend mode="normal" in="SourceGraphic" in2="effect1_backgroundBlur_8102_2831" result="shape"/>
</filter>
</defs>
</svg>
