<svg width="77" height="33" viewBox="0 0 77 33" fill="none" xmlns="http://www.w3.org/2000/svg">
<path d="M6.84414 9.80127L9.6424 23.812H15.4324L16.9911 18.4433L18.6088 23.812H24.3103L25.4579 18.1873C26.4554 24.1286 32.4692 24.3569 34.2083 24.3569C35.9475 24.3569 38.7692 23.9296 41.2205 22.4797V23.812H51.2252C54.0755 23.812 54.9308 22.9071 55.5571 21.5991V23.812H61.5717V18.8698H64.4229V23.812H70.2952V9.81858H64.4229V14.8325H61.6012V9.81858H55.5571V12.4173C54.988 10.7399 53.876 9.81858 50.9971 9.81858H41.2482V11.8766C40.4225 10.9103 38.3702 9.3748 33.9516 9.3748C29.533 9.3748 27.9656 10.4553 26.3409 12.7295L26.8744 9.81858H22.1427L20.8684 14.9182L19.6714 9.82983H14.5407L13.2291 15.0038L12.0607 9.80127H6.84414ZM13.0565 3.48194H18.2827L18.8352 6.04861L21.5138 3.43349H26.3028L26.9299 6.07715L29.5807 3.43349H34.5406L33.9993 5.65153C36.0802 3.91706 37.7335 2.8937 41.2109 2.8937C44.6875 2.8937 46.2844 3.94563 47.6532 5.36694L49.6196 3.46206H57.4012C59.6538 3.46206 60.3365 5.05465 60.3365 6.24759L63.2163 3.46206H68.5743V6.13425L71.2537 3.48194H76.4998V17.8456L63.8001 30.2905H57.8913L57.886 27.5966L55.0921 30.2905H49.2197V27.8233C47.5673 30.0699 46.0849 30.2905 44.1463 30.2905H35.1677V28.5915C34.3983 29.1892 31.4049 30.6953 27.3584 30.6953C23.3102 30.6953 21.0861 29.4453 20.0036 27.767L17.3025 30.2905H12.4337L11.7658 27.767L9.14277 30.3259H4.1274L1.13397 15.2028L13.0565 3.48194Z" fill="#1D344B"/>
<path d="M36.0323 14.1225H41.2489V15.658H34.1508V18.415H35.9472V19.9496C35.9472 20.7455 35.491 21.2861 34.2081 21.2861C32.926 21.2861 32.4689 20.3198 32.4689 19.8648C32.4689 19.4098 32.4984 14.6337 32.4984 14.0654C32.4984 13.497 32.9261 12.587 34.2653 12.587C35.6046 12.587 36.0323 13.2981 36.0323 14.1225Z" fill="#1D344B"/>
<path d="M46.7785 12.8715V15.202C46.7785 15.202 47.9478 15.2314 48.6599 15.2314C49.3721 15.2314 49.9428 14.8041 49.9428 14.0653C49.9428 13.3257 49.4579 12.8715 48.6599 12.8715H46.7785Z" fill="#1D344B"/>
<path d="M46.7785 18.4709V20.8308C46.7785 20.8308 48.0319 20.8594 48.7458 20.8594C49.4579 20.8594 50.0278 20.4329 50.0278 19.6933C50.0278 18.9554 49.5438 18.4709 48.7458 18.4709H46.7785Z" fill="#1D344B"/>
<path d="M55.5574 15.1174V18.8701C55.0725 17.3632 53.99 17.108 53.2492 16.851C53.9614 16.7377 55.1306 16.1131 55.5574 15.1174Z" fill="#1D344B"/>
</svg>
