<svg width="60" height="61" viewBox="0 0 60 61" fill="none" xmlns="http://www.w3.org/2000/svg">
<path d="M29.9977 5.79492C28.936 5.79492 28.0745 6.65643 28.0745 7.71808V8.04876C28.0745 8.96683 27.4284 9.787 26.519 9.93276C26.0796 10.0046 25.6423 10.0872 25.2116 10.1851C24.3196 10.3896 23.4168 9.8849 23.0665 9.03862L22.9381 8.7384C22.5335 7.75724 21.4087 7.29168 20.4254 7.6985C19.4443 8.10315 18.9787 9.22789 19.3855 10.2112L19.5139 10.518C19.8685 11.3643 19.5857 12.365 18.8047 12.8501C18.4283 13.0851 18.0606 13.3309 17.7017 13.5855C16.9555 14.1185 15.9243 13.9966 15.276 13.3483L15.0432 13.1156C14.2904 12.3628 13.0743 12.3628 12.3238 13.1156C11.5732 13.8683 11.5732 15.0844 12.3238 15.835L12.5566 16.0677C13.2049 16.716 13.3267 17.7451 12.7937 18.4934C12.537 18.8524 12.2933 19.2201 12.0584 19.5986C11.5732 20.3796 10.5703 20.6646 9.72186 20.3122L9.41728 20.1838C8.43612 19.7792 7.3092 20.2426 6.90238 21.2237C6.49773 22.2049 6.96112 23.3274 7.94228 23.7364L8.24249 23.8604C9.0866 24.2107 9.59567 25.1135 9.39118 26.0055C9.29328 26.4363 9.20626 26.8714 9.13664 27.313C8.99306 28.218 8.17506 28.8685 7.25481 28.8685H6.92413C5.86248 28.8685 5.00098 29.73 5.00098 30.7917C5.00098 31.8533 5.86248 32.7148 6.92413 32.7148H7.25481C8.17288 32.7148 8.99306 33.3631 9.13882 34.2703C9.21061 34.7098 9.29328 35.147 9.39118 35.5778C9.59567 36.4698 9.09095 37.3726 8.24685 37.7229L7.94663 37.8512C6.96547 38.2559 6.49991 39.3806 6.90673 40.3639C7.31138 41.3451 8.43612 41.8107 9.41946 41.4038L9.72838 41.2755C10.5768 40.9231 11.5776 41.2059 12.0649 41.9847C12.2998 42.3611 12.5435 42.7309 12.8002 43.0921C13.3332 43.8383 13.2114 44.8695 12.5631 45.5178L12.326 45.7505C11.5732 46.5033 11.5732 47.7194 12.326 48.4699C13.0787 49.2205 14.2948 49.2227 15.0454 48.4699L15.2825 48.2372C15.9308 47.5889 16.9576 47.4649 17.7038 47.9979C18.065 48.2546 18.4348 48.5026 18.8112 48.7375C19.59 49.2227 19.8772 50.2256 19.5248 51.074L19.3964 51.3786C18.9917 52.3598 19.4551 53.4867 20.4363 53.8957C21.4175 54.3003 22.54 53.837 22.949 52.8558L23.073 52.5556C23.4233 51.7115 24.3261 51.2024 25.2181 51.4069C25.6488 51.5048 26.0839 51.5918 26.5256 51.6636C27.4262 51.805 28.0767 52.6208 28.0767 53.5411V53.8718C28.0767 54.9334 28.9382 55.7949 29.9999 55.7949C31.0615 55.7949 31.923 54.9334 31.923 53.8718V53.5411C31.923 52.623 32.5692 51.8028 33.4785 51.6571C33.918 51.5853 34.3553 51.5026 34.786 51.4047C35.678 51.2002 36.5808 51.7049 36.9311 52.5512L37.0594 52.8514C37.4641 53.8326 38.5888 54.2982 39.5722 53.8913C40.5533 53.4867 41.0189 52.3619 40.6121 51.3786L40.4837 51.0719C40.1313 50.2234 40.4141 49.2227 41.1929 48.7354C41.5693 48.5004 41.9391 48.2567 42.3003 48C43.0465 47.467 44.0777 47.5889 44.726 48.2372L44.9588 48.4743C45.7115 49.227 46.9276 49.227 47.6782 48.4743C48.4287 47.7216 48.4309 46.5054 47.6782 45.7549L47.4454 45.5178C46.7971 44.8695 46.6731 43.8426 47.2061 43.0964C47.4628 42.7353 47.7108 42.3654 47.9457 41.9891C48.4309 41.2102 49.4338 40.9231 50.2823 41.2755L50.5868 41.4038C51.568 41.8085 52.6949 41.3451 53.1017 40.3639C53.5064 39.3828 53.043 38.2602 52.0618 37.8512L51.7616 37.7272C50.9175 37.377 50.4084 36.4741 50.6129 35.5822C50.7108 35.1514 50.7979 34.7163 50.8675 34.2747C51.0089 33.374 51.8269 32.7235 52.7449 32.7235H53.0756C54.1373 32.7235 54.9988 31.862 54.9988 30.8004C54.9988 29.7387 54.1373 28.8772 53.0756 28.8772H52.7449C51.8269 28.8772 51.0067 28.2289 50.8609 27.3217C50.7892 26.8822 50.7065 26.445 50.6086 26.0142C50.4041 25.1223 50.9088 24.2194 51.7529 23.8692L52.0531 23.7408C53.0343 23.3361 53.4999 22.2114 53.093 21.2281C52.6884 20.2469 51.5636 19.7813 50.5803 20.1882L50.2714 20.3165C49.4229 20.669 48.4222 20.3861 47.9349 19.6073C47.6999 19.2309 47.4563 18.8611 47.1995 18.5C46.6665 17.7538 46.7884 16.7226 47.4367 16.0743L47.6738 15.8415C48.4265 15.0887 48.4265 13.8726 47.6738 13.1221C46.9211 12.3693 45.705 12.3693 44.9544 13.1221L44.7216 13.3592C44.0733 14.0075 43.0421 14.1315 42.2959 13.5985C41.9348 13.3418 41.5649 13.0938 41.1886 12.8588C40.4097 12.3737 40.1269 11.3708 40.4794 10.5223L40.6077 10.2178C41.0124 9.2366 40.549 8.10968 39.5678 7.70068C38.5867 7.29603 37.4641 7.75942 37.0551 8.74058L36.9267 9.0408C36.5765 9.8849 35.6736 10.394 34.7817 10.1895C34.3509 10.0916 33.9158 10.0046 33.4742 9.93276C32.5714 9.78918 31.923 8.97118 31.923 8.05094V7.72026C31.923 6.6586 31.0615 5.7971 29.9999 5.7971L29.9977 5.79492ZM29.9977 15.4085C37.8383 15.4085 44.2996 21.2825 45.2459 28.8663H37.4119C36.5547 25.5552 33.5743 23.099 29.9955 23.099C29.2841 23.099 28.6097 23.2274 27.9571 23.4058L24.0302 16.6094C25.8664 15.835 27.8809 15.4085 29.9977 15.4085ZM20.7126 18.5478L24.6133 25.3072C23.1927 26.7039 22.3072 28.6422 22.3072 30.7895C22.3072 32.9367 23.1927 34.8729 24.6133 36.2674L20.7126 43.0268C17.0164 40.2182 14.6189 35.7888 14.6189 30.7895C14.6189 25.7901 17.0164 21.3564 20.7126 18.5478ZM29.9977 26.9453C32.1232 26.9453 33.8419 28.6662 33.8419 30.7895C33.8419 32.9128 32.121 34.6336 29.9977 34.6336C27.8744 34.6336 26.1536 32.9128 26.1536 30.7895C26.1536 28.6662 27.8744 26.9453 29.9977 26.9453ZM37.4141 32.7126H45.2481C44.2996 40.2965 37.8405 46.1704 29.9999 46.1704C27.8831 46.1704 25.8686 45.7418 24.0324 44.9695L27.9571 38.1688C28.6119 38.3494 29.2885 38.4799 29.9999 38.4799C33.5786 38.4799 36.5591 36.0238 37.4162 32.7126H37.4141Z" fill="#F5B300"/>
</svg>
