<svg width="135" height="33" viewBox="0 0 135 33" fill="none" xmlns="http://www.w3.org/2000/svg">
<path d="M3.12665 19.7107L1.65055 18.2768C0.849232 17.4754 0.849232 16.168 1.65055 15.3246L3.08447 13.8906L4.43405 15.198L3.00012 16.632C2.91578 16.7163 2.91578 16.8428 3.00012 16.885L4.43405 18.3189L3.12665 19.7107Z" fill="#1D344B"/>
<path d="M7.63947 22.9579C7.21773 22.9579 6.75381 22.7892 6.45859 22.4518L5.19336 21.1865L5.99467 20.3852L7.2599 21.6504C7.47077 21.8613 7.85034 21.8613 8.06121 21.6504L12.5739 17.1378C12.7847 16.9269 12.7847 16.5474 12.5739 16.3365L8.01904 11.866C7.80817 11.6551 7.4286 11.6551 7.21773 11.866L5.9525 13.1312L5.15118 12.3299L6.41641 11.0647C7.0912 10.3899 8.14556 10.3899 8.82035 11.0647L13.333 15.5773C14.0078 16.2521 14.0078 17.3065 13.333 17.9813L8.86253 22.4939C8.52513 22.7892 8.06121 22.9579 7.63947 22.9579Z" fill="#1D344B"/>
<path d="M27.1239 19.7107L25.7743 18.3611L27.2082 16.9272C27.2926 16.8428 27.2926 16.7163 27.2082 16.6741L25.7743 15.2402L27.1239 13.8906L28.6 15.3246C29.4013 16.1259 29.4013 17.4333 28.6 18.2768L27.1239 19.7107Z" fill="#1D344B"/>
<path d="M22.6113 22.9579C22.1895 22.9579 21.7256 22.7892 21.4304 22.4518L16.9177 17.9813C16.2429 17.3065 16.2429 16.2521 16.9177 15.5773L21.4304 11.0647C22.1052 10.3899 23.1595 10.3899 23.8343 11.0647L25.0995 12.3299L24.2561 13.1312L22.9908 11.866C22.7799 11.6551 22.4004 11.6551 22.1895 11.866L17.719 16.3787C17.5082 16.5895 17.5082 16.9691 17.719 17.18L22.2317 21.6926C22.4426 21.9035 22.8221 21.9035 23.033 21.6926L24.2982 20.4274L25.0995 21.2287L23.8343 22.4939C23.4969 22.8313 23.033 22.9579 22.6113 22.9579Z" fill="#1D344B"/>
<path d="M13.5439 6.13059L12.1943 4.78101L13.6704 3.34708C14.4717 2.54577 15.7791 2.54577 16.6226 3.34708L18.0565 4.78101L16.7069 6.08841L15.273 4.65448C15.1887 4.57013 15.0621 4.57013 15.02 4.65448L13.5439 6.13059Z" fill="#1D344B"/>
<path d="M15.1463 15.4936C14.7246 15.4936 14.2607 15.3249 13.9655 14.9875L9.41063 10.517C8.73584 9.84222 8.73584 8.78786 9.41063 8.11307L10.6759 6.84784L11.4772 7.64915L10.2119 8.91438C10.0011 9.12525 10.0011 9.50482 10.2119 9.71569L14.7246 14.2283C14.9355 14.4392 15.315 14.4392 15.5259 14.2283L20.0386 9.67352C20.2494 9.46265 20.2494 9.08308 20.0386 8.87221L18.7733 7.60698L19.5747 6.80566L20.8399 8.07089C21.5147 8.74568 21.5147 9.80004 20.8399 10.4748L16.3272 14.9875C15.9898 15.3249 15.5681 15.4936 15.1463 15.4936Z" fill="#1D344B"/>
<path d="M15.1043 30.8446C14.556 30.8446 14.0499 30.6338 13.6282 30.2542L12.1943 28.8203L13.5439 27.4707L14.9778 28.9046C15.0621 28.989 15.1887 28.989 15.2308 28.9046L16.6648 27.4707L18.0143 28.8203L16.5382 30.2542C16.2008 30.6338 15.6526 30.8446 15.1043 30.8446Z" fill="#1D344B"/>
<path d="M19.5747 26.7533L18.7733 25.9099L20.0386 24.6446C20.2494 24.4338 20.2494 24.0542 20.0386 23.8433L15.5259 19.3728C15.315 19.162 14.9355 19.162 14.7246 19.3728L10.2119 23.8855C10.0011 24.0964 10.0011 24.4759 10.2119 24.6868L11.4772 25.952L10.6759 26.7533L9.41063 25.4881C8.73584 24.8133 8.73584 23.759 9.41063 23.0842L13.9233 18.5715C14.5981 17.8967 15.6524 17.8967 16.3272 18.5715L20.8399 23.0842C21.5147 23.759 21.5147 24.8133 20.8399 25.4881L19.5747 26.7533Z" fill="#1D344B"/>
<path d="M43.6563 10.2217V12.7521H39.1015V21.8618H36.571V12.7521H32.0162V10.2217H43.6563Z" fill="#1D344B"/>
<path d="M56.435 10.2217V21.8618H53.9468V17.307H47.0723V21.8618H44.584V10.2217H47.0723V14.7765H53.9468V10.2217H56.435Z" fill="#1D344B"/>
<path d="M68.7499 12.752H60.5259V14.7763H67.1473V17.3068H60.5259V19.3312H68.7499V21.8616H57.9954V10.2637H68.7499V12.752Z" fill="#1D344B"/>
<path d="M81.6553 13.7222H79.1248V12.7521H72.5456V19.3313H79.0826V17.6022H76.5522V15.0717H81.6131V19.4579C81.6131 20.7653 80.5166 21.8618 79.2091 21.8618H72.3769C71.0695 21.8618 69.973 20.8074 69.973 19.5V12.6256C69.973 11.3182 71.0273 10.2217 72.3347 10.2217H79.167C80.4744 10.2217 81.5709 11.276 81.5709 12.6256L81.6553 13.7222Z" fill="#1D344B"/>
<path d="M92.3255 10.2217C93.6329 10.2217 94.7294 11.276 94.7294 12.6256V21.8618H92.199V18.1083H85.6198V21.8618H83.1315V12.6256C83.1315 11.3182 84.1858 10.2217 85.4932 10.2217H92.3255ZM92.199 15.5778V12.7521H85.6198V15.5778H92.199Z" fill="#1D344B"/>
<path d="M106.707 10.2217H109.322V21.8618H106.791V14.0595C105.484 15.62 104.092 17.307 102.785 18.8252L98.7781 14.0595V21.8196H96.2477V10.2217H98.8203L102.743 14.903L106.707 10.2217Z" fill="#1D344B"/>
<path d="M121.679 12.752H113.455V14.7763H120.076V17.3068H113.455V19.3312H121.679V21.8616H110.924V10.2637H121.679V12.752Z" fill="#1D344B"/>
<path d="M134.584 15.6622C134.584 16.9696 133.488 18.0661 132.18 18.0661H132.054C132.897 19.0361 133.783 20.0905 134.584 21.0183V21.8618H132.011L128.806 18.0239H125.474C125.517 18.0239 125.517 18.0661 125.517 18.1083H125.474V21.8196H122.944V10.2217H132.18C133.488 10.2217 134.584 11.276 134.584 12.6256V15.6622ZM125.474 15.5356H132.054V12.7521H125.474V15.5356Z" fill="#1D344B"/>
</svg>
