<svg width="55" height="33" viewBox="0 0 55 33" fill="none" xmlns="http://www.w3.org/2000/svg">
<path d="M5.0246 16.8028C5.0246 21.3201 8.75007 24.9951 13.3294 24.9951H21.0865C21.5737 24.9951 21.9515 24.5383 21.9515 24.1449V9.13238C21.9515 8.184 22.7337 7.41219 23.6948 7.41219C24.3114 7.41219 24.8861 7.7347 25.194 8.25423C25.2326 8.31962 27.5812 12.3139 30.0674 16.543C32.443 20.5841 34.8998 24.7629 34.9384 24.8285C35.0627 25.0376 35.3057 25.1725 35.5579 25.1725C35.9574 25.1725 36.2825 24.852 36.2825 24.4577V9.13238C36.2825 8.184 37.0643 7.41219 38.0259 7.41219C38.6425 7.41219 39.2171 7.7347 39.5249 8.25423C39.5639 8.31962 41.9105 12.3139 44.3952 16.5432C46.7685 20.5835 49.223 24.7611 49.2626 24.8285C49.3869 25.0376 49.6299 25.1725 49.882 25.1725C50.2815 25.1725 50.6062 24.852 50.6062 24.4577V4.58865H47.5487V16.4158C47.5487 16.4158 42.0087 7.00933 41.8292 6.70686C41.0205 5.34308 39.4869 4.48145 37.8547 4.48145C35.2979 4.48145 33.2245 6.52766 33.2245 9.0496V16.4158C33.2245 16.4158 27.6847 7.00933 27.5051 6.70686C26.6964 5.34308 25.1628 4.48145 23.5306 4.48145C20.9738 4.48145 18.9004 6.52766 18.9004 9.0496V21.1536C18.902 21.5941 18.5663 21.9781 18.0776 21.9789H13.3622C10.4644 21.9789 8.11517 19.6615 8.11517 16.8028C8.11517 13.944 10.4644 11.6266 13.3622 11.6266H17.3119V8.61042H13.3294C8.75007 8.61042 5.0246 12.2855 5.0246 16.8028Z" fill="#1D344B"/>
<path d="M51.6255 4.58887V24.4582C51.6255 25.4068 50.8438 26.1784 49.8821 26.1784C49.2656 26.1784 48.6909 25.8559 48.3829 25.3365C48.3443 25.2712 45.9973 21.2767 43.5131 17.0476C41.1393 13.0075 38.6854 8.82945 38.6452 8.76231C38.5214 8.55318 38.2779 8.41801 38.0257 8.41801C37.6263 8.41801 37.3016 8.73854 37.3016 9.13259V24.4582C37.3016 25.4068 36.5194 26.1784 35.558 26.1784C34.9414 26.1784 34.3672 25.8559 34.0588 25.3365C34.0202 25.2712 31.6716 21.2769 29.1854 17.0476C26.8096 13.0066 24.353 8.82791 24.3142 8.76231C24.1899 8.55318 23.9469 8.41801 23.6947 8.41801C23.2952 8.41801 22.9705 8.73854 22.9705 9.13259V24.1454C22.9705 25.1338 22.0902 26.0009 21.0866 26.0009H13.3295C8.18825 26.0009 4.00529 21.875 4.00529 16.803C4.00529 11.7314 8.18825 7.60525 13.3295 7.60525H17.3118V4.58887H13.333C6.49467 4.58887 0.950867 10.0572 0.950867 16.803C0.950867 23.549 6.49467 29.0175 13.333 29.0175H21.1645C24.1312 29.0191 26.039 27.3044 26.035 24.1416V17.1748C26.035 17.1748 31.6145 26.6481 31.7547 26.8839C32.5634 28.2475 34.097 29.1091 35.7292 29.1091C38.2862 29.1091 40.3591 27.0629 40.3591 24.5412V17.1748C40.3591 17.1748 45.8991 26.5814 46.0786 26.8839C46.8875 28.2475 48.4211 29.1091 50.0533 29.1091C52.6101 29.1091 54.6833 27.0629 54.6833 24.5412V4.58887H51.6255Z" fill="#1D344B"/>
</svg>
