<svg width="60" height="33" viewBox="0 0 60 33" fill="none" xmlns="http://www.w3.org/2000/svg">
<path fill-rule="evenodd" clip-rule="evenodd" d="M1.0062 6.69141H21.2588V26.8986H1.0062V6.69141ZM2.0062 7.69141V25.8986H20.2588V7.69141H2.0062Z" fill="#1D344B"/>
<path fill-rule="evenodd" clip-rule="evenodd" d="M20.2586 6.69141H40.6019V26.8986H20.2586V6.69141ZM21.2586 7.69141V25.8986H39.6019V7.69141H21.2586Z" fill="#1D344B"/>
<path fill-rule="evenodd" clip-rule="evenodd" d="M39.6017 6.69141H59.6275V26.8986H39.6017V6.69141ZM40.6017 7.69141V25.8986H58.6275V7.69141H40.6017Z" fill="#1D344B"/>
<path d="M13.1474 22.0009V16.1844C13.1474 15.3287 12.9886 14.7043 12.6598 14.2996C12.331 13.8948 11.8094 13.7098 11.0725 13.7098C10.6869 13.7214 10.3241 13.8254 9.98397 13.9989C9.63248 14.1608 9.315 14.4152 9.0769 14.7274V22.0125H6.77521V11.8943H8.44195L8.87281 12.8425C9.49642 12.1025 10.4262 11.7324 11.662 11.7324C12.8412 11.7324 13.771 12.0909 14.4513 12.8078C15.1316 13.5248 15.4717 14.5308 15.4717 15.8144V22.0125L13.1474 22.0009Z" fill="#1D344B"/>
<path d="M30.2456 22.1976C31.7536 22.1976 32.9555 21.7466 33.8285 20.8562C34.7016 19.9658 35.1438 18.6938 35.1438 17.0402C35.1438 13.4902 33.5677 11.721 30.4043 11.721C29.6106 11.6978 28.8396 11.9985 28.2727 12.5651V11.8944H25.9597V24.6838H28.2614V21.7582C28.885 22.0589 29.5653 22.2092 30.2456 22.1976ZM29.7354 13.733C30.8012 13.733 31.5608 13.9759 32.0257 14.4615C32.4906 14.9472 32.7174 15.7914 32.7174 16.9824C32.7174 18.1041 32.4793 18.9136 32.0257 19.4339C31.5608 19.9543 30.8012 20.2087 29.7354 20.2087C29.2025 20.2202 28.6809 20.0352 28.2727 19.6883V14.3922C28.6469 13.9759 29.1798 13.7446 29.7354 13.733Z" fill="#1D344B"/>
<path d="M52.3327 14.103C51.9245 13.837 51.4596 13.6982 50.9834 13.7098C50.4505 13.7098 49.9743 13.9526 49.5661 14.4499C49.1466 14.9587 48.9198 15.6062 48.9425 16.2654V22.0009H46.6295V11.8943H48.9425V12.8657C49.5888 12.114 50.4392 11.7324 51.5163 11.7324C52.2987 11.7324 52.8996 11.8596 53.3191 12.1025L52.3327 14.103Z" fill="#1D344B"/>
</svg>
