<svg width="1440" height="154" viewBox="0 0 1440 154" fill="none" xmlns="http://www.w3.org/2000/svg">
<path fill-rule="evenodd" clip-rule="evenodd" d="M1241.69 88.4024C1303.03 90.8425 1371.72 87.1041 1440 82.4614V153.417H0V25.6393C44.0452 10.4193 90.8816 -3.05558 151.148 0.847498C216.859 5.10818 266.059 18.1683 313.639 30.8026C365.319 44.5273 418.767 58.7172 494.129 62.1551C552.395 64.8026 586.387 56.5159 619.294 48.494L619.358 48.4784C653.938 40.0413 686.608 32.076 745.326 36.8923C811.636 42.3344 876.032 50.607 944.201 59.3644L944.202 59.3645L944.357 59.3844C1039.67 71.6294 1138.24 84.2926 1241.69 88.4024Z" fill="#0B1F33"/>
</svg>
