<svg width="346" height="343" viewBox="0 0 346 343" fill="none" xmlns="http://www.w3.org/2000/svg">
<g filter="url(#filter0_b_7929_7503)">
<path d="M258.644 84.2325C266.892 90.793 274.252 98.5257 280.029 107.319C286.401 117.015 292.429 128.112 296.059 139.16C312.034 187.812 290.308 243.307 247.256 270.63C234.427 278.78 220.079 284.444 205.336 288.025C163.346 298.248 118.794 287.554 86.578 258.607C67.2907 241.279 52.8499 218.416 46.2087 193.297C39.2885 167.078 46.7429 135.754 60.5561 112.947C67.0331 102.252 74.679 92.1413 83.8978 83.658C92.6183 75.6311 103.326 71.1884 112.821 64.2944C122.844 57.0139 131.246 47.4831 137.035 36.5298C141.703 27.706 148.052 14.2463 160.311 18.9578C169.146 22.3498 176.256 30.2347 183.53 36.0861C191.832 42.7571 200.184 49.372 208.927 55.4613C217.974 61.7609 228.144 66.1214 237.955 71.054C245.186 74.6867 252.186 79.1009 258.644 84.2325Z" fill="#00C63F" fill-opacity="0.6"/>
<path d="M258.644 84.2325C266.892 90.793 274.252 98.5257 280.029 107.319C286.401 117.015 292.429 128.112 296.059 139.16C312.034 187.812 290.308 243.307 247.256 270.63C234.427 278.78 220.079 284.444 205.336 288.025C163.346 298.248 118.794 287.554 86.578 258.607C67.2907 241.279 52.8499 218.416 46.2087 193.297C39.2885 167.078 46.7429 135.754 60.5561 112.947C67.0331 102.252 74.679 92.1413 83.8978 83.658C92.6183 75.6311 103.326 71.1884 112.821 64.2944C122.844 57.0139 131.246 47.4831 137.035 36.5298C141.703 27.706 148.052 14.2463 160.311 18.9578C169.146 22.3498 176.256 30.2347 183.53 36.0861C191.832 42.7571 200.184 49.372 208.927 55.4613C217.974 61.7609 228.144 66.1214 237.955 71.054C245.186 74.6867 252.186 79.1009 258.644 84.2325Z" fill="url(#paint0_linear_7929_7503)" fill-opacity="0.25"/>
<path d="M258.644 84.2325C266.892 90.793 274.252 98.5257 280.029 107.319C286.401 117.015 292.429 128.112 296.059 139.16C312.034 187.812 290.308 243.307 247.256 270.63C234.427 278.78 220.079 284.444 205.336 288.025C163.346 298.248 118.794 287.554 86.578 258.607C67.2907 241.279 52.8499 218.416 46.2087 193.297C39.2885 167.078 46.7429 135.754 60.5561 112.947C67.0331 102.252 74.679 92.1413 83.8978 83.658C92.6183 75.6311 103.326 71.1884 112.821 64.2944C122.844 57.0139 131.246 47.4831 137.035 36.5298C141.703 27.706 148.052 14.2463 160.311 18.9578C169.146 22.3498 176.256 30.2347 183.53 36.0861C191.832 42.7571 200.184 49.372 208.927 55.4613C217.974 61.7609 228.144 66.1214 237.955 71.054C245.186 74.6867 252.186 79.1009 258.644 84.2325Z" fill="url(#paint1_radial_7929_7503)"/>
<path d="M258.644 84.2325C266.892 90.793 274.252 98.5257 280.029 107.319C286.401 117.015 292.429 128.112 296.059 139.16C312.034 187.812 290.308 243.307 247.256 270.63C234.427 278.78 220.079 284.444 205.336 288.025C163.346 298.248 118.794 287.554 86.578 258.607C67.2907 241.279 52.8499 218.416 46.2087 193.297C39.2885 167.078 46.7429 135.754 60.5561 112.947C67.0331 102.252 74.679 92.1413 83.8978 83.658C92.6183 75.6311 103.326 71.1884 112.821 64.2944C122.844 57.0139 131.246 47.4831 137.035 36.5298C141.703 27.706 148.052 14.2463 160.311 18.9578C169.146 22.3498 176.256 30.2347 183.53 36.0861C191.832 42.7571 200.184 49.372 208.927 55.4613C217.974 61.7609 228.144 66.1214 237.955 71.054C245.186 74.6867 252.186 79.1009 258.644 84.2325Z" fill="url(#paint2_linear_7929_7503)" style="mix-blend-mode:soft-light"/>
<path d="M258.644 84.2325C266.892 90.793 274.252 98.5257 280.029 107.319C286.401 117.015 292.429 128.112 296.059 139.16C312.034 187.812 290.308 243.307 247.256 270.63C234.427 278.78 220.079 284.444 205.336 288.025C163.346 298.248 118.794 287.554 86.578 258.607C67.2907 241.279 52.8499 218.416 46.2087 193.297C39.2885 167.078 46.7429 135.754 60.5561 112.947C67.0331 102.252 74.679 92.1413 83.8978 83.658C92.6183 75.6311 103.326 71.1884 112.821 64.2944C122.844 57.0139 131.246 47.4831 137.035 36.5298C141.703 27.706 148.052 14.2463 160.311 18.9578C169.146 22.3498 176.256 30.2347 183.53 36.0861C191.832 42.7571 200.184 49.372 208.927 55.4613C217.974 61.7609 228.144 66.1214 237.955 71.054C245.186 74.6867 252.186 79.1009 258.644 84.2325Z" fill="url(#paint3_linear_7929_7503)" style="mix-blend-mode:soft-light"/>
</g>
<path d="M210.519 167.078C214.799 165.53 218.517 162.736 222.731 161.019C226.945 159.303 232.21 158.912 235.66 161.874C239.822 165.462 239.368 172.066 237.485 177.225C233.036 189.39 222.364 199.081 209.822 202.318C197.288 205.561 183.245 202.257 173.462 193.779C167.031 188.199 161.785 176.906 170.291 170.351C176.246 165.764 187.951 168.151 194.82 168.527C200.085 168.815 205.498 168.874 210.525 167.069L210.519 167.078Z" fill="#1D344B"/>
<path d="M169.122 117.051C172.74 118.535 175.675 121.225 175.545 125.547C175.424 129.837 171.693 133.077 168.105 135.439C165.676 137.044 163.01 138.685 161.878 141.374C160.786 143.962 161.388 146.909 161.382 149.725C161.362 153.956 159.882 158.168 157.232 161.468C155.258 163.923 152.497 165.942 149.353 166.227C146.68 166.465 144.022 165.442 141.809 163.927C135.808 159.835 132.67 151.94 134.259 144.852C130.785 145.237 127.256 145.611 123.81 145.044C120.358 144.486 116.937 142.854 114.961 139.969C112.377 136.198 112.862 130.786 115.605 127.13C118.347 123.475 122.98 121.502 127.557 121.394C128.962 121.364 130.512 121.44 131.599 120.561C133.183 119.287 132.892 116.869 132.761 114.845C132.575 112.13 132.956 109.318 134.213 106.901C135.471 104.483 137.691 102.502 140.345 101.886C143.624 101.123 147.141 102.529 149.574 104.867C152.007 107.205 153.484 110.355 154.571 113.543C154.883 114.476 155.228 115.494 156.06 116.035C157.272 116.823 160.428 115.552 161.939 115.59C164.2 115.638 166.804 116.085 169.125 117.028L169.122 117.051Z" fill="#1D344B"/>
<path d="M255.87 107.951C258.428 112.07 257.498 118.263 253.367 120.801C251.166 122.153 248.185 122.593 246.922 124.844C246.165 126.203 246.277 127.85 246.301 129.401C246.359 133.996 245.293 138.83 242.208 142.238C239.123 145.645 233.671 147.136 229.736 144.765C226.499 142.811 225.032 138.911 224.226 135.214C223.84 133.465 223.423 131.494 221.901 130.542C219.422 128.992 216.371 131.34 213.462 131.651C210.158 132.007 206.987 129.391 206.087 126.187C205.187 122.983 206.227 119.467 208.176 116.781C210.124 114.094 212.9 112.11 215.747 110.386C217.195 109.514 218.785 108.56 219.309 106.961C219.677 105.853 219.446 104.658 219.278 103.504C218.889 100.695 218.943 97.7465 220.047 95.1402C221.141 92.5281 223.431 90.3035 226.222 89.8268C228.843 89.3784 231.564 90.5184 233.525 92.3229C235.486 94.1274 236.781 96.5307 237.828 98.9867C238.55 100.665 239.416 102.953 241.455 103.36C243.072 103.681 244.234 102.398 245.859 102.359C249.657 102.248 253.896 104.791 255.861 107.945L255.87 107.951Z" fill="#1D344B"/>
<defs>
<filter id="filter0_b_7929_7503" x="18.5854" y="-7.01562" width="307.718" height="323.828" filterUnits="userSpaceOnUse" color-interpolation-filters="sRGB">
<feFlood flood-opacity="0" result="BackgroundImageFix"/>
<feGaussianBlur in="BackgroundImageFix" stdDeviation="12.5"/>
<feComposite in2="SourceAlpha" operator="in" result="effect1_backgroundBlur_7929_7503"/>
<feBlend mode="normal" in="SourceGraphic" in2="effect1_backgroundBlur_7929_7503" result="shape"/>
</filter>
<linearGradient id="paint0_linear_7929_7503" x1="303.212" y1="-33.1105" x2="166.173" y2="200.889" gradientUnits="userSpaceOnUse">
<stop stop-color="#02FE51" stop-opacity="0"/>
<stop offset="1" stop-color="#02FE51"/>
</linearGradient>
<radialGradient id="paint1_radial_7929_7503" cx="0" cy="0" r="1" gradientUnits="userSpaceOnUse" gradientTransform="translate(145.832 253.364) rotate(-105.018) scale(152.73 158.717)">
<stop stop-color="#02FE51"/>
<stop offset="1" stop-color="#02FE51" stop-opacity="0"/>
</radialGradient>
<linearGradient id="paint2_linear_7929_7503" x1="255.528" y1="44.6345" x2="182.349" y2="188.332" gradientUnits="userSpaceOnUse">
<stop stop-color="white"/>
<stop offset="1" stop-color="white" stop-opacity="0"/>
</linearGradient>
<linearGradient id="paint3_linear_7929_7503" x1="173.132" y1="44.6871" x2="87.0664" y2="298.937" gradientUnits="userSpaceOnUse">
<stop stop-color="white"/>
<stop offset="0.578125" stop-color="white" stop-opacity="0"/>
</linearGradient>
</defs>
</svg>
