<svg width="119" height="33" viewBox="0 0 119 33" fill="none" xmlns="http://www.w3.org/2000/svg">
<path d="M83.4877 8.97656C84.9686 9.01928 86.7626 9.08642 87.8455 10.2582C88.4851 11.048 88.8328 12.0502 88.8259 13.0839C88.8447 13.5352 88.7726 13.9855 88.6144 14.406C88.4561 14.8265 88.2151 15.2077 87.907 15.5251C87.4694 15.9296 86.9698 16.2546 86.429 16.4864C87.0929 16.6446 87.7085 16.9729 88.2201 17.4415C88.8962 18.2338 89.2573 19.265 89.2298 20.3252C89.2419 20.8224 89.1576 21.317 88.9821 21.7794C88.8066 22.2419 88.5435 22.6627 88.2084 23.0167C87.0377 24.2586 85.4983 24.28 83.8184 24.3227H77.0666V21.1918L78.3807 21.2132V12.0861L77.0666 12.1074V8.97656H83.4877ZM82.2058 15.1498C83.394 15.1712 83.5609 15.1712 83.8535 15.1071C84.1842 15.0336 84.479 14.8396 84.6849 14.56C84.8909 14.2804 84.9945 13.9334 84.9774 13.5813C84.9937 13.2996 84.9348 13.0187 84.8072 12.7698C84.6796 12.5209 84.4882 12.3138 84.2545 12.1715C83.9208 11.9976 83.713 11.9976 82.2321 11.9762L82.2058 15.1498ZM82.2058 21.1918H83.3765C84.1872 21.1918 85.3344 21.1705 85.3344 19.7149C85.3516 19.4021 85.2745 19.0915 85.1139 18.8266C84.9533 18.5617 84.7173 18.3559 84.4389 18.238C84.0847 18.0854 83.9179 18.0854 82.2292 18.0854L82.2058 21.1918Z" fill="#1D344B"/>
<path d="M100.252 20.4534C100.105 21.259 99.9151 22.324 98.9581 23.2791C98.001 24.2343 96.6167 24.5852 95.2675 24.5852C92.3906 24.5852 89.8678 23.1296 89.8678 18.7385C89.8541 17.9736 89.9528 17.211 90.1605 16.4773C90.8922 13.8896 92.9145 12.8154 95.1358 12.8154C96.804 12.8154 98.1591 13.4257 98.9405 14.2496C100.527 15.8578 100.445 18.4669 100.421 19.4678H93.8276C93.8276 20.3375 93.851 21.8785 95.2031 21.8785C96.3299 21.8785 96.4763 20.8806 96.5406 20.4656L100.252 20.4534ZM96.5465 17.3225C96.5622 17.0214 96.5265 16.7197 96.4411 16.4315C96.3507 16.1774 96.1845 15.9602 95.967 15.8119C95.7494 15.6636 95.4919 15.592 95.2324 15.6076C93.9798 15.6076 93.9388 16.8679 93.9388 17.3225H96.5465Z" fill="#1D344B"/>
<path d="M111.446 21.1915V24.3224H106.942L106.86 23.0194C106.535 23.5265 106.089 23.9373 105.567 24.2116C105.044 24.4859 104.462 24.6145 103.878 24.5848C101.937 24.5848 100.729 23.3886 100.729 21.2129C100.706 20.6245 100.828 20.0398 101.084 19.515C101.341 18.9902 101.722 18.5429 102.192 18.2163C103.568 17.2367 105.704 17.3222 106.758 17.3435C106.785 16.9454 106.771 16.5454 106.717 16.1504C106.686 15.9156 106.573 15.701 106.4 15.5482C106.226 15.3953 106.004 15.3152 105.777 15.3234C105.645 15.3216 105.515 15.3477 105.393 15.4001C105.271 15.4526 105.161 15.5303 105.069 15.6286C104.947 15.7776 104.856 15.9505 104.799 16.1371C104.743 16.3237 104.723 16.5202 104.741 16.7149H101.103C101.103 16.0839 101.231 15.46 101.478 14.884C102.251 13.2545 104.211 12.7754 105.713 12.7754C107.129 12.7754 108.756 13.2087 109.652 14.1669C110.466 15.0122 110.548 15.9978 110.548 16.8187V21.1915H111.446ZM106.763 19.324C106.371 19.2746 105.974 19.3047 105.593 19.4125C105.304 19.4929 105.05 19.6751 104.875 19.9281C104.7 20.1812 104.615 20.4895 104.633 20.8009C104.633 21.5608 105.01 21.9758 105.572 21.9758C105.76 21.9783 105.946 21.9295 106.11 21.8342C106.274 21.739 106.412 21.6005 106.509 21.4326C106.678 21.1212 106.765 20.7683 106.76 20.4103L106.763 19.324Z" fill="#1D344B"/>
<path d="M116.699 9.54102V13.0625H118.429V16.1811H116.699V20.2366C116.72 20.6486 116.761 21.4969 117.762 21.4969C117.954 21.4985 118.145 21.4622 118.324 21.3901V24.2586C117.576 24.424 116.816 24.519 116.053 24.5423C114.844 24.5423 113.925 24.1914 113.466 23.7154C112.88 23.1051 112.863 22.3025 112.863 21.6709V16.1811H111.923V13.0625H113.155V10.3832L116.699 9.54102Z" fill="#1D344B"/>
<path d="M1.20459 8.97656H7.52326V12.1074L6.22967 12.0861L8.37492 20.8684L10.6899 12.0861L9.39925 12.1074V8.97656H15.194V12.1074L14.2136 12.0861L10.5641 24.3227H5.81116L2.12064 12.0861L1.20459 12.1074V8.97656Z" fill="#1D344B"/>
<path d="M24.2403 20.4534C24.0939 21.259 23.9066 22.324 22.9496 23.2791C21.9926 24.2343 20.6083 24.5852 19.2591 24.5852C16.3822 24.5852 13.8594 23.1296 13.8594 18.7385C13.8444 17.9735 13.9431 17.2107 14.1521 16.4773C14.8808 13.8896 16.9031 12.8154 19.1274 12.8154C20.7956 12.8154 22.1506 13.4257 22.9321 14.2496C24.5183 15.8578 24.4334 18.4669 24.4129 19.4678H17.8192C17.8192 20.3375 17.8397 21.8785 19.1947 21.8785C20.3215 21.8785 20.4678 20.8806 20.5293 20.4656L24.2403 20.4534ZM20.5293 17.3225C20.5445 17.0216 20.5098 16.7202 20.4268 16.4315C20.3363 16.1769 20.1696 15.9593 19.9515 15.811C19.7333 15.6626 19.4752 15.5913 19.2152 15.6076C17.9655 15.6076 17.9245 16.8679 17.9245 17.3225H20.5293Z" fill="#1D344B"/>
<path d="M35.9148 21.1918H36.8133V24.3227H32.037V17.707C32.0498 17.4296 32.0221 17.1518 31.955 16.8831C31.882 16.7004 31.7562 16.5458 31.5953 16.4409C31.4343 16.3359 31.2461 16.2857 31.0565 16.2972C30.9092 16.2972 30.7634 16.328 30.6277 16.3878C30.492 16.4475 30.3691 16.535 30.2663 16.645C29.8917 17.0356 29.8683 17.533 29.8478 18.1708V21.2223H30.5795V24.3227H25.1154V21.1918H25.9934V16.1812H25.1154V13.0625H29.3913L29.5142 14.7805C29.6786 14.4395 29.8973 14.1299 30.161 13.8651C30.5221 13.4995 30.9497 13.2129 31.4187 13.0221C31.8876 12.8314 32.3884 12.7403 32.8916 12.7543C34.0183 12.7543 34.7705 13.1907 35.1656 13.6271C35.8738 14.3655 35.8943 15.2779 35.9148 16.0683V21.1918Z" fill="#1D344B"/>
<path d="M41.9818 9.54102V13.0625H43.7114V16.1811H41.9818V20.2366C42.0022 20.6486 42.0432 21.4969 43.0441 21.4969C43.2372 21.4987 43.4288 21.4625 43.609 21.3901V24.2586C42.8607 24.424 42.0996 24.519 41.335 24.5423C40.1263 24.5423 39.2102 24.1914 38.7507 23.7154C38.1654 23.1051 38.1449 22.3025 38.1449 21.6709V16.1811H37.2054V13.0625H38.4376V10.3832L41.9818 9.54102Z" fill="#1D344B"/>
<path d="M49.0906 13.0625V19.6508C49.0906 20.1054 49.1316 21.1491 50.1121 21.1491C51.0925 21.1491 51.1335 20.02 51.1335 19.4341V16.1812L50.3433 16.2025V13.0625H55.0259V21.2131L55.9215 21.1918V24.3227H51.4759V23.0624C51.1163 23.6128 50.6065 24.038 50.0125 24.283C49.4879 24.4991 48.9289 24.6098 48.3648 24.6095C47.9461 24.6309 47.5275 24.565 47.1335 24.4157C46.7396 24.2664 46.3781 24.0366 46.0703 23.7398C45.2567 22.9159 45.2157 21.8265 45.1923 20.7859V16.1812L44.3143 16.2025V13.0625H49.0906Z" fill="#1D344B"/>
<path d="M61.0782 15.0193C61.2451 14.409 61.6402 12.9351 63.7122 12.9351C64.0577 12.9291 64.4023 12.9723 64.7366 13.0633V16.6732C64.4355 16.5988 64.127 16.562 63.8176 16.5634C63.149 16.5332 62.494 16.7663 61.9826 17.2164C61.4821 17.7382 61.4616 18.3241 61.4616 19.3525L61.4207 21.1834H62.6908V24.3234H56.7614V21.1926H57.657V16.1819H56.7614V13.0633H60.9524L61.0782 15.0193Z" fill="#1D344B"/>
<path d="M75.9193 20.4534C75.7759 21.259 75.5886 22.324 74.6286 23.2791C73.6687 24.2343 72.2873 24.5852 70.9381 24.5852C68.0612 24.5852 65.5384 23.1296 65.5384 18.7385C65.5234 17.9735 65.6221 17.2107 65.8311 16.4773C66.5598 13.8896 68.5821 12.8154 70.7918 12.8154C72.46 12.8154 73.815 13.4257 74.5964 14.2496C76.1798 15.8578 76.0978 18.4669 76.0773 19.4678H69.5011C69.5011 20.3375 69.5216 21.8785 70.8737 21.8785C72.0005 21.8785 72.1468 20.8806 72.2112 20.4656L75.9193 20.4534ZM72.2112 17.3225C72.2269 17.0214 72.1912 16.7197 72.1058 16.4315C72.0162 16.1768 71.8502 15.9591 71.6325 15.8106C71.4147 15.6622 71.1568 15.591 70.8971 15.6076C69.6445 15.6076 69.6035 16.8679 69.6035 17.3225H72.2112Z" fill="#1D344B"/>
</svg>
