<svg width="30" height="24" viewBox="0 0 30 24" fill="none" xmlns="http://www.w3.org/2000/svg">
<path d="M25.3963 2.40125C23.4842 1.5239 21.4337 0.877507 19.2899 0.50729C19.2508 0.500145 19.2118 0.518001 19.1917 0.553714C18.928 1.02273 18.6359 1.63461 18.4314 2.11554C16.1255 1.77032 13.8315 1.77032 11.5729 2.11554C11.3683 1.62392 11.0656 1.02273 10.8007 0.553714C10.7806 0.519193 10.7416 0.501337 10.7026 0.50729C8.55989 0.876324 6.50945 1.52272 4.59617 2.40125C4.57961 2.40839 4.56541 2.42031 4.55599 2.43577C0.66674 8.24623 -0.398688 13.9139 0.123975 19.5112C0.12634 19.5386 0.141712 19.5648 0.162998 19.5815C2.72901 21.4659 5.21463 22.6099 7.6541 23.3682C7.69314 23.3801 7.73451 23.3658 7.75935 23.3337C8.33641 22.5456 8.8508 21.7147 9.29185 20.8409C9.31787 20.7897 9.29303 20.729 9.23983 20.7088C8.42391 20.3993 7.647 20.0219 6.89966 19.5934C6.84055 19.5588 6.83582 19.4743 6.8902 19.4338C7.04747 19.316 7.20477 19.1934 7.35494 19.0696C7.38211 19.0469 7.41997 19.0422 7.45192 19.0565C12.3616 21.298 17.6769 21.298 22.5287 19.0565C22.5606 19.041 22.5985 19.0458 22.6268 19.0684C22.7771 19.1922 22.9343 19.316 23.0928 19.4338C23.1472 19.4743 23.1436 19.5588 23.0845 19.5934C22.3372 20.0302 21.5602 20.3993 20.7431 20.7076C20.6899 20.7278 20.6663 20.7897 20.6923 20.8409C21.1428 21.7135 21.6572 22.5444 22.2236 23.3325C22.2473 23.3658 22.2898 23.3801 22.3289 23.3682C24.7802 22.6099 27.2658 21.4659 29.8318 19.5815C29.8543 19.5648 29.8685 19.5398 29.8708 19.5124C30.4964 13.0412 28.8231 7.42008 25.4353 2.43696C25.427 2.42031 25.4128 2.40839 25.3963 2.40125ZM10.025 16.103C8.54687 16.103 7.32892 14.746 7.32892 13.0794C7.32892 11.4127 8.52325 10.0557 10.025 10.0557C11.5386 10.0557 12.7448 11.4247 12.7211 13.0794C12.7211 14.746 11.5268 16.103 10.025 16.103ZM19.9934 16.103C18.5153 16.103 17.2974 14.746 17.2974 13.0794C17.2974 11.4127 18.4917 10.0557 19.9934 10.0557C21.507 10.0557 22.7132 11.4247 22.6896 13.0794C22.6896 14.746 21.507 16.103 19.9934 16.103Z" fill="white"/>
</svg>
