<svg width="30" height="31" viewBox="0 0 30 31" fill="none" xmlns="http://www.w3.org/2000/svg">
<path fill-rule="evenodd" clip-rule="evenodd" d="M15 30.583C23.2843 30.583 30 23.8673 30 15.583C30 7.29874 23.2843 0.583008 15 0.583008C6.71573 0.583008 0 7.29874 0 15.583C0 23.8673 6.71573 30.583 15 30.583ZM18.2279 12.0327C18.156 11.9999 18.0779 11.9829 17.9989 11.9829C17.9754 11.9832 17.952 11.985 17.9287 11.9883H13.3063C13.2331 11.9873 13.1604 12.0008 13.0925 12.0281C13.0245 12.0554 12.9627 12.0959 12.9106 12.1473C12.8584 12.1987 12.817 12.26 12.7888 12.3275C12.7605 12.3951 12.746 12.4675 12.746 12.5408C12.746 12.614 12.7605 12.6865 12.7888 12.754C12.817 12.8215 12.8584 12.8828 12.9106 12.9342C12.9627 12.9856 13.0245 13.0261 13.0925 13.0534C13.1604 13.0807 13.2331 13.0942 13.3063 13.0932H16.6598L11.617 18.2318C11.564 18.2828 11.5217 18.3437 11.4925 18.4112C11.4634 18.4787 11.4479 18.5513 11.4472 18.6248C11.4464 18.6983 11.4604 18.7712 11.4882 18.8392C11.5159 18.9073 11.557 18.9691 11.609 19.0211C11.661 19.0731 11.7228 19.1141 11.7908 19.1419C11.8589 19.1697 11.9318 19.1836 12.0053 19.1829C12.0788 19.1821 12.1514 19.1667 12.2189 19.1376C12.2863 19.1084 12.3473 19.0661 12.3982 19.0131L17.441 13.8744V17.228C17.44 17.3012 17.4535 17.3738 17.4808 17.4418C17.5081 17.5097 17.5487 17.5715 17.6001 17.6237C17.6515 17.6758 17.7127 17.7172 17.7803 17.7455C17.8478 17.7737 17.9203 17.7883 17.9935 17.7883C18.0667 17.7883 18.1392 17.7737 18.2067 17.7455C18.2743 17.7172 18.3355 17.6758 18.3869 17.6237C18.4383 17.5715 18.4789 17.5097 18.5062 17.4418C18.5335 17.3738 18.547 17.3012 18.5459 17.228V12.612C18.5569 12.5337 18.5509 12.454 18.5285 12.3783C18.506 12.3025 18.4675 12.2325 18.4157 12.1729C18.3638 12.1132 18.2998 12.0654 18.2279 12.0327Z" fill="white"/>
</svg>
