<svg width="65" height="33" viewBox="0 0 65 33" fill="none" xmlns="http://www.w3.org/2000/svg">
<path d="M10.221 11.6445H8.92632V14.2225C8.93269 15.1422 9.272 15.4496 10.2937 15.4547C11.8933 15.4522 12.3423 14.4712 12.3462 13.526C12.3462 12.5987 11.6382 11.6458 10.221 11.6445Z" fill="#1D344B"/>
<path d="M36.6781 20.3135C36.5327 20.3135 36.4332 20.3135 36.3018 20.3262V22.9182C36.4039 22.9297 36.4868 22.9323 36.5722 22.9323C36.6348 22.9323 36.6985 22.931 36.7751 22.931C37.6603 22.9284 38.2254 22.5662 38.228 21.6146C38.2229 20.876 37.9078 20.3186 36.6781 20.3148V20.3135Z" fill="#1D344B"/>
<path d="M44.3725 8.35938C42.2422 8.3632 41.394 10.3455 41.3927 11.8035C41.3927 14.0766 42.9323 15.6749 44.8852 15.6749C46.8586 15.6723 47.8025 13.9337 47.8038 12.2066C47.8025 9.94493 46.3726 8.35938 44.3712 8.35938H44.3725Z" fill="#1D344B"/>
<path d="M19.3315 8.35938C17.2 8.36193 16.3517 10.3442 16.3517 11.8035C16.3517 14.0766 17.8926 15.6749 19.8455 15.6762C21.8176 15.6723 22.7628 13.9337 22.7641 12.2066C22.7628 9.94493 21.3329 8.36065 19.3315 8.35938Z" fill="#1D344B"/>
<path d="M0.927246 2.50781V31.0823H64.7067V2.50781H0.927246ZM63.6594 30.0337H1.97578V3.55507H63.6594V30.0337Z" fill="#1D344B"/>
<path d="M63.2232 3.99023H2.40949V29.5964H63.2232V3.99023ZM50.2109 15.5534H50.2849C51.0375 15.5483 51.2556 15.3124 51.2607 14.7613V8.76349C50.9865 8.57598 50.6778 8.48286 50.2594 8.4701H50.2351V8.18692H52.1881L57.9065 14.1477V9.34898C57.9002 8.61169 57.7139 8.50199 56.7343 8.46883H56.71V8.18565H59.6184V8.46883H59.5941C58.6757 8.4752 58.5124 8.61424 58.5086 9.07856V15.9208H58.154L51.8615 9.33623V14.5138C51.8692 15.3889 52.0325 15.542 53.0708 15.5509H53.095V15.8341H50.2109V15.5509V15.5534ZM31.9891 8.00324H32.2659L32.2698 8.02365C32.2812 8.08743 32.3208 8.12824 32.3884 8.15121C32.4573 8.17417 32.5415 8.18565 32.6244 8.18565H38.501C38.6719 8.18565 38.8378 8.1461 38.8543 8.02365L38.8569 8.00324H39.1337L39.334 10.0314H39.0648L39.0623 10.011C38.876 8.93442 38.6681 8.67802 38.1949 8.67675H36.0952V14.6873C36.1016 15.3404 36.2942 15.5471 37.0354 15.5534H37.5124V15.8366H33.6142V15.5534H34.0913C34.8324 15.5471 35.025 15.3404 35.0314 14.6873V8.67675H32.9318C32.4585 8.67802 32.2506 8.93569 32.0657 10.011L32.0618 10.0314H31.7927L31.9929 8.00324H31.9891ZM25.6469 9.79927C25.6469 8.76859 26.5908 8.00451 27.8473 8.00324C28.878 8.00324 29.0961 8.31065 29.5081 8.30938C29.6012 8.30683 29.6344 8.29152 29.7071 8.19585L29.7135 8.18692H29.9444L30.1574 9.78906H29.9048L29.8984 9.77375C29.5591 8.90253 28.7861 8.34765 27.9557 8.34765C27.1572 8.34892 26.6125 8.80303 26.6125 9.47144C26.5947 11.1718 30.5222 11.6425 30.5324 13.9194C30.5324 15.1338 29.4545 16.0305 28.0157 16.0331C27.3383 16.0331 26.4748 15.7014 26.3179 15.7027C26.2171 15.7027 26.1393 15.7575 26.0946 15.8264L26.0882 15.8379H25.8446L25.5806 13.9309H25.8612L25.8663 13.95C26.1214 15.0279 26.9646 15.6529 27.906 15.6529C28.716 15.6517 29.5655 15.1835 29.5668 14.237C29.5834 12.5099 25.6584 11.969 25.6456 9.80182L25.6469 9.79927ZM12.6257 20.3637H12.6014C12.0683 20.3764 11.8973 20.5703 11.8909 21.0818V23.2606C11.8897 24.2734 11.2404 25.3576 9.47625 25.3614C7.92386 25.3589 7.12024 24.4673 7.11769 23.3014V20.9441C7.11004 20.4338 6.99779 20.3803 6.44801 20.3637H6.4225V20.1583H8.54763V20.3637H8.44941C8.00805 20.3701 7.8435 20.4683 7.83712 20.9275V23.1713C7.83967 24.2504 8.45833 24.8869 9.65101 24.8895C10.558 24.8869 11.4649 24.5221 11.4674 23.1636V21.2821C11.4585 20.5066 11.3667 20.402 10.7008 20.3624L10.6766 20.3599V20.157H12.6244V20.3611L12.6257 20.3637ZM10.882 15.8341H6.3855V15.5509H6.69164C7.69171 15.5432 7.85626 15.3391 7.86391 14.5738V9.50333C7.85626 8.80558 7.79375 8.47265 6.94804 8.46628H6.4952V8.18309H6.51944C6.8613 8.17034 7.70446 8.12187 8.0578 8.10911C8.73131 8.08487 9.65866 8.07212 9.8921 8.07212C10.97 8.07212 11.9126 8.22902 12.3629 8.55302C12.868 8.91018 13.1193 9.33623 13.1193 9.93065C13.1193 10.6258 12.5594 11.27 11.757 11.4371C12.8821 11.7854 13.5467 12.5341 13.5467 13.4857C13.5441 14.4615 12.8629 15.8302 10.882 15.8328V15.8341ZM19.6376 20.3637H19.6134C19.0049 20.3701 18.9092 20.4555 18.9041 20.7578V25.2875H18.6579L14.5123 20.9492V24.3499C14.5199 24.9265 14.6169 25.0183 15.3031 25.0272H15.3274V25.2313H13.4038V25.0272H13.4612C13.9587 25.0221 14.0939 24.8742 14.099 24.5119V20.5538C13.9191 20.4326 13.7189 20.3713 13.4459 20.3637H13.4217V20.1609H14.7253L18.4908 24.0859V20.9364C18.4845 20.453 18.3722 20.3892 17.7242 20.3637H17.7V20.1596H19.6389V20.365L19.6376 20.3637ZM22.7513 20.3637H22.7258C22.2207 20.3713 22.0727 20.4581 22.0663 20.9926V24.4162C22.0727 24.8869 22.1747 25.0209 22.7258 25.0285H22.7513V25.2339H20.7384V25.0311H20.7627C21.2576 24.9979 21.3367 24.8997 21.3443 24.3614V20.9224C21.338 20.4925 21.2129 20.3956 20.7627 20.3662H20.7384V20.1621H22.7513V20.3662V20.3637ZM19.5891 16.0305C17.1846 16.0267 15.1539 14.482 15.1526 12.1821C15.1577 9.73804 17.0367 8.00834 19.6504 8.00324C21.9706 8.00706 23.9631 9.58752 23.9631 11.8032C23.958 14.2855 21.9706 16.0267 19.5891 16.0305ZM28.9902 20.3637H28.9647C28.5552 20.3662 28.3524 20.5448 28.156 21.0423L26.4862 25.3614H26.0474L24.2897 20.9785C24.083 20.4696 24.009 20.3688 23.5218 20.365H23.4963V20.1609H25.7668V20.365H25.7426C25.1583 20.379 24.9466 20.4861 24.9504 20.6851C24.9504 20.7413 24.967 20.8089 24.9989 20.888L26.4276 24.4443L27.6802 21.1699C27.7682 20.9454 27.8167 20.7846 27.8167 20.6788C27.8167 20.4594 27.6419 20.3675 27.0909 20.365H27.0666V20.1596H28.9902V20.3637ZM33.7061 25.2326H29.3716V25.0285H29.6229C30.2658 25.0209 30.35 24.8716 30.3564 24.3907V20.9849C30.35 20.5346 30.2696 20.3701 29.7364 20.3637H29.5336V20.1583H33.4586L33.5262 21.3319H33.3323L33.3298 21.3102C33.2213 20.6252 33.0351 20.5027 32.757 20.5002H31.0796V22.4352H32.4994C32.7774 22.4314 32.8973 22.3192 32.942 21.8536L32.9445 21.8306H33.1461V23.4149H32.9445L32.942 23.3932C32.8706 22.823 32.7443 22.7835 32.419 22.7771H31.0796V24.4711C31.086 24.8359 31.1944 24.8831 31.4904 24.8908H32.7341C33.2889 24.8869 33.4395 24.6905 33.6461 23.9966L33.6512 23.9774H33.8438L33.7099 25.2313L33.7061 25.2326ZM40.422 25.3168H40.3978C40.3863 25.3168 40.3774 25.3168 40.3672 25.3168C39.2753 25.3194 39.0814 25.179 38.4423 24.452L37.9691 23.869C37.668 23.4889 37.3772 23.0718 37.3032 23.0845V23.073L37.3007 23.0858C37.1297 23.1164 36.9155 23.1343 36.6973 23.1343C36.5315 23.1343 36.4243 23.1279 36.307 23.119L36.3032 24.452C36.3083 24.9252 36.4741 25.0221 36.9206 25.0285H37.1323V25.2313H34.8069V25.0285H34.9689C35.4383 25.0221 35.5799 24.9201 35.5863 24.3869V21.0028C35.5799 20.5078 35.4702 20.3918 35.0097 20.3854H34.8069V20.1826H34.8324C35.0237 20.1826 35.5136 20.1507 35.844 20.1341C36.1731 20.1188 36.3351 20.1098 36.858 20.1098C38.3505 20.1111 39.0355 20.7298 39.038 21.5666C39.038 22.1929 38.6681 22.6495 38.0711 22.8728C38.1017 22.8983 38.1375 22.9391 38.1898 23.0003C38.353 23.2083 39.3786 24.5145 39.3786 24.5132C39.737 24.9405 39.9118 25.0374 40.4042 25.1216L40.4246 25.1255V25.3168H40.422ZM42.5051 25.3614C42.0561 25.3614 41.4821 25.1408 41.3838 25.1433C41.3213 25.1433 41.2716 25.1778 41.2435 25.2211L41.2359 25.2326H41.0637L40.8876 23.9545H41.0892L41.0943 23.9736C41.2614 24.6803 41.815 25.091 42.4336 25.091C42.9668 25.091 43.5217 24.7836 43.5217 24.1649C43.5383 23.0348 40.9425 22.6751 40.9297 21.2349C40.9297 20.5474 41.5599 20.0397 42.3928 20.0384C43.0753 20.0384 43.2232 20.2425 43.4911 20.24C43.5511 20.2374 43.5676 20.231 43.6161 20.1698L43.6238 20.1583H43.787L43.9312 21.2349H43.7475L43.7424 21.2183C43.5192 20.6456 43.0102 20.2821 42.4655 20.2821C41.9413 20.2821 41.5879 20.5793 41.5879 21.0155C41.5701 22.1278 44.1672 22.4416 44.1786 23.9545C44.1786 24.7632 43.4618 25.3576 42.5064 25.3602L42.5051 25.3614ZM47.6023 20.3637H47.5781C47.0717 20.3713 46.9237 20.4581 46.9161 20.9926V24.4162C46.9224 24.8869 47.0245 25.0209 47.5781 25.0285H47.6023V25.2339H45.5895V25.0311H45.6137C46.1099 24.9979 46.1877 24.8997 46.1954 24.3614V20.9224C46.189 20.4938 46.0627 20.3956 45.6137 20.3662H45.5895V20.1621H47.6023V20.3662V20.3637ZM44.6302 16.0305C42.2257 16.0254 40.195 14.482 40.1937 12.1821C40.1988 9.73676 42.0765 8.00706 44.6914 8.00196C47.0117 8.00706 49.0042 9.58752 49.0042 11.8032C48.9991 14.2855 47.0117 16.0267 44.6302 16.0305ZM53.4292 21.3969L53.4254 21.3765C53.3004 20.6635 53.169 20.5027 52.8616 20.5015H51.4827V24.4634C51.489 24.8933 51.6064 25.0209 52.095 25.0272H52.419V25.2313H49.8244V25.0272H50.1484C50.637 25.0209 50.7543 24.892 50.7607 24.4634V20.5015H49.3818C49.0744 20.5015 48.9417 20.6635 48.818 21.3765L48.8141 21.3969H48.619L48.7529 20.0397H48.9506L48.9532 20.0601C48.9596 20.0984 48.9825 20.1226 49.0259 20.1366C49.0705 20.1519 49.1254 20.1596 49.179 20.1596H53.0631C53.1754 20.1596 53.28 20.1328 53.2876 20.0601L53.2915 20.0397H53.4892L53.6231 21.3969H53.4279H53.4292ZM59.6209 20.3624H59.598C59.0558 20.4045 58.8339 20.6137 58.6094 20.9887L57.2713 23.2452V24.4558C57.2777 24.878 57.4052 25.0221 57.8925 25.0285H58.0226V25.2326H55.7521V25.0285H55.9307C56.4256 25.0221 56.5455 24.8614 56.5506 24.4724V23.3422L55.1181 21.1035C54.7188 20.4836 54.553 20.3828 54.0326 20.365H54.0083V20.1596H56.2062V20.365H56.1807C55.775 20.365 55.6411 20.4313 55.6411 20.5461C55.6411 20.615 55.687 20.7183 55.7738 20.851L57.043 22.8115L58.1617 20.9084C58.2433 20.7681 58.2816 20.6609 58.2803 20.5844C58.2803 20.43 58.1247 20.3675 57.7713 20.3662H57.7458V20.1621H59.6209V20.365V20.3624Z" fill="#1D344B"/>
<path d="M11.9674 9.97044C11.9649 9.126 11.47 8.36193 9.97751 8.35938C9.71729 8.35938 9.23512 8.38234 8.9277 8.39382V11.3621H10.2339C11.4011 11.3583 11.9649 10.9106 11.9674 9.97044Z" fill="#1D344B"/>
</svg>
