<svg width="71" height="33" viewBox="0 0 71 33" fill="none" xmlns="http://www.w3.org/2000/svg">
<path d="M6.8546 9.23523H8.40958C9.35656 9.09573 10.3237 9.21838 11.2058 9.58988C12.3126 10.2557 13.1153 11.3277 13.4428 12.5771C13.6747 13.2318 13.6747 13.2318 14.2339 12.9999H14.6704V7.81665H0.0345098V8.73055H0.634678C0.895485 8.72874 1.15338 8.78539 1.38943 8.89633C1.62547 9.00727 1.83366 9.16968 1.9987 9.37163C2.55794 10.2719 2.65343 11.2813 2.65343 16.5327C2.65343 22.1116 2.53066 23.4756 1.9987 24.1712C1.86737 24.3501 1.69734 24.4969 1.5013 24.6009C1.30526 24.7048 1.08828 24.7631 0.866561 24.7714C0.0345099 24.9214 0.0345098 24.9078 0.0345098 25.2761C-0.0115033 25.3992 -0.0115033 25.5349 0.0345098 25.658H9.26891C9.33003 25.5375 9.36187 25.4044 9.36187 25.2693C9.36187 25.1342 9.33003 25.001 9.26891 24.8805C9.04525 24.8183 8.8173 24.7727 8.58691 24.7441C8.33767 24.7145 8.09131 24.6643 7.85034 24.5941C7.50526 24.3422 7.2319 24.0045 7.05727 23.6146C6.88263 23.2247 6.81278 22.7959 6.8546 22.3707C6.7182 21.4705 6.65 19.82 6.65 18.456V17.3784H7.19561C7.87537 17.3576 8.55474 17.4311 9.21435 17.5967C9.53035 17.7919 9.79934 18.0546 10.0021 18.3658C10.2049 18.677 10.3365 19.0292 10.3874 19.3972L10.5102 19.82H11.3422V13.7774H10.5784L10.4556 14.3639C10.404 14.7402 10.2648 15.0992 10.0492 15.4119C9.8336 15.7246 9.54766 15.9823 9.21435 16.1644C8.89157 16.2605 8.55149 16.2838 8.21862 16.2326H6.65V14.7595C6.65 13.2318 6.73184 10.0127 6.7864 9.50804L6.8546 9.23523ZM70.6907 20.0519C70.0459 19.0142 69.0403 18.2514 67.8671 17.9104C66.9678 17.6293 66.1365 17.1648 65.4256 16.5464C65.2656 16.3916 65.1459 16.2001 65.077 15.9885C65.008 15.7769 64.9919 15.5517 65.03 15.3324C65.031 14.9023 65.2027 14.4902 65.5074 14.1866C65.7139 13.9704 65.9752 13.8143 66.2635 13.735C66.5518 13.6557 66.8562 13.6562 67.1442 13.7365C67.7405 13.9064 68.2797 14.2345 68.7048 14.686C69.1298 15.1374 69.4248 15.6954 69.5585 16.3008C69.7768 16.9147 69.804 16.9147 70.1996 16.751L70.4451 16.6555V13.2591L70.2678 13.1772C68.9249 12.7056 67.5005 12.5107 66.0803 12.6044C64.8572 12.6353 63.6898 13.1218 62.8066 13.9684C62.4061 14.3433 62.0923 14.8013 61.8874 15.3102C61.6824 15.8192 61.5911 16.3668 61.6199 16.9147C61.6276 17.7523 61.9601 18.5543 62.5475 19.1516C63.1966 19.79 63.993 20.2585 64.8663 20.5157C66.9805 21.3477 67.5943 21.8797 67.5943 22.8481C67.6034 23.2565 67.4733 23.6559 67.2255 23.9806C66.9776 24.3053 66.6267 24.5361 66.2303 24.635C65.7541 24.7396 65.2607 24.7396 64.7845 24.635C64.1609 24.393 63.6041 24.0056 63.1605 23.505C62.7168 23.0044 62.3991 22.4051 62.2337 21.7569L62.0564 21.3204H61.8109C61.6936 21.3292 61.5784 21.3568 61.4699 21.4023H61.3335V25.2761H61.5654C62.4869 25.5826 63.4377 25.7929 64.4025 25.9035H65.7666C66.3581 25.947 66.9528 25.8916 67.5261 25.7399C68.2541 25.6055 68.9342 25.283 69.4989 24.8045C70.0637 24.3259 70.4933 23.7079 70.7452 23.0118C70.908 22.623 70.9915 22.2057 70.9907 21.7842C71.0445 21.1904 70.941 20.593 70.6907 20.0519ZM57.8416 12.9999C57.0242 12.6568 56.1435 12.4903 55.2573 12.5114C54.3711 12.5326 53.4993 12.7409 52.6993 13.1227C51.9472 13.4905 51.2807 14.012 50.7427 14.6534C50.2046 15.2948 49.8071 16.0419 49.5757 16.8465C49.2806 17.7241 49.1556 18.65 49.2074 19.5745C49.1976 20.0775 49.2387 20.5802 49.3301 21.0749C49.5504 22.2914 50.1377 23.4112 51.013 24.2842C51.8884 25.1571 53.0099 25.7412 54.227 25.9581C55.0195 26.058 55.8214 26.058 56.614 25.9581C57.4364 25.8131 58.2235 25.5122 58.9328 25.0715C59.5196 24.7426 60.0162 24.2741 60.3787 23.7075C60.3554 23.6186 60.3144 23.5353 60.2582 23.4626C60.2019 23.39 60.1316 23.3294 60.0513 23.2846C59.8956 23.341 59.7487 23.4191 59.6148 23.5165C58.9364 23.9636 58.1353 24.1878 57.3233 24.1576C56.7843 24.194 56.2441 24.1101 55.7416 23.9119C55.2391 23.7138 54.7869 23.4063 54.4179 23.0118C54.1325 22.7467 53.8969 22.4325 53.7223 22.0843C53.2984 21.2363 53.07 20.3041 53.0539 19.3562V18.8243H60.6106V18.5515C60.6273 18.2789 60.6273 18.0056 60.6106 17.7331C60.6079 16.7699 60.3502 15.8247 59.8639 14.9934C59.3776 14.162 58.6798 13.4743 57.8416 12.9999ZM54.036 17.7194H53.0812V16.9147C53.3949 14.855 54.1724 13.6274 55.1272 13.6274C56.082 13.6274 56.4912 14.8413 56.6686 17.0647V17.6921H55.8501L54.036 17.7194ZM34.4214 12.5498C33.9501 12.5315 33.4816 12.6299 33.0574 12.8362C32.1355 13.2839 31.3909 14.0286 30.9432 14.9505L30.7658 15.2778V12.5498H30.6976C30.534 12.5498 25.4871 13.5592 25.3234 13.6274C25.1597 13.6956 25.2143 13.7092 25.2143 13.9547C25.2143 14.2003 25.2143 14.2412 25.3234 14.2548L25.8554 14.3639C26.0044 14.3676 26.1506 14.4051 26.2829 14.4736C26.4153 14.5422 26.5303 14.6399 26.6192 14.7595C26.9602 15.2096 27.0284 16.0008 27.0284 19.3699C27.0958 20.8866 27.0319 22.4063 26.8375 23.9121C26.7917 24.1391 26.6766 24.3463 26.508 24.5052C26.3394 24.664 26.1257 24.7665 25.8963 24.7987L25.4325 24.8942H25.2552V25.2761C25.2057 25.4033 25.2057 25.5444 25.2552 25.6717H32.8801V25.2761C32.9065 25.1456 32.9065 25.0111 32.8801 24.8805C32.421 24.8626 31.9645 24.8033 31.5161 24.7032C31.2719 24.5755 31.0721 24.3768 30.9431 24.1333C30.814 23.8898 30.7617 23.613 30.7931 23.3392C30.684 22.5481 30.6294 20.2292 30.6567 18.456C30.684 16.6828 30.6567 16.5737 30.8068 16.4509C31.2632 16.1009 31.828 15.9223 32.4027 15.9462C32.9443 15.958 33.4762 16.0933 33.9576 16.3418C34.1246 16.4345 34.3036 16.5033 34.4896 16.5464C34.4896 16.5464 35.8536 13.2454 35.8536 13.0954C35.6791 12.8926 35.4567 12.7365 35.2066 12.6412C34.9566 12.5459 34.6867 12.5145 34.4214 12.5498ZM25.2279 18.2787C25.1803 17.304 24.9005 16.3547 24.4117 15.5101C23.9229 14.6654 23.2394 13.9498 22.4181 13.4228C21.442 12.8962 20.356 12.6058 19.2473 12.575C18.1387 12.5442 17.0383 12.7739 16.0344 13.2454C14.6152 13.9939 13.5436 15.2661 13.0472 16.7919C12.5346 18.5002 12.5346 20.3214 13.0472 22.0297C13.316 22.9634 13.8183 23.8131 14.5067 24.4986C15.3642 25.3352 16.4697 25.8713 17.6576 26.0263C18.4201 26.0901 19.1867 26.0901 19.9492 26.0263C20.2298 25.9836 20.5076 25.9244 20.7812 25.849C21.8915 25.5384 22.8903 24.9181 23.6609 24.0605C24.4315 23.203 24.9419 22.1437 25.1325 21.0067C25.2686 20.104 25.3007 19.1887 25.2279 18.2787ZM19.5536 25.0988C18.1896 25.508 17.1666 24.1849 16.8256 21.4023C16.7003 19.9455 16.7003 18.4806 16.8256 17.0238C17.0984 14.7868 17.794 13.6547 18.8716 13.6547C19.089 13.6412 19.3065 13.68 19.5058 13.7678C19.7052 13.8556 19.8806 13.9898 20.0174 14.1593C20.9313 15.0732 21.3814 16.8874 21.3814 19.6154C21.4949 21.1593 21.2522 22.7087 20.6721 24.144C20.416 24.5626 20.0196 24.8767 19.5536 25.0306V25.0988ZM44.1059 12.8226C43.7211 12.7731 43.3314 12.7731 42.9465 12.8226C42.2077 12.822 41.4774 12.9801 40.805 13.2864L40.3822 13.4637V10.5038C40.4561 9.50485 40.4561 8.50185 40.3822 7.50293C40.2185 7.50293 35.0079 8.49866 34.9261 8.53958C34.8859 8.64029 34.8859 8.7526 34.9261 8.85331C34.9261 9.13975 34.9261 9.12611 35.5399 9.26251C35.7122 9.30116 35.8778 9.36554 36.031 9.45348C36.2972 9.70385 36.4744 10.0343 36.5356 10.3946C36.6909 11.4327 36.7412 12.4838 36.6857 13.5319V25.508L37.054 25.5898C37.5996 25.7126 39.1409 25.9717 39.6456 26.0263C40.6534 26.1065 41.6659 26.1065 42.6737 26.0263C43.7923 25.912 44.8585 25.4947 45.7575 24.8193C46.6564 24.1439 47.354 23.236 47.7752 22.1934C48.0262 21.5243 48.2001 20.8287 48.2935 20.1201C48.3747 19.1603 48.3426 18.1943 48.198 17.242C48.0517 16.1746 47.5805 15.178 46.8485 14.3874C46.1165 13.5968 45.159 13.0505 44.1059 12.8226ZM40.5322 24.8669C40.5322 24.6896 40.3958 18.7152 40.4231 16.3281V14.4594L40.8187 14.3639C41.0856 14.3257 41.3565 14.3257 41.6234 14.3639C41.9186 14.3339 42.2155 14.401 42.4691 14.5549C42.9785 14.9065 43.4015 15.369 43.7063 15.9077C44.0111 16.4464 44.1897 17.0472 44.2287 17.6649C44.3281 18.6581 44.3281 19.6588 44.2287 20.6521C44.1471 22.0957 43.5908 23.4719 42.6464 24.5668C42.3784 24.8214 42.0418 24.9921 41.678 25.0578C41.4027 25.1057 41.1212 25.1057 40.8459 25.0578C40.5868 25.0578 40.5868 24.976 40.5868 24.8669H40.5322Z" fill="#1D344B"/>
</svg>
