<svg width="88" height="33" viewBox="0 0 88 33" fill="none" xmlns="http://www.w3.org/2000/svg">
<path d="M85.854 7.11133L81.1065 17.3204L79.3213 13.4521H77.3905L80.3263 19.7796H81.8867L87.7715 7.11133H85.854Z" fill="#1D344B"/>
<path d="M65.4888 26.0672H69.3105V19.0351C69.3105 17.4267 70.2362 16.2968 71.6115 16.2968C72.934 16.2968 73.6216 17.2273 73.6216 18.5699V26.0672H77.4434V17.8388C77.4434 15.0472 75.7772 13.0798 73.0794 13.0798C71.3603 13.0798 70.1569 13.8243 69.2577 15.1801H69.1783V13.452H65.4755L65.4888 26.0672ZM57.9774 13.1064C53.9837 13.1064 51.3125 15.991 51.3125 19.7928C51.3125 23.5681 53.9837 26.4793 57.9774 26.4793C61.9711 26.4793 64.6424 23.5681 64.6424 19.7928C64.6556 15.991 61.9711 13.1064 57.9774 13.1064ZM57.951 23.6345C56.1393 23.6345 55.1739 22.1058 55.1739 19.7928C55.1739 17.4533 56.1261 15.9511 57.951 15.9511C59.7627 15.9511 60.7677 17.4533 60.7677 19.7928C60.781 22.1058 59.7759 23.6345 57.951 23.6345ZM40.4157 26.0672H51.1538V23.0364H45.0707V22.9566L50.8893 16.4031V13.4388H40.4157V16.4829H46.3005V16.5626L40.4157 23.1693V26.0672ZM35.5096 26.0672H39.3578V13.452H35.5096V26.0672ZM26.5833 26.0672H30.4183V20.2714C30.4183 17.6394 31.992 16.4696 34.3855 16.8019H34.4649V13.4786C34.2665 13.3989 34.0417 13.3856 33.6846 13.3856C32.1903 13.3856 31.1853 14.0768 30.3257 15.5523H30.2464V13.452H26.5833V26.0672ZM19.548 23.6478C17.8553 23.6478 16.8238 22.5445 16.6255 20.843H25.6708C25.6973 18.1312 24.9831 15.9644 23.4888 14.6085C22.4309 13.6249 21.0423 13.0798 19.2703 13.0798C15.4882 13.0798 12.8698 15.9644 12.8698 19.7397C12.8698 23.5415 15.3692 26.4394 19.5216 26.4394C21.0952 26.4394 22.3383 26.014 23.3698 25.3095C24.4674 24.5518 25.2609 23.4351 25.4724 22.3318H21.7961C21.4391 23.156 20.6721 23.6478 19.548 23.6478ZM19.3497 15.8315C20.6985 15.8315 21.6242 16.8418 21.7829 18.3173H16.6519C16.9561 16.8285 17.7628 15.8315 19.3497 15.8315ZM5.22625 26.0672H9.24639L13.6104 13.452H9.76214L7.31567 21.5608H7.26277L4.8163 13.452H0.862274L5.22625 26.0672ZM35.5096 8.95898H39.3578V12.3886H35.5096V8.95898Z" fill="#1D344B"/>
</svg>
