<svg width="30" height="53" viewBox="0 0 30 53" fill="none" xmlns="http://www.w3.org/2000/svg">
<path d="M4.19348 51.8905L3.83595 51.4594L3.54245 48.668C3.38236 47.1321 3.22761 45.661 3.20093 45.3915C3.17425 45.1275 3.14757 44.8634 3.14757 44.8095C3.14757 44.7233 3.20093 44.7179 3.6972 44.7287L4.2415 44.7449L4.30554 45.9304C4.42827 48.3177 4.48164 49.3416 4.51365 50.096C4.535 50.5163 4.55634 50.8558 4.56702 50.8505C4.58303 50.8343 4.62572 50.0421 4.80181 46.6902C4.85518 45.6286 4.91387 44.7502 4.92455 44.7395C4.93522 44.7233 5.18603 44.7233 5.47952 44.7287L6.00781 44.7449L5.83171 46.3885C5.741 47.2938 5.61293 48.4794 5.55423 49.029C5.49553 49.5787 5.41548 50.3385 5.37813 50.7211L5.3141 51.4217L4.97257 51.8528C4.7858 52.0953 4.61504 52.2947 4.5937 52.3055C4.56702 52.3162 4.38558 52.1276 4.19348 51.8905Z" fill="#1D344B"/>
<path d="M20.2771 51.4696C19.9516 51.351 19.8288 51.254 19.7381 51.0546C19.6474 50.8498 19.6367 50.6343 19.6367 47.7728V44.7119L20.1597 44.7281L20.6773 44.7442L20.6933 47.6704C20.704 50.4187 20.7093 50.5966 20.8 50.5804C20.8854 50.5642 20.8907 50.3702 20.9068 47.6381L20.9174 44.7173H21.4244H21.9313V47.8051C21.9313 51.3025 21.9473 51.1462 21.5044 51.3833C21.3123 51.4857 21.1949 51.5073 20.816 51.5019C20.5652 51.5019 20.3198 51.4857 20.2771 51.4696Z" fill="#1D344B"/>
<path d="M22.9291 51.432C22.4595 51.2595 22.4115 51.1356 22.4115 49.9985V49.077L22.9078 49.0932L23.3987 49.1094L23.4147 49.88C23.4254 50.6021 23.4361 50.6452 23.5321 50.6452C23.6335 50.6452 23.6389 50.6075 23.6389 49.8584C23.6389 49.3788 23.6175 49.0285 23.5802 48.9585C23.5428 48.8938 23.3294 48.6405 23.0999 48.398C22.8704 48.1555 22.625 47.8376 22.5503 47.6867C22.4169 47.4226 22.4115 47.3903 22.4115 46.3233C22.4115 45.1 22.4435 44.9815 22.7957 44.7875C23.0625 44.642 24.0231 44.6474 24.2739 44.7983C24.6581 45.0246 24.6794 45.1 24.6794 46.1347V47.0616H24.1725H23.6655L23.6495 46.2964C23.6389 45.5689 23.6282 45.5258 23.5321 45.5258C23.4307 45.5258 23.4254 45.5635 23.4254 46.2802C23.4254 47.1909 23.4307 47.2071 24.0337 47.843C24.6848 48.5274 24.6794 48.5166 24.6794 49.8476C24.6794 50.8877 24.6741 50.9685 24.5674 51.114C24.3753 51.3781 24.0498 51.5074 23.5588 51.5074C23.324 51.502 23.0412 51.4697 22.9291 51.432Z" fill="#1D344B"/>
<path d="M27.9134 51.3888C27.4758 51.1625 27.4545 51.0924 27.4545 50.0362V49.1093H27.9614H28.4684L28.4844 49.8799C28.495 50.602 28.5057 50.6451 28.6018 50.6451C28.7032 50.6451 28.7085 50.6074 28.7085 49.8961C28.7085 49.4811 28.6818 49.077 28.6498 48.9961C28.6231 48.9099 28.3937 48.6297 28.1428 48.371C27.4705 47.6651 27.4545 47.6166 27.4545 46.2963C27.4545 45.2778 27.4598 45.2024 27.5665 45.0569C27.7853 44.7605 27.9828 44.6904 28.6018 44.6904C29.2421 44.6904 29.4502 44.7713 29.6423 45.0946C29.7384 45.2617 29.7491 45.3748 29.7491 46.1724V47.0615H29.2421H28.7352L28.7192 46.2963C28.7085 45.5688 28.6978 45.5257 28.6018 45.5257C28.5004 45.5257 28.495 45.5634 28.495 46.3125C28.495 46.7975 28.5164 47.1424 28.5591 47.2124C28.5911 47.2771 28.8152 47.5411 29.0554 47.7998C29.2955 48.0531 29.5516 48.3818 29.621 48.5273C29.7437 48.7752 29.7491 48.8399 29.7491 49.8368C29.7491 50.796 29.7384 50.9038 29.6423 51.0762C29.4609 51.378 29.2421 51.475 28.6551 51.4966C28.2069 51.5127 28.1215 51.502 27.9134 51.3888Z" fill="#1D344B"/>
<path d="M0.959724 48.0858V44.7178H1.83487H2.71536L2.74738 45.0303C2.76339 45.1974 2.79007 45.4399 2.80608 45.5692L2.83276 45.7955H2.43254H2.02698V46.6578V47.52H2.42186H2.82208L2.8541 47.8325C2.92347 48.4738 2.96616 48.4092 2.46989 48.4253L2.02698 48.4415V49.4061V50.3707L2.51792 50.3869L3.00885 50.403L3.04621 50.6186C3.06755 50.7371 3.09423 50.9743 3.10491 51.1467L3.13159 51.4539H2.04299H0.959724V48.0858Z" fill="#1D344B"/>
<path d="M6.11453 49.6109C6.07717 47.7894 6.07717 47.7409 6.23726 46.2536C6.32798 45.4237 6.40269 44.7393 6.40269 44.7339C6.40269 44.7232 6.58412 44.7178 6.80291 44.7178H7.20313V48.0858V51.4539H6.67484H6.15188L6.11453 49.6109Z" fill="#1D344B"/>
<path d="M7.63012 48.0858V44.7178H8.16375H8.69737V47.5469V50.3707L9.06024 50.3869L9.41777 50.403L9.43378 50.9311L9.44979 51.4539H8.53729H7.63012V48.0858Z" fill="#1D344B"/>
<path d="M10.8693 51.3779C10.7626 51.3348 10.6292 51.2701 10.5812 51.2324C10.357 51.0438 10.3517 50.936 10.3517 48.0475C10.3517 44.9705 10.3464 45.019 10.7146 44.8088C10.9334 44.6795 11.6698 44.6256 11.9899 44.7118C12.5449 44.8627 12.657 45.1537 12.6356 46.3878L12.6196 47.1692L12.102 47.1853L11.5791 47.2015V46.3878C11.5791 45.6118 11.5737 45.5794 11.4723 45.5794C11.3656 45.5794 11.3656 45.6064 11.3763 48.0475L11.3923 50.5103L11.515 50.5264L11.6324 50.5426V49.6642C11.6271 49.0068 11.6057 48.6834 11.531 48.3709L11.435 47.9505H12.038H12.6463L12.6356 49.6912L12.6196 51.4264L11.8459 51.4372C11.3016 51.4479 11.0134 51.4264 10.8693 51.3779Z" fill="#1D344B"/>
<path d="M13.073 48.0858V44.7178H14.0068H14.9407V45.2567V45.7955H14.5404H14.1402V46.6578V47.52H14.4871H14.8339V47.978V48.4361H14.4871H14.1402V49.4061V50.3761H14.5404H14.9407V50.915V51.4539H14.0068H13.073V48.0858Z" fill="#1D344B"/>
<path d="M15.3677 48.0858V44.7178H15.8746C16.1521 44.7178 16.3816 44.7286 16.3816 44.7447C16.3816 44.7717 16.6164 46.7602 16.6644 47.1428C16.6804 47.2452 16.6857 46.744 16.6804 46.0273L16.6751 44.7178H17.166H17.6623V48.0858V51.4539H17.166H16.6644L16.5737 50.6886C16.5203 50.2629 16.4349 49.6163 16.3869 49.2444L16.2908 48.5708L16.3122 49.5408C16.3229 50.0743 16.3389 50.721 16.3495 50.985L16.3656 51.4539H15.8693H15.3677V48.0858Z" fill="#1D344B"/>
<path d="M18.1425 48.0858V44.7178H18.6761H19.2097V48.0858V51.4539H18.6761H18.1425V48.0858Z" fill="#1D344B"/>
<path d="M25.1331 48.0858V44.7178H26.067H27.0008V45.2567V45.7955H26.6006H26.2004V46.6578V47.52H26.5472H26.8941V47.978V48.4361H26.5472H26.2004V49.4061V50.3761H26.6006H27.0008V50.915V51.4539H26.067H25.1331V48.0858Z" fill="#1D344B"/>
<path d="M16.4084 40.1914C16.3924 40.1483 16.387 37.5078 16.3924 34.3229L16.4084 28.5353L17.1021 28.3628C17.8758 28.1688 18.4682 27.9425 19.0231 27.6353C20.2451 26.9563 21.3391 25.8678 22.0328 24.6445L22.3049 24.1595L19.9036 24.1434L17.5023 24.1326V20.7645V17.3965H23.4416H29.3808L29.5036 18.0378C29.8238 19.8053 29.8451 21.4651 29.5569 23.1626C29.1087 25.8355 28.0148 28.185 26.2698 30.2597C25.5281 31.1381 16.4457 40.283 16.4084 40.1914Z" fill="#1D344B"/>
<path d="M13.42 35.2277C8.93217 34.5595 5.17009 32.0537 2.90218 28.2168C1.13053 25.2152 0.490179 21.6478 1.09851 18.2043C1.53075 15.7901 2.54465 13.5375 4.08683 11.576C4.42835 11.1395 14.119 1.2832 14.2044 1.2832C14.2311 1.2832 14.2418 3.91836 14.2364 7.13552L14.2204 12.9932L13.6868 13.1118C12.6889 13.3435 11.8244 13.7046 11.0613 14.2165C10.0208 14.9171 9.08158 15.9463 8.54262 16.9648L8.3185 17.3959H10.7198H13.1265V20.764V24.132H10.7252H8.32383L8.4519 24.3907C8.71338 24.908 9.25235 25.6625 9.72727 26.1582C10.7999 27.2953 11.9738 27.9743 13.5267 28.3623L14.2204 28.5347V31.8974V35.2601L13.9803 35.2708C13.8469 35.2708 13.5961 35.2547 13.42 35.2277Z" fill="#1D344B"/>
<path d="M20.3998 14.863C19.4446 14.0062 18.2866 13.4188 16.9419 13.1116L16.4083 12.9931V9.60347V6.21387L16.6484 6.23003C17.4862 6.28931 18.863 6.57492 19.8182 6.89825C21.1309 7.34014 22.1394 7.83053 23.2654 8.58497C24.1726 9.19391 24.7169 9.64658 25.512 10.4441C26.2964 11.2363 26.7286 11.7698 27.3797 12.756C27.8546 13.4781 28.6764 15.0516 28.623 15.1432C28.607 15.1648 26.8354 15.1863 24.6795 15.1863H20.7627L20.3998 14.863Z" fill="#1D344B"/>
</svg>
