<svg width="30" height="31" viewBox="0 0 30 31" fill="none" xmlns="http://www.w3.org/2000/svg">
<circle cx="14.9998" cy="15.5" r="15" fill="white"/>
<mask id="path-2-inside-1_7907_9230" fill="white">
<path d="M15.4243 20.1665C15.3684 20.2224 15.3012 20.2656 15.2272 20.2933C15.1532 20.321 15.0741 20.3324 14.9953 20.3269C14.9164 20.3214 14.8397 20.2991 14.7703 20.2614C14.7008 20.2238 14.6402 20.1716 14.5926 20.1085L11.3287 16.8446C11.2762 16.7935 11.2343 16.7326 11.2056 16.6652C11.1769 16.5979 11.1618 16.5255 11.1613 16.4523C11.1608 16.3791 11.1748 16.3065 11.2026 16.2388C11.2304 16.171 11.2713 16.1095 11.3231 16.0577C11.3749 16.0059 11.4364 15.965 11.5041 15.9372C11.5719 15.9094 11.6445 15.8954 11.7177 15.8959C11.7909 15.8964 11.8633 15.9115 11.9306 15.9402C11.9979 15.9689 12.0589 16.0108 12.1099 16.0633L14.4813 18.4346L14.4135 11.2352C14.412 11.1617 14.4252 11.0887 14.4523 11.0203C14.4794 10.952 14.5198 10.8898 14.5712 10.8373C14.6227 10.7848 14.6841 10.7431 14.7519 10.7146C14.8196 10.6861 14.8924 10.6715 14.9659 10.6715C15.0394 10.6715 15.1121 10.6861 15.1799 10.7146C15.2477 10.7431 15.3091 10.7848 15.3605 10.8373C15.412 10.8898 15.4524 10.952 15.4795 11.0203C15.5066 11.0887 15.5198 11.1617 15.5183 11.2352L15.586 18.4346L17.9574 16.0633C18.0084 16.0108 18.0693 15.9689 18.1367 15.9402C18.204 15.9115 18.2764 15.8964 18.3496 15.8959C18.4228 15.8954 18.4954 15.9094 18.5631 15.9372C18.6309 15.965 18.6924 16.0059 18.7442 16.0577C18.796 16.1095 18.8369 16.171 18.8647 16.2388C18.8925 16.3065 18.9065 16.3791 18.906 16.4523C18.9055 16.5255 18.8904 16.5979 18.8617 16.6652C18.833 16.7326 18.7911 16.7935 18.7386 16.8446L15.4701 20.1131C15.456 20.1319 15.4407 20.1497 15.4243 20.1665Z"/>
</mask>
<path d="M15.4243 20.1665C15.3684 20.2224 15.3012 20.2656 15.2272 20.2933C15.1532 20.321 15.0741 20.3324 14.9953 20.3269C14.9164 20.3214 14.8397 20.2991 14.7703 20.2614C14.7008 20.2238 14.6402 20.1716 14.5926 20.1085L11.3287 16.8446C11.2762 16.7935 11.2343 16.7326 11.2056 16.6652C11.1769 16.5979 11.1618 16.5255 11.1613 16.4523C11.1608 16.3791 11.1748 16.3065 11.2026 16.2388C11.2304 16.171 11.2713 16.1095 11.3231 16.0577C11.3749 16.0059 11.4364 15.965 11.5041 15.9372C11.5719 15.9094 11.6445 15.8954 11.7177 15.8959C11.7909 15.8964 11.8633 15.9115 11.9306 15.9402C11.9979 15.9689 12.0589 16.0108 12.1099 16.0633L14.4813 18.4346L14.4135 11.2352C14.412 11.1617 14.4252 11.0887 14.4523 11.0203C14.4794 10.952 14.5198 10.8898 14.5712 10.8373C14.6227 10.7848 14.6841 10.7431 14.7519 10.7146C14.8196 10.6861 14.8924 10.6715 14.9659 10.6715C15.0394 10.6715 15.1121 10.6861 15.1799 10.7146C15.2477 10.7431 15.3091 10.7848 15.3605 10.8373C15.412 10.8898 15.4524 10.952 15.4795 11.0203C15.5066 11.0887 15.5198 11.1617 15.5183 11.2352L15.586 18.4346L17.9574 16.0633C18.0084 16.0108 18.0693 15.9689 18.1367 15.9402C18.204 15.9115 18.2764 15.8964 18.3496 15.8959C18.4228 15.8954 18.4954 15.9094 18.5631 15.9372C18.6309 15.965 18.6924 16.0059 18.7442 16.0577C18.796 16.1095 18.8369 16.171 18.8647 16.2388C18.8925 16.3065 18.9065 16.3791 18.906 16.4523C18.9055 16.5255 18.8904 16.5979 18.8617 16.6652C18.833 16.7326 18.7911 16.7935 18.7386 16.8446L15.4701 20.1131C15.456 20.1319 15.4407 20.1497 15.4243 20.1665Z" fill="white"/>
<path d="M15.4243 20.1665L16.8569 21.5621L16.8476 21.5717L16.8382 21.5811L15.4243 20.1665ZM14.5926 20.1085L16.0069 18.6943L16.1053 18.7928L16.1892 18.9039L14.5926 20.1085ZM11.3287 16.8446L12.7227 15.4105L12.7329 15.4203L12.7429 15.4303L11.3287 16.8446ZM11.3231 16.0577L9.90887 14.6435L11.3231 16.0577ZM12.1099 16.0633L10.6957 17.4775L10.6857 17.4675L10.6759 17.4573L12.1099 16.0633ZM14.4813 18.4346L16.4812 18.4158L16.5272 23.309L13.067 19.8488L14.4813 18.4346ZM14.4135 11.2352L16.4131 11.1945L16.4133 11.2054L16.4134 11.2164L14.4135 11.2352ZM15.5183 11.2352L13.5184 11.254L13.5181 11.2243L13.5187 11.1945L15.5183 11.2352ZM15.586 18.4346L17.0003 19.8488L13.631 23.2181L13.5861 18.4534L15.586 18.4346ZM17.9574 16.0633L19.3914 17.4573L19.3816 17.4675L19.3716 17.4775L17.9574 16.0633ZM18.7386 16.8446L17.3244 15.4303L17.3344 15.4203L17.3446 15.4105L18.7386 16.8446ZM15.4701 20.1131L13.8718 18.9108L13.9564 18.7984L14.0559 18.6989L15.4701 20.1131ZM16.8382 21.5811C16.58 21.8391 16.2695 22.0388 15.9276 22.1666L14.5268 18.4199C14.3329 18.4924 14.1568 18.6057 14.0104 18.752L16.8382 21.5811ZM15.9276 22.1666C15.5857 22.2945 15.2203 22.3475 14.8561 22.3221L15.1344 18.3318C14.9279 18.3174 14.7207 18.3474 14.5268 18.4199L15.9276 22.1666ZM14.8561 22.3221C14.492 22.2967 14.1375 22.1935 13.8167 22.0195L15.7239 18.5034C15.5419 18.4047 15.3409 18.3462 15.1344 18.3318L14.8561 22.3221ZM13.8167 22.0195C13.4958 21.8454 13.216 21.6046 12.9961 21.3132L16.1892 18.9039C16.0645 18.7387 15.9058 18.6021 15.7239 18.5034L13.8167 22.0195ZM13.1784 21.5228L9.91444 18.2588L12.7429 15.4303L16.0069 18.6943L13.1784 21.5228ZM9.93458 18.2786C9.69205 18.0429 9.4988 17.7612 9.36605 17.4501L13.0451 15.8803C12.9699 15.7039 12.8603 15.5442 12.7227 15.4105L9.93458 18.2786ZM9.36605 17.4501C9.23331 17.139 9.16372 16.8047 9.16133 16.4664L13.1612 16.4382C13.1599 16.2463 13.1204 16.0567 13.0451 15.8803L9.36605 17.4501ZM9.16133 16.4664C9.15893 16.1282 9.22379 15.7929 9.35212 15.4799L13.053 16.9976C13.1258 16.8201 13.1626 16.63 13.1612 16.4382L9.16133 16.4664ZM9.35212 15.4799C9.48045 15.167 9.66971 14.8827 9.90887 14.6435L12.7373 17.4719C12.8729 17.3363 12.9803 17.1751 13.053 16.9976L9.35212 15.4799ZM9.90887 14.6435C10.148 14.4043 10.4324 14.2151 10.7453 14.0867L12.263 17.7876C12.4404 17.7149 12.6017 17.6075 12.7373 17.4719L9.90887 14.6435ZM10.7453 14.0867C11.0583 13.9584 11.3936 13.8936 11.7318 13.8959L11.7035 17.8958C11.8953 17.8972 12.0855 17.8604 12.263 17.7876L10.7453 14.0867ZM11.7318 13.8959C12.07 13.8983 12.4044 13.9679 12.7155 14.1007L11.1457 17.7797C11.3221 17.855 11.5117 17.8945 11.7035 17.8958L11.7318 13.8959ZM12.7155 14.1007C13.0266 14.2334 13.3082 14.4267 13.544 14.6692L10.6759 17.4573C10.8096 17.5949 10.9693 17.7045 11.1457 17.7797L12.7155 14.1007ZM13.5241 14.6491L15.8955 17.0204L13.067 19.8488L10.6957 17.4775L13.5241 14.6491ZM12.4813 18.4534L12.4136 11.254L16.4134 11.2164L16.4812 18.4158L12.4813 18.4534ZM12.4139 11.2759C12.407 10.9364 12.4679 10.5989 12.593 10.2833L16.3115 11.7574C16.3825 11.5784 16.417 11.387 16.4131 11.1945L12.4139 11.2759ZM12.593 10.2833C12.7182 9.96762 12.905 9.68009 13.1427 9.43753L15.9998 12.237C16.1346 12.0995 16.2405 11.9364 16.3115 11.7574L12.593 10.2833ZM13.1427 9.43753C13.3804 9.19496 13.6641 9.00229 13.9771 8.87076L15.5266 12.5584C15.7041 12.4839 15.865 12.3746 15.9998 12.237L13.1427 9.43753ZM13.9771 8.87076C14.2901 8.73922 14.6263 8.67146 14.9659 8.67146L14.9659 12.6715C15.1585 12.6715 15.3491 12.633 15.5266 12.5584L13.9771 8.87076ZM14.9659 8.67146C15.3055 8.67146 15.6416 8.73922 15.9547 8.87076L14.4052 12.5584C14.5827 12.633 14.7733 12.6715 14.9659 12.6715L14.9659 8.67146ZM15.9547 8.87076C16.2677 9.0023 16.5514 9.19498 16.789 9.43753L13.932 12.237C14.0668 12.3746 14.2276 12.4838 14.4052 12.5584L15.9547 8.87076ZM16.789 9.43753C17.0267 9.68008 17.2136 9.96761 17.3387 10.2833L13.6203 11.7574C13.6912 11.9364 13.7972 12.0995 13.932 12.237L16.789 9.43753ZM17.3387 10.2833C17.4639 10.5989 17.5248 10.9364 17.5179 11.2759L13.5187 11.1945C13.5148 11.387 13.5493 11.5784 13.6203 11.7574L17.3387 10.2833ZM17.5182 11.2164L17.5859 18.4158L13.5861 18.4534L13.5184 11.254L17.5182 11.2164ZM14.1718 17.0204L16.5431 14.6491L19.3716 17.4775L17.0003 19.8488L14.1718 17.0204ZM16.5233 14.6692C16.759 14.4267 17.0407 14.2334 17.3518 14.1007L18.9216 17.7797C19.098 17.7045 19.2577 17.5949 19.3914 17.4573L16.5233 14.6692ZM17.3518 14.1007C17.6629 13.9679 17.9973 13.8983 18.3355 13.8959L18.3638 17.8958C18.5556 17.8945 18.7452 17.855 18.9216 17.7797L17.3518 14.1007ZM18.3355 13.8959C18.6737 13.8936 19.009 13.9584 19.322 14.0867L17.8043 17.7876C17.9818 17.8604 18.1719 17.8972 18.3638 17.8958L18.3355 13.8959ZM19.322 14.0867C19.6349 14.2151 19.9192 14.4043 20.1584 14.6435L17.33 17.4719C17.4656 17.6076 17.6269 17.7149 17.8043 17.7876L19.322 14.0867ZM20.1584 14.6435C20.3976 14.8827 20.5868 15.167 20.7152 15.4799L17.0143 16.9976C17.087 17.175 17.1943 17.3363 17.33 17.4719L20.1584 14.6435ZM20.7152 15.4799C20.8435 15.7929 20.9084 16.1282 20.906 16.4664L16.9061 16.4382C16.9047 16.63 16.9415 16.8201 17.0143 16.9976L20.7152 15.4799ZM20.906 16.4664C20.9036 16.8047 20.834 17.139 20.7012 17.4501L17.0222 15.8803C16.9469 16.0567 16.9074 16.2464 16.9061 16.4382L20.906 16.4664ZM20.7012 17.4501C20.5685 17.7612 20.3752 18.0429 20.1327 18.2786L17.3446 15.4105C17.207 15.5442 17.0974 15.7039 17.0222 15.8803L20.7012 17.4501ZM20.1529 18.2588L16.8843 21.5273L14.0559 18.6989L17.3244 15.4303L20.1529 18.2588ZM17.0684 21.3154C17.0032 21.4021 16.9325 21.4845 16.8569 21.5621L13.9917 18.7709C13.9488 18.815 13.9087 18.8617 13.8718 18.9108L17.0684 21.3154Z" fill="#2FD236" mask="url(#path-2-inside-1_7907_9230)"/>
</svg>
