<svg width="60" height="61" viewBox="0 0 60 61" fill="none" xmlns="http://www.w3.org/2000/svg">
<path d="M11.25 5.79513C10.9739 5.79123 10.6998 5.84223 10.4436 5.94517C10.1875 6.04812 9.95429 6.20095 9.75768 6.39479C9.56108 6.58864 9.40497 6.81962 9.29841 7.07432C9.19185 7.32902 9.13698 7.60236 9.13698 7.87845C9.13698 8.15455 9.19185 8.42789 9.29841 8.68259C9.40497 8.93729 9.56108 9.16827 9.75768 9.36212C9.95429 9.55596 10.1875 9.70879 10.4436 9.81174C10.6998 9.91468 10.9739 9.96568 11.25 9.96178H48.7498C49.0259 9.96568 49.3 9.91468 49.5562 9.81174C49.8123 9.70879 50.0455 9.55596 50.2421 9.36212C50.4387 9.16827 50.5948 8.93729 50.7014 8.68259C50.8079 8.42789 50.8628 8.15455 50.8628 7.87845C50.8628 7.60236 50.8079 7.32902 50.7014 7.07432C50.5948 6.81962 50.4387 6.58864 50.2421 6.39479C50.0455 6.20095 49.8123 6.04812 49.5562 5.94517C49.3 5.84223 49.0259 5.79123 48.7498 5.79513H11.25ZM9.16665 14.1284C8.89058 14.1245 8.6165 14.1755 8.36031 14.2785C8.10413 14.3814 7.87096 14.5343 7.67436 14.7281C7.47776 14.9219 7.32164 15.1529 7.21508 15.4076C7.10853 15.6623 7.05365 15.9357 7.05365 16.2118C7.05365 16.4878 7.10853 16.7612 7.21508 17.0159C7.32164 17.2706 7.47776 17.5016 7.67436 17.6954C7.87096 17.8893 8.10413 18.0421 8.36031 18.145C8.6165 18.248 8.89058 18.299 9.16665 18.2951H50.8331C51.1092 18.299 51.3833 18.248 51.6395 18.145C51.8957 18.0421 52.1288 17.8893 52.3254 17.6954C52.522 17.5016 52.6782 17.2706 52.7847 17.0159C52.8913 16.7612 52.9461 16.4878 52.9461 16.2118C52.9461 15.9357 52.8913 15.6623 52.7847 15.4076C52.6782 15.1529 52.522 14.9219 52.3254 14.7281C52.1288 14.5343 51.8957 14.3814 51.6395 14.2785C51.3833 14.1755 51.1092 14.1245 50.8331 14.1284H9.16665ZM9.16665 22.4617C6.86458 22.4617 5 24.3263 5 26.6284V51.6283C5 53.9303 6.86458 55.7949 9.16665 55.7949H50.8331C53.1352 55.7949 54.9998 53.9303 54.9998 51.6283V26.6284C54.9998 24.3263 53.1352 22.4617 50.8331 22.4617H9.16665ZM25.8332 30.795C26.2582 30.795 26.6312 30.9547 26.9604 31.1734L37.3892 37.4316C37.9454 37.8066 38.3332 38.4075 38.3332 39.1283C38.3332 39.8492 37.9454 40.4501 37.3892 40.8251L26.9604 47.0832C26.6312 47.302 26.2582 47.4616 25.8332 47.4616C24.6833 47.4616 23.7499 46.5283 23.7499 45.3783V32.8784C23.7499 31.7284 24.6833 30.795 25.8332 30.795Z" fill="#8756FF"/>
</svg>
