<svg width="60" height="61" viewBox="0 0 60 61" fill="none" xmlns="http://www.w3.org/2000/svg">
<path d="M13.2031 6.79492C11.3751 6.79492 10 8.79492 10 8.79492C-0.47 8.79492 5.30647 25.5067 2.23047 27.9707C2.23047 27.9707 4.116 30.3027 10 30.3027V32.2988C8.374 36.5348 0 34.9689 0 42.7949H16.0469C17.4549 41.9429 22 39.5801 22 39.5801C20.914 38.4201 19.3473 36.4145 18.7773 34.8965C17.5293 34.2705 16.474 33.5348 16 32.2988V30.2793C16.38 30.2793 17.5005 30.1915 17.8945 30.1035C17.0025 28.7295 16.25 25.5978 16.25 23.8418C16.25 19.3758 18.1733 15.7024 21.3633 13.4004C20.4013 9.71839 18.2651 6.79492 13.2031 6.79492ZM46 6.79492C41.554 6.79492 38.8241 9.85333 38.1641 13.8613C41.3961 15.5933 43.5 19.3273 43.5 24.0293C43.5 25.4993 43.1572 26.9138 42.7852 28.0098C42.9232 28.5518 43 29.1562 43 29.8262C43 34.7662 38 39.6934 38 39.6934C39.086 40.1674 42.5605 41.9329 43.9805 42.7949H60C60 32.2949 51.474 35.2949 50 30.7949V27.7949C50.664 27.4609 52.2453 25.1612 52.4453 23.3652C52.9653 23.3252 54 22.054 54 20.916C54 19.778 53.6382 19.2992 53.3242 19.1152C53.3242 19.1152 54 17.6129 54 15.7949C54 12.1529 53.016 8.79492 50 8.79492C50 8.79492 49.134 6.79492 46 6.79492ZM30 14.7949C24.616 14.7949 20.25 18.0378 20.25 23.8418C20.25 26.2958 21.625 28.209 21.625 28.209C21.625 28.209 21 28.5162 21 29.8262C21 32.3722 22.6367 32.9824 22.6367 32.9824C22.8647 34.9984 26 37.9512 26 37.9512V41.3223C24.316 46.3743 14 43.0449 14 54.7949H46C46 43.0049 35.684 46.3743 34 41.3223V37.9512C34 37.9512 37.1353 34.9984 37.3633 32.9824C37.3633 32.9824 39 31.8522 39 29.8262C39 28.4222 38.375 28.209 38.375 28.209C38.375 28.209 39.5 26.0693 39.5 24.0293C39.5 19.9393 37.448 16.7949 34 16.7949C34 16.7949 32.536 14.7949 30 14.7949Z" fill="#2FD236"/>
</svg>
