<svg width="66" height="33" viewBox="0 0 66 33" fill="none" xmlns="http://www.w3.org/2000/svg">
<path d="M30.2491 7.61914C30.2491 11.6711 30.2802 15.7387 30.2336 19.7907C30.2336 20.5824 30.0469 21.3742 29.8136 22.1349C29.2848 23.8271 28.1338 24.9604 26.4229 25.4728C23.872 26.2335 21.3834 26.0161 18.8481 24.9915C19.1125 24.029 19.3614 23.1285 19.6102 22.2125C20.6524 22.4609 21.6167 22.7559 22.5966 22.9267C25.0075 23.3303 26.5784 21.9331 26.454 19.4336C26.2051 19.6354 26.034 19.7907 25.8474 19.9304C23.7476 21.6226 20.8701 20.955 19.8902 18.44C18.9103 15.925 18.9725 13.3634 20.0924 10.9104C21.0412 8.78351 22.9854 8.14699 25.1008 7.94516C26.3295 7.82096 27.5738 7.82096 28.8182 7.75886C29.0981 7.74334 29.3625 7.66572 29.6425 7.61914C29.8292 7.61914 30.0469 7.61914 30.2491 7.61914ZM26.4073 10.6465C25.1474 10.4447 24.4164 10.6931 23.9964 11.6401C23.2499 13.3323 23.0477 15.1332 23.5765 16.9186C24.0276 18.4555 25.2719 18.6573 26.4073 17.4464C26.4073 15.2263 26.4073 12.9597 26.4073 10.6465Z" fill="#1D344B"/>
<path d="M65.5566 25.7837C64.3434 25.7837 63.1302 25.7837 61.8081 25.7837C61.8081 25.4421 61.8081 25.1782 61.8081 24.8988C61.8081 22.6476 61.8081 20.3965 61.8081 18.1454C61.8081 17.1674 61.5748 16.8879 60.766 16.8724C59.9416 16.8569 59.6927 17.1363 59.6927 18.0988C59.6927 20.35 59.6927 22.6011 59.6927 24.8522C59.6927 25.1316 59.6927 25.4111 59.6927 25.7371C58.4484 25.7371 57.2663 25.7371 56.022 25.7371C56.022 22.0266 56.022 18.3162 56.022 14.5281C57.1886 14.3263 58.3707 14.109 59.6461 13.8916C59.6772 14.435 59.6927 14.9162 59.7238 15.5838C60.3927 14.5747 61.1237 13.9848 62.228 13.9537C64.1101 13.9071 64.81 14.3884 65.541 16.298C65.5566 19.465 65.5566 22.6321 65.5566 25.7837Z" fill="#1D344B"/>
<path d="M42.2256 7.61914C42.2723 7.88306 42.3656 8.16251 42.3656 8.42643C42.3811 10.0255 42.3656 11.6246 42.3656 13.2857C42.9566 13.2857 43.5321 13.2857 44.1698 13.2857C44.1698 14.1085 44.1698 14.8848 44.1698 15.7387C43.5321 15.7387 42.9411 15.7387 42.3811 15.7387C42.3811 17.9742 42.3345 20.1322 42.4122 22.2902C42.4434 23.1285 43.1433 23.3924 44.4031 23.1596C44.3565 23.9669 44.3254 24.7431 44.2787 25.597C42.7389 25.8919 41.2768 26.0938 39.8458 25.3951C38.8659 24.9139 38.5549 24.029 38.5393 23.0198C38.5082 20.924 38.5082 18.8281 38.5082 16.7323C38.5082 16.4528 38.5082 16.1734 38.5082 15.8163C38.0883 15.7697 37.715 15.7231 37.2794 15.6766C37.2794 14.9158 37.2794 14.1862 37.2794 13.3634C37.6683 13.3013 38.026 13.2547 38.4927 13.1926C38.4927 11.7177 38.4927 10.2273 38.4927 8.72141C39.737 8.33329 40.9035 7.97621 42.0701 7.61914C42.1167 7.61914 42.1789 7.61914 42.2256 7.61914Z" fill="#1D344B"/>
<path d="M8.24033 13.2241C8.24033 11.5785 8.24033 10.0415 8.24033 8.36484C9.48464 8.14749 10.7912 7.93014 12.0821 7.69727C12.0821 13.7209 12.0821 19.6359 12.0821 25.5975C10.7912 25.5975 9.60908 25.5975 8.38032 25.5975C8.33365 25.287 8.30255 24.9765 8.24033 24.5418C7.99147 24.7436 7.80482 24.8988 7.61817 25.0386C5.62727 26.6532 2.92089 26.1253 1.89433 23.7966C0.681125 21.0176 0.821111 18.1921 2.29873 15.5218C3.26308 13.7985 4.97401 13.3639 6.80937 13.2241C7.26043 13.1931 7.72705 13.2241 8.24033 13.2241ZM8.22478 22.5235C8.22478 20.288 8.22478 18.0834 8.22478 15.8789C7.18266 15.5218 6.21832 15.8478 5.78281 16.8104C5.00512 18.5181 4.91179 20.3345 5.47173 22.1044C5.9228 23.5637 7.12045 23.7345 8.22478 22.5235Z" fill="#1D344B"/>
<path d="M35.8952 12.9287C35.8952 17.1825 35.8952 21.3587 35.8952 25.597C34.6198 25.597 33.2821 25.597 31.8667 25.597C31.8667 21.6227 31.8667 17.6483 31.8667 13.6273C33.1266 13.41 34.4176 13.1926 35.8952 12.9287Z" fill="#1D344B"/>
<path d="M17.7127 25.6125C16.4995 25.6125 15.193 25.6125 13.7465 25.6125C13.7465 21.6847 13.7465 17.7259 13.7465 13.6273C14.9441 13.41 16.2506 13.1926 17.7127 12.9287C17.7127 17.167 17.7127 21.3587 17.7127 25.6125Z" fill="#1D344B"/>
<path d="M50.9669 14.3573C52.2268 14.14 53.3933 13.9382 54.5909 13.7363C54.5909 17.7728 54.5909 21.7316 54.5909 25.7526C53.3777 25.7526 52.1956 25.7526 50.9669 25.7526C50.9669 21.9645 50.9669 18.1764 50.9669 14.3573Z" fill="#1D344B"/>
<path d="M31.9445 11.454C31.9445 10.3983 31.9445 9.45133 31.9445 8.41116C33.1577 8.25591 34.3709 8.11619 35.6463 7.96094C35.6463 8.95453 35.6463 9.90155 35.6463 10.9417C34.4487 11.1125 33.251 11.2677 31.9445 11.454Z" fill="#1D344B"/>
<path d="M13.793 11.454C13.793 10.3673 13.793 9.42028 13.793 8.41116C15.0062 8.25591 16.2038 8.11619 17.4637 7.96094C17.4637 8.93901 17.4637 9.90155 17.4637 10.9572C16.266 11.1125 15.0684 11.2833 13.793 11.454Z" fill="#1D344B"/>
<path d="M50.9514 9.2957C52.149 9.09388 53.3467 8.87653 54.6066 8.65918C54.6066 9.59067 54.6066 10.4135 54.6066 11.3139C53.4245 11.5313 52.2268 11.7486 50.9514 11.966C50.9514 11.0655 50.9514 10.2272 50.9514 9.2957Z" fill="#1D344B"/>
<path d="M47.8094 25.7837C46.8762 25.7682 46.1296 25.023 46.1607 24.107C46.1762 23.1911 46.9384 22.4769 47.8872 22.4924C48.836 22.508 49.5514 23.2532 49.5359 24.1691C49.5048 25.1006 48.7582 25.7992 47.8094 25.7837Z" fill="#1D344B"/>
</svg>
