<svg width="30" height="25" viewBox="0 0 30 25" fill="none" xmlns="http://www.w3.org/2000/svg">
<path d="M26.9472 6.24593C28.1213 5.36028 29.1779 4.29749 30 3.05757C28.9431 3.52992 27.7103 3.88418 26.4775 4.00227C27.7689 3.2347 28.7082 2.05383 29.1779 0.577735C28.0037 1.28626 26.6535 1.81765 25.3033 2.11287C24.1292 0.872953 22.544 0.164429 20.7827 0.164429C17.3776 0.164429 14.6184 2.93948 14.6184 6.36402C14.6184 6.83637 14.6771 7.30872 14.7945 7.78107C9.68686 7.48585 5.10762 5.00601 2.05479 1.28626C1.52641 2.17192 1.23287 3.2347 1.23287 4.41558C1.23287 6.54115 2.28962 8.43055 3.99216 9.55238C2.99412 9.49333 1.99608 9.25716 1.17416 8.78481V8.84385C1.17416 11.8551 3.28766 14.3349 6.10566 14.9254C5.63599 15.0434 5.04891 15.1615 4.52053 15.1615C4.10958 15.1615 3.75733 15.1025 3.34637 15.0434C4.10958 17.5233 6.3992 19.2945 9.09978 19.3536C6.98628 21.0069 4.34441 22.0107 1.46771 22.0107C0.939332 22.0107 0.469666 21.9516 0 21.8924C2.70058 23.6639 5.92953 24.6676 9.45203 24.6676C20.7827 24.6676 26.9472 15.2796 26.9472 7.07254C26.9472 6.77732 26.9472 6.54115 26.9472 6.24593Z" fill="white"/>
</svg>
