<svg width="134" height="139" viewBox="0 0 134 139" fill="none" xmlns="http://www.w3.org/2000/svg">
<g filter="url(#filter0_b_7929_7508)">
<path d="M66.6344 120.786C58.6917 122.474 50.9023 124.604 43.8288 128.729C38.7325 131.763 34.1304 135.257 28.4034 137.217C19.4039 140.302 15.0234 138.785 13.7621 129.394C12.9951 123.701 13.6599 117.633 13.6428 111.923C13.6258 105.804 12.3474 99.7362 10.5919 93.907C8.5465 87.1062 5.83642 80.544 3.5354 73.8285C1.57527 68.1186 -0.146232 61.9825 0.603729 55.8976C1.23438 50.8013 2.75135 45.4152 4.7967 40.6938C9.02375 30.9102 16.1484 22.5414 24.3639 15.8428C29 12.076 34.0281 8.78638 39.3631 6.09334C45.1242 3.19576 50.9875 1.7981 57.4133 1.25268C65.4924 0.587939 74.4238 0.74134 82.3666 2.37762C89.9685 3.94572 97.1101 7.18419 103.877 10.917C114.291 16.6439 123.239 25.9673 128.268 36.7736C133.432 47.8696 135.222 59.6815 133.125 71.6979C131.813 79.2146 127.842 85.9131 123.478 92.2196C117.939 100.248 110.933 106.963 102.121 111.327C91.0593 116.798 78.5486 118.247 66.6344 120.769V120.786Z" fill="#02FE51"/>
</g>
<path d="M78.5835 21.4849C78.4131 23.1041 78.3619 24.7745 79.7766 25.6097C81.3447 26.5301 82.3163 28.4561 82.6572 30.1946C83.1174 32.615 81.9413 33.8081 80.4414 35.5807C80.1687 35.9046 79.8789 36.2284 79.5039 36.433C77.0154 37.8136 73.2656 35.3762 70.8112 36.433C69.5158 36.9954 69.2431 38.751 68.2545 39.6373C66.5841 41.1032 62.6809 42.4327 60.022 41.6827C57.0562 40.8475 56.2381 38.5806 56.0847 35.9387C55.9824 34.149 56.2381 32.4104 56.7835 30.6037C57.2437 29.0868 55.1813 28.0982 54.1075 27.0244C52.5224 25.4563 51.0565 23.6666 51.0054 21.519C50.9202 18.2294 53.6132 15.7749 56.9539 15.7579C59.5788 15.7408 62.2889 15.4 64.7774 16.8147C65.3058 17.1215 65.9535 16.9681 66.4307 16.3204C69.4988 12.1956 72.2259 11.224 76.1121 13.2353C78.3278 14.3943 78.7369 17.0533 78.788 19.3032C78.8051 19.9679 78.7028 20.7349 78.6176 21.5019L78.5835 21.4849Z" fill="#1D344B"/>
<path d="M91.0937 61.8972C91.0937 62.0677 91.0937 62.2381 91.0596 62.4086C90.821 65.238 89.7813 68.0674 88.6393 70.6411C86.3212 75.8738 81.2249 84.2427 74.5264 83.0666C68.0665 81.9416 64.6235 77.2203 66.2939 70.9308C67.5552 66.2095 69.9414 62.5449 73.1799 58.9315C75.3445 56.5111 76.8104 53.3408 80.2193 52.4716C86.1338 50.9546 91.213 56.2896 91.0767 61.8972H91.0937Z" fill="#1D344B"/>
<path d="M124.603 42.0233C125.336 42.7392 125.881 43.6084 126.052 44.6311C126.614 47.648 122.916 49.0797 126.444 51.5001C128.66 53.017 130.449 55.5396 128.932 58.4202C126.734 62.6131 124.211 59.511 120.836 61.028C119.132 61.795 119.217 63.3461 118.143 64.5221C115.927 66.9425 111.121 66.772 108.581 65.1017C106.587 63.7892 105.667 61.3007 106.519 59.0508C107.252 57.1248 109.331 56.068 107.524 54.0056C106.093 52.3694 103.979 50.5797 103.485 48.3468C102.871 45.4833 106.059 43.7107 108.53 43.3016C110.405 42.9948 112.689 43.9834 114.427 44.5629C113.916 38.8871 121.296 38.87 124.569 42.0403L124.603 42.0233Z" fill="#1D344B"/>
<defs>
<filter id="filter0_b_7929_7508" x="-9.57568" y="-9.11621" width="153.56" height="157.779" filterUnits="userSpaceOnUse" color-interpolation-filters="sRGB">
<feFlood flood-opacity="0" result="BackgroundImageFix"/>
<feGaussianBlur in="BackgroundImageFix" stdDeviation="5"/>
<feComposite in2="SourceAlpha" operator="in" result="effect1_backgroundBlur_7929_7508"/>
<feBlend mode="normal" in="SourceGraphic" in2="effect1_backgroundBlur_7929_7508" result="shape"/>
</filter>
</defs>
</svg>
