<svg width="1440" height="153" viewBox="0 0 1440 153" fill="none" xmlns="http://www.w3.org/2000/svg">
<path fill-rule="evenodd" clip-rule="evenodd" d="M1241.69 88.6534C1303.03 91.0935 1371.72 87.3551 1440 82.7123V153.667H0V25.8903C44.0452 10.6703 90.8816 -2.8046 151.148 1.09847C216.859 5.35916 266.059 18.4193 313.639 31.0536C365.319 44.7783 418.767 58.9682 494.129 62.4061C552.395 65.0536 586.387 56.7669 619.294 48.745L619.358 48.7294C653.938 40.2923 686.608 32.327 745.326 37.1433C811.636 42.5854 876.032 50.858 944.202 59.6153L944.202 59.6154L944.357 59.6354C1039.67 71.8804 1138.24 84.5436 1241.69 88.6534Z" fill="white"/>
<path fill-rule="evenodd" clip-rule="evenodd" d="M1241.69 88.6534C1303.03 91.0935 1371.72 87.3551 1440 82.7123V153.667H0V25.8903C44.0452 10.6703 90.8816 -2.8046 151.148 1.09847C216.859 5.35916 266.059 18.4193 313.639 31.0536C365.319 44.7783 418.767 58.9682 494.129 62.4061C552.395 65.0536 586.387 56.7669 619.294 48.745L619.358 48.7294C653.938 40.2923 686.608 32.327 745.326 37.1433C811.636 42.5854 876.032 50.858 944.202 59.6153L944.202 59.6154L944.357 59.6354C1039.67 71.8804 1138.24 84.5436 1241.69 88.6534Z" fill="white"/>
</svg>
