<svg width="31" height="31" viewBox="0 0 31 31" fill="none" xmlns="http://www.w3.org/2000/svg">
<path d="M2.70703 5.72559L2.72266 17.7256H4.3125L13.1016 26.915C13.2873 27.1661 13.5293 27.3702 13.808 27.511C14.0868 27.6517 14.3947 27.7252 14.707 27.7256C15.2375 27.7256 15.7462 27.5149 16.1212 27.1398C16.4963 26.7647 16.707 26.256 16.707 25.7256C16.7059 25.6307 16.6981 25.5361 16.6836 25.4424C16.993 25.6273 17.3466 25.7251 17.707 25.7256C18.2375 25.7256 18.7462 25.5149 19.1212 25.1398C19.4963 24.7647 19.707 24.256 19.707 23.7256C19.7059 23.6307 19.6981 23.5361 19.6836 23.4424C19.993 23.6273 20.3466 23.7251 20.707 23.7256C21.2375 23.7256 21.7462 23.5149 22.1212 23.1398C22.4963 22.7647 22.707 22.256 22.707 21.7256C22.7059 21.6307 22.6981 21.5361 22.6836 21.4424C22.993 21.6273 23.3466 21.7251 23.707 21.7256C24.2375 21.7256 24.7462 21.5149 25.1212 21.1398C25.4963 20.7647 25.707 20.256 25.707 19.7256C25.707 19.2 25.5 18.6955 25.1309 18.3213L25.1055 18.2979C25.063 18.2562 25.0187 18.2164 24.9727 18.1787L19.0645 12.8486C19.0645 12.8486 15.403 13.4294 14.002 13.6514C12.601 13.8734 8.70703 13.4076 8.70703 8.72559C8.70703 7.26759 9.78184 6.94434 10.4648 6.69434C11.1468 6.44334 13.207 5.72559 13.207 5.72559H2.70703ZM19.707 5.72559C19.5316 5.72549 19.3569 5.74847 19.1875 5.79395C19.1868 5.79395 19.1862 5.79395 19.1855 5.79395L19.1777 5.7959C19.1758 5.79655 19.1738 5.7972 19.1719 5.79785C19.1009 5.81807 19.0312 5.84219 18.9629 5.87012L10.707 8.72559V9.22559C10.707 10.6066 11.826 11.7256 13.207 11.7256C13.2907 11.7256 13.3696 11.7082 13.4512 11.7002L13.4609 11.7119L13.668 11.6787C13.6875 11.6751 13.7072 11.673 13.7266 11.6689L19.707 10.7217C19.707 10.7217 24.958 15.4199 25.875 16.3369C26.755 17.2169 27.6244 17.8806 27.6934 19.7256H29.707V7.72559L25.707 8.72559L20.7168 6.00098C20.6816 5.98035 20.6458 5.96081 20.6094 5.94238L20.5625 5.91699H20.5547C20.2896 5.79184 20.0002 5.72649 19.707 5.72559Z" fill="#1D344B"/>
</svg>
