<svg width="86" height="88" viewBox="0 0 86 88" fill="none" xmlns="http://www.w3.org/2000/svg">
<g clip-path="url(#clip0_7844_8025)">
<path d="M85.4294 1.93694C85.4294 26.7347 85.4294 51.5238 85.4294 76.3216C85.4294 80.4201 70.8044 78.7375 68.285 78.2285C64.5058 77.4692 60.9595 75.8988 57.2235 74.9756C53.4874 74.0524 49.7082 74.6477 46.0584 75.3121C42.5812 75.9506 40.2861 77.8143 38.1808 80.5926C36.4379 82.8964 34.833 85.5194 32.0288 86.6411C27.5248 88.4444 21.9078 87.8145 17.7662 85.3468C15.5746 84.0439 14.0474 82.2924 12.9085 80.0404C11.3554 76.9946 11.9939 73.7849 12.1406 70.4457C12.1664 69.8763 12.1923 69.2982 12.0111 68.7546C11.6746 67.7105 10.691 67.0289 9.78503 66.4163C3.20163 61.9814 -1.49217 55.6654 0.431941 47.3132C1.22574 43.8619 2.54588 41.1095 5.57441 39.0473C6.94631 38.1068 8.43038 37.5891 9.27596 36.0188C10.458 33.8185 10.1992 31.2301 10.622 28.84C11.0965 26.1652 12.6237 24.267 14.8498 22.7743C19.5005 19.6681 23.6076 15.9666 28.3704 12.9812C35.5319 8.49446 42.9091 3.96459 51.2268 1.98008C57.0509 0.599551 63.0648 0.0214539 69.0529 0.0473389C70.606 0.0473389 85.438 0.340701 85.438 1.93694H85.4294Z" fill="#FFCF20"/>
<path d="M6.21306 56.0623C5.59182 54.259 5.66085 52.4816 6.99824 50.9716C11.9768 45.3718 23.8666 44.6557 28.7847 50.5661C31.3387 53.6378 34.1515 58.4437 34.6779 62.4386C35.2214 66.5802 35.2387 71.4035 33.375 75.2776C30.7779 80.6789 24.0391 80.9032 18.9571 79.1862C16.3341 78.3061 15.6265 76.7875 15.3504 73.7331C15.0312 70.2732 15.4022 67.2619 12.7188 64.6561C10.1993 62.1971 7.38651 59.4791 6.22169 56.071L6.21306 56.0623Z" fill="#1D344B"/>
<path d="M40.2 35.1818C40.2 35.1818 40.1827 35.1472 40.1655 35.13C40.0188 34.9488 39.76 34.9057 39.527 34.9229C38.5434 34.9919 37.5425 35.0523 36.5502 35.0437C35.7478 35.0351 34.5053 34.5605 34.1947 33.7408C34.0566 33.3871 34.0998 32.9815 34.1429 32.6019C34.1688 32.4121 34.1861 32.2222 34.2465 32.0411C34.3155 31.8512 34.419 31.6787 34.5398 31.532C35.2646 30.6346 36.3518 30.5915 37.4044 30.4966C38.1724 30.4276 39.4666 30.5484 39.9498 29.7804C40.0965 29.5388 40.0792 29.2369 40.062 28.9521C40.0102 28.3481 39.9584 27.7442 39.9066 27.1402C39.8721 26.6915 39.829 26.2256 39.9843 25.8114C40.4071 24.6639 41.6237 24.0599 42.7712 23.8959C43.729 23.7579 45.6704 23.8787 46.0931 24.9572C46.654 26.3895 45.8947 28.0461 46.2916 29.5388C46.3088 29.6079 46.3347 29.6855 46.3865 29.7373C46.4469 29.7891 46.5246 29.815 46.6022 29.8322C47.9914 30.1428 49.4582 29.6942 50.8042 30.255C52.1416 30.8158 51.8223 32.1877 51.6498 33.3353C51.5203 34.2068 50.8301 34.5433 49.9327 34.5433C49.0872 34.5433 48.2243 34.5691 47.396 34.7158C46.6195 34.8539 46.1449 35.363 46.1967 36.2258C46.2053 36.407 46.2139 36.5795 46.1967 36.7607C45.9637 39.5908 42.9179 41.0576 40.7867 38.9264C40.6055 38.7453 40.4416 38.5382 40.3467 38.3052C40.2 37.9514 40.2086 37.5545 40.2259 37.1663C40.2431 36.6831 40.269 36.1999 40.2863 35.7081C40.2863 35.5269 40.2949 35.3284 40.2086 35.1731L40.2 35.1818Z" fill="#1D344B"/>
</g>
<defs>
<clipPath id="clip0_7844_8025">
<rect width="85.4375" height="87.6377" fill="white" transform="translate(-0.0078125 0.0473022)"/>
</clipPath>
</defs>
</svg>
