<svg width="132" height="17" viewBox="0 0 132 17" fill="none" xmlns="http://www.w3.org/2000/svg">
<path fill-rule="evenodd" clip-rule="evenodd" d="M15.7619 0.667621C15.2617 0.628638 14.7596 0.617949 14.2675 0.620464C12.8605 0.627261 11.4595 0.626883 10.0574 0.626504C9.38425 0.626322 8.71087 0.62614 8.03644 0.626752C6.32839 0.628009 4.62159 0.873223 3.20631 1.90375C2.04581 2.74879 1.1731 3.97234 0.753256 5.35496C0.561396 5.98686 0.464844 6.64768 0.464844 7.30849C0.464844 10.18 2.41085 12.9352 5.1953 13.6903C6.51923 14.0492 7.92544 14.0179 9.30491 13.9872L9.30498 13.9872C9.6896 13.9786 10.0721 13.9701 10.4503 13.9701C10.8086 13.9701 11.1671 13.9682 11.5257 13.9663C12.2431 13.9626 12.9608 13.9588 13.6776 13.9701C13.8938 13.9733 14.1435 13.9965 14.303 14.1625C14.379 14.2416 14.4375 14.3333 14.4959 14.4249C14.5596 14.5248 14.6234 14.6246 14.7098 14.7083C15.1844 15.1685 16.003 15.183 16.5231 14.7925C16.7243 14.6416 16.8645 14.4398 16.9691 14.2122C17.0731 13.9865 17.151 13.8607 17.3871 13.7765L17.468 13.7478C18.0947 13.5258 18.7158 13.3058 19.2808 12.9459C21.172 11.7412 22.363 9.58143 22.363 7.30849C22.363 5.25436 21.3626 3.24173 19.7467 1.9968C18.5968 1.11089 17.1846 0.777024 15.7625 0.666992L15.7619 0.667621ZM20.4407 8.05467C20.2607 9.17008 19.6776 10.2044 18.8236 10.9344C17.9621 11.6713 16.8433 11.9611 15.7015 12.0699C14.665 12.1686 13.4428 12.2591 12.4094 12.0944C12.1017 12.0454 11.8033 11.9102 11.5622 11.7109C11.2925 11.4883 11.1691 11.0809 11.1411 10.7445C11.1006 10.2622 11.0738 9.77871 11.0514 9.29583C11.0022 8.25713 10.9978 7.21969 10.9978 6.18037C11.0053 5.63147 11.0259 5.08257 11.0632 4.53492C11.0963 4.05204 11.1349 3.56225 11.4382 3.16299C11.9508 2.4884 12.8625 2.48768 13.6417 2.48707H13.6417C13.7101 2.48701 13.7774 2.48696 13.8433 2.48645L14.0685 2.48443C15.2837 2.47282 16.5982 2.46026 17.7173 2.96996C19.6215 3.83764 20.7783 5.96722 20.4413 8.05467H20.4407ZM7.23289 4.78961C6.88655 3.76223 5.64071 3.76286 5.1324 4.51044L5.13116 4.5117C5.02464 4.66889 4.94989 4.85877 4.92373 5.07946C4.91251 5.17126 4.91314 6.07603 5.00284 6.07855C4.97381 6.07771 4.94431 6.07681 4.91441 6.07589C4.09135 6.05071 2.95789 6.01602 2.77216 7.0638C2.66439 7.67181 3.06992 8.24334 3.64113 8.41059C4.07219 8.53634 4.53129 8.50302 4.97854 8.46843C4.82966 9.07644 4.72065 9.88941 5.20902 10.3723C5.56284 10.7219 6.18265 10.8225 6.63177 10.6074C6.975 10.4427 7.19551 10.0831 7.28708 9.71085C7.37122 9.36885 7.35834 9.01952 7.3455 8.67146C7.34427 8.63815 7.34304 8.60484 7.3419 8.57155C7.83961 8.62311 8.46129 8.64448 8.89173 8.34017C9.39941 7.98178 9.60559 7.11473 9.24554 6.58595C9.04621 6.29295 8.70859 6.11942 8.36349 6.04774C8.01839 5.97543 7.6627 5.99367 7.31075 6.0119C7.35187 5.60258 7.36433 5.17943 7.23289 4.78961Z" fill="#1B6CEF"/>
<path d="M13.6577 16.4097C13.8782 16.4072 14.0988 16.3167 14.2433 16.1476C14.6662 15.654 14.3 14.8555 13.6577 14.8555C12.9183 14.8555 12.6094 15.8602 13.2217 16.2821C13.3494 16.3701 13.5032 16.4116 13.6577 16.4097Z" fill="#1B6CEF"/>
<path d="M16.7955 5.2325C16.7986 5.10612 16.7812 4.97974 16.7407 4.85902C16.5364 4.25605 15.7957 3.91464 15.2145 4.17117C14.6358 4.42644 14.353 5.17906 14.639 5.75185C14.8962 6.26742 15.5752 6.51955 16.1022 6.29572C16.5133 6.12093 16.7837 5.67828 16.7949 5.2325H16.7955Z" fill="#1B6CEF"/>
<path d="M16.7922 9.26843C16.7922 9.0207 16.72 8.77297 16.5717 8.57492C16.1151 7.96251 15.1321 7.97949 14.7179 8.62522C14.3604 9.18355 14.5398 9.98018 15.1309 10.2914C15.5863 10.531 16.1986 10.4096 16.5306 10.0141C16.7038 9.8079 16.7916 9.53816 16.7916 9.26843H16.7922Z" fill="#1B6CEF"/>
<path d="M17.6583 8.3942C17.8626 8.39609 18.0663 8.34642 18.2426 8.24079C18.6867 7.9742 18.906 7.37877 18.7421 6.88394C18.5029 6.16151 17.5729 5.86033 16.9768 6.33064C16.4604 6.73807 16.3707 7.54727 16.8235 8.03644C17.0366 8.26657 17.348 8.39043 17.6589 8.39357L17.6583 8.3942Z" fill="#1B6CEF"/>
<path d="M13.6595 8.40413C14.2905 8.40413 14.802 7.88792 14.802 7.251C14.802 6.62539 14.3117 6.17583 13.7156 6.11296C13.0721 6.04505 12.5171 6.61219 12.5171 7.251C12.5171 7.88792 13.0285 8.40413 13.6595 8.40413Z" fill="#1B6CEF"/>
<path d="M36.7182 1.94878C37.3884 1.87986 38.0775 1.94122 38.7506 1.94028C38.9866 1.94028 39.2736 1.92329 39.4294 2.13852C39.5407 2.2924 39.5247 2.47837 39.52 2.65773C39.5153 2.8522 39.5219 3.05044 39.5219 3.24585V11.5201C39.5219 11.7174 39.5502 11.9232 39.5228 12.1177C39.4803 12.4245 39.2453 12.5699 38.9498 12.5783C38.3267 12.5953 37.7084 12.5651 37.0854 12.5746C36.873 12.5774 36.6322 12.601 36.4463 12.4755C36.2112 12.3159 36.2461 12.028 36.2461 11.7788C36.2461 11.5966 36.2461 11.4144 36.2461 11.2331V9.91529C36.2461 9.74348 36.2461 9.57073 36.2461 9.39892C36.2461 9.13837 36.0347 8.92691 35.7741 8.92691H31.5544C31.2939 8.92691 31.0824 9.13837 31.0824 9.39892V11.4484C31.0824 11.6324 31.0815 11.8156 31.0852 11.9997C31.0881 12.1186 31.0777 12.2423 31.0163 12.3442C30.954 12.449 30.8436 12.5189 30.7256 12.551C30.5623 12.5953 30.3801 12.5727 30.212 12.5727C29.7032 12.5727 29.1944 12.5727 28.6856 12.5727C28.4458 12.5727 28.1475 12.618 27.9539 12.4415C27.7982 12.2999 27.8076 12.0997 27.8076 11.9081C27.8076 11.6778 27.8076 11.4484 27.8076 11.218V4.00483C27.8076 3.56587 27.8076 3.1269 27.8086 2.68794C27.8086 2.50669 27.7812 2.31411 27.8879 2.15551C28.0229 1.95538 28.2796 1.92895 28.5005 1.92801C29.0754 1.92518 29.6503 1.93084 30.2252 1.93084C30.432 1.93084 30.6642 1.93367 30.8511 2.03279C31.1051 2.16684 31.0852 2.4576 31.0824 2.70493C31.0805 2.89751 31.0824 3.09103 31.0824 3.28361V5.11688C31.0824 5.37743 31.2939 5.58889 31.5544 5.58889H35.7741C36.0347 5.58889 36.2461 5.37743 36.2461 5.11688V3.3478C36.2461 3.15522 36.2461 2.96264 36.2461 2.77007C36.2461 2.60486 36.2263 2.42456 36.2811 2.26313C36.3472 2.06772 36.519 1.9686 36.7172 1.94878H36.7182Z" fill="white"/>
<path d="M46.0275 8.43106C46.0275 8.43106 46.0275 8.42446 46.0275 8.42162C45.9963 8.06007 46.018 7.6768 46.0294 7.3143C46.0341 7.16514 46.0813 7.0141 46.1861 6.90554C46.305 6.78188 46.49 6.77432 46.6524 6.77621C46.9479 6.77999 47.2415 6.77999 47.5369 6.77999H49.6053C50.1198 6.77999 50.6342 6.7696 51.1478 6.77338C51.3073 6.77432 51.4839 6.81303 51.6047 6.92348C51.7652 7.06885 51.7425 7.25671 51.7435 7.45495C51.7472 8.40746 51.7482 9.36092 51.7472 10.3134C51.7472 10.7901 51.7463 11.2659 51.7444 11.7427C51.7435 12.0872 51.7501 12.5621 51.2733 12.5621H50.2604C50.0282 12.5621 49.8299 12.3931 49.7941 12.1627C49.7658 11.9824 49.7365 11.8021 49.7119 11.6209C49.7025 11.5529 49.6846 11.484 49.6402 11.4321C49.4136 11.1687 49.1182 11.6058 48.9596 11.7445C48.6065 12.0542 48.1874 12.2779 47.7446 12.4308C47.1414 12.6395 46.4995 12.7131 45.8632 12.7131C42.6139 12.7131 40.6995 10.9374 40.6995 7.235C40.6995 3.53259 42.6139 1.78711 46.2418 1.78711C46.9819 1.78711 47.7286 1.84941 48.4479 2.03255C49.0351 2.18171 49.6062 2.41582 50.1009 2.76983C50.5493 3.09079 50.9222 3.50899 51.1874 3.99232C51.4083 4.39541 51.5603 4.83532 51.6443 5.2875C51.7104 5.64529 51.7491 6.13145 51.2592 6.16449C50.8457 6.19281 50.4284 6.17299 50.014 6.17299C49.695 6.17299 49.3759 6.17771 49.0559 6.17299C48.884 6.1711 48.7009 6.18998 48.5366 6.12862C48.363 6.06443 48.2874 5.89262 48.1798 5.75668C48.1024 5.6585 48.0014 5.57732 47.8976 5.5084C47.6323 5.33376 47.3208 5.23936 47.0102 5.18555C46.7562 5.14118 46.4985 5.12513 46.2408 5.12513C44.3009 5.12513 43.9733 6.11163 43.9733 7.38604C43.9733 8.66046 44.3131 9.82914 46.2408 9.82914C46.6146 9.82914 46.9932 9.81498 47.3604 9.7423C47.6682 9.68094 48.0005 9.57049 48.2081 9.32032C48.3365 9.16456 48.2827 8.90401 48.0486 8.90401C47.5823 8.90401 47.1159 8.90118 46.6505 8.90685C46.3362 8.91157 46.0633 8.78129 46.0275 8.43106Z" fill="white"/>
<path d="M125.903 9.82855C126.134 9.83137 126.365 9.81632 126.588 9.7975C126.891 9.7721 127.19 9.6987 127.462 9.55945C127.704 9.43525 127.927 9.15579 128.208 9.13886C128.924 9.09746 129.655 9.13886 130.373 9.13886C130.535 9.13886 130.688 9.22636 130.772 9.36656C130.871 9.5331 130.826 9.75986 130.769 9.93582C130.575 10.5295 130.252 11.0988 129.795 11.526C129.362 11.9315 128.827 12.2063 128.266 12.3832C127.564 12.6043 126.824 12.6805 126.091 12.6927C126.028 12.6937 125.964 12.6946 125.901 12.6946C122.981 12.6946 120.956 11.3632 120.956 8.00599C120.956 4.64879 122.981 3.31738 126.026 3.31738C126.923 3.31738 127.846 3.42371 128.673 3.79819C129.422 4.13787 130.034 4.70524 130.423 5.43728C130.623 5.81176 130.764 6.21542 130.863 6.62848C130.951 6.9992 131.012 7.3831 131.052 7.76229C131.079 8.01916 131.099 8.3466 130.867 8.51691C130.745 8.6063 130.585 8.61476 130.44 8.61476C130.123 8.61476 129.806 8.611 129.488 8.611H127.131C126.409 8.611 125.688 8.611 124.966 8.611C124.757 8.611 124.516 8.58089 124.311 8.61288C124.249 8.62323 124.186 8.65052 124.147 8.70133C124.096 8.76719 124.094 8.86223 124.121 8.94126C124.228 9.26024 124.568 9.51334 124.862 9.63943C125.189 9.77962 125.544 9.82667 125.902 9.83043L125.903 9.82855ZM126.015 5.86351C125.677 5.86351 125.34 5.90397 125.046 5.98771C124.808 6.05546 124.417 6.22012 124.33 6.4817C124.234 6.76868 124.57 6.81572 124.768 6.81572H126.903C127.103 6.81572 127.307 6.82984 127.504 6.79408C127.58 6.77997 127.656 6.73857 127.692 6.66988C127.73 6.59649 127.717 6.50428 127.677 6.43277C127.541 6.19001 127.202 6.04605 126.949 5.97925C126.665 5.90397 126.341 5.8654 126.016 5.86445L126.015 5.86351Z" fill="white"/>
<path d="M58.9786 12.561C58.8919 12.5648 58.8044 12.5572 58.7197 12.5544C58.525 12.5478 58.3276 12.5591 58.1329 12.5591C57.6934 12.5591 57.2529 12.5601 56.8133 12.5666C56.6484 12.5695 56.4715 12.5394 56.3551 12.4217C56.2396 12.3051 56.2098 12.1263 56.2126 11.9607C56.2154 11.7518 56.2201 11.5448 56.2201 11.3359V2.9542C56.2201 2.67757 56.1483 2.2758 56.3514 2.0688C56.4687 1.9493 56.6484 1.91825 56.8152 1.92107C57.535 1.93236 58.2568 1.9286 58.9786 1.9286C59.2356 1.9286 59.4442 2.13936 59.4442 2.39906V10.5672C59.4442 11.0395 59.4619 11.5156 59.4517 11.987C59.4479 12.179 59.3893 12.3888 59.2281 12.4914C59.1518 12.5403 59.0661 12.5572 58.9786 12.561Z" fill="white"/>
<path d="M70.5803 7.22895C70.5803 7.86501 70.5803 8.50107 70.5803 9.13713C70.5803 9.74403 70.5803 10.3509 70.5803 10.9578C70.5803 11.2617 70.5803 11.5647 70.5803 11.8686C70.5803 12.1095 70.5868 12.3541 70.3512 12.4915C70.2161 12.5696 70.0746 12.5611 69.9265 12.5593C69.743 12.5564 69.5577 12.5611 69.3743 12.5611C69.0157 12.5611 68.6562 12.5621 68.2977 12.563C67.9782 12.564 67.6048 12.4972 67.6048 12.0897V8.71748C67.6048 7.15273 67.1457 6.48468 65.8065 6.48468C65.3492 6.48468 64.8956 6.60888 64.4868 6.81118C64.2773 6.91468 64.0789 7.03888 63.8945 7.1819C63.7315 7.30798 63.5108 7.46418 63.44 7.66741C63.3879 7.81796 63.4158 7.99485 63.414 8.15105C63.4112 8.33076 63.414 8.51048 63.414 8.6902C63.414 9.06468 63.414 9.43917 63.414 9.81365C63.414 10.5316 63.4233 11.2514 63.4223 11.9684C63.4223 12.1547 63.3758 12.3579 63.2286 12.4699C63.0871 12.5771 62.9092 12.5602 62.7425 12.5611C62.5423 12.563 62.342 12.5668 62.1418 12.5696C61.7414 12.5753 61.3409 12.579 60.9414 12.5574C60.8417 12.5517 60.7383 12.5414 60.6517 12.4906C60.3845 12.3334 60.4385 11.9627 60.4385 11.6936V6.41129C60.4385 5.62374 60.4301 4.83524 60.4282 4.04958C60.4282 3.84728 60.485 3.6224 60.6564 3.51796C60.7719 3.44645 60.9153 3.4455 61.0503 3.4455C61.6836 3.44739 62.316 3.44833 62.9492 3.44833C63.1234 3.44833 63.2873 3.54995 63.3655 3.70708C63.4596 3.89526 63.3488 4.12861 63.4521 4.30457C63.4996 4.38643 63.603 4.43065 63.6943 4.40901C63.7539 4.39489 63.8051 4.35726 63.8545 4.32056C64.7755 3.6478 65.8772 3.2959 67.0125 3.2959C68.687 3.2959 70.584 3.93384 70.584 7.22989L70.5803 7.22895Z" fill="white"/>
<path d="M73.8839 9.41749C73.9547 9.42125 74.0236 9.4316 74.087 9.46077C74.2788 9.55204 74.3226 9.77974 74.5005 9.88701C74.6187 9.95852 74.7566 9.99616 74.8907 10.0253C75.3964 10.1345 75.9309 10.1288 76.445 10.1288C78.1064 10.1288 78.3923 10.0376 78.3923 9.64331C78.3923 9.18791 78.1074 9.23307 76.3211 9.1418C72.8986 8.97432 71.3974 8.65534 71.3974 6.33221C71.3974 3.73527 73.6912 3.29492 76.445 3.29492C77.5095 3.29492 78.6755 3.31186 79.6626 3.7682C80.3257 4.07494 80.8007 4.61315 80.9963 5.32825C81.0782 5.6284 81.2049 6.17696 80.8249 6.32374C80.7103 6.36797 80.5846 6.36797 80.4626 6.36703C80.0165 6.36514 79.5704 6.36326 79.1253 6.36232C78.9036 6.36232 78.6783 6.37173 78.4566 6.3595C78.2657 6.34915 78.1632 6.1939 78.0263 6.07628C77.8867 5.95679 77.6976 5.9135 77.5141 5.90033C77.1183 5.87304 76.7188 5.87681 76.323 5.87681C74.8097 5.87681 74.3757 5.87681 74.3757 6.22589C74.3757 6.60602 74.6858 6.59003 76.5707 6.7114C79.4978 6.89394 81.3697 7.10659 81.3697 9.49088C81.3697 12.2704 79.3851 12.7107 76.5707 12.7107C75.4644 12.7107 74.304 12.6731 73.2516 12.2939C72.2812 11.9439 71.5464 11.2372 71.3452 10.189C71.2987 9.94535 71.2661 9.70635 71.47 9.52475C71.6144 9.40055 71.8146 9.41184 71.9943 9.41279C72.5904 9.41373 73.1864 9.41467 73.7824 9.41467C73.8169 9.41467 73.8513 9.41467 73.8858 9.41655L73.8839 9.41749Z" fill="white"/>
<path d="M93.1168 0.879676C93.1494 1.11585 93.1131 1.39342 93.1131 1.57878C93.1131 1.80272 93.1177 2.02478 93.1196 2.24871C93.1205 2.41808 93.087 2.60156 92.964 2.71635C92.8383 2.83397 92.6679 2.84244 92.5068 2.84055C92.3066 2.83867 92.1054 2.84149 91.9052 2.84338C91.4861 2.84714 91.0661 2.84996 90.647 2.84244C90.4775 2.83961 90.3052 2.77469 90.2121 2.62414C90.1394 2.50747 90.1282 2.36351 90.132 2.22613C90.1432 1.87987 90.1394 1.53456 90.1376 1.1883C90.1366 0.928603 90.1068 0.592695 90.3872 0.459084C90.484 0.412979 90.5948 0.412038 90.7019 0.412038C91.3026 0.411097 91.9042 0.411097 92.5049 0.410156C92.6493 0.410156 92.8039 0.412979 92.9231 0.49578C93.0413 0.57764 93.0954 0.72066 93.1168 0.880616V0.879676ZM93.1168 3.91791C93.128 4.05528 93.1112 4.20395 93.1131 4.32721C93.128 5.51559 93.1131 6.70491 93.1131 7.8933C93.1131 9.24728 93.1131 10.6003 93.114 11.9543C93.114 12.2545 92.9957 12.5603 92.6474 12.5603H91.311C91.0763 12.5603 90.8314 12.5838 90.5986 12.5584C90.4356 12.5414 90.2652 12.469 90.1897 12.3222C90.1404 12.2262 90.1385 12.1133 90.1385 12.0042C90.1385 11.6325 90.1376 11.2608 90.1376 10.8892V5.43561C90.1376 4.96515 90.1376 4.49563 90.1376 4.02517C90.1376 3.91603 90.1376 3.80406 90.1841 3.70526C90.3238 3.40228 90.6777 3.44745 90.9487 3.44745H92.0225C92.2311 3.44745 92.4397 3.44745 92.6483 3.44745C92.8141 3.44745 92.964 3.53778 93.0497 3.67985C93.0916 3.74854 93.1093 3.83134 93.1168 3.91791Z" fill="white"/>
<path d="M112.276 3.91805V12.0899C112.276 12.2396 112.204 12.3826 112.084 12.471C111.933 12.582 111.753 12.5585 111.576 12.5595C111.118 12.5613 110.66 12.5632 110.202 12.5651C109.846 12.567 109.3 12.5792 109.3 12.0909V11.8293C109.3 11.6364 109.084 11.5263 108.929 11.6402C108.096 12.2565 107.058 12.7128 105.703 12.7128C104.029 12.7128 102.132 12.0749 102.132 8.77885V5.41129C102.132 4.98412 102.132 4.55694 102.132 4.12976C102.132 3.95757 102.115 3.78727 102.221 3.64048C102.309 3.52004 102.449 3.44759 102.597 3.44759C103.247 3.44759 103.898 3.44759 104.548 3.44759C104.654 3.44759 104.765 3.44853 104.861 3.49652C104.987 3.55862 105.065 3.69317 105.095 3.83149C105.145 4.06013 105.108 4.32265 105.108 4.55788V7.29031C105.108 8.85506 105.567 9.52312 106.906 9.52312C107.67 9.52312 108.415 9.18344 108.991 8.68946C109.234 8.48152 109.322 8.24629 109.303 7.92732C109.292 7.75136 109.3 7.57353 109.3 7.39664V6.23836C109.3 5.50162 109.289 4.763 109.293 4.0272C109.294 3.85689 109.332 3.67436 109.459 3.56239C109.575 3.45888 109.742 3.4363 109.898 3.44101C110.534 3.45888 111.174 3.44759 111.811 3.44759C112.068 3.44759 112.276 3.65836 112.276 3.91805Z" fill="white"/>
<path d="M88.7295 6.39603C88.6438 6.40355 88.5553 6.40073 88.4706 6.40073C88.1632 6.40073 87.8559 6.40073 87.5486 6.40073C87.3139 6.40073 87.0792 6.40073 86.8436 6.40073C86.6797 6.40073 86.3733 6.33957 86.2364 6.45342C86.1684 6.50988 86.147 6.60585 86.147 6.69524C86.146 7.22215 86.1507 7.75001 86.1507 8.27693C86.1507 9.13881 86.4245 9.57728 87.2934 9.57728C87.6128 9.57728 87.9323 9.56693 88.2508 9.54529C88.5227 9.52741 88.857 9.42391 89.0694 9.65349C89.2305 9.82756 89.2221 10.108 89.2128 10.3291C89.1895 10.8635 89.2128 11.397 89.1988 11.9305C89.196 12.0378 89.1774 12.1479 89.1178 12.2363C88.9828 12.4367 88.7043 12.4659 88.4873 12.4932C87.6194 12.6052 86.7141 12.655 85.8415 12.5638C85.1728 12.4932 84.4725 12.3135 83.9538 11.8581C83.7554 11.684 83.5906 11.4732 83.4704 11.238C83.0746 10.4646 83.1678 9.55376 83.1678 8.71351C83.1678 8.15084 83.1678 7.58723 83.1678 7.02456C83.1678 6.906 83.1678 6.78745 83.1668 6.66889C83.1668 6.58891 83.1584 6.51929 83.0923 6.46659C82.9815 6.38003 82.8092 6.40167 82.6779 6.40167H82.1303C81.8733 6.40167 81.6647 6.19091 81.6647 5.93121C81.6647 5.37889 81.6693 4.82751 81.6647 4.27519C81.6628 3.99668 81.605 3.64289 81.8658 3.46035C82.0409 3.33804 82.2784 3.37661 82.4786 3.37661C82.6313 3.37661 82.7841 3.37661 82.9359 3.37661C83.1091 3.37661 83.1659 3.22795 83.1687 3.08022C83.1724 2.89392 83.1696 2.70762 83.164 2.52132C83.1575 2.3209 83.1305 2.10355 83.2655 1.937C83.3894 1.78363 83.6036 1.72624 83.7852 1.67543C84.0897 1.59075 84.3906 1.49195 84.6932 1.40068C84.8599 1.34987 85.0248 1.2953 85.1915 1.24449C85.3442 1.19744 85.5184 1.12499 85.6785 1.12029C85.8443 1.11558 85.9998 1.20967 86.0836 1.35175C86.2103 1.5644 86.1526 1.90125 86.1526 2.14589C86.1526 2.39053 86.146 2.62011 86.1451 2.85628C86.1451 2.97202 86.1218 3.13574 86.1693 3.243C86.2401 3.40484 86.4795 3.37567 86.621 3.37849C86.9935 3.38508 87.366 3.37849 87.7386 3.37849C88.004 3.37849 88.2685 3.37849 88.5339 3.37849C88.763 3.37944 88.9856 3.37849 89.1225 3.59679C89.2538 3.80661 89.1942 4.10677 89.1942 4.342C89.1942 4.65909 89.1942 4.97618 89.1942 5.29327C89.1942 5.41653 89.1923 5.53979 89.1923 5.66305C89.1923 5.84747 89.2203 6.03942 89.1113 6.20126C89.0172 6.34145 88.8775 6.38473 88.7285 6.39697L88.7295 6.39603Z" fill="white"/>
<path d="M100.822 6.39603C100.736 6.40355 100.647 6.40073 100.563 6.40073C100.255 6.40073 99.9479 6.40073 99.6406 6.40073C99.4059 6.40073 99.1712 6.40073 98.9356 6.40073C98.7717 6.40073 98.4653 6.33957 98.3284 6.45342C98.2604 6.50988 98.239 6.60585 98.239 6.69524C98.2381 7.22215 98.2427 7.75001 98.2427 8.27693C98.2427 9.13881 98.5165 9.57728 99.3854 9.57728C99.7049 9.57728 100.024 9.56693 100.343 9.54529C100.615 9.52741 100.949 9.42391 101.161 9.65349C101.323 9.82756 101.314 10.108 101.305 10.3291C101.282 10.8635 101.305 11.397 101.291 11.9305C101.288 12.0378 101.269 12.1479 101.21 12.2363C101.075 12.4367 100.796 12.4659 100.579 12.4932C99.7114 12.6052 98.8062 12.655 97.9336 12.5638C97.2649 12.4932 96.5645 12.3135 96.0458 11.8581C95.8474 11.684 95.6826 11.4732 95.5625 11.238C95.1667 10.4646 95.2598 9.55376 95.2598 8.71351C95.2598 8.15084 95.2598 7.58723 95.2598 7.02456C95.2598 6.906 95.2598 6.78745 95.2589 6.66889C95.2589 6.58891 95.2505 6.51929 95.1844 6.46659C95.0735 6.38003 94.9013 6.40167 94.7699 6.40167H94.2223C93.9653 6.40167 93.7567 6.19091 93.7567 5.93121C93.7567 5.37889 93.7613 4.82751 93.7567 4.27519C93.7548 3.99668 93.6971 3.64289 93.9579 3.46035C94.1329 3.33804 94.3704 3.37661 94.5706 3.37661C94.7234 3.37661 94.8761 3.37661 95.0279 3.37661C95.2011 3.37661 95.2579 3.22795 95.2607 3.08022C95.2645 2.89392 95.2617 2.70762 95.2561 2.52132C95.2496 2.3209 95.2226 2.10355 95.3576 1.937C95.4815 1.78363 95.6956 1.72624 95.8773 1.67543C96.1818 1.59075 96.4826 1.49195 96.7853 1.40068C96.952 1.34987 97.1168 1.2953 97.2835 1.24449C97.4362 1.19744 97.6104 1.12499 97.7706 1.12029C97.9363 1.11558 98.0919 1.20967 98.1757 1.35175C98.3023 1.5644 98.2446 1.90125 98.2446 2.14589C98.2446 2.39053 98.2381 2.62011 98.2372 2.85628C98.2372 2.97202 98.2139 3.13574 98.2614 3.243C98.3321 3.40484 98.5715 3.37567 98.713 3.37849C99.0856 3.38508 99.4581 3.37849 99.8306 3.37849C100.096 3.37849 100.361 3.37849 100.626 3.37849C100.855 3.37944 101.078 3.37849 101.215 3.59679C101.346 3.80661 101.286 4.10677 101.286 4.342C101.286 4.65909 101.286 4.97618 101.286 5.29327C101.286 5.41653 101.284 5.53979 101.284 5.66305C101.284 5.84747 101.312 6.03942 101.203 6.20126C101.109 6.34145 100.97 6.38473 100.821 6.39697L100.822 6.39603Z" fill="white"/>
<path d="M119.99 6.39603C119.904 6.40355 119.816 6.40073 119.731 6.40073C119.423 6.40073 119.116 6.40073 118.809 6.40073C118.574 6.40073 118.339 6.40073 118.104 6.40073C117.94 6.40073 117.634 6.33957 117.497 6.45342C117.429 6.50988 117.407 6.60585 117.407 6.69524C117.406 7.22215 117.411 7.75001 117.411 8.27693C117.411 9.13881 117.685 9.57728 118.554 9.57728C118.873 9.57728 119.193 9.56693 119.511 9.54529C119.783 9.52741 120.117 9.42391 120.33 9.65349C120.491 9.82756 120.482 10.108 120.473 10.3291C120.45 10.8635 120.473 11.397 120.459 11.9305C120.456 12.0378 120.438 12.1479 120.378 12.2363C120.243 12.4367 119.965 12.4659 119.748 12.4932C118.88 12.6052 117.974 12.655 117.102 12.5638C116.433 12.4932 115.733 12.3135 115.214 11.8581C115.016 11.684 114.851 11.4732 114.731 11.238C114.335 10.4646 114.428 9.55376 114.428 8.71351C114.428 8.15084 114.428 7.58723 114.428 7.02456C114.428 6.906 114.428 6.78745 114.427 6.66889C114.427 6.58891 114.419 6.51929 114.353 6.46659C114.242 6.38003 114.069 6.40167 113.938 6.40167H113.391C113.134 6.40167 112.925 6.19091 112.925 5.93121C112.925 5.37889 112.93 4.82751 112.925 4.27519C112.923 3.99668 112.865 3.64289 113.126 3.46035C113.301 3.33804 113.539 3.37661 113.739 3.37661C113.892 3.37661 114.044 3.37661 114.196 3.37661C114.369 3.37661 114.426 3.22795 114.429 3.08022C114.433 2.89392 114.43 2.70762 114.424 2.52132C114.418 2.3209 114.391 2.10355 114.526 1.937C114.65 1.78363 114.864 1.72624 115.045 1.67543C115.35 1.59075 115.651 1.49195 115.953 1.40068C116.12 1.34987 116.285 1.2953 116.452 1.24449C116.604 1.19744 116.779 1.12499 116.939 1.12029C117.105 1.11558 117.26 1.20967 117.344 1.35175C117.471 1.5644 117.413 1.90125 117.413 2.14589C117.413 2.39053 117.406 2.62011 117.405 2.85628C117.405 2.97202 117.382 3.13574 117.43 3.243C117.5 3.40484 117.74 3.37567 117.881 3.37849C118.254 3.38508 118.626 3.37849 118.999 3.37849C119.264 3.37849 119.529 3.37849 119.794 3.37849C120.023 3.37944 120.246 3.37849 120.383 3.59679C120.514 3.80661 120.454 4.10677 120.454 4.342C120.454 4.65909 120.454 4.97618 120.454 5.29327C120.454 5.41653 120.453 5.53979 120.453 5.66305C120.453 5.84747 120.481 6.03942 120.372 6.20126C120.277 6.34145 120.138 6.38473 119.989 6.39697L119.99 6.39603Z" fill="white"/>
</svg>
