<svg width="258" height="81" viewBox="0 0 258 81" fill="none" xmlns="http://www.w3.org/2000/svg">
<path fill-rule="evenodd" clip-rule="evenodd" d="M137.732 0.0950586C136.731 0.0170512 135.726 -0.00433794 134.741 0.000694801C131.926 0.0142962 129.122 0.0135387 126.317 0.0127805C124.97 0.0124165 123.622 0.0120524 122.272 0.0132767C118.855 0.0157931 115.439 0.506485 112.607 2.56865C110.285 4.25965 108.538 6.70808 107.698 9.47482C107.314 10.7393 107.121 12.0617 107.121 13.384C107.121 19.1301 111.015 24.6435 116.587 26.1546C119.236 26.8728 122.05 26.8101 124.811 26.7487C125.581 26.7315 126.346 26.7145 127.103 26.7145C127.82 26.7145 128.537 26.7107 129.255 26.7069C130.69 26.6994 132.126 26.6918 133.561 26.7145C133.993 26.7208 134.493 26.7673 134.812 27.0995C134.965 27.2578 135.081 27.4411 135.198 27.6245C135.326 27.8244 135.453 28.0242 135.626 28.1916C136.576 29.1126 138.214 29.1415 139.255 28.3602C139.658 28.0582 139.938 27.6543 140.148 27.1989C140.356 26.7472 140.511 26.4955 140.984 26.3269L141.146 26.2695C142.4 25.8253 143.643 25.385 144.773 24.6649C148.558 22.2542 150.941 17.9323 150.941 13.384C150.941 9.27351 148.939 5.24607 145.706 2.75486C143.405 0.982079 140.579 0.313983 137.733 0.0938005L137.732 0.0950586ZM147.094 14.8772C146.734 17.1092 145.567 19.1789 143.858 20.6397C142.134 22.1142 139.895 22.6943 137.61 22.9119C135.536 23.1095 133.091 23.2906 131.023 22.961C130.407 22.8629 129.81 22.5924 129.327 22.1935C128.788 21.7481 128.541 20.9328 128.485 20.2597C128.404 19.2947 128.35 18.3271 128.305 17.3608C128.207 15.2823 128.198 13.2063 128.198 11.1265C128.213 10.0281 128.254 8.92973 128.329 7.83385C128.395 6.86757 128.472 5.88744 129.079 5.08849C130.105 3.73859 131.929 3.73715 133.489 3.73592C133.625 3.73581 133.76 3.7357 133.892 3.73469C134.041 3.73351 134.192 3.73207 134.343 3.73063C136.774 3.7074 139.405 3.68228 141.644 4.70223C145.455 6.43853 147.77 10.7 147.095 14.8772H147.094ZM120.664 8.34367C119.971 6.28779 117.478 6.28905 116.461 7.78503L116.458 7.78755C116.245 8.10209 116.095 8.48207 116.043 8.92369C116.021 9.10738 116.022 10.9179 116.201 10.9229C116.143 10.9213 116.084 10.9195 116.024 10.9176C114.377 10.8672 112.109 10.7978 111.738 12.8945C111.522 14.1112 112.333 15.2549 113.477 15.5896C114.339 15.8412 115.258 15.7745 116.153 15.7053C115.855 16.922 115.637 18.5488 116.614 19.5151C117.322 20.2146 118.562 20.4159 119.461 19.9856C120.148 19.656 120.589 18.9363 120.772 18.1915C120.941 17.5071 120.915 16.8081 120.889 16.1116C120.887 16.0449 120.884 15.9783 120.882 15.9116C121.878 16.0148 123.122 16.0576 123.983 15.4486C124.999 14.7315 125.412 12.9964 124.691 11.9383C124.293 11.352 123.617 11.0047 122.926 10.8613C122.236 10.7166 121.524 10.7531 120.82 10.7896C120.902 9.9705 120.927 9.12374 120.664 8.34367Z" fill="white"/>
<path d="M133.256 31.3927C133.669 31.388 134.082 31.2185 134.352 30.9019C135.144 29.9781 134.458 28.4834 133.256 28.4834C131.872 28.4834 131.294 30.3641 132.44 31.1538C132.679 31.3186 132.967 31.3962 133.256 31.3927Z" fill="white"/>
<path d="M130.951 33.0674C131.175 33.0649 131.398 32.9732 131.544 32.802C131.972 32.3024 131.602 31.4941 130.951 31.4941C130.203 31.4941 129.89 32.5112 130.51 32.9382C130.639 33.0273 130.795 33.0693 130.951 33.0674Z" fill="white"/>
<path d="M139.8 9.22894C139.806 8.97604 139.771 8.72315 139.69 8.48158C139.281 7.27498 137.799 6.59178 136.636 7.10512C135.478 7.61595 134.912 9.12199 135.484 10.2682C135.999 11.2999 137.358 11.8044 138.412 11.3565C139.235 11.0068 139.776 10.121 139.798 9.22894H139.8Z" fill="white"/>
<path d="M139.793 17.3057C139.793 16.8099 139.649 16.3142 139.352 15.9179C138.438 14.6924 136.471 14.7264 135.642 16.0186C134.927 17.1358 135.286 18.7299 136.469 19.3527C137.38 19.8321 138.605 19.5893 139.27 18.7979C139.616 18.3852 139.792 17.8454 139.792 17.3057H139.793Z" fill="white"/>
<path d="M141.526 15.5575C141.935 15.5613 142.343 15.4619 142.695 15.2505C143.584 14.717 144.023 13.5255 143.695 12.5353C143.217 11.0897 141.355 10.487 140.163 11.4281C139.129 12.2434 138.95 13.8627 139.856 14.8416C140.282 15.3021 140.905 15.5499 141.527 15.5562L141.526 15.5575Z" fill="white"/>
<path d="M133.525 15.5754C134.788 15.5754 135.811 14.5424 135.811 13.2679C135.811 12.016 134.83 11.1164 133.637 10.9906C132.349 10.8547 131.239 11.9896 131.239 13.2679C131.239 14.5424 132.262 15.5754 133.525 15.5754Z" fill="white"/>
<path d="M105.651 53.945C109.03 53.945 112.861 55.2215 112.861 61.8173V67.0063C112.861 68.1276 112.861 69.2509 112.861 70.3723C112.861 70.6465 112.861 70.9207 112.861 71.1949C112.861 71.418 112.882 71.6487 112.805 71.8643C112.583 72.4789 111.93 72.4959 111.375 72.494C110.549 72.4921 109.724 72.4902 108.898 72.4883C108.311 72.4883 107.407 72.6491 107.017 72.0742C106.791 71.7433 106.846 71.331 106.853 70.9547C106.857 70.7354 106.853 70.5141 106.853 70.2929V65.3233C106.853 65.1474 106.853 64.9715 106.853 64.7957C106.853 61.6642 105.927 60.3272 103.223 60.3272C102.317 60.3272 101.42 60.5674 100.604 60.9588C99.9902 61.2538 99.3542 61.5885 98.8739 62.0821C98.3992 62.5718 98.3448 63.2848 98.3673 63.9334C98.3955 64.7011 98.3917 65.4632 98.3917 66.2328V68.8614C98.3917 69.5497 98.3917 70.2361 98.3917 70.9245C98.3917 71.2932 98.4536 71.713 98.2491 72.042C97.8701 72.6509 97.0427 72.4826 96.4386 72.4845L94.052 72.4921C93.5398 72.4921 92.9094 72.5659 92.568 72.1026C92.3635 71.8227 92.3822 71.4766 92.386 71.1476C92.4385 67.1632 92.386 63.1732 92.3841 59.1888C92.3841 55.8625 92.3785 52.5343 92.386 49.2081C92.386 48.7315 92.5736 48.3987 93.0427 48.2607C93.4573 48.1377 93.902 48.168 94.3279 48.168C95.1947 48.168 96.0615 48.1548 96.9283 48.168C97.3879 48.1737 97.9076 48.0829 98.2304 48.5991C98.3898 48.8525 98.388 49.1248 98.3898 49.4142C98.3936 50.5166 98.3917 51.621 98.3917 52.7234C98.3917 53.6103 98.3917 54.4972 98.3917 55.3841C98.3917 55.7226 98.3955 56.1727 98.8495 56.184C99.0071 56.1878 99.114 56.0989 99.2416 56.0157C100.221 55.3728 101.199 54.8055 102.319 54.448C103.396 54.1039 104.523 53.9431 105.653 53.9431L105.651 53.945Z" fill="white"/>
<path d="M89.6887 60.3191C89.5161 60.3342 89.3379 60.3285 89.1672 60.3285C88.548 60.3285 87.9289 60.3285 87.3097 60.3285C86.8369 60.3285 86.3641 60.3285 85.8894 60.3285C85.5592 60.3285 84.9419 60.2056 84.6661 60.4344C84.5292 60.5479 84.486 60.7408 84.486 60.9204C84.4842 61.9794 84.4935 63.0402 84.4935 64.0992C84.4935 65.8314 85.0451 66.7126 86.7956 66.7126C87.4392 66.7126 88.0827 66.6918 88.7244 66.6483C89.2722 66.6124 89.9458 66.4044 90.3736 66.8658C90.6981 67.2156 90.6812 67.7791 90.6625 68.2235C90.6156 69.2976 90.6625 70.3698 90.6343 71.442C90.6287 71.6576 90.5912 71.8788 90.4711 72.0566C90.1991 72.4594 89.6381 72.518 89.2009 72.5728C87.4523 72.7979 85.6286 72.8981 83.8706 72.7147C82.5235 72.5728 81.1126 72.2117 80.0676 71.2964C79.6679 70.9466 79.3359 70.523 79.0938 70.0502C78.2964 68.4958 78.4841 66.6653 78.4841 64.9766C78.4841 63.8458 78.4841 62.7131 78.4841 61.5823C78.4841 61.344 78.4841 61.1057 78.4822 60.8675C78.4822 60.7067 78.4653 60.5668 78.3321 60.4609C78.1088 60.2869 77.7617 60.3304 77.4972 60.3304H76.394C75.8761 60.3304 75.4559 59.9068 75.4559 59.3849C75.4559 58.2749 75.4652 57.1668 75.4559 56.0567C75.4521 55.497 75.3358 54.786 75.8611 54.4191C76.2139 54.1733 76.6923 54.2508 77.0957 54.2508C77.4034 54.2508 77.7111 54.2508 78.0169 54.2508C78.3659 54.2508 78.4803 53.952 78.4859 53.6551C78.4934 53.2807 78.4878 52.9063 78.4766 52.5319C78.4634 52.1291 78.409 51.6923 78.6811 51.3576C78.9306 51.0493 79.3621 50.934 79.728 50.8319C80.3415 50.6617 80.9475 50.4631 81.5573 50.2797C81.8931 50.1776 82.2252 50.0679 82.561 49.9658C82.8687 49.8712 83.2196 49.7256 83.5423 49.7162C83.8763 49.7067 84.1896 49.8958 84.3584 50.1813C84.6136 50.6087 84.4973 51.2857 84.4973 51.7774C84.4973 52.269 84.4842 52.7304 84.4823 53.2051C84.4823 53.4377 84.4354 53.7667 84.5311 53.9823C84.6737 54.3075 85.1558 54.2489 85.441 54.2546C86.1915 54.2678 86.942 54.2546 87.6925 54.2546C88.2272 54.2546 88.76 54.2546 89.2947 54.2546C89.7563 54.2565 90.2047 54.2546 90.4805 54.6933C90.745 55.115 90.625 55.7182 90.625 56.191C90.625 56.8283 90.625 57.4655 90.625 58.1028C90.625 58.3505 90.6212 58.5983 90.6212 58.846C90.6212 59.2166 90.6775 59.6024 90.458 59.9276C90.2685 60.2094 89.9871 60.2964 89.6869 60.321L89.6887 60.3191Z" fill="white"/>
<path d="M69.0096 48.1887C69.0265 48.1849 69.0453 48.1831 69.0622 48.1793C70.0322 48.0337 71.0115 48.0677 71.9872 48.0791C72.6025 48.0866 73.5256 47.9826 73.9121 48.5953C73.9703 48.6861 74.0078 48.7901 74.0322 48.8941C74.0679 49.0586 74.0716 49.2269 74.0754 49.3933C74.0979 51.0461 74.0772 52.7007 74.0772 54.3553V69.4418C74.0772 70.1491 74.1148 70.8601 74.0735 71.5673C74.0454 72.0722 73.657 72.4864 73.1391 72.4864C72.0359 72.4864 70.9309 72.475 69.8258 72.4864C69.3004 72.492 68.6419 72.5942 68.2723 72.129C68.0659 71.868 68.0621 71.5352 68.0659 71.2175C68.0715 70.8469 68.0659 70.4762 68.0659 70.1056C68.0659 68.8897 68.0659 67.6737 68.0659 66.4597C68.0659 64.8353 68.0659 63.2109 68.0659 61.5885C68.0659 59.8847 68.0659 58.1808 68.0659 56.477C68.0659 55.021 68.0659 53.5668 68.0659 52.1107C68.0659 51.2503 68.0659 50.3918 68.0678 49.5313C68.0678 49.225 68.094 48.8922 68.2591 48.6256C68.4242 48.3589 68.7076 48.2398 69.0059 48.1868L69.0096 48.1887Z" fill="white"/>
<path d="M56.5377 53.9443C62.6954 53.9443 66.2002 56.4972 66.2508 63.458V69.7003C66.2508 70.173 66.2508 70.6439 66.2602 71.1185C66.2658 71.423 66.2696 71.8352 66.0857 72.0943C65.7968 72.4971 65.2883 72.5103 64.8418 72.5009C63.9318 72.4857 63.0219 72.4952 62.1119 72.5009C61.3802 72.5065 60.2432 72.5425 60.2432 71.5402V71.2509C60.2432 70.9635 60.02 70.78 59.7423 70.8008C59.4121 70.8254 59.1044 71.1488 58.8323 71.3152C58.0743 71.7766 57.2526 72.1227 56.397 72.3571C55.1962 72.6862 53.9486 72.7921 52.7084 72.7921C49.2787 72.7921 46.2749 71.302 46.2749 67.3516C46.2749 62.609 50.7815 61.3628 55.1625 61.3628C55.9524 61.3628 56.7422 61.4101 57.5227 61.5292C57.8623 61.5802 58.1982 61.6464 58.5321 61.7277C58.868 61.8091 59.2038 61.9717 59.5397 62.0284C59.6897 62.053 59.8549 62.0284 59.9731 61.932C60.08 61.8431 60.1344 61.6994 60.1325 61.5594C60.1213 60.8692 59.2939 60.4021 58.731 60.2395C57.9618 60.0183 57.1325 60.0277 56.3389 60.0277C54.3745 60.0277 52.4232 60.2717 50.5132 60.7179C49.9729 60.8446 49.3819 60.7747 49.1586 60.1866C48.9748 59.6987 48.7909 59.2127 48.607 58.7248C48.4644 58.3466 48.3218 57.9703 48.1792 57.5921C47.9841 57.0759 47.5451 56.3592 47.9466 55.8486C48.2637 55.4439 48.8397 55.2794 49.3125 55.1527C50.6577 54.7915 51.9823 54.4152 53.3632 54.2034C54.4139 54.0427 55.4777 53.9462 56.5396 53.9462L56.5377 53.9443ZM60.2489 66.2378C60.2601 66.1281 60.2414 66.0128 60.1945 65.9239C60.1363 65.8123 60.0331 65.7367 59.9243 65.68C59.6616 65.5476 59.3539 65.5098 59.065 65.4795C58.9505 65.4682 58.8342 65.4606 58.7198 65.4474C58.1231 65.3793 57.5246 65.3263 56.9242 65.3169C53.6728 65.2696 52.2806 65.5287 52.2806 66.7711C52.2806 67.7639 52.9673 67.9227 54.4589 67.9265C55.4608 67.9284 56.4608 67.7998 57.4346 67.5577C57.9768 67.4235 58.5209 67.293 59.0462 67.1001C59.3408 66.9923 59.6447 66.8978 59.9093 66.7219C60.0125 66.6538 60.1081 66.5706 60.1757 66.4647C60.217 66.4004 60.2414 66.3191 60.2489 66.2359V66.2378Z" fill="white"/>
<path d="M35.036 67.0341C35.5013 67.0397 35.9666 67.0095 36.4168 66.9717C37.0266 66.9206 37.6289 66.7731 38.1767 66.4932C38.6645 66.2436 39.113 65.682 39.6796 65.6479C41.1224 65.5647 42.5952 65.6479 44.0417 65.6479C44.3682 65.6479 44.6759 65.8238 44.8448 66.1056C45.0455 66.4403 44.9536 66.896 44.8391 67.2496C44.4489 68.4429 43.7978 69.5869 42.8766 70.4454C42.0042 71.2605 40.9272 71.8127 39.7978 72.1682C38.3831 72.6125 36.8915 72.7657 35.415 72.7903C35.2874 72.7922 35.1598 72.7941 35.0322 72.7941C29.1503 72.7941 25.0696 70.1183 25.0696 63.3712C25.0696 56.624 29.1503 53.9482 35.2836 53.9482C37.0904 53.9482 38.9516 54.1619 40.6158 54.9146C42.1261 55.5972 43.3588 56.7375 44.1431 58.2087C44.5446 58.9613 44.8297 59.7726 45.0286 60.6027C45.2069 61.3478 45.3288 62.1193 45.4095 62.8814C45.4639 63.3976 45.5052 64.0557 45.0361 64.398C44.7903 64.5776 44.4695 64.5947 44.1768 64.5947C43.537 64.5947 42.8991 64.5871 42.2593 64.5871H37.5107C36.0566 64.5871 34.6026 64.5871 33.1485 64.5871C32.7282 64.5871 32.2423 64.5266 31.8295 64.5909C31.7038 64.6117 31.5781 64.6665 31.4993 64.7686C31.3961 64.901 31.3924 65.092 31.4468 65.2508C31.6626 65.8919 32.3474 66.4006 32.9384 66.654C33.5969 66.9357 34.3136 67.0303 35.0341 67.0378L35.036 67.0341ZM35.2611 59.0653C34.5819 59.0653 33.9027 59.1466 33.3099 59.3149C32.8296 59.4511 32.0415 59.782 31.8671 60.3077C31.6738 60.8845 32.3511 60.979 32.7489 60.979H37.051C37.4544 60.979 37.8653 61.0074 38.2612 60.9355C38.415 60.9072 38.567 60.824 38.6402 60.6859C38.7171 60.5384 38.6908 60.3531 38.6101 60.2094C38.3362 59.7215 37.6533 59.4322 37.1429 59.2979C36.5707 59.1466 35.9178 59.0691 35.263 59.0672L35.2611 59.0653Z" fill="white"/>
<path d="M18.1294 51.2121C19.4615 51.0741 20.8311 51.197 22.1688 51.1951C22.6379 51.1951 23.2083 51.1611 23.5178 51.5922C23.7392 51.9004 23.7073 52.273 23.698 52.6323C23.6886 53.0218 23.7017 53.4189 23.7017 53.8104V70.3851C23.7017 70.7803 23.758 71.1926 23.7036 71.5821C23.6192 72.1967 23.152 72.4879 22.5647 72.5049C21.3264 72.539 20.0975 72.4784 18.8592 72.4974C18.4371 72.503 17.9586 72.5503 17.589 72.2988C17.1219 71.9792 17.1913 71.4025 17.1913 70.9032C17.1913 70.5383 17.1913 70.1733 17.1913 69.8102V67.1704C17.1913 66.8262 17.1913 66.4802 17.1913 66.136C17.1913 65.6141 16.771 65.1905 16.2532 65.1905H7.86656C7.34873 65.1905 6.92846 65.6141 6.92846 66.136V70.2414C6.92846 70.6101 6.92658 70.977 6.93408 71.3457C6.93971 71.584 6.91908 71.8317 6.79712 72.036C6.67329 72.2459 6.45378 72.3858 6.21925 72.4501C5.89467 72.539 5.53256 72.4936 5.1986 72.4936C4.18732 72.4936 3.17605 72.4936 2.16478 72.4936C1.68822 72.4936 1.09534 72.5843 0.710722 72.2307C0.401149 71.9471 0.419911 71.5462 0.419911 71.1623C0.419911 70.7009 0.419911 70.2414 0.419911 69.78V55.3307C0.419911 54.4514 0.419911 53.5721 0.421787 52.6928C0.421787 52.3297 0.367377 51.9439 0.579388 51.6262C0.847685 51.2253 1.35801 51.1724 1.79704 51.1705C2.93965 51.1648 4.08226 51.1762 5.22486 51.1762C5.63575 51.1762 6.0973 51.1819 6.46879 51.3804C6.97349 51.6489 6.93408 52.2314 6.92846 52.7268C6.9247 53.1126 6.92846 53.5002 6.92846 53.886V57.5584C6.92846 58.0803 7.34873 58.5039 7.86656 58.5039H16.2532C16.771 58.5039 17.1913 58.0803 17.1913 57.5584V54.0146C17.1913 53.6288 17.1913 53.2431 17.1913 52.8573C17.1913 52.5264 17.1519 52.1652 17.2607 51.8418C17.392 51.4504 17.7335 51.2518 18.1275 51.2121H18.1294Z" fill="white"/>
<path d="M128.575 54.2473C128.761 54.2246 128.954 54.2283 129.138 54.2283C130.354 54.2283 131.57 54.2283 132.785 54.2283C133.234 54.2283 133.667 54.2718 133.915 54.6973C134.138 55.0812 134.001 55.4556 133.872 55.8452C131.982 61.5617 130.093 67.2801 128.206 72.9967C127.536 75.0238 126.87 77.0548 126.194 79.08C126.027 79.5831 125.804 80.0672 125.192 80.0672H120.659C120.312 80.0672 119.99 79.8705 119.828 79.5604C119.605 79.133 119.823 78.6621 119.96 78.2423C120.127 77.7374 120.292 77.2344 120.459 76.7295C120.77 75.7783 121.091 74.7988 121.41 73.8363C121.568 73.356 121.939 72.4918 121.121 72.4558C120.404 72.4256 119.205 72.7452 118.892 71.828C118.033 69.3243 117.174 66.8225 116.316 64.3188C115.688 62.4864 115.059 60.654 114.431 58.8216C114.097 57.8496 113.759 56.8795 113.432 55.9057C113.303 55.518 113.134 55.1568 113.325 54.7597C113.62 54.1527 114.267 54.2265 114.83 54.2265C116.117 54.2265 117.404 54.2265 118.691 54.2265C119.114 54.2265 119.404 54.5044 119.571 54.8732C119.92 55.6409 120.136 56.4786 120.412 57.2767C120.729 58.1957 121.046 59.1147 121.361 60.0356C121.986 61.8548 122.594 63.6815 123.234 65.4969C123.29 65.6576 123.35 65.7938 123.513 65.8656C123.635 65.9186 123.776 65.9186 123.898 65.8656C124.02 65.8127 124.108 65.7087 124.149 65.582C124.541 64.3944 124.933 63.205 125.326 62.0174C126.027 59.8919 126.706 57.757 127.427 55.6371C127.553 55.2703 127.65 54.8505 127.913 54.5517C128.089 54.3513 128.324 54.2737 128.571 54.2435L128.575 54.2473Z" fill="white"/>
<path d="M253.667 53.9473C254.465 53.9473 255.264 54.004 256.046 54.1553C256.705 54.282 257.647 54.4011 257.647 55.2729C257.647 55.2729 257.647 59.4028 257.647 59.4047C257.647 59.747 257.463 60.0571 257.172 60.2292C256.731 60.4921 256.183 60.2462 255.723 60.1725C255.159 60.0817 254.59 60.0269 254.018 60.0269C252.971 60.0269 251.911 60.1025 250.905 60.424C249.87 60.7549 248.763 61.3998 248.106 62.2923C247.716 62.8237 247.834 63.5782 247.834 64.2098C247.834 64.953 247.834 65.6961 247.834 66.4374C247.834 68.0486 247.827 69.6616 247.842 71.2708C247.845 71.6358 247.755 72.0556 247.461 72.2996C247.215 72.5019 246.887 72.5114 246.584 72.5076C245.562 72.5019 244.539 72.483 243.517 72.483C243.059 72.4792 242.423 72.5908 242.091 72.1861C241.883 71.9327 241.828 71.5715 241.828 71.2519V57.474C241.828 56.7743 241.802 56.0747 241.834 55.375C241.849 55.0705 241.853 54.8115 242.059 54.5732C242.235 54.369 242.496 54.2498 242.766 54.2498C243.667 54.2498 244.568 54.2404 245.466 54.2442C245.917 54.2442 246.367 54.2498 246.817 54.2612C247.198 54.2706 247.53 54.386 247.725 54.7491C247.935 55.1424 247.725 55.5943 247.881 55.982C248.198 56.7857 249.187 55.5622 249.474 55.3031C250.374 54.4938 251.684 54.1042 252.86 53.987C253.129 53.9605 253.399 53.9473 253.669 53.9473H253.667Z" fill="white"/>
<path d="M212.533 53.9473C215.162 53.9473 218.742 55.2237 218.742 61.517V67.3621C218.742 68.6915 218.811 70.0209 218.736 71.3503C218.708 71.8646 218.654 72.2315 218.117 72.4036C217.717 72.5321 217.276 72.4887 216.862 72.4887C215.954 72.4887 215.046 72.4905 214.139 72.4924C213.496 72.4924 212.734 72.379 212.734 71.545V64.7998C212.734 61.6683 212.059 60.3313 209.856 60.3313C208.839 60.3313 207.779 60.7871 206.967 61.3941C206.488 61.7515 206.077 62.2337 205.875 62.8029C205.627 63.4969 205.777 64.259 205.777 64.9775C205.777 66.2634 205.777 67.5493 205.777 68.8352C205.777 69.6257 205.805 70.418 205.781 71.2084C205.77 71.5394 205.79 71.8608 205.576 72.1331C205.323 72.4546 204.954 72.4962 204.571 72.4943C203.569 72.4943 202.567 72.4924 201.563 72.4905C200.852 72.4905 199.77 72.5738 199.77 71.5469V64.8017C199.77 61.6702 199.094 60.3332 196.891 60.3332C196.173 60.3332 195.471 60.5223 194.841 60.8703C193.933 61.3714 193.006 62.0465 192.833 63.1433C192.751 63.6671 192.811 64.1985 192.811 64.726V66.4374C192.811 67.6155 192.811 68.7936 192.811 69.9717C192.811 70.4955 192.811 71.0212 192.811 71.545C192.811 72.6588 191.535 72.4811 190.79 72.4924C190.045 72.5038 189.259 72.5038 188.494 72.4924C187.888 72.4849 187.139 72.587 186.867 71.8911C186.781 71.668 186.805 71.4013 186.799 71.1631C186.781 70.1797 186.801 69.1926 186.801 68.2074V58.2058C186.801 57.3341 186.814 56.4623 186.801 55.5924C186.794 55.1764 186.773 54.732 187.19 54.437C187.366 54.3103 187.584 54.2517 187.801 54.2517H191.873C192.39 54.2517 192.811 54.6753 192.811 55.1972C192.811 55.4015 192.801 55.6057 192.803 55.8118C192.805 55.9839 192.788 56.2051 192.89 56.3526C193.021 56.5417 193.297 56.6212 193.501 56.5039C193.634 56.4283 193.751 56.2827 193.865 56.1787C194.619 55.4809 195.439 54.8947 196.398 54.5127C197.406 54.1118 198.49 53.9473 199.571 53.9473C201.304 53.9473 203.462 54.5165 204.71 56.7081C204.863 56.9786 205.229 57.0296 205.445 56.8084C207.004 55.2067 209.211 53.9492 212.537 53.9492L212.533 53.9473Z" fill="white"/>
<path d="M152.559 64.2191C152.559 64.2191 152.559 64.2059 152.559 64.2002C152.497 63.4759 152.54 62.7082 152.563 61.982C152.572 61.6833 152.666 61.3807 152.874 61.1632C153.111 60.9155 153.479 60.9004 153.801 60.9042C154.389 60.9117 154.972 60.9117 155.559 60.9117H159.67C160.693 60.9117 161.715 60.8909 162.736 60.8985C163.053 60.9004 163.404 60.9779 163.644 61.1992C163.963 61.4904 163.918 61.8667 163.92 62.2638C163.927 64.1718 163.929 66.0818 163.927 67.9898C163.927 68.9448 163.925 69.8978 163.922 70.8528C163.92 71.543 163.933 72.4942 162.985 72.4942H160.972C160.511 72.4942 160.117 72.1557 160.045 71.6943C159.989 71.3331 159.931 70.9719 159.882 70.6088C159.863 70.4727 159.828 70.3347 159.739 70.2306C159.289 69.7031 158.702 70.5786 158.387 70.8566C157.685 71.4768 156.852 71.925 155.972 72.2313C154.773 72.6493 153.497 72.7968 152.233 72.7968C145.775 72.7968 141.97 69.2398 141.97 61.8232C141.97 54.4066 145.775 50.9102 152.985 50.9102C154.456 50.9102 155.94 51.035 157.37 51.4018C158.537 51.7006 159.672 52.1696 160.655 52.8787C161.546 53.5216 162.287 54.3594 162.815 55.3276C163.254 56.135 163.556 57.0162 163.723 57.922C163.854 58.6387 163.931 59.6126 162.957 59.6788C162.135 59.7355 161.306 59.6958 160.482 59.6958C159.848 59.6958 159.214 59.7053 158.578 59.6958C158.237 59.692 157.873 59.7298 157.546 59.6069C157.201 59.4783 157.051 59.1342 156.837 58.8619C156.683 58.6652 156.482 58.5026 156.276 58.3645C155.749 58.0147 155.13 57.8256 154.512 57.7178C154.008 57.6289 153.495 57.5968 152.983 57.5968C149.128 57.5968 148.477 59.5729 148.477 62.1258C148.477 64.6786 149.152 67.0197 152.983 67.0197C153.726 67.0197 154.479 66.9913 155.208 66.8457C155.82 66.7228 156.481 66.5016 156.893 66.0004C157.148 65.6884 157.042 65.1665 156.576 65.1665C155.649 65.1665 154.723 65.1608 153.798 65.1722C153.173 65.1816 152.631 64.9207 152.559 64.2191Z" fill="white"/>
<path d="M230.028 67.0497C230.493 67.0554 230.959 67.0251 231.409 66.9873C232.019 66.9362 232.621 66.7887 233.169 66.5089C233.656 66.2592 234.105 65.6976 234.672 65.6636C236.114 65.5804 237.587 65.6636 239.034 65.6636C239.36 65.6636 239.668 65.8394 239.837 66.1212C240.037 66.4559 239.946 66.9116 239.831 67.2653C239.441 68.4585 238.79 69.6026 237.869 70.4611C236.996 71.2761 235.919 71.8283 234.79 72.1838C233.375 72.6282 231.883 72.7813 230.407 72.8059C230.279 72.8078 230.152 72.8097 230.024 72.8097C224.142 72.8097 220.062 70.1339 220.062 63.3868C220.062 56.6397 224.142 53.9639 230.276 53.9639C232.082 53.9639 233.944 54.1776 235.608 54.9302C237.118 55.6128 238.351 56.7531 239.135 58.2243C239.537 58.9769 239.822 59.7882 240.021 60.6183C240.199 61.3634 240.321 62.1349 240.401 62.897C240.456 63.4133 240.497 64.0713 240.028 64.4136C239.782 64.5933 239.461 64.6103 239.169 64.6103C238.529 64.6103 237.891 64.6027 237.251 64.6027H232.503C231.049 64.6027 229.595 64.6027 228.14 64.6027C227.72 64.6027 227.234 64.5422 226.821 64.6065C226.696 64.6273 226.57 64.6821 226.491 64.7842C226.388 64.9166 226.384 65.1076 226.439 65.2665C226.654 65.9075 227.339 66.4162 227.93 66.6696C228.589 66.9513 229.306 67.0459 230.026 67.0535L230.028 67.0497ZM230.253 59.081C229.574 59.081 228.895 59.1623 228.302 59.3306C227.821 59.4667 227.033 59.7976 226.859 60.3233C226.666 60.9001 227.343 60.9947 227.741 60.9947H232.043C232.446 60.9947 232.857 61.023 233.253 60.9512C233.407 60.9228 233.559 60.8396 233.632 60.7015C233.709 60.5541 233.683 60.3687 233.602 60.225C233.328 59.7371 232.645 59.4478 232.135 59.3135C231.563 59.1623 230.91 59.0847 230.255 59.0828L230.253 59.081Z" fill="white"/>
<path d="M175.32 53.9473C181.478 53.9473 184.983 56.5001 185.033 63.461V69.7032C185.033 70.1759 185.033 70.6468 185.043 71.1215C185.048 71.4259 185.052 71.8381 184.868 72.0972C184.694 72.3393 184.39 72.4906 184.097 72.4906H181.095C180.347 72.4906 179.028 72.6797 179.028 71.545V71.2557C179.028 70.9683 178.804 70.7849 178.527 70.8057C178.196 70.8302 177.889 71.1536 177.617 71.32C176.859 71.7814 176.037 72.1275 175.181 72.362C173.981 72.691 172.733 72.7969 171.493 72.7969C168.063 72.7969 165.059 71.3068 165.059 67.3564C165.059 62.6138 169.566 61.3676 173.947 61.3676C174.737 61.3676 175.527 61.4149 176.307 61.534C176.647 61.5851 176.983 61.6513 177.317 61.7326C177.652 61.8139 177.988 61.9765 178.324 62.0332C178.474 62.0578 178.639 62.0332 178.757 61.9368C178.864 61.8479 178.919 61.7042 178.917 61.5643C178.906 60.8741 178.078 60.407 177.515 60.2443C176.746 60.0231 175.917 60.0326 175.123 60.0326C173.159 60.0326 171.208 60.2765 169.298 60.7228C168.757 60.8495 168.166 60.7795 167.943 60.1914C167.759 59.7035 167.575 59.2175 167.391 58.7296C167.249 58.3514 167.106 57.9751 166.964 57.5969C166.769 57.0807 166.33 56.364 166.731 55.8534C167.048 55.4487 167.624 55.2842 168.097 55.1575C169.442 54.7963 170.767 54.42 172.148 54.2082C173.198 54.0475 174.262 53.951 175.324 53.951L175.32 53.9473ZM179.031 66.2408C179.043 66.1311 179.024 66.0157 178.977 65.9268C178.919 65.8153 178.816 65.7396 178.707 65.6829C178.444 65.5505 178.136 65.5127 177.848 65.4825C177.733 65.4711 177.617 65.4635 177.502 65.4503C176.906 65.3822 176.307 65.3293 175.707 65.3198C172.455 65.2725 171.063 65.5316 171.063 66.774C171.063 67.7668 171.75 67.9256 173.241 67.9294C174.243 67.9313 175.243 67.8027 176.217 67.5607C176.759 67.4264 177.303 67.2959 177.829 67.1031C178.123 66.9953 178.427 66.9007 178.692 66.7248C178.795 66.6568 178.891 66.5736 178.958 66.4677C179 66.4034 179.024 66.3221 179.031 66.2389V66.2408Z" fill="white"/>
</svg>
