<svg width="210" height="74" viewBox="0 0 210 74" fill="none" xmlns="http://www.w3.org/2000/svg">
<path fill-rule="evenodd" clip-rule="evenodd" d="M113.739 0.30209C112.738 0.224082 111.733 0.202693 110.749 0.207726C107.933 0.221327 105.13 0.22057 102.324 0.219812C100.977 0.219448 99.6294 0.219084 98.2798 0.220308C94.8619 0.222824 91.4464 0.713516 88.6143 2.77568C86.2921 4.46668 84.5457 6.91511 83.7056 9.68185C83.3216 10.9463 83.1284 12.2687 83.1284 13.591C83.1284 19.3372 87.0225 24.8505 92.5945 26.3616C95.2438 27.0798 98.0577 27.0172 100.818 26.9557C101.588 26.9385 102.353 26.9215 103.11 26.9215C103.827 26.9215 104.545 26.9177 105.262 26.914C106.698 26.9064 108.134 26.8989 109.568 26.9215C110.001 26.9278 110.501 26.9743 110.82 27.3065C110.972 27.4648 111.089 27.6482 111.206 27.8315C111.333 28.0314 111.461 28.2313 111.634 28.3986C112.584 29.3196 114.221 29.3485 115.262 28.5672C115.665 28.2652 115.945 27.8614 116.155 27.4059C116.363 26.9542 116.519 26.7026 116.991 26.534L117.153 26.4766C118.407 26.0323 119.65 25.5921 120.781 24.8719C124.565 22.4612 126.948 18.1394 126.948 13.591C126.948 9.48055 124.947 5.4531 121.713 2.96189C119.412 1.18911 116.586 0.521014 113.74 0.300832L113.739 0.30209ZM123.101 15.0842C122.741 17.3162 121.574 19.3859 119.865 20.8467C118.141 22.3213 115.903 22.9013 113.618 23.119C111.544 23.3165 109.098 23.4977 107.03 23.168C106.414 23.0699 105.817 22.7994 105.335 22.4005C104.795 21.9551 104.548 21.1398 104.492 20.4667C104.411 19.5017 104.357 18.5341 104.313 17.5679C104.214 15.4893 104.205 13.4133 104.205 11.3336C104.22 10.2352 104.261 9.13676 104.336 8.04088C104.402 7.0746 104.48 6.09447 105.087 5.29552C106.112 3.94562 107.937 3.94418 109.496 3.94295C109.633 3.94284 109.767 3.94273 109.899 3.94172C110.049 3.94054 110.199 3.93911 110.35 3.93766C112.782 3.91444 115.412 3.88931 117.651 4.90926C121.462 6.64556 123.777 10.907 123.102 15.0842H123.101ZM96.6713 8.5507C95.9782 6.49482 93.4852 6.49608 92.468 7.99206L92.4655 7.99458C92.2524 8.30912 92.1028 8.6891 92.0504 9.13072C92.028 9.31441 92.0292 11.1249 92.2087 11.13C92.1506 11.1283 92.0916 11.1265 92.0318 11.1247C90.3848 11.0743 88.1166 11.0049 87.745 13.1015C87.5293 14.3182 88.3408 15.4619 89.4838 15.7966C90.3464 16.0482 91.2651 15.9815 92.1601 15.9123C91.8622 17.129 91.6441 18.7558 92.6213 19.7221C93.3293 20.4217 94.5696 20.623 95.4684 20.1927C96.1552 19.863 96.5965 19.1434 96.7797 18.3985C96.9481 17.7141 96.9223 17.0151 96.8966 16.3186C96.8941 16.2519 96.8917 16.1853 96.8894 16.1187C97.8854 16.2218 99.1294 16.2646 99.9907 15.6557C101.007 14.9385 101.419 13.2035 100.699 12.1453C100.3 11.559 99.6243 11.2118 98.9337 11.0683C98.2431 10.9236 97.5314 10.9601 96.8271 10.9966C96.9093 10.1775 96.9343 9.33077 96.6713 8.5507Z" fill="white"/>
<path d="M109.263 31.5997C109.676 31.595 110.089 31.4256 110.359 31.109C111.151 30.1851 110.466 28.6904 109.263 28.6904C107.879 28.6904 107.301 30.5711 108.447 31.3608C108.686 31.5256 108.974 31.6033 109.263 31.5997Z" fill="white"/>
<path d="M106.959 33.2745C107.182 33.2719 107.405 33.1803 107.552 33.0091C107.98 32.5095 107.609 31.7012 106.959 31.7012C106.21 31.7012 105.898 32.7182 106.517 33.1453C106.647 33.2344 106.802 33.2764 106.959 33.2745Z" fill="white"/>
<path d="M115.807 9.43597C115.813 9.18307 115.778 8.93018 115.697 8.68861C115.288 7.48201 113.806 6.79882 112.643 7.31215C111.485 7.82298 110.919 9.32902 111.491 10.4752C112.006 11.5069 113.365 12.0115 114.419 11.5636C115.242 11.2138 115.783 10.328 115.806 9.43597H115.807Z" fill="white"/>
<path d="M115.801 17.5127C115.801 17.017 115.656 16.5213 115.359 16.1249C114.446 14.8995 112.479 14.9334 111.65 16.2256C110.934 17.3428 111.293 18.937 112.476 19.5598C113.387 20.0391 114.613 19.7963 115.277 19.0049C115.624 18.5922 115.799 18.0525 115.799 17.5127H115.801Z" fill="white"/>
<path d="M117.534 15.7645C117.942 15.7683 118.35 15.6689 118.703 15.4575C119.592 14.9241 120.03 13.7326 119.702 12.7424C119.224 11.2967 117.363 10.694 116.17 11.6352C115.137 12.4505 114.957 14.0697 115.863 15.0486C116.29 15.5091 116.913 15.757 117.535 15.7633L117.534 15.7645Z" fill="white"/>
<path d="M109.532 15.7824C110.795 15.7824 111.818 14.7495 111.818 13.4749C111.818 12.223 110.837 11.3234 109.644 11.1976C108.357 11.0617 107.246 12.1966 107.246 13.4749C107.246 14.7495 108.269 15.7824 109.532 15.7824Z" fill="white"/>
<path d="M18.5631 51.4015C19.9251 51.2615 21.3255 51.3862 22.6932 51.3843C23.1728 51.3843 23.756 51.3497 24.0725 51.7871C24.2988 52.0998 24.2662 52.4777 24.2566 52.8422C24.2471 53.2374 24.2605 53.6402 24.2605 54.0373V70.8513C24.2605 71.2522 24.318 71.6704 24.2624 72.0656C24.1761 72.689 23.6984 72.9845 23.098 73.0017C21.8319 73.0363 20.5754 72.9749 19.3093 72.9941C18.8777 72.9998 18.3885 73.0478 18.0106 72.7926C17.533 72.4684 17.6039 71.8834 17.6039 71.3769C17.6039 71.0067 17.6039 70.6365 17.6039 70.2681V67.5902C17.6039 67.241 17.6039 66.89 17.6039 66.5409C17.6039 66.0114 17.1742 65.5817 16.6448 65.5817H8.06992C7.54047 65.5817 7.11077 66.0114 7.11077 66.5409V70.7055C7.11077 71.0796 7.10885 71.4517 7.11652 71.8258C7.12228 72.0675 7.10118 72.3188 6.97649 72.526C6.84988 72.7389 6.62544 72.8809 6.38565 72.9461C6.05378 73.0363 5.68354 72.9902 5.34208 72.9902C4.30811 72.9902 3.27414 72.9902 2.24017 72.9902C1.75292 72.9902 1.14673 73.0823 0.75348 72.7236C0.436959 72.4358 0.456142 72.0291 0.456142 71.6397C0.456142 71.1717 0.456142 70.7055 0.456142 70.2374V55.5796C0.456142 54.6876 0.456142 53.7956 0.45806 52.9036C0.45806 52.5353 0.402429 52.1439 0.619198 51.8216C0.893517 51.415 1.4153 51.3612 1.86418 51.3593C3.03244 51.3536 4.20069 51.3651 5.36894 51.3651C5.78905 51.3651 6.26096 51.3708 6.64078 51.5723C7.15681 51.8447 7.11652 52.4355 7.11077 52.9381C7.10693 53.3294 7.11077 53.7227 7.11077 54.114V57.8394C7.11077 58.3688 7.54047 58.7985 8.06992 58.7985H16.6448C17.1742 58.7985 17.6039 58.3688 17.6039 57.8394V54.2445C17.6039 53.8531 17.6039 53.4618 17.6039 53.0705C17.6039 52.7348 17.5637 52.3684 17.6749 52.0403C17.8092 51.6432 18.1583 51.4418 18.5612 51.4015H18.5631Z" fill="white"/>
<path d="M36.8157 64.5733C36.8157 64.5733 36.8157 64.5599 36.8157 64.5542C36.7524 63.8195 36.7965 63.0406 36.8196 62.304C36.8292 62.0009 36.9251 61.694 37.138 61.4734C37.3797 61.2221 37.7557 61.2067 38.0857 61.2105C38.6861 61.2182 39.2827 61.2182 39.8831 61.2182H44.0861C45.1316 61.2182 46.1771 61.1971 47.2207 61.2048C47.5449 61.2067 47.9036 61.2854 48.1491 61.5098C48.4752 61.8052 48.4292 62.187 48.4311 62.5898C48.4388 64.5254 48.4407 66.4629 48.4388 68.3985C48.4388 69.3672 48.4369 70.334 48.433 71.3028C48.4311 72.003 48.4445 72.9679 47.4758 72.9679H45.4174C44.9455 72.9679 44.5427 72.6245 44.4698 72.1564C44.4122 71.79 44.3528 71.4236 44.3029 71.0553C44.2837 70.9172 44.2473 70.7772 44.1571 70.6717C43.6967 70.1365 43.0963 71.0246 42.774 71.3066C42.0566 71.9358 41.2048 72.3905 40.3051 72.7012C39.0793 73.1252 37.7749 73.2748 36.4819 73.2748C29.8791 73.2748 25.9888 69.6665 25.9888 62.1428C25.9888 54.6192 29.8791 51.0723 37.2512 51.0723C38.7551 51.0723 40.2725 51.1989 41.7343 51.571C42.9275 51.8741 44.0881 52.3499 45.0932 53.0692C46.0044 53.7215 46.7622 54.5713 47.3012 55.5534C47.7501 56.3726 48.059 57.2665 48.2297 58.1854C48.364 58.9124 48.4426 59.9003 47.447 59.9675C46.6068 60.025 45.7589 59.9847 44.9168 59.9847C44.2684 59.9847 43.62 59.9943 42.9697 59.9847C42.6205 59.9809 42.2484 60.0193 41.9146 59.8946C41.5616 59.7641 41.4082 59.415 41.1895 59.1388C41.0322 58.9393 40.8269 58.7743 40.6159 58.6343C40.0769 58.2794 39.4438 58.0875 38.8127 57.9782C38.2967 57.888 37.773 57.8554 37.2493 57.8554C33.3071 57.8554 32.6415 59.8601 32.6415 62.4498C32.6415 65.0395 33.3321 67.4144 37.2493 67.4144C38.0089 67.4144 38.7782 67.3856 39.5244 67.2379C40.1498 67.1132 40.825 66.8888 41.247 66.3804C41.5079 66.0639 41.3986 65.5344 40.9228 65.5344C39.9752 65.5344 39.0275 65.5287 38.0818 65.5402C37.443 65.5498 36.8886 65.285 36.8157 64.5733Z" fill="white"/>
<path d="M199.13 67.4129C199.599 67.4186 200.068 67.388 200.523 67.3498C201.138 67.2982 201.745 67.149 202.298 66.8661C202.79 66.6137 203.242 66.0458 203.814 66.0114C205.269 65.9272 206.754 66.0114 208.214 66.0114C208.543 66.0114 208.853 66.1892 209.024 66.4741C209.226 66.8125 209.133 67.2733 209.018 67.6309C208.624 68.8374 207.968 69.9941 207.038 70.8622C206.158 71.6863 205.072 72.2446 203.933 72.6041C202.506 73.0534 201.001 73.2083 199.512 73.2331C199.383 73.235 199.255 73.2369 199.126 73.2369C193.193 73.2369 189.077 70.5314 189.077 63.7093C189.077 56.8872 193.193 54.1816 199.38 54.1816C201.202 54.1816 203.079 54.3977 204.758 55.1587C206.281 55.8489 207.525 57.0019 208.316 58.4894C208.721 59.2504 209.008 60.0707 209.209 60.9101C209.389 61.6634 209.512 62.4435 209.593 63.2141C209.648 63.7361 209.69 64.4014 209.217 64.7475C208.969 64.9292 208.645 64.9464 208.35 64.9464C207.705 64.9464 207.061 64.9387 206.416 64.9387H201.626C200.159 64.9387 198.693 64.9387 197.226 64.9387C196.802 64.9387 196.312 64.8775 195.895 64.9425C195.769 64.9636 195.642 65.019 195.562 65.1223C195.458 65.2561 195.455 65.4492 195.509 65.6098C195.727 66.258 196.418 66.7724 197.014 67.0286C197.678 67.3135 198.401 67.4091 199.128 67.4167L199.13 67.4129ZM199.357 59.3556C198.672 59.3556 197.987 59.4378 197.389 59.608C196.904 59.7456 196.109 60.0803 195.933 60.6118C195.738 61.195 196.422 61.2906 196.823 61.2906H201.162C201.569 61.2906 201.984 61.3193 202.383 61.2466C202.538 61.2179 202.691 61.1338 202.765 60.9942C202.843 60.8451 202.816 60.6577 202.735 60.5124C202.459 60.0191 201.77 59.7265 201.255 59.5908C200.678 59.4378 200.019 59.3594 199.359 59.3575L199.357 59.3556Z" fill="white"/>
<path d="M63.1339 72.9663C62.9579 72.974 62.78 72.9587 62.6078 72.9529C62.2123 72.9396 61.8111 72.9625 61.4155 72.9625C60.5223 72.9625 59.6271 72.9644 58.7339 72.9778C58.3989 72.9835 58.0394 72.9223 57.8028 72.6833C57.5681 72.4462 57.5076 72.083 57.5133 71.7464C57.5189 71.322 57.5284 70.9013 57.5284 70.4769V53.4445C57.5284 52.8824 57.3827 52.0659 57.7952 51.6453C58.0337 51.4024 58.3989 51.3393 58.7377 51.3451C60.2006 51.368 61.6672 51.3604 63.1339 51.3604C63.6562 51.3604 64.0801 51.7887 64.0801 52.3164V68.9147C64.0801 69.8746 64.1161 70.8421 64.0953 71.8C64.0877 72.19 63.9685 72.6164 63.6411 72.8248C63.4859 72.9243 63.3118 72.9587 63.1339 72.9663Z" fill="white"/>
<path d="M86.7085 62.131C86.7085 63.4235 86.7085 64.716 86.7085 66.0086C86.7085 67.2418 86.7085 68.4751 86.7085 69.7083C86.7085 70.3259 86.7085 70.9416 86.7085 71.5592C86.7085 72.0487 86.7217 72.5458 86.2429 72.8249C85.9685 72.9836 85.6808 72.9664 85.3799 72.9626C85.0071 72.9569 84.6305 72.9664 84.2577 72.9664C83.5291 72.9664 82.7986 72.9683 82.07 72.9703C81.4209 72.9722 80.662 72.8364 80.662 72.0085V65.1558C80.662 61.9761 79.729 60.6185 77.0076 60.6185C76.0784 60.6185 75.1568 60.8709 74.326 61.282C73.9002 61.4923 73.4971 61.7447 73.1224 62.0354C72.7912 62.2916 72.3427 62.609 72.1989 63.022C72.0929 63.3279 72.1497 63.6874 72.1459 64.0047C72.1402 64.3699 72.1459 64.7351 72.1459 65.1003C72.1459 65.8613 72.1459 66.6223 72.1459 67.3833C72.1459 68.8422 72.1648 70.3049 72.1629 71.7619C72.1629 72.1404 72.0683 72.5534 71.7693 72.781C71.4816 72.9989 71.1202 72.9645 70.7814 72.9664C70.3745 72.9703 69.9676 72.9779 69.5608 72.9836C68.747 72.9951 67.9332 73.0028 67.1214 72.9588C66.9189 72.9473 66.7088 72.9263 66.5328 72.823C65.9897 72.5037 66.0994 71.7504 66.0994 71.2035V60.4694C66.0994 58.869 66.0824 57.2668 66.0786 55.6702C66.0786 55.2591 66.1941 54.8021 66.5423 54.5899C66.7769 54.4446 67.0684 54.4427 67.3428 54.4427C68.6297 54.4465 69.9147 54.4484 71.2015 54.4484C71.5554 54.4484 71.8885 54.6549 72.0475 54.9742C72.2386 55.3566 72.0134 55.8308 72.2235 56.1884C72.32 56.3547 72.5301 56.4446 72.7155 56.4006C72.8366 56.3719 72.9407 56.2954 73.041 56.2209C74.9127 54.8538 77.1515 54.1387 79.4584 54.1387C82.8611 54.1387 86.716 55.435 86.716 62.1329L86.7085 62.131Z" fill="white"/>
<path d="M93.423 66.5783C93.5668 66.5859 93.7068 66.607 93.8355 66.6663C94.2254 66.8517 94.3143 67.3144 94.6758 67.5324C94.9161 67.6777 95.1962 67.7542 95.4687 67.8135C96.4963 68.0353 97.5826 68.0238 98.6273 68.0238C102.003 68.0238 102.584 67.8383 102.584 67.0372C102.584 66.1118 102.005 66.2035 98.3756 66.0181C91.4207 65.6777 88.3701 65.0296 88.3701 60.3088C88.3701 55.0315 93.0312 54.1367 98.6273 54.1367C100.79 54.1367 103.16 54.1711 105.166 55.0985C106.513 55.7218 107.478 56.8155 107.876 58.2686C108.042 58.8786 108.3 59.9933 107.528 60.2915C107.295 60.3814 107.039 60.3814 106.791 60.3795C105.885 60.3757 104.978 60.3718 104.074 60.3699C103.623 60.3699 103.165 60.3891 102.715 60.3642C102.327 60.3432 102.119 60.0277 101.841 59.7887C101.557 59.5459 101.173 59.4579 100.8 59.4311C99.9955 59.3757 99.1837 59.3833 98.3794 59.3833C95.3041 59.3833 94.4222 59.3833 94.4222 60.0927C94.4222 60.8652 95.0524 60.8326 98.8828 61.0793C104.831 61.4502 108.635 61.8824 108.635 66.7274C108.635 72.3756 104.602 73.2704 98.8828 73.2704C96.6345 73.2704 94.2765 73.1939 92.138 72.4234C90.166 71.7121 88.6729 70.2762 88.2641 68.1462C88.1695 67.6509 88.1032 67.1653 88.5177 66.7963C88.811 66.5439 89.2179 66.5668 89.5831 66.5687C90.7943 66.5707 92.0055 66.5726 93.2167 66.5726C93.2867 66.5726 93.3567 66.5726 93.4268 66.5764L93.423 66.5783Z" fill="white"/>
<path d="M132.506 49.2285C132.572 49.7084 132.499 50.2725 132.499 50.6492C132.499 51.1042 132.508 51.5555 132.512 52.0105C132.514 52.3547 132.446 52.7275 132.196 52.9608C131.94 53.1998 131.594 53.217 131.267 53.2132C130.86 53.2094 130.451 53.2151 130.044 53.2189C129.192 53.2266 128.339 53.2323 127.487 53.217C127.143 53.2113 126.793 53.0793 126.603 52.7734C126.456 52.5363 126.433 52.2438 126.441 51.9646C126.463 51.261 126.456 50.5593 126.452 49.8557C126.45 49.3279 126.39 48.6453 126.959 48.3738C127.156 48.2802 127.381 48.2782 127.599 48.2782C128.82 48.2763 130.042 48.2763 131.263 48.2744C131.556 48.2744 131.87 48.2802 132.112 48.4484C132.353 48.6148 132.463 48.9054 132.506 49.2304V49.2285ZM132.506 55.4025C132.529 55.6816 132.495 55.9837 132.499 56.2342C132.529 58.6491 132.499 61.0659 132.499 63.4808C132.499 66.2322 132.499 68.9817 132.5 71.7331C132.5 72.3431 132.26 72.9645 131.552 72.9645H128.837C128.36 72.9645 127.862 73.0123 127.389 72.9606C127.058 72.9262 126.711 72.779 126.558 72.4807C126.458 72.2857 126.454 72.0562 126.454 71.8345C126.454 71.0792 126.452 70.3239 126.452 69.5687V58.4866C126.452 57.5306 126.452 56.5765 126.452 55.6204C126.452 55.3986 126.452 55.1711 126.547 54.9703C126.831 54.3547 127.55 54.4464 128.1 54.4464H130.282C130.706 54.4464 131.13 54.4464 131.554 54.4464C131.891 54.4464 132.196 54.63 132.37 54.9187C132.455 55.0583 132.491 55.2266 132.506 55.4025Z" fill="white"/>
<path d="M171.44 55.4022V72.0082C171.44 72.3122 171.293 72.6028 171.05 72.7826C170.742 73.0082 170.377 72.9604 170.017 72.9623C169.086 72.9661 168.157 72.97 167.226 72.9738C166.501 72.9776 165.392 73.0025 165.392 72.0101V71.4786C165.392 71.0866 164.953 70.8629 164.639 71.0942C162.945 72.3466 160.837 73.274 158.083 73.274C154.68 73.274 150.825 71.9776 150.825 65.2798V58.4366C150.825 57.5685 150.825 56.7005 150.825 55.8324C150.825 55.4825 150.791 55.1364 151.007 54.8382C151.185 54.5934 151.471 54.4462 151.772 54.4462C153.093 54.4462 154.415 54.4462 155.736 54.4462C155.952 54.4462 156.177 54.4481 156.372 54.5456C156.628 54.6718 156.787 54.9452 156.847 55.2263C156.949 55.6909 156.874 56.2244 156.874 56.7024V62.2549C156.874 65.4346 157.807 66.7922 160.528 66.7922C162.08 66.7922 163.594 66.1019 164.764 65.0981C165.257 64.6756 165.437 64.1976 165.397 63.5494C165.377 63.1918 165.392 62.8305 165.392 62.471V60.1173C165.392 58.6202 165.369 57.1192 165.379 55.624C165.38 55.2779 165.458 54.907 165.715 54.6795C165.952 54.4691 166.291 54.4233 166.607 54.4328C167.899 54.4691 169.199 54.4462 170.494 54.4462C171.016 54.4462 171.44 54.8745 171.44 55.4022Z" fill="white"/>
<path d="M123.592 60.4389C123.417 60.4542 123.238 60.4484 123.065 60.4484C122.441 60.4484 121.816 60.4484 121.192 60.4484C120.715 60.4484 120.238 60.4484 119.759 60.4484C119.426 60.4484 118.804 60.3242 118.525 60.5555C118.387 60.6702 118.344 60.8653 118.344 61.0469C118.342 62.1176 118.351 63.1903 118.351 64.261C118.351 66.0124 118.908 66.9034 120.673 66.9034C121.323 66.9034 121.972 66.8824 122.619 66.8384C123.171 66.8021 123.851 66.5918 124.282 67.0583C124.61 67.412 124.593 67.9818 124.574 68.4312C124.526 69.5172 124.574 70.6013 124.545 71.6854C124.54 71.9034 124.502 72.1271 124.381 72.3068C124.106 72.7141 123.54 72.7734 123.1 72.8288C121.336 73.0564 119.496 73.1577 117.723 72.9722C116.364 72.8288 114.941 72.4636 113.887 71.5382C113.484 71.1845 113.149 70.7562 112.905 70.2782C112.1 68.7065 112.29 66.8556 112.29 65.1482C112.29 64.0048 112.29 62.8595 112.29 61.7161C112.29 61.4752 112.29 61.2343 112.288 60.9934C112.288 60.8308 112.271 60.6893 112.136 60.5823C111.911 60.4064 111.561 60.4503 111.294 60.4503H110.182C109.659 60.4503 109.235 60.022 109.235 59.4943C109.235 58.372 109.245 57.2515 109.235 56.1292C109.231 55.5632 109.114 54.8443 109.644 54.4733C110 54.2248 110.482 54.3032 110.889 54.3032C111.2 54.3032 111.51 54.3032 111.819 54.3032C112.171 54.3032 112.286 54.0011 112.292 53.7009C112.299 53.3223 112.294 52.9437 112.282 52.5651C112.269 52.1579 112.214 51.7162 112.488 51.3778C112.74 51.0661 113.175 50.9495 113.544 50.8462C114.163 50.6741 114.775 50.4734 115.39 50.2879C115.728 50.1847 116.063 50.0738 116.402 49.9705C116.712 49.8749 117.066 49.7277 117.392 49.7181C117.729 49.7086 118.045 49.8998 118.215 50.1885C118.472 50.6206 118.355 51.3051 118.355 51.8022C118.355 52.2994 118.342 52.7659 118.34 53.2458C118.34 53.481 118.293 53.8137 118.389 54.0317C118.533 54.3605 119.019 54.3013 119.307 54.307C120.064 54.3204 120.821 54.307 121.578 54.307C122.117 54.307 122.655 54.307 123.194 54.307C123.66 54.3089 124.112 54.307 124.39 54.7506C124.657 55.177 124.536 55.7869 124.536 56.2649C124.536 56.9093 124.536 57.5536 124.536 58.198C124.536 58.4484 124.532 58.6989 124.532 58.9494C124.532 59.3242 124.589 59.7142 124.367 60.0431C124.176 60.328 123.892 60.4159 123.59 60.4408L123.592 60.4389Z" fill="white"/>
<path d="M148.162 60.4389C147.988 60.4542 147.808 60.4484 147.636 60.4484C147.011 60.4484 146.387 60.4484 145.762 60.4484C145.285 60.4484 144.808 60.4484 144.329 60.4484C143.996 60.4484 143.374 60.3242 143.095 60.5555C142.957 60.6702 142.914 60.8653 142.914 61.0469C142.912 62.1176 142.921 63.1903 142.921 64.261C142.921 66.0124 143.478 66.9034 145.243 66.9034C145.893 66.9034 146.542 66.8824 147.189 66.8384C147.742 66.8021 148.421 66.5918 148.852 67.0583C149.18 67.412 149.163 67.9818 149.144 68.4312C149.097 69.5172 149.144 70.6013 149.115 71.6854C149.11 71.9034 149.072 72.1271 148.951 72.3068C148.676 72.7141 148.111 72.7734 147.67 72.8288C145.906 73.0564 144.066 73.1577 142.293 72.9722C140.934 72.8288 139.511 72.4636 138.457 71.5382C138.054 71.1845 137.719 70.7562 137.475 70.2782C136.671 68.7065 136.86 66.8556 136.86 65.1482C136.86 64.0048 136.86 62.8595 136.86 61.7161C136.86 61.4752 136.86 61.2343 136.858 60.9934C136.858 60.8308 136.841 60.6893 136.707 60.5823C136.481 60.4064 136.131 60.4503 135.864 60.4503H134.752C134.229 60.4503 133.805 60.022 133.805 59.4943C133.805 58.372 133.815 57.2515 133.805 56.1292C133.802 55.5632 133.684 54.8443 134.214 54.4733C134.57 54.2248 135.052 54.3032 135.459 54.3032C135.77 54.3032 136.08 54.3032 136.389 54.3032C136.741 54.3032 136.856 54.0011 136.862 53.7009C136.869 53.3223 136.864 52.9437 136.852 52.5651C136.839 52.1579 136.784 51.7162 137.059 51.3778C137.31 51.0661 137.745 50.9495 138.115 50.8462C138.733 50.6741 139.345 50.4734 139.96 50.2879C140.298 50.1847 140.633 50.0738 140.972 49.9705C141.283 49.8749 141.636 49.7277 141.962 49.7181C142.299 49.7086 142.615 49.8998 142.785 50.1885C143.043 50.6206 142.925 51.3051 142.925 51.8022C142.925 52.2994 142.912 52.7659 142.91 53.2458C142.91 53.481 142.863 53.8137 142.959 54.0317C143.103 54.3605 143.589 54.3013 143.877 54.307C144.634 54.3204 145.391 54.307 146.148 54.307C146.687 54.307 147.225 54.307 147.764 54.307C148.23 54.3089 148.682 54.307 148.96 54.7506C149.227 55.177 149.106 55.7869 149.106 56.2649C149.106 56.9093 149.106 57.5536 149.106 58.198C149.106 58.4484 149.102 58.6989 149.102 58.9494C149.102 59.3242 149.159 59.7142 148.938 60.0431C148.746 60.328 148.463 60.4159 148.16 60.4408L148.162 60.4389Z" fill="white"/>
<path d="M187.115 60.4389C186.941 60.4542 186.761 60.4484 186.589 60.4484C185.964 60.4484 185.34 60.4484 184.715 60.4484C184.238 60.4484 183.761 60.4484 183.283 60.4484C182.949 60.4484 182.327 60.3242 182.049 60.5555C181.91 60.6702 181.867 60.8653 181.867 61.0469C181.865 62.1176 181.875 63.1903 181.875 64.261C181.875 66.0124 182.431 66.9034 184.197 66.9034C184.846 66.9034 185.495 66.8824 186.142 66.8384C186.695 66.8021 187.374 66.5918 187.806 67.0583C188.133 67.412 188.116 67.9818 188.097 68.4312C188.05 69.5172 188.097 70.6013 188.069 71.6854C188.063 71.9034 188.025 72.1271 187.904 72.3068C187.63 72.7141 187.064 72.7734 186.623 72.8288C184.859 73.0564 183.019 73.1577 181.246 72.9722C179.887 72.8288 178.464 72.4636 177.41 71.5382C177.007 71.1845 176.672 70.7562 176.428 70.2782C175.624 68.7065 175.813 66.8556 175.813 65.1482C175.813 64.0048 175.813 62.8595 175.813 61.7161C175.813 61.4752 175.813 61.2343 175.811 60.9934C175.811 60.8308 175.794 60.6893 175.66 60.5823C175.434 60.4064 175.084 60.4503 174.817 60.4503H173.705C173.182 60.4503 172.758 60.022 172.758 59.4943C172.758 58.372 172.768 57.2515 172.758 56.1292C172.755 55.5632 172.637 54.8443 173.167 54.4733C173.523 54.2248 174.006 54.3032 174.412 54.3032C174.723 54.3032 175.033 54.3032 175.342 54.3032C175.694 54.3032 175.809 54.0011 175.815 53.7009C175.822 53.3223 175.817 52.9437 175.805 52.5651C175.792 52.1579 175.737 51.7162 176.012 51.3778C176.263 51.0661 176.699 50.9495 177.068 50.8462C177.686 50.6741 178.298 50.4734 178.913 50.2879C179.252 50.1847 179.587 50.0738 179.925 49.9705C180.236 49.8749 180.59 49.7277 180.915 49.7181C181.252 49.7086 181.568 49.8998 181.738 50.1885C181.996 50.6206 181.878 51.3051 181.878 51.8022C181.878 52.2994 181.865 52.7659 181.863 53.2458C181.863 53.481 181.816 53.8137 181.912 54.0317C182.056 54.3605 182.543 54.3013 182.83 54.307C183.587 54.3204 184.344 54.307 185.101 54.307C185.641 54.307 186.178 54.307 186.717 54.307C187.183 54.3089 187.635 54.307 187.913 54.7506C188.18 55.177 188.059 55.7869 188.059 56.2649C188.059 56.9093 188.059 57.5536 188.059 58.198C188.059 58.4484 188.055 58.6989 188.055 58.9494C188.055 59.3242 188.112 59.7142 187.891 60.0431C187.7 60.328 187.416 60.4159 187.113 60.4408L187.115 60.4389Z" fill="white"/>
</svg>
