<svg width="257" height="74" viewBox="0 0 257 74" fill="none" xmlns="http://www.w3.org/2000/svg">
<path fill-rule="evenodd" clip-rule="evenodd" d="M137.233 0.298184C136.232 0.220176 135.228 0.198787 134.243 0.20382C131.427 0.217421 128.624 0.216664 125.818 0.215905C124.471 0.215542 123.124 0.215177 121.774 0.216402C118.356 0.218918 114.941 0.70961 112.108 2.77177C109.786 4.46277 108.04 6.9112 107.2 9.67795C106.816 10.9424 106.623 12.2648 106.623 13.5871C106.623 19.3333 110.517 24.8466 116.089 26.3577C118.738 27.0759 121.552 27.0133 124.312 26.9518C125.082 26.9346 125.848 26.9176 126.604 26.9176C127.321 26.9176 128.039 26.9138 128.756 26.91C130.192 26.9025 131.628 26.8949 133.062 26.9176C133.495 26.9239 133.995 26.9704 134.314 27.3026C134.466 27.4609 134.583 27.6443 134.7 27.8276C134.827 28.0275 134.955 28.2274 135.128 28.3947C136.078 29.3157 137.716 29.3446 138.756 28.5633C139.159 28.2613 139.44 27.8575 139.649 27.402C139.857 26.9503 140.013 26.6987 140.485 26.5301L140.647 26.4727C141.901 26.0284 143.144 25.5882 144.275 24.868C148.059 22.4573 150.443 18.1355 150.443 13.5871C150.443 9.47664 148.441 5.44919 145.207 2.95799C142.906 1.1852 140.08 0.517108 137.234 0.296926L137.233 0.298184ZM146.595 15.0803C146.235 17.3123 145.068 19.382 143.359 20.8428C141.635 22.3174 139.397 22.8974 137.112 23.1151C135.038 23.3126 132.592 23.4938 130.524 23.1641C129.908 23.066 129.311 22.7955 128.829 22.3966C128.289 21.9512 128.042 21.1359 127.986 20.4628C127.905 19.4978 127.852 18.5302 127.807 17.5639C127.708 15.4854 127.699 13.4094 127.699 11.3296C127.714 10.2313 127.756 9.13286 127.83 8.03698C127.896 7.07069 127.974 6.09057 128.581 5.29162C129.606 3.94172 131.431 3.94027 132.99 3.93904C133.127 3.93893 133.262 3.93883 133.394 3.93781C133.543 3.93664 133.693 3.9352 133.844 3.93376C136.276 3.91053 138.906 3.8854 141.146 4.90536C144.956 6.64165 147.271 10.9031 146.597 15.0803H146.595ZM120.165 8.54679C119.472 6.49092 116.979 6.49217 115.962 7.98816L115.96 7.99067C115.747 8.30522 115.597 8.68519 115.545 9.12681C115.522 9.31051 115.523 11.121 115.703 11.1261C115.645 11.1244 115.586 11.1226 115.526 11.1208C113.879 11.0704 111.611 11.0009 111.239 13.0976C111.023 14.3143 111.835 15.458 112.978 15.7927C113.841 16.0443 114.759 15.9776 115.654 15.9084C115.356 17.1251 115.138 18.7519 116.115 19.7182C116.823 20.4178 118.064 20.6191 118.963 20.1888C119.649 19.8591 120.091 19.1394 120.274 18.3946C120.442 17.7102 120.416 17.0112 120.391 16.3147C120.388 16.248 120.386 16.1814 120.384 16.1148C121.38 16.2179 122.624 16.2607 123.485 15.6518C124.501 14.9346 124.913 13.1996 124.193 12.1414C123.794 11.5551 123.118 11.2079 122.428 11.0644C121.737 10.9197 121.025 10.9562 120.321 10.9927C120.403 10.1736 120.428 9.32686 120.165 8.54679Z" fill="white"/>
<path d="M132.758 31.5958C133.17 31.5911 133.583 31.4217 133.854 31.1051C134.645 30.1812 133.96 28.6865 132.758 28.6865C131.374 28.6865 130.795 30.5672 131.941 31.3569C132.18 31.5217 132.468 31.5994 132.758 31.5958Z" fill="white"/>
<path d="M130.453 33.2706C130.676 33.268 130.899 33.1764 131.046 33.0052C131.474 32.5056 131.103 31.6973 130.453 31.6973C129.704 31.6973 129.392 32.7143 130.012 33.1414C130.141 33.2305 130.297 33.2725 130.453 33.2706Z" fill="white"/>
<path d="M139.301 9.43206C139.307 9.17917 139.272 8.92627 139.191 8.6847C138.782 7.4781 137.3 6.79491 136.137 7.30825C134.979 7.81907 134.413 9.32512 134.986 10.4713C135.5 11.503 136.859 12.0076 137.914 11.5597C138.736 11.2099 139.277 10.3241 139.3 9.43206H139.301Z" fill="white"/>
<path d="M139.295 17.5088C139.295 17.0131 139.15 16.5173 138.853 16.121C137.94 14.8955 135.973 14.9295 135.144 16.2217C134.428 17.3389 134.787 18.9331 135.97 19.5559C136.881 20.0352 138.107 19.7924 138.771 19.001C139.118 18.5883 139.293 18.0486 139.293 17.5088H139.295Z" fill="white"/>
<path d="M141.028 15.7606C141.437 15.7644 141.844 15.665 142.197 15.4536C143.086 14.9201 143.524 13.7286 143.197 12.7385C142.718 11.2928 140.857 10.6901 139.664 11.6313C138.631 12.4466 138.451 14.0658 139.357 15.0447C139.784 15.5052 140.407 15.7531 141.029 15.7594L141.028 15.7606Z" fill="white"/>
<path d="M133.026 15.7785C134.289 15.7785 135.312 14.7455 135.312 13.471C135.312 12.2191 134.331 11.3195 133.139 11.1937C131.851 11.0578 130.74 12.1927 130.74 13.471C130.74 14.7455 131.764 15.7785 133.026 15.7785Z" fill="white"/>
<path d="M18.4601 51.3684C19.8239 51.2282 21.226 51.3531 22.5956 51.3511C23.0758 51.3511 23.6597 51.3166 23.9766 51.7545C24.2033 52.0676 24.1706 52.446 24.161 52.8109C24.1514 53.2066 24.1649 53.61 24.1649 54.0076V70.8434C24.1649 71.2448 24.2225 71.6636 24.1668 72.0592C24.0803 72.6835 23.6021 72.9793 23.0009 72.9966C21.7331 73.0312 20.475 72.9697 19.2073 72.9889C18.7751 72.9947 18.2853 73.0427 17.9069 72.7872C17.4286 72.4626 17.4997 71.8768 17.4997 71.3697C17.4997 70.999 17.4997 70.6283 17.4997 70.2595V67.578C17.4997 67.2284 17.4997 66.8769 17.4997 66.5273C17.4997 65.9972 17.0694 65.567 16.5393 65.567H7.95333C7.42319 65.567 6.99293 65.9972 6.99293 66.5273V70.6974C6.99293 71.072 6.99101 71.4446 6.99869 71.8191C7.00445 72.0612 6.98332 72.3128 6.85847 72.5202C6.7317 72.7334 6.50697 72.8756 6.26687 72.9409C5.93457 73.0312 5.56385 72.9851 5.22195 72.9851C4.18664 72.9851 3.15133 72.9851 2.11602 72.9851C1.62814 72.9851 1.02117 73.0773 0.627406 72.7181C0.310475 72.43 0.329683 72.0227 0.329683 71.6328C0.329683 71.1642 0.329683 70.6974 0.329683 70.2287V55.5519C0.329683 54.6587 0.329683 53.7656 0.331604 52.8724C0.331604 52.5036 0.275901 52.1118 0.492951 51.7891C0.767625 51.3819 1.29008 51.3281 1.73955 51.3262C2.90931 51.3204 4.07908 51.3319 5.24884 51.3319C5.6695 51.3319 6.14201 51.3377 6.52233 51.5394C7.03903 51.8121 6.99869 52.4037 6.99293 52.907C6.98909 53.2988 6.99293 53.6926 6.99293 54.0844V57.8146C6.99293 58.3448 7.42319 58.775 7.95333 58.775H16.5393C17.0694 58.775 17.4997 58.3448 17.4997 57.8146V54.215C17.4997 53.8232 17.4997 53.4314 17.4997 53.0395C17.4997 52.7034 17.4593 52.3365 17.5708 52.008C17.7052 51.6104 18.0548 51.4088 18.4582 51.3684H18.4601Z" fill="white"/>
<path d="M36.7358 64.5576C36.7358 64.5576 36.7358 64.5442 36.7358 64.5384C36.6724 63.8028 36.7165 63.0229 36.7396 62.2853C36.7492 61.9818 36.8452 61.6745 37.0585 61.4536C37.3005 61.202 37.6769 61.1866 38.0073 61.1905C38.6085 61.1982 39.2059 61.1982 39.8071 61.1982H44.0156C45.0624 61.1982 46.1092 61.177 47.1542 61.1847C47.4788 61.1866 47.838 61.2654 48.0838 61.4901C48.4104 61.7859 48.3643 62.1682 48.3662 62.5715C48.3739 64.5096 48.3758 66.4496 48.3739 68.3877C48.3739 69.3577 48.3719 70.3258 48.3681 71.2958C48.3662 71.9969 48.3796 72.963 47.4096 72.963H45.3486C44.8761 72.963 44.4727 72.6192 44.3997 72.1505C44.3421 71.7837 44.2826 71.4168 44.2326 71.048C44.2134 70.9097 44.1769 70.7695 44.0866 70.6638C43.6257 70.1279 43.0244 71.0173 42.7018 71.2996C41.9834 71.9297 41.1305 72.3849 40.2297 72.6961C39.0023 73.1205 37.6962 73.2704 36.4015 73.2704C29.7902 73.2704 25.8948 69.6574 25.8948 62.124C25.8948 54.5906 29.7902 51.0391 37.1718 51.0391C38.6777 51.0391 40.197 51.1658 41.6607 51.5385C42.8554 51.842 44.0175 52.3183 45.024 53.0386C45.9364 53.6917 46.6951 54.5426 47.2348 55.526C47.6843 56.3462 47.9936 57.2413 48.1645 58.1614C48.299 58.8894 48.3777 59.8786 47.3808 59.9458C46.5395 60.0034 45.6905 59.9631 44.8473 59.9631C44.1981 59.9631 43.5488 59.9727 42.8977 59.9631C42.5481 59.9592 42.1755 59.9977 41.8412 59.8728C41.4878 59.7422 41.3341 59.3926 41.1152 59.116C40.9577 58.9163 40.7521 58.7511 40.5409 58.6108C40.0011 58.2555 39.3672 58.0634 38.7353 57.9539C38.2186 57.8637 37.6942 57.831 37.1699 57.831C33.2226 57.831 32.5561 59.8382 32.5561 62.4313C32.5561 65.0244 33.2476 67.4023 37.1699 67.4023C37.9305 67.4023 38.7007 67.3735 39.4479 67.2256C40.0741 67.1008 40.7502 66.876 41.1728 66.367C41.434 66.0501 41.3245 65.52 40.8482 65.52C39.8993 65.52 38.9504 65.5142 38.0035 65.5257C37.3639 65.5353 36.8087 65.2702 36.7358 64.5576Z" fill="white"/>
<path d="M177.366 54.1904C183.633 54.1904 187.199 56.7681 187.251 63.7965V70.0994C187.251 70.5767 187.251 71.0521 187.26 71.5314C187.266 71.8388 187.27 72.2551 187.083 72.5166C186.905 72.761 186.596 72.9138 186.298 72.9138H183.243C182.481 72.9138 181.139 73.1047 181.139 71.9591V71.667C181.139 71.3767 180.912 71.1915 180.629 71.2125C180.293 71.2374 179.98 71.5639 179.703 71.7319C178.932 72.1978 178.095 72.5472 177.225 72.7839C176.003 73.1162 174.733 73.2231 173.471 73.2231C169.98 73.2231 166.924 71.7185 166.924 67.7298C166.924 62.9411 171.51 61.6828 175.968 61.6828C176.772 61.6828 177.576 61.7306 178.37 61.8509C178.716 61.9024 179.058 61.9692 179.398 62.0513C179.739 62.1334 180.081 62.2976 180.423 62.3549C180.576 62.3797 180.744 62.3549 180.864 62.2575C180.973 62.1678 181.028 62.0227 181.026 61.8814C181.015 61.1845 180.173 60.7129 179.6 60.5487C178.817 60.3253 177.973 60.3348 177.165 60.3348C175.166 60.3348 173.181 60.5811 171.237 61.0317C170.687 61.1597 170.086 61.089 169.858 60.4952C169.671 60.0026 169.484 59.5119 169.297 59.0192C169.152 58.6374 169.007 58.2574 168.862 57.8755C168.663 57.3543 168.216 56.6306 168.625 56.1151C168.948 55.7065 169.534 55.5404 170.015 55.4124C171.384 55.0477 172.732 54.6678 174.137 54.4539C175.206 54.2916 176.289 54.1942 177.37 54.1942L177.366 54.1904ZM181.143 66.6033C181.154 66.4925 181.135 66.3761 181.087 66.2863C181.028 66.1737 180.923 66.0973 180.812 66.04C180.545 65.9064 180.232 65.8682 179.938 65.8376C179.821 65.8262 179.703 65.8185 179.587 65.8052C178.979 65.7364 178.37 65.683 177.759 65.6734C174.45 65.6257 173.034 65.8873 173.034 67.1417C173.034 68.1442 173.732 68.3045 175.25 68.3084C176.27 68.3103 177.288 68.1804 178.279 67.936C178.83 67.8005 179.384 67.6687 179.919 67.474C180.219 67.3651 180.528 67.2697 180.797 67.0921C180.902 67.0234 181 66.9393 181.068 66.8324C181.11 66.7675 181.135 66.6854 181.143 66.6014V66.6033Z" fill="white"/>
<path d="M211.802 49.2389C211.869 49.7182 211.795 50.2814 211.795 50.6576C211.795 51.112 211.804 51.5626 211.808 52.0171C211.81 52.3607 211.741 52.7331 211.489 52.966C211.232 53.2047 210.882 53.2219 210.552 53.2181C210.141 53.2142 209.729 53.22 209.318 53.2238C208.459 53.2314 207.598 53.2371 206.739 53.2219C206.391 53.2161 206.038 53.0844 205.847 52.7789C205.698 52.5421 205.675 52.25 205.683 51.9712C205.706 51.2686 205.698 50.5678 205.694 49.8652C205.692 49.3382 205.631 48.6566 206.206 48.3854C206.405 48.2919 206.632 48.29 206.851 48.29C208.083 48.288 209.316 48.288 210.548 48.2861C210.844 48.2861 211.161 48.2919 211.405 48.4599C211.648 48.626 211.759 48.9162 211.802 49.2408V49.2389ZM211.802 55.4043C211.825 55.6831 211.791 55.9847 211.795 56.2349C211.825 58.6464 211.795 61.0599 211.795 63.4714C211.795 66.219 211.795 68.9647 211.797 71.7123C211.797 72.3214 211.554 72.9419 210.84 72.9419H208.1C207.619 72.9419 207.117 72.9897 206.64 72.9381C206.305 72.9037 205.956 72.7567 205.801 72.4589C205.7 72.2641 205.696 72.035 205.696 71.8135C205.696 71.0593 205.694 70.3051 205.694 69.5509V58.4841C205.694 57.5294 205.694 56.5766 205.694 55.622C205.694 55.4005 205.694 55.1733 205.79 54.9728C206.076 54.358 206.802 54.4496 207.357 54.4496H209.559C209.987 54.4496 210.414 54.4496 210.842 54.4496C211.182 54.4496 211.489 54.6329 211.665 54.9212C211.751 55.0606 211.787 55.2286 211.802 55.4043Z" fill="white"/>
<path d="M119.993 55.4194V72.0024C119.993 72.306 119.844 72.5962 119.6 72.7757C119.288 73.001 118.92 72.9532 118.557 72.9551C117.618 72.959 116.68 72.9628 115.741 72.9666C115.009 72.9704 113.891 72.9952 113.891 72.0043V71.4735C113.891 71.082 113.448 70.8586 113.131 71.0897C111.422 72.3403 109.295 73.2664 106.517 73.2664C103.084 73.2664 99.1941 71.9718 99.1941 65.2833V58.4496C99.1941 57.5827 99.1941 56.7159 99.1941 55.849C99.1941 55.4996 99.1598 55.154 99.3774 54.8562C99.5569 54.6118 99.8452 54.4647 100.149 54.4647C101.482 54.4647 102.816 54.4647 104.149 54.4647C104.367 54.4647 104.594 54.4666 104.791 54.564C105.048 54.69 105.209 54.9631 105.27 55.2438C105.373 55.7077 105.296 56.2405 105.296 56.7178V62.2626C105.296 65.4379 106.238 66.7936 108.983 66.7936C110.549 66.7936 112.077 66.1043 113.257 65.1019C113.755 64.6799 113.936 64.2026 113.896 63.5553C113.875 63.1982 113.891 62.8374 113.891 62.4784V60.1279C113.891 58.6329 113.868 57.134 113.877 55.6409C113.879 55.2953 113.957 54.9249 114.217 54.6977C114.456 54.4876 114.798 54.4418 115.116 54.4514C116.421 54.4876 117.732 54.4647 119.038 54.4647C119.565 54.4647 119.993 54.8924 119.993 55.4194Z" fill="white"/>
<path d="M202.729 60.4416C202.554 60.4568 202.372 60.4511 202.199 60.4511C201.569 60.4511 200.938 60.4511 200.308 60.4511C199.827 60.4511 199.346 60.4511 198.863 60.4511C198.527 60.4511 197.899 60.327 197.618 60.558C197.479 60.6726 197.435 60.8674 197.435 61.0488C197.433 62.118 197.442 63.1892 197.442 64.2584C197.442 66.0074 198.004 66.8972 199.785 66.8972C200.44 66.8972 201.095 66.8762 201.748 66.8323C202.306 66.796 202.991 66.586 203.426 67.0518C203.757 67.4051 203.74 67.9741 203.72 68.4228C203.673 69.5073 203.72 70.5899 203.692 71.6725C203.686 71.8902 203.648 72.1136 203.526 72.2931C203.249 72.6998 202.678 72.759 202.233 72.8143C200.453 73.0416 198.598 73.1428 196.808 72.9575C195.438 72.8143 194.002 72.4497 192.938 71.5255C192.531 71.1723 192.194 70.7446 191.947 70.2672C191.136 68.6977 191.327 66.8494 191.327 65.1444C191.327 64.0026 191.327 62.8588 191.327 61.717C191.327 61.4765 191.327 61.2359 191.325 60.9953C191.325 60.833 191.308 60.6917 191.172 60.5848C190.945 60.4091 190.592 60.453 190.322 60.453H189.2C188.673 60.453 188.245 60.0253 188.245 59.4983C188.245 58.3775 188.254 57.2586 188.245 56.1378C188.241 55.5727 188.123 54.8547 188.657 54.4843C189.016 54.2361 189.503 54.3144 189.914 54.3144C190.227 54.3144 190.54 54.3144 190.851 54.3144C191.206 54.3144 191.323 54.0127 191.329 53.7129C191.336 53.3349 191.33 52.9568 191.319 52.5788C191.306 52.1721 191.25 51.731 191.527 51.393C191.781 51.0818 192.22 50.9653 192.593 50.8622C193.217 50.6904 193.834 50.4899 194.454 50.3047C194.796 50.2016 195.134 50.0908 195.476 49.9877C195.789 49.8923 196.146 49.7452 196.474 49.7357C196.814 49.7261 197.133 49.9171 197.305 50.2054C197.565 50.6369 197.446 51.3205 197.446 51.8169C197.446 52.3134 197.433 52.7792 197.431 53.2585C197.431 53.4933 197.383 53.8256 197.481 54.0432C197.626 54.3717 198.116 54.3125 198.407 54.3182C199.17 54.3316 199.934 54.3182 200.698 54.3182C201.242 54.3182 201.784 54.3182 202.328 54.3182C202.798 54.3201 203.255 54.3182 203.535 54.7612C203.804 55.187 203.682 55.7961 203.682 56.2734C203.682 56.9169 203.682 57.5603 203.682 58.2038C203.682 58.4539 203.678 58.704 203.678 58.9542C203.678 59.3284 203.736 59.7179 203.512 60.0463C203.319 60.3308 203.033 60.4187 202.728 60.4435L202.729 60.4416Z" fill="white"/>
<path d="M64.1454 58.6346C64.0977 58.8847 64.132 59.1807 64.1244 59.3907C64.1129 59.7096 64.0652 60.2614 64.428 60.4199C64.533 60.4657 64.6514 60.4657 64.764 60.4657C66.9808 60.4676 69.1976 60.4657 71.4125 60.4657C72.1667 60.4657 72.919 60.4657 73.6732 60.4657C73.971 60.4657 74.2899 60.4714 74.5324 60.6452C74.794 60.8342 74.899 61.176 74.9181 61.4987C75.0098 63.0433 74.9811 64.6434 74.9181 66.19C74.9066 66.4535 74.8475 66.7284 74.6737 66.927C74.5133 67.1122 74.2708 67.2096 74.0283 67.244C73.5033 67.3184 72.9133 67.2478 72.3767 67.2478H70.7518C69.547 67.2478 68.3422 67.2478 67.1374 67.2478H64.638C64.3726 67.2478 64.1568 67.4636 64.1568 67.729V70.6789C64.1568 71.1467 64.2275 71.6642 64.1378 72.1224C64.0843 72.3974 63.943 72.6666 63.7043 72.8136C63.4981 72.9397 63.2442 72.9607 63.0036 72.9549C61.5639 72.9167 60.1166 72.9492 58.675 72.9473C58.4421 72.9473 58.1996 72.9435 57.9915 72.8385C57.7795 72.7296 57.6306 72.5196 57.558 72.2924C57.3786 71.7367 57.5008 70.9997 57.5008 70.4231V60.6986C57.5008 59.2895 57.5008 57.8823 57.5008 56.4732C57.5008 55.2722 57.4759 54.0674 57.453 52.8645C57.4492 52.6277 57.4454 52.3871 57.5065 52.1599C57.6631 51.5833 58.213 51.4172 58.7476 51.3771C59.3567 51.3312 59.9696 51.337 60.5825 51.3427C62.8126 51.3618 65.0428 51.3751 67.273 51.3751C69.9289 51.3751 72.5867 51.3637 75.2408 51.3637C75.5463 51.3561 75.8728 51.4 76.1057 51.5966C76.3769 51.8238 76.4609 52.2076 76.4628 52.5628C76.4723 54.0139 76.4399 55.4669 76.4628 56.9162C76.4685 57.2656 76.4055 57.6436 76.1535 57.888C75.9912 58.0446 75.7678 58.1267 75.5425 58.1553C74.584 58.2795 73.5109 58.1573 72.5428 58.1573H69.0067C67.6147 58.1573 66.2228 58.1611 64.8309 58.1534C64.6819 58.1534 64.5234 58.1534 64.3936 58.2298C64.2466 58.3176 64.1759 58.4666 64.1435 58.6346H64.1454Z" fill="white"/>
<path d="M76.7939 63.7039C76.7939 56.8607 80.712 54.1494 87.2421 54.1494C93.7721 54.1494 97.6902 56.8626 97.6902 63.7039C97.6902 70.5452 93.7721 73.2585 87.2421 73.2585C80.712 73.2585 76.7939 70.5452 76.7939 63.7039ZM91.5439 63.7039C91.5439 60.9907 89.982 60.3129 87.2421 60.3129C84.5021 60.3129 82.9402 60.9907 82.9402 63.7039C82.9402 66.4172 84.5021 67.095 87.2421 67.095C89.982 67.095 91.5439 66.4172 91.5439 63.7039Z" fill="white"/>
<path d="M143.121 62.1326V68.7046C143.121 69.709 143.121 70.7114 143.121 71.7157C143.121 72.0136 143.115 72.3305 142.942 72.573C142.751 72.8384 142.403 72.9415 142.077 72.9568C140.793 73.0198 139.512 72.9282 138.233 72.9645C137.937 72.9721 137.626 72.9454 137.383 72.7792C136.874 72.4317 136.975 71.7768 136.975 71.2422V65.1551C136.975 61.9798 136.028 60.6242 133.261 60.6242C131.575 60.6242 129.803 61.4452 128.594 62.6691C128.417 62.8486 128.319 63.0911 128.319 63.3412C128.319 66.0029 128.308 68.6626 128.331 71.3243V71.626C128.337 71.8857 128.337 72.1568 128.222 72.3897C128.064 72.7181 127.705 72.9129 127.346 72.9683C126.891 73.0389 126.416 72.9396 125.96 72.9511C125.534 72.9625 125.104 72.9511 124.678 72.9511C124.031 72.9511 122.775 73.1955 122.341 72.552C122.179 72.3115 122.173 72.0021 122.173 71.7119C122.177 68.9452 122.173 66.1785 122.173 63.4118C122.173 60.7941 122.091 58.1611 122.173 55.5452C122.179 55.3466 122.194 55.1423 122.282 54.9648C122.477 54.5733 122.969 54.434 123.407 54.4359C124.665 54.4416 125.921 54.4492 127.18 54.4511C127.451 54.4511 127.735 54.4931 127.951 54.6554C128.367 54.9667 128.319 55.4898 128.319 55.9481C128.319 56.3395 128.762 56.5629 129.078 56.3319C130.8 55.0793 132.944 54.1514 135.745 54.1514C139.201 54.1514 143.119 55.4459 143.119 62.1345L143.121 62.1326Z" fill="white"/>
<path d="M256.739 62.1101V68.6822C256.739 69.6865 256.739 70.6889 256.739 71.6933C256.739 71.9911 256.733 72.3081 256.56 72.5506C256.369 72.816 256.021 72.9191 255.695 72.9344C254.412 72.9974 253.13 72.9057 251.851 72.942C251.555 72.9496 251.244 72.9229 251.001 72.7568C250.492 72.4093 250.593 71.7544 250.593 71.2197V65.1326C250.593 61.9574 249.646 60.6017 246.879 60.6017C245.193 60.6017 243.421 61.4227 242.213 62.6466C242.035 62.8261 241.938 63.0686 241.938 63.3187C241.938 65.9804 241.926 68.6402 241.949 71.3018V71.6035C241.955 71.8632 241.955 72.1343 241.84 72.3673C241.682 72.6957 241.323 72.8904 240.964 72.9458C240.509 73.0165 240.034 72.9172 239.578 72.9286C239.152 72.9401 238.722 72.9286 238.296 72.9286C237.649 72.9286 236.393 73.173 235.959 72.5296C235.797 72.289 235.791 71.9797 235.791 71.6894C235.795 68.9228 235.791 66.1561 235.791 63.3894C235.791 60.7716 235.709 58.1386 235.791 55.5228C235.797 55.3242 235.812 55.1199 235.9 54.9423C236.095 54.5509 236.588 54.4115 237.025 54.4134C238.283 54.4191 239.539 54.4268 240.798 54.4287C241.069 54.4287 241.353 54.4707 241.569 54.633C241.985 54.9442 241.938 55.4674 241.938 55.9256C241.938 56.3171 242.381 56.5404 242.696 56.3094C244.418 55.0569 246.562 54.1289 249.363 54.1289C252.819 54.1289 256.737 55.4235 256.737 62.112L256.739 62.1101Z" fill="white"/>
<path d="M165.448 49.2483C165.454 49.3209 165.456 49.3915 165.454 49.4641C165.424 51.236 165.445 53.0117 165.445 54.7836V68.1054C165.445 69.1116 165.445 70.1178 165.441 71.1222C165.441 71.7637 165.529 72.747 164.715 72.9265C164.287 73.022 163.776 72.9514 163.335 72.9514H160.251C159.724 72.9514 159.296 72.5237 159.296 71.9967V71.611C159.296 71.1966 158.808 70.9828 158.498 71.2596C156.955 72.642 154.96 73.2588 152.946 73.2588C148.976 73.2588 144.546 71.1623 144.546 63.7042C144.546 56.2462 148.976 54.1497 152.946 54.1497C155.327 54.1497 157.683 55.0128 159.296 56.9851V51.0031C159.296 50.4875 159.294 49.9739 159.289 49.4603C159.285 49.1987 159.317 48.9238 159.462 48.7042C159.787 48.2173 160.396 48.2917 160.904 48.2917H162.386C162.989 48.2917 163.587 48.2784 164.19 48.2707C164.589 48.265 165.03 48.3624 165.265 48.687C165.382 48.8493 165.431 49.046 165.446 49.2464L165.448 49.2483ZM159.298 63.7042C159.298 60.991 157.736 60.3132 154.996 60.3132C152.256 60.3132 150.695 60.991 150.695 63.7042C150.695 66.4175 152.256 67.0953 154.996 67.0953C157.736 67.0953 159.298 66.4175 159.298 63.7042Z" fill="white"/>
<path d="M213.343 63.7039C213.343 56.8607 217.261 54.1494 223.791 54.1494C230.321 54.1494 234.239 56.8626 234.239 63.7039C234.239 70.5452 230.321 73.2585 223.791 73.2585C217.261 73.2585 213.343 70.5452 213.343 63.7039ZM228.093 63.7039C228.093 60.9907 226.531 60.3129 223.791 60.3129C221.051 60.3129 219.489 60.9907 219.489 63.7039C219.489 66.4172 221.051 67.095 223.791 67.095C226.531 67.095 228.093 66.4172 228.093 63.7039Z" fill="white"/>
</svg>
