<svg width="133" height="106" viewBox="0 0 133 106" fill="none" xmlns="http://www.w3.org/2000/svg">
<g filter="url(#filter0_b_8105_3624)">
<path d="M49.5804 84.3854C45.0868 84.1408 40.4992 85.0313 36.1732 86.1409C29.0324 87.9631 15.955 92.2141 13.4224 81.8796C11.9095 75.7326 12.7196 68.8424 15.4877 63.0985C22.6293 48.3006 33.6613 33.8729 46.7264 23.7112C50.3889 20.8647 54.4147 18.5251 58.6145 16.5544C72.4872 10.0197 88.9443 8.29505 102.977 14.9575C106.076 16.4249 108.989 18.2959 111.753 20.321C114.795 22.5352 117.354 25.3725 119.297 28.5783C120.268 30.1811 121.086 31.8761 121.744 33.6397C122.088 34.5552 122.388 35.4954 122.625 36.4398C122.669 36.6045 123.141 38.4817 122.515 37.9451C121.613 37.1809 120.953 36.2753 120.867 35.0376C120.814 34.308 120.781 33.5603 120.568 32.849C120.301 31.988 119.802 31.5434 118.905 31.4713C118.294 31.4226 117.684 31.4744 117.08 31.5498C116.563 31.6144 116.158 31.9132 115.895 32.3627C115.638 32.7855 115.363 33.188 115.073 33.5819C114.633 34.1803 114.51 34.8693 114.518 35.5733C114.521 35.7744 114.559 35.9658 114.561 36.167C114.562 36.5574 114.429 36.871 114.113 37.1205C113.376 37.6988 112.953 38.5068 112.459 39.2839C112.298 39.5419 112.272 39.8264 112.311 40.1185C112.403 40.8502 112.545 41.5807 112.768 42.277C112.888 42.6353 113.1 42.9058 113.471 43.0574C113.743 43.1727 114.004 43.3416 114.253 43.5136C114.722 43.8406 114.876 44.278 114.727 44.8227C114.391 46.0992 114.862 47.1569 115.591 48.132C115.769 48.3736 115.948 48.6153 116.218 48.7691C116.748 49.0918 117.318 49.1266 117.903 48.9807C118.562 48.8272 119.197 48.6298 119.85 48.4528C120.147 48.3723 120.383 48.2074 120.496 47.912C120.927 46.7991 121.277 45.6701 121.165 44.4774C121.09 43.6655 121.431 43.0811 122.072 42.6173C122.713 42.1536 123.063 41.5542 123.03 40.7562C123.025 40.5936 123.026 40.4042 123.197 40.2821C123.323 40.3238 123.303 40.4425 123.349 40.5184C123.371 40.6008 123.404 40.6799 123.435 40.7473C123.468 40.7762 123.489 40.8082 123.475 40.85C123.484 40.8853 123.497 40.9323 123.518 40.9644C123.515 41.0029 123.56 41.0286 123.57 41.0639C123.743 41.9121 123.926 42.7453 124.1 43.5936C124.091 43.6085 124.082 43.6235 124.118 43.6642C124.121 43.9156 124.109 44.1584 124.118 44.4333C124.095 51.4128 123.384 57.8601 119.97 64.1447C116.484 70.5877 111.048 75.8694 104.821 79.701C97.4024 84.2717 88.8446 86.6546 80.2138 87.3674C71.943 88.0458 62.8169 87.6572 54.8765 85.2574C53.1461 84.7303 51.3799 84.4525 49.5979 84.3555L49.5804 84.3854Z" fill="#6729FF"/>
<path d="M123.192 40.7599C123.192 40.7599 123.104 40.6698 122.977 40.5272C123.217 41.8662 122.304 42.5183 121.603 43.3408C120.716 44.3781 121.24 45.7791 120.872 46.992C120.417 48.5065 118.303 49.8259 116.7 49.4129C115.219 49.0299 113.871 46.638 114.347 45.2062C114.547 44.6083 114.428 44.1599 113.892 43.774C111.557 42.0922 111.238 39.8765 113.335 37.7652C114.271 36.8159 114.106 35.8105 114.34 34.8113C114.915 32.404 116.395 31.2439 118.816 31.5617C121.078 31.8593 120.676 33.8148 120.837 35.2891C120.981 36.6035 121.752 37.3937 122.665 38.1452C122.843 39.0078 123.011 39.8855 123.189 40.7481L123.192 40.7599Z" fill="white"/>
<path d="M105.384 79.655C105.558 79.5451 105.729 79.4234 105.915 79.3102C105.741 79.4202 105.57 79.5419 105.384 79.655Z" fill="#6729FF"/>
<path d="M107.804 78.0699C107.955 77.9663 108.105 77.8627 108.244 77.7623C108.094 77.8659 107.943 77.9695 107.804 78.0699Z" fill="#6729FF"/>
<path d="M73.6621 87.8781C73.7686 87.8494 73.8783 87.8326 73.9879 87.8158C73.8814 87.8444 73.7718 87.8612 73.6621 87.8781Z" fill="#6729FF"/>
<path d="M12.9183 77.8283C12.9435 77.9231 12.9483 78.036 12.9617 78.1339C12.9364 78.0392 12.9317 77.9262 12.9183 77.8283Z" fill="#6729FF"/>
<path d="M104.598 80.1859C104.708 80.1187 104.817 80.0515 104.914 79.9874C104.805 80.0547 104.696 80.1219 104.598 80.1859Z" fill="#6729FF"/>
<path d="M72.7578 87.9668C72.8277 87.9479 72.8921 87.9555 72.965 87.9483C72.8952 87.9672 72.8308 87.9596 72.7578 87.9668Z" fill="#6729FF"/>
<path d="M120.736 31.5815C120.736 31.5815 120.693 31.4681 120.666 31.413C120.682 31.4712 120.709 31.5263 120.736 31.5815Z" fill="#6729FF"/>
<path d="M80.7133 10.2575C80.7133 10.2575 80.6084 10.2857 80.5586 10.2866C80.6052 10.2741 80.6636 10.2584 80.7133 10.2575Z" fill="#6729FF"/>
<path d="M73.3789 87.8894C73.3789 87.8894 73.437 87.8738 73.4749 87.876C73.4401 87.8854 73.4168 87.8916 73.3789 87.8894Z" fill="#6729FF"/>
<path d="M53.8117 18.9413C53.8117 18.9413 53.745 18.9718 53.7132 18.9929C53.7481 18.9835 53.7799 18.9624 53.8117 18.9413Z" fill="#6729FF"/>
<path d="M117.934 27.103C117.934 27.103 117.896 27.0512 117.863 27.0226C117.886 27.0163 117.927 27.0301 117.951 27.0238C117.945 27.0502 117.94 27.0766 117.934 27.103Z" fill="#6729FF"/>
<path d="M50.4897 20.704C50.4897 20.704 50.4025 20.7526 50.3589 20.7769C50.4056 20.7643 50.4461 20.7283 50.4897 20.704Z" fill="#6729FF"/>
<path d="M12.8632 77.4357C12.8632 77.4357 12.8787 77.4938 12.8763 77.5318C12.867 77.497 12.8608 77.4737 12.8632 77.4357Z" fill="#6729FF"/>
<path d="M26.1035 88.3024C26.1035 88.3024 26.1616 88.2866 26.1995 88.2888C26.1793 88.3068 26.1592 88.3247 26.1391 88.3426C26.136 88.331 26.1182 88.3108 26.1035 88.3024Z" fill="#6729FF"/>
<path d="M65.3449 13.2467C65.3449 13.2467 65.2751 13.2655 65.2433 13.2865C65.2782 13.2771 65.3131 13.2677 65.3449 13.2467Z" fill="#6729FF"/>
<path d="M63.1829 14.2839C63.1829 14.2839 63.131 14.3229 63.1077 14.3292C63.131 14.3229 63.1596 14.2902 63.1829 14.2839Z" fill="#6729FF"/>
<path d="M123.944 43.9444C123.944 43.9444 123.922 43.9118 123.919 43.8999C123.919 43.8999 123.931 43.8967 123.94 43.8815C123.943 43.8934 123.949 43.9173 123.964 43.926C123.964 43.926 123.968 43.938 123.959 43.9531L123.944 43.9444Z" fill="#6729FF"/>
<path d="M87.2773 10.756L87.3015 10.7609L87.2909 10.7638L87.2773 10.756Z" fill="#6729FF"/>
<path d="M43.1133 84.6683L43.124 84.6654L43.1296 84.6868L43.1133 84.6683Z" fill="#6729FF"/>
<path d="M49.7794 84.3411L49.7846 84.3157L49.8018 84.3351L49.7823 84.3523L49.7794 84.3411Z" fill="#6729FF"/>
<path d="M88.1279 10.8734L88.1085 10.8907L88.1026 10.8683L88.1108 10.854L88.1279 10.8734Z" fill="#6729FF"/>
<path d="M71.1944 87.9287L71.2138 87.9114L71.2309 87.9308L71.2115 87.9481L71.1944 87.9287Z" fill="#6729FF"/>
<path d="M14.1835 83.5939L14.1891 83.6153L14.1649 83.6104L14.1835 83.5939Z" fill="#6729FF"/>
<path d="M14.0954 83.3607L14.1243 83.3774L14.1189 83.4033C14.1159 83.3919 14.1015 83.3836 14.087 83.3752C14.087 83.3752 14.0984 83.3721 14.1068 83.3576L14.0954 83.3607Z" fill="#6729FF"/>
<path d="M13.0659 79.0449L13.0912 79.0501L13.0689 79.0562L13.0547 79.048L13.0659 79.0449Z" fill="#6729FF"/>
<path d="M122.652 37.2579L122.64 37.2121C122.643 37.2236 122.646 37.235 122.661 37.2433C122.661 37.2433 122.649 37.2464 122.638 37.2495L122.652 37.2579Z" fill="#6729FF"/>
<path d="M55.7954 17.874L55.8014 17.8964L55.7872 17.8883L55.7812 17.8658L55.7954 17.874Z" fill="#6729FF"/>
<path d="M57.4101 17.0863L57.4161 17.1087L57.3907 17.1036L57.396 17.0781L57.4101 17.0863Z" fill="#6729FF"/>
<path d="M59.707 15.9867L59.7017 16.0122L59.6846 15.9928L59.6928 15.9785L59.707 15.9867Z" fill="#6729FF"/>
<path d="M123.949 44.7268L123.921 44.7104L123.94 44.6932L123.957 44.7125L123.949 44.7268Z" fill="#6729FF"/>
<path d="M12.7997 73.2412L12.8168 73.2606L12.7974 73.2779L12.7803 73.2585L12.7997 73.2412Z" fill="#6729FF"/>
<path d="M103.754 80.7506L103.759 80.7251L103.776 80.7445L103.768 80.7587L103.754 80.7506Z" fill="#6729FF"/>
<path d="M99.6622 83.1053L99.6674 83.0799L99.6816 83.088L99.6875 83.1104L99.6622 83.1053Z" fill="#6729FF"/>
<path d="M97.8989 83.8189L97.8965 83.8097L97.9081 83.8164L97.8989 83.8189Z" fill="#6729FF"/>
<path d="M98.1817 83.7169L98.1758 83.6945L98.1929 83.7138L98.1959 83.7251L98.1817 83.7169Z" fill="#6729FF"/>
<path d="M94.1661 84.8834L94.1713 84.8579L94.1855 84.8661L94.1802 84.8916L94.1661 84.8834Z" fill="#6729FF"/>
<path d="M93.4551 85.1115L93.4658 85.1086L93.4607 85.1328L93.4551 85.1115Z" fill="#6729FF"/>
<path d="M74.2451 11.0271L74.2253 11.0447L74.1964 11.028L74.2162 11.0104L74.2451 11.0271Z" fill="#6729FF"/>
<path d="M123.403 41.3318C123.403 41.3318 123.372 41.2651 123.352 41.2333C123.361 41.2682 123.382 41.3 123.403 41.3318Z" fill="#6729FF"/>
<path d="M123.29 41.1215C123.29 41.1215 123.271 41.0517 123.25 41.0199C123.259 41.0548 123.269 41.0898 123.29 41.1215Z" fill="#6729FF"/>
<path d="M91.67 46.868C88.2705 47.2212 85.5376 45.132 85.9565 42.4281C86.2478 40.5423 87.7874 39.0382 89.261 38.7776C92.1455 38.2608 92.209 36.2851 92.675 34.2887C93.4141 31.1569 96.4388 29.0985 98.8283 30.131C100.702 30.9496 101.326 32.7768 101.952 34.5151C102.393 35.7475 102.654 36.6874 104.286 37.2178C107.218 38.1792 107.958 42.0345 105.39 43.653C102.527 45.453 102.294 48.2328 101.165 50.7121C100.232 52.7721 97.9759 54.2682 95.9807 54.0511C93.436 53.7808 92.9837 51.8313 92.4657 49.8743C92.2005 48.8722 92.3785 47.7625 91.6669 46.8562L91.67 46.868Z" fill="white"/>
<path d="M104.836 65.2705C104.586 64.3267 104.473 63.371 104.488 62.5579C104.547 59.6969 105.597 54.797 108.828 53.7947C111.553 52.9547 113.578 55.3013 114.346 57.622C115.336 60.5905 114.843 64.6565 113.049 67.2796C112.139 68.6137 110.673 69.6812 108.989 69.6321C106.662 69.5674 105.348 67.2557 104.824 65.2737L104.836 65.2705Z" fill="white"/>
</g>
<defs>
<filter id="filter0_b_8105_3624" x="2.67041" y="0.257446" width="131.448" height="98.3115" filterUnits="userSpaceOnUse" color-interpolation-filters="sRGB">
<feFlood flood-opacity="0" result="BackgroundImageFix"/>
<feGaussianBlur in="BackgroundImageFix" stdDeviation="5"/>
<feComposite in2="SourceAlpha" operator="in" result="effect1_backgroundBlur_8105_3624"/>
<feBlend mode="normal" in="SourceGraphic" in2="effect1_backgroundBlur_8105_3624" result="shape"/>
</filter>
</defs>
</svg>
