<svg width="112" height="115" viewBox="0 0 112 115" fill="none" xmlns="http://www.w3.org/2000/svg">
<g filter="url(#filter0_b_7884_2274)">
<path d="M55.3684 100.003C48.7527 101.408 42.2648 103.183 36.3731 106.619C32.1283 109.146 28.2952 112.056 23.5251 113.689C16.0292 116.258 12.3806 114.995 11.33 107.172C10.6912 102.431 11.2449 97.3766 11.2307 92.6206C11.2165 87.524 10.1517 82.4699 8.68945 77.6147C6.98583 71.9501 4.72855 66.4844 2.81198 60.8909C1.17936 56.1349 -0.254518 51.0241 0.370139 45.9559C0.89542 41.711 2.15893 37.2249 3.86254 33.2924C7.38334 25.1434 13.3176 18.1728 20.1604 12.5935C24.022 9.45599 28.21 6.71601 32.6536 4.47292C37.4521 2.05947 42.3358 0.89534 47.688 0.441044C54.4172 -0.11263 61.8563 0.0151408 68.472 1.37803C74.8038 2.68413 80.7522 5.38152 86.3884 8.49061C95.0626 13.2607 102.516 21.0264 106.704 30.0271C111.006 39.2692 112.496 49.1076 110.75 59.1163C109.657 65.377 106.349 70.9564 102.715 76.2092C98.1007 82.8959 92.2658 88.4894 84.9261 92.1238C75.7124 96.6809 65.292 97.8876 55.3684 99.9888V100.003Z" fill="#C729FF"/>
<path d="M65.3216 17.2929C65.1796 18.6416 65.1371 20.0329 66.3154 20.7285C67.6215 21.4951 68.4307 23.0994 68.7146 24.5474C69.098 26.5634 68.1184 27.5571 66.8691 29.0336C66.6419 29.3034 66.4006 29.5731 66.0882 29.7435C64.0155 30.8934 60.8922 28.8633 58.8479 29.7435C57.7689 30.2119 57.5418 31.6742 56.7184 32.4124C55.3271 33.6334 52.076 34.7407 49.8613 34.1161C47.3911 33.4204 46.7097 31.5322 46.5819 29.3317C46.4967 27.8411 46.7097 26.393 47.164 24.8882C47.5473 23.6246 45.8295 22.8012 44.9351 21.9068C43.6148 20.6007 42.3938 19.1101 42.3512 17.3213C42.2803 14.5813 44.5234 12.537 47.3059 12.5228C49.4922 12.5086 51.7495 12.2246 53.8222 13.403C54.2623 13.6585 54.8018 13.5307 55.1993 12.9913C57.7547 9.55565 60.0262 8.74643 63.2631 10.4217C65.1087 11.387 65.4494 13.6017 65.492 15.4757C65.5062 16.0294 65.421 16.6682 65.35 17.3071L65.3216 17.2929Z" fill="white"/>
<path d="M75.7415 50.9532C75.7415 51.0952 75.7415 51.2372 75.7131 51.3791C75.5144 53.7358 74.6484 56.0925 73.6972 58.2362C71.7664 62.5946 67.5216 69.5652 61.9423 68.5856C56.5617 67.6486 53.6939 63.7161 55.0852 58.4775C56.1358 54.545 58.1233 51.4927 60.8207 48.483C62.6237 46.4671 63.8446 43.8265 66.684 43.1024C71.6102 41.8389 75.8409 46.2825 75.7273 50.9532H75.7415Z" fill="white"/>
<path d="M103.652 34.3996C104.262 34.9958 104.717 35.7199 104.859 36.5717C105.327 39.0845 102.246 40.277 105.185 42.293C107.031 43.5565 108.521 45.6576 107.258 48.0568C105.426 51.5493 103.325 48.9654 100.514 50.229C99.0947 50.8678 99.1657 52.1597 98.2713 53.1393C96.4257 55.1552 92.4222 55.0133 90.3069 53.622C88.6459 52.5288 87.8793 50.4561 88.5891 48.5821C89.1996 46.9779 90.9316 46.0977 89.4267 44.3799C88.2342 43.017 86.4738 41.5263 86.0621 39.6666C85.551 37.2815 88.2058 35.805 90.2643 35.4643C91.8259 35.2088 93.7283 36.0322 95.1764 36.5149C94.7505 31.7874 100.898 31.7732 103.623 34.4138L103.652 34.3996Z" fill="white"/>
</g>
<defs>
<filter id="filter0_b_7884_2274" x="-9.7793" y="-9.86621" width="131.244" height="134.759" filterUnits="userSpaceOnUse" color-interpolation-filters="sRGB">
<feFlood flood-opacity="0" result="BackgroundImageFix"/>
<feGaussianBlur in="BackgroundImageFix" stdDeviation="5"/>
<feComposite in2="SourceAlpha" operator="in" result="effect1_backgroundBlur_7884_2274"/>
<feBlend mode="normal" in="SourceGraphic" in2="effect1_backgroundBlur_7884_2274" result="shape"/>
</filter>
</defs>
</svg>
