<svg width="155" height="17" viewBox="0 0 155 17" fill="none" xmlns="http://www.w3.org/2000/svg">
<path fill-rule="evenodd" clip-rule="evenodd" d="M15.6865 0.652044C15.1858 0.613022 14.6832 0.602322 14.1906 0.60484C12.7822 0.611644 11.3798 0.611265 9.97622 0.610885C9.30243 0.610703 8.62837 0.610521 7.95326 0.611134C6.24349 0.612392 4.53496 0.857853 3.11826 1.88942C1.95659 2.73531 1.083 3.9601 0.662726 5.34412C0.470673 5.97665 0.374023 6.63813 0.374023 7.29962C0.374023 10.174 2.32199 12.932 5.10925 13.6879C6.43452 14.0472 7.84215 14.0158 9.22301 13.9851C9.60805 13.9765 9.991 13.968 10.3695 13.968C10.7282 13.968 11.0871 13.9661 11.446 13.9642C12.1641 13.9604 12.8825 13.9566 13.6001 13.968C13.8165 13.9711 14.0665 13.9944 14.2262 14.1606C14.3022 14.2397 14.3607 14.3315 14.4192 14.4232L14.4193 14.4232C14.483 14.5232 14.5468 14.6231 14.6333 14.7069C15.1085 15.1676 15.9278 15.182 16.4485 14.7912C16.6499 14.6401 16.7902 14.4381 16.8949 14.2103C16.9991 13.9843 17.077 13.8584 17.3133 13.7741L17.3944 13.7454C18.0217 13.5232 18.6434 13.3029 19.2089 12.9427C21.102 11.7368 22.2943 9.57485 22.2943 7.29962C22.2943 5.24341 21.2928 3.22875 19.6753 1.98257C18.5243 1.09576 17.1107 0.761557 15.6871 0.651414L15.6865 0.652044ZM20.37 8.04672C20.1898 9.16325 19.6062 10.1986 18.7513 10.9293C17.8889 11.6669 16.769 11.9571 15.6261 12.066C14.5885 12.1648 13.3651 12.2554 12.3306 12.0905C12.0226 12.0414 11.7239 11.9061 11.4826 11.7066C11.2126 11.4838 11.0891 11.076 11.0611 10.7392C11.0205 10.2565 10.9937 9.7725 10.9713 9.28913C10.922 8.24938 10.9177 7.2109 10.9177 6.17052C10.9251 5.62107 10.9457 5.07161 10.9831 4.52342C11.0162 4.04005 11.0548 3.54976 11.3585 3.1501C11.8716 2.47483 12.7841 2.47411 13.5642 2.4735H13.5642C13.6326 2.47344 13.7 2.47339 13.766 2.47288L13.9914 2.47085C15.2079 2.45923 16.5237 2.44666 17.6439 2.95688C19.5501 3.82543 20.708 5.95716 20.3706 8.04672H20.37ZM7.1489 4.77836C6.80221 3.74994 5.55511 3.75057 5.04629 4.49891L5.04505 4.50017C4.93842 4.65752 4.86359 4.84759 4.8374 5.06851C4.82618 5.1604 4.8268 6.06608 4.91659 6.0686C4.88754 6.06776 4.85801 6.06686 4.82808 6.06594C4.00419 6.04073 2.86959 6.00601 2.68367 7.05485C2.57579 7.66347 2.98172 8.23558 3.55352 8.40299C3.98501 8.52887 4.44457 8.49551 4.89228 8.4609C4.74325 9.06951 4.63413 9.88331 5.12299 10.3667C5.47717 10.7166 6.0976 10.8173 6.54717 10.6021C6.89075 10.4372 7.11149 10.0772 7.20315 9.70456C7.28737 9.36222 7.27447 9.01254 7.26162 8.66413C7.26039 8.63078 7.25916 8.59744 7.25802 8.56412C7.75624 8.61573 8.37854 8.63713 8.80941 8.3325C9.3176 7.97375 9.524 7.10583 9.16358 6.57652C8.96405 6.28322 8.62609 6.10951 8.28064 6.03776C7.93519 5.96538 7.57915 5.98364 7.22684 6.00189C7.268 5.59216 7.28047 5.16858 7.1489 4.77836Z" fill="#FF7549"/>
<path d="M13.5804 16.4103C13.8011 16.4078 14.0218 16.3172 14.1665 16.1479C14.5899 15.6538 14.2233 14.8545 13.5804 14.8545C12.8402 14.8545 12.5309 15.8602 13.1439 16.2826C13.2717 16.3707 13.4257 16.4122 13.5804 16.4103Z" fill="#FF7549"/>
<path d="M16.7211 5.22096C16.7243 5.09446 16.7068 4.96795 16.6663 4.84711C16.4617 4.24353 15.7203 3.90177 15.1386 4.15856C14.5593 4.41409 14.2762 5.16746 14.5624 5.74083C14.8199 6.25693 15.4996 6.50932 16.0271 6.28525C16.4387 6.11028 16.7093 5.6672 16.7205 5.22096H16.7211Z" fill="#FF7549"/>
<path d="M16.7181 9.26177C16.7181 9.01379 16.6458 8.76581 16.4974 8.56755C16.0403 7.95453 15.0563 7.97153 14.6417 8.61791C14.2838 9.1768 14.4633 9.97423 15.0551 10.2858C15.5109 10.5256 16.1239 10.4041 16.4562 10.0082C16.6296 9.80178 16.7175 9.53177 16.7175 9.26177H16.7181Z" fill="#FF7549"/>
<path d="M17.5847 8.38675C17.7892 8.38863 17.9931 8.33891 18.1696 8.23318C18.6142 7.96632 18.8337 7.37029 18.6697 6.87496C18.4302 6.1518 17.4993 5.85032 16.9025 6.3211C16.3856 6.72894 16.2958 7.53896 16.7491 8.02863C16.9624 8.25898 17.2742 8.38297 17.5853 8.38612L17.5847 8.38675Z" fill="#FF7549"/>
<path d="M13.5821 8.3957C14.2137 8.3957 14.7257 7.87898 14.7257 7.24141C14.7257 6.61517 14.2349 6.16516 13.6382 6.10222C12.9941 6.03425 12.4385 6.60195 12.4385 7.24141C12.4385 7.87898 12.9504 8.3957 13.5821 8.3957Z" fill="#FF7549"/>
<path d="M36.6632 1.93514C37.3341 1.86615 38.0239 1.92758 38.6977 1.92663C38.9339 1.92663 39.2212 1.90962 39.3771 2.12508C39.4886 2.2791 39.4726 2.46526 39.4678 2.64481C39.4631 2.83947 39.4697 3.03791 39.4697 3.23352V11.5161C39.4697 11.7136 39.4981 11.9196 39.4707 12.1143C39.4281 12.4214 39.1928 12.5669 38.8971 12.5754C38.2734 12.5924 37.6544 12.5622 37.0308 12.5717C36.8182 12.5745 36.5772 12.5981 36.391 12.4724C36.1557 12.3127 36.1907 12.0245 36.1907 11.7751C36.1907 11.5927 36.1907 11.4103 36.1907 11.2289V9.90969C36.1907 9.73771 36.1907 9.56478 36.1907 9.3928C36.1907 9.13199 35.979 8.92031 35.7182 8.92031H31.4942C31.2334 8.92031 31.0217 9.13199 31.0217 9.3928V11.4443C31.0217 11.6286 31.0208 11.8119 31.0246 11.9962C31.0274 12.1152 31.017 12.239 30.9556 12.3411C30.8932 12.446 30.7827 12.5159 30.6645 12.548C30.5011 12.5924 30.3187 12.5698 30.1505 12.5698C29.6412 12.5698 29.1318 12.5698 28.6225 12.5698C28.3825 12.5698 28.0838 12.6151 27.8901 12.4384C27.7342 12.2967 27.7437 12.0963 27.7437 11.9045C27.7437 11.6739 27.7437 11.4443 27.7437 11.2137V3.99327C27.7437 3.55386 27.7437 3.11445 27.7446 2.67504C27.7446 2.49361 27.7172 2.30084 27.824 2.14208C27.9591 1.94175 28.2161 1.91529 28.4373 1.91435C29.0127 1.91151 29.5882 1.91718 30.1637 1.91718C30.3707 1.91718 30.6031 1.92002 30.7902 2.01924C31.0444 2.15342 31.0246 2.44447 31.0217 2.69205C31.0199 2.88483 31.0217 3.07854 31.0217 3.27132V5.10644C31.0217 5.36725 31.2334 5.57892 31.4942 5.57892H35.7182C35.979 5.57892 36.1907 5.36725 36.1907 5.10644V3.33557C36.1907 3.1428 36.1907 2.95003 36.1907 2.75726C36.1907 2.59189 36.1709 2.4114 36.2257 2.24981C36.2918 2.0542 36.4638 1.95498 36.6622 1.93514H36.6632Z" fill="white"/>
<path d="M45.9821 8.42312C45.9821 8.42312 45.9821 8.4165 45.9821 8.41367C45.9509 8.05175 45.9726 7.66809 45.984 7.30523C45.9887 7.15592 46.0359 7.00473 46.1408 6.89606C46.2599 6.77227 46.4451 6.76471 46.6076 6.7666C46.9034 6.77038 47.1973 6.77038 47.4931 6.77038H49.5635C50.0785 6.77038 50.5935 6.75998 51.1075 6.76376C51.2672 6.76471 51.444 6.80345 51.5649 6.91401C51.7256 7.05954 51.7029 7.24758 51.7038 7.44603C51.7076 8.39949 51.7085 9.35391 51.7076 10.3074C51.7076 10.7846 51.7067 11.2608 51.7048 11.7381C51.7038 12.083 51.7104 12.5583 51.2332 12.5583H50.2193C49.9868 12.5583 49.7884 12.3891 49.7525 12.1586C49.7241 11.9781 49.6948 11.7976 49.6703 11.6162C49.6608 11.5481 49.6429 11.4791 49.5984 11.4272C49.3716 11.1635 49.0759 11.601 48.9171 11.7399C48.5637 12.0499 48.1441 12.2738 47.701 12.4269C47.0971 12.6358 46.4545 12.7095 45.8176 12.7095C42.5651 12.7095 40.6487 10.932 40.6487 7.22585C40.6487 3.5197 42.5651 1.77246 46.1966 1.77246C46.9374 1.77246 47.6849 1.83483 48.4049 2.01815C48.9927 2.16746 49.5644 2.40181 50.0596 2.75617C50.5084 3.07746 50.8817 3.49608 51.1472 3.9799C51.3684 4.3834 51.5205 4.82375 51.6046 5.27639C51.6707 5.63453 51.7095 6.12119 51.2191 6.15426C50.8052 6.18261 50.3875 6.16276 49.9726 6.16276C49.6532 6.16276 49.3338 6.16749 49.0135 6.16276C48.8415 6.16088 48.6582 6.17977 48.4938 6.11835C48.3199 6.05409 48.2443 5.88211 48.1366 5.74604C48.0591 5.64776 47.958 5.56649 47.854 5.49751C47.5885 5.32269 47.2767 5.22819 46.9658 5.17433C46.7116 5.12992 46.4536 5.11385 46.1956 5.11385C44.2537 5.11385 43.9258 6.10134 43.9258 7.37704C43.9258 8.65274 44.266 9.82261 46.1956 9.82261C46.5698 9.82261 46.9488 9.80844 47.3164 9.73567C47.6244 9.67425 47.957 9.56369 48.1649 9.31328C48.2934 9.15736 48.2396 8.89655 48.0052 8.89655C47.5384 8.89655 47.0716 8.89371 46.6057 8.89938C46.2911 8.90411 46.018 8.7737 45.9821 8.42312Z" fill="white"/>
<path d="M115.167 3.32227C118.25 3.32227 120.005 4.59038 120.03 8.04812V11.1489C120.03 11.3837 120.03 11.6176 120.035 11.8534C120.038 12.0046 120.039 12.2094 119.947 12.3381C119.86 12.4583 119.708 12.5335 119.561 12.5335H118.058C117.684 12.5335 117.023 12.6274 117.023 12.0638V11.9201C117.023 11.7773 116.911 11.6862 116.772 11.6965C116.607 11.7087 116.453 11.8694 116.317 11.952C115.937 12.1812 115.526 12.3531 115.098 12.4696C114.496 12.6331 113.872 12.6857 113.251 12.6857C111.534 12.6857 110.03 11.9455 110.03 9.98317C110.03 7.62729 112.286 7.00826 114.479 7.00826C114.875 7.00826 115.27 7.03174 115.661 7.09092C115.831 7.11628 115.999 7.14916 116.167 7.18955C116.335 7.22995 116.503 7.31073 116.671 7.33891C116.746 7.35112 116.829 7.33891 116.888 7.291C116.941 7.24685 116.969 7.17546 116.968 7.10595C116.962 6.76309 116.548 6.53107 116.266 6.45029C115.881 6.34038 115.466 6.34508 115.068 6.34508C114.085 6.34508 113.108 6.46626 112.152 6.68794C111.881 6.75088 111.585 6.71612 111.474 6.42399C111.382 6.18164 111.289 5.94022 111.197 5.69787C111.126 5.51 111.055 5.32307 110.983 5.1352C110.886 4.87876 110.666 4.52275 110.867 4.26913C111.025 4.06811 111.314 3.98638 111.551 3.92345C112.224 3.74403 112.887 3.5571 113.579 3.4519C114.105 3.37205 114.637 3.32414 115.169 3.32414L115.167 3.32227ZM117.025 9.42895C117.031 9.37447 117.021 9.31717 116.998 9.27302C116.969 9.2176 116.917 9.18003 116.863 9.15185C116.731 9.08609 116.577 9.06731 116.432 9.05228C116.375 9.04664 116.317 9.04288 116.26 9.03631C115.961 9.00249 115.661 8.97619 115.361 8.97149C113.733 8.94801 113.036 9.0767 113.036 9.69385C113.036 10.187 113.379 10.2659 114.126 10.2678C114.628 10.2687 115.129 10.2049 115.616 10.0846C115.888 10.0179 116.16 9.95311 116.423 9.8573C116.57 9.80375 116.723 9.75679 116.855 9.66943C116.907 9.63561 116.955 9.59428 116.988 9.54168C117.009 9.50974 117.021 9.46935 117.025 9.42802V9.42895Z" fill="white"/>
<path d="M132.108 0.886702C132.141 1.12248 132.104 1.39959 132.104 1.58464C132.104 1.8082 132.109 2.02989 132.11 2.25345C132.111 2.42253 132.078 2.60571 131.954 2.72031C131.827 2.83772 131.655 2.84618 131.492 2.8443C131.29 2.84242 131.088 2.84524 130.886 2.84712C130.463 2.85088 130.039 2.85369 129.617 2.84618C129.446 2.84336 129.272 2.77855 129.178 2.62825C129.105 2.51177 129.093 2.36805 129.097 2.23091C129.108 1.88523 129.105 1.54049 129.103 1.19481C129.102 0.935549 129.072 0.600202 129.354 0.466815C129.452 0.420787 129.564 0.419847 129.672 0.419847C130.278 0.418908 130.885 0.418908 131.491 0.417969C131.636 0.417969 131.792 0.420787 131.912 0.503449C132.032 0.585172 132.086 0.727953 132.108 0.887642V0.886702ZM132.108 3.91985C132.119 4.057 132.102 4.20541 132.104 4.32847C132.119 5.51486 132.104 6.70219 132.104 7.88859C132.104 9.24031 132.104 10.5911 132.105 11.9428C132.105 12.2425 131.986 12.5477 131.634 12.5477H130.286C130.05 12.5477 129.803 12.5712 129.568 12.5459C129.403 12.529 129.231 12.4566 129.155 12.3101C129.106 12.2143 129.104 12.1016 129.104 11.9926C129.104 11.6216 129.103 11.2505 129.103 10.8795V5.43502C129.103 4.96534 129.103 4.49661 129.103 4.02694C129.103 3.91797 129.103 3.80619 129.15 3.70756C129.291 3.40509 129.648 3.45018 129.921 3.45018H131.004C131.214 3.45018 131.425 3.45018 131.635 3.45018C131.802 3.45018 131.954 3.54036 132.04 3.6822C132.082 3.75077 132.1 3.83343 132.108 3.91985Z" fill="white"/>
<path d="M86.9403 3.92702V12.0852C86.9403 12.2346 86.867 12.3774 86.7468 12.4657C86.5937 12.5765 86.4124 12.553 86.2339 12.554C85.7718 12.5559 85.3105 12.5577 84.8484 12.5596C84.4886 12.5615 83.9382 12.5737 83.9382 12.0862V11.825C83.9382 11.6325 83.7202 11.5226 83.5643 11.6362C82.7236 12.2515 81.6771 12.7071 80.3104 12.7071C78.6215 12.7071 76.708 12.0702 76.708 8.77968V5.41776C76.708 4.9913 76.708 4.56484 76.708 4.13837C76.708 3.96647 76.6911 3.79645 76.7982 3.64991C76.8865 3.52968 77.0283 3.45735 77.1777 3.45735C77.8333 3.45735 78.4899 3.45735 79.1456 3.45735C79.2527 3.45735 79.3645 3.45829 79.4612 3.50619C79.588 3.56819 79.6669 3.70252 79.697 3.8406C79.7477 4.06886 79.7102 4.33094 79.7102 4.56578V7.29364C79.7102 8.85577 80.1733 9.5227 81.524 9.5227C82.2943 9.5227 83.0458 9.1836 83.6263 8.69044C83.8715 8.48285 83.9607 8.24801 83.941 7.92957C83.9306 7.75392 83.9382 7.57638 83.9382 7.39978V6.24345C83.9382 5.50794 83.9269 4.77055 83.9316 4.03598C83.9325 3.86596 83.971 3.68373 84.0988 3.57195C84.2162 3.46862 84.3843 3.44608 84.5412 3.45077C85.1828 3.46862 85.8281 3.45735 86.4706 3.45735C86.7299 3.45735 86.9403 3.66776 86.9403 3.92702Z" fill="white"/>
<path d="M127.645 6.39794C127.559 6.40546 127.469 6.40264 127.384 6.40264C127.074 6.40264 126.764 6.40264 126.454 6.40264C126.217 6.40264 125.981 6.40264 125.743 6.40264C125.578 6.40264 125.269 6.34158 125.13 6.45524C125.062 6.5116 125.04 6.60742 125.04 6.69665C125.039 7.22269 125.044 7.74966 125.044 8.2757C125.044 9.13614 125.32 9.57387 126.197 9.57387C126.519 9.57387 126.841 9.56354 127.162 9.54193C127.437 9.52409 127.774 9.42076 127.988 9.64996C128.15 9.82374 128.142 10.1037 128.133 10.3244C128.109 10.858 128.133 11.3906 128.119 11.9232C128.116 12.0303 128.097 12.1402 128.037 12.2285C127.901 12.4285 127.62 12.4577 127.401 12.4849C126.525 12.5967 125.612 12.6465 124.732 12.5554C124.058 12.4849 123.351 12.3055 122.828 11.8508C122.628 11.6771 122.462 11.4667 122.341 11.2318C121.941 10.4597 122.035 9.55039 122.035 8.71155C122.035 8.14982 122.035 7.58715 122.035 7.02543C122.035 6.90707 122.035 6.78871 122.034 6.67035C122.034 6.59051 122.026 6.521 121.959 6.46839C121.847 6.38197 121.674 6.40358 121.541 6.40358H120.989C120.73 6.40358 120.519 6.19316 120.519 5.9339C120.519 5.38251 120.524 4.83205 120.519 4.28066C120.517 4.00261 120.459 3.64941 120.722 3.46718C120.899 3.34507 121.138 3.38358 121.34 3.38358C121.494 3.38358 121.648 3.38358 121.801 3.38358C121.976 3.38358 122.033 3.23516 122.036 3.08769C122.04 2.9017 122.037 2.7157 122.032 2.52971C122.025 2.32963 121.998 2.11264 122.134 1.94638C122.259 1.79327 122.475 1.73597 122.658 1.68524C122.965 1.6007 123.269 1.50207 123.574 1.41095C123.742 1.36023 123.908 1.30575 124.077 1.25502C124.231 1.20805 124.406 1.13572 124.568 1.13103C124.735 1.12633 124.892 1.22027 124.976 1.36211C125.104 1.5744 125.046 1.91069 125.046 2.15492C125.046 2.39915 125.039 2.62835 125.038 2.86412C125.038 2.97966 125.015 3.14311 125.063 3.25019C125.134 3.41176 125.376 3.38264 125.518 3.38546C125.894 3.39203 126.27 3.38546 126.646 3.38546C126.913 3.38546 127.18 3.38546 127.448 3.38546C127.679 3.3864 127.903 3.38546 128.041 3.60339C128.174 3.81286 128.114 4.11251 128.114 4.34735C128.114 4.66391 128.114 4.98047 128.114 5.29703C128.114 5.42008 128.112 5.54314 128.112 5.66619C128.112 5.8503 128.14 6.04193 128.03 6.2035C127.935 6.34346 127.794 6.38667 127.644 6.39888L127.645 6.39794Z" fill="white"/>
<path d="M59.4664 5.50916C59.4429 5.63222 59.4598 5.77782 59.4561 5.88114C59.4504 6.03801 59.427 6.30949 59.6054 6.38745C59.6571 6.41 59.7153 6.41 59.7708 6.41C60.8613 6.41093 61.9519 6.41 63.0416 6.41C63.4126 6.41 63.7827 6.41 64.1538 6.41C64.3003 6.41 64.4572 6.41281 64.5765 6.49829C64.7051 6.59129 64.7568 6.75943 64.7662 6.91818C64.8113 7.67811 64.7972 8.46528 64.7662 9.22615C64.7606 9.35578 64.7314 9.49105 64.646 9.58874C64.5671 9.67986 64.4478 9.72777 64.3285 9.74467C64.0702 9.78131 63.7799 9.74655 63.5159 9.74655H62.7166C62.1238 9.74655 61.5311 9.74655 60.9384 9.74655H59.7088C59.5782 9.74655 59.4721 9.8527 59.4721 9.98327V11.4346C59.4721 11.6647 59.5068 11.9193 59.4627 12.1447C59.4364 12.28 59.3668 12.4124 59.2494 12.4847C59.148 12.5467 59.023 12.5571 58.9047 12.5543C58.1964 12.5355 57.4844 12.5514 56.7752 12.5505C56.6606 12.5505 56.5413 12.5486 56.4389 12.497C56.3346 12.4434 56.2614 12.3401 56.2257 12.2283C56.1374 11.955 56.1975 11.5924 56.1975 11.3087V6.5246C56.1975 5.83136 56.1975 5.13906 56.1975 4.44582C56.1975 3.85497 56.1853 3.26225 56.174 2.67046C56.1721 2.55398 56.1702 2.43562 56.2003 2.32384C56.2773 2.04016 56.5479 1.95844 56.8109 1.93871C57.1105 1.91616 57.4121 1.91898 57.7136 1.9218C58.8108 1.93119 59.9079 1.93777 61.0051 1.93777C62.3117 1.93777 63.6193 1.93213 64.925 1.93213C65.0753 1.92838 65.2359 1.94998 65.3505 2.04673C65.4839 2.15852 65.5252 2.34732 65.5261 2.52204C65.5308 3.23595 65.5149 3.95079 65.5261 4.66375C65.529 4.83565 65.498 5.02164 65.374 5.14188C65.2941 5.2189 65.1842 5.2593 65.0734 5.27339C64.6018 5.33444 64.0739 5.27433 63.5977 5.27433H61.858C61.1732 5.27433 60.4884 5.2762 59.8036 5.27245C59.7304 5.27245 59.6524 5.27245 59.5885 5.31002C59.5162 5.35323 59.4814 5.4265 59.4655 5.50916H59.4664Z" fill="white"/>
<path d="M65.689 8.00322C65.689 4.63661 67.6165 3.30273 70.8291 3.30273C74.0416 3.30273 75.9692 4.63755 75.9692 8.00322C75.9692 11.3689 74.0416 12.7037 70.8291 12.7037C67.6165 12.7037 65.689 11.3689 65.689 8.00322ZM72.9454 8.00322C72.9454 6.66841 72.177 6.33494 70.8291 6.33494C69.4811 6.33494 68.7127 6.66841 68.7127 8.00322C68.7127 9.33803 69.4811 9.6715 70.8291 9.6715C72.177 9.6715 72.9454 9.33803 72.9454 8.00322Z" fill="white"/>
<path d="M98.3189 7.23018V10.4634C98.3189 10.9575 98.3189 11.4507 98.3189 11.9448C98.3189 12.0913 98.3161 12.2472 98.2306 12.3665C98.1366 12.4971 97.9657 12.5478 97.8051 12.5553C97.1738 12.5863 96.5435 12.5412 95.9142 12.5591C95.7686 12.5628 95.6154 12.5497 95.4961 12.468C95.2453 12.297 95.2951 11.9748 95.2951 11.7118V8.71716C95.2951 7.15503 94.8292 6.48809 93.4681 6.48809C92.6387 6.48809 91.7669 6.89201 91.1723 7.49413C91.085 7.58243 91.0371 7.70173 91.0371 7.82478C91.0371 9.13423 91.0314 10.4427 91.0427 11.7522V11.9006C91.0455 12.0284 91.0455 12.1617 90.9892 12.2763C90.9112 12.4379 90.7346 12.5337 90.558 12.561C90.3344 12.5957 90.1005 12.5469 89.876 12.5525C89.6666 12.5581 89.4552 12.5525 89.2457 12.5525C88.9273 12.5525 88.3092 12.6727 88.096 12.3562C88.0161 12.2378 88.0133 12.0857 88.0133 11.9429C88.0152 10.5818 88.0133 9.22065 88.0133 7.85954C88.0133 6.5717 87.9729 5.27634 88.0133 3.98943C88.0161 3.89174 88.0236 3.79123 88.0669 3.70387C88.1627 3.51131 88.405 3.44273 88.6201 3.44367C89.2392 3.44649 89.8572 3.45025 90.4763 3.45119C90.6097 3.45119 90.7496 3.47185 90.8558 3.5517C91.0606 3.70481 91.0371 3.96219 91.0371 4.18764C91.0371 4.3802 91.255 4.4901 91.41 4.37644C92.2573 3.76023 93.3122 3.30371 94.6902 3.30371C96.3904 3.30371 98.3179 3.94059 98.3179 7.23112L98.3189 7.23018Z" fill="white"/>
<path d="M154.216 7.21846V10.4517C154.216 10.9458 154.216 11.4389 154.216 11.933C154.216 12.0796 154.213 12.2355 154.128 12.3548C154.034 12.4854 153.863 12.5361 153.702 12.5436C153.071 12.5746 152.441 12.5295 151.811 12.5474C151.666 12.5511 151.513 12.538 151.393 12.4563C151.143 12.2853 151.192 11.9631 151.192 11.7001V8.70544C151.192 7.14331 150.726 6.47638 149.365 6.47638C148.536 6.47638 147.664 6.88029 147.07 7.48241C146.982 7.57071 146.934 7.69001 146.934 7.81307C146.934 9.12251 146.929 10.431 146.94 11.7405V11.8889C146.943 12.0166 146.943 12.15 146.886 12.2646C146.808 12.4262 146.632 12.522 146.455 12.5492C146.232 12.584 145.998 12.5352 145.773 12.5408C145.564 12.5464 145.352 12.5408 145.143 12.5408C144.825 12.5408 144.206 12.661 143.993 12.3445C143.913 12.2261 143.911 12.0739 143.911 11.9312C143.912 10.57 143.911 9.20893 143.911 7.84782C143.911 6.55998 143.87 5.26462 143.911 3.97771C143.913 3.88002 143.921 3.77951 143.964 3.69215C144.06 3.49959 144.302 3.43102 144.517 3.43195C145.136 3.43477 145.754 3.43853 146.373 3.43947C146.507 3.43947 146.647 3.46014 146.753 3.53998C146.958 3.69309 146.934 3.95047 146.934 4.17592C146.934 4.36848 147.152 4.47839 147.307 4.36473C148.154 3.74851 149.209 3.29199 150.587 3.29199C152.288 3.29199 154.215 3.92887 154.215 7.2194L154.216 7.21846Z" fill="white"/>
<path d="M109.304 0.891218C109.306 0.926913 109.307 0.961668 109.306 0.997364C109.291 1.86908 109.302 2.74267 109.302 3.61438V10.1682C109.302 10.6632 109.302 11.1583 109.3 11.6524C109.3 11.968 109.343 12.4517 108.943 12.54C108.732 12.587 108.481 12.5523 108.264 12.5523H106.747C106.487 12.5523 106.277 12.3418 106.277 12.0826V11.8928C106.277 11.689 106.036 11.5838 105.884 11.72C105.125 12.4001 104.144 12.7035 103.153 12.7035C101.2 12.7035 99.0205 11.6721 99.0205 8.00301C99.0205 4.33392 101.2 3.30252 103.153 3.30252C104.324 3.30252 105.483 3.7271 106.277 4.69745V1.75448C106.277 1.50085 106.276 1.24817 106.273 0.995485C106.271 0.866795 106.287 0.731529 106.359 0.623504C106.518 0.383971 106.818 0.420605 107.068 0.420605H107.797C108.094 0.420605 108.388 0.41403 108.685 0.410272C108.881 0.407454 109.098 0.455361 109.213 0.61505C109.271 0.694894 109.295 0.791647 109.303 0.890278L109.304 0.891218ZM106.278 8.00301C106.278 6.6682 105.51 6.33473 104.162 6.33473C102.814 6.33473 102.045 6.6682 102.045 8.00301C102.045 9.33782 102.814 9.67129 104.162 9.67129C105.51 9.67129 106.278 9.33782 106.278 8.00301Z" fill="white"/>
<path d="M132.866 8.00322C132.866 4.63661 134.794 3.30273 138.006 3.30273C141.219 3.30273 143.146 4.63755 143.146 8.00322C143.146 11.3689 141.219 12.7037 138.006 12.7037C134.794 12.7037 132.866 11.3689 132.866 8.00322ZM140.123 8.00322C140.123 6.66841 139.354 6.33494 138.006 6.33494C136.658 6.33494 135.89 6.66841 135.89 8.00322C135.89 9.33803 136.658 9.6715 138.006 9.6715C139.354 9.6715 140.123 9.33803 140.123 8.00322Z" fill="white"/>
</svg>
