<svg width="30" height="30" viewBox="0 0 30 30" fill="none" xmlns="http://www.w3.org/2000/svg">
<path fill-rule="evenodd" clip-rule="evenodd" d="M20.5595 4.4958C19.92 4.44595 19.278 4.43229 18.6487 4.4355C16.8497 4.44419 15.0583 4.44371 13.2655 4.44323C12.4048 4.44299 11.5438 4.44276 10.6814 4.44354C8.49741 4.44515 6.31501 4.75869 4.50538 6.07637C3.02151 7.15688 1.90562 8.72137 1.36878 10.4893C1.12346 11.2972 1 12.1422 1 12.9871C1 16.6588 3.48825 20.1817 7.04859 21.1472C8.74143 21.6062 10.5395 21.5661 12.3033 21.5268C12.7952 21.5159 13.2843 21.505 13.7678 21.505C14.2259 21.505 14.6842 21.5026 15.1427 21.5002H15.1429C16.0602 21.4954 16.9779 21.4905 17.8945 21.505C18.1708 21.509 18.4902 21.5388 18.6941 21.751C18.7913 21.8522 18.8661 21.9693 18.9408 22.0865C19.0223 22.2142 19.1038 22.3419 19.2143 22.4488C19.8212 23.0373 20.8678 23.0558 21.5329 22.5566C21.7901 22.3636 21.9693 22.1056 22.1031 21.8145C22.2362 21.5259 22.3357 21.3651 22.6376 21.2574L22.7411 21.2207C23.5424 20.9369 24.3365 20.6555 25.0589 20.1954C27.4771 18.655 29 15.8934 29 12.9871C29 10.3606 27.7208 7.78718 25.6547 6.19535C24.1844 5.06258 22.3787 4.63569 20.5603 4.495L20.5595 4.4958ZM26.5418 13.9413C26.3116 15.3675 25.5661 16.69 24.4741 17.6234C23.3726 18.5656 21.9421 18.9363 20.4821 19.0754C19.1567 19.2016 17.594 19.3173 16.2726 19.1067C15.8791 19.044 15.4976 18.8711 15.1894 18.6163C14.8445 18.3317 14.6868 17.8107 14.6509 17.3806C14.5992 16.764 14.5649 16.1458 14.5362 15.5283C14.4733 14.2002 14.4677 12.8737 14.4677 11.5447C14.4773 10.8429 14.5036 10.141 14.5514 9.4408C14.5936 8.82336 14.643 8.19708 15.0309 7.68658C15.6862 6.82402 16.8519 6.8231 17.8483 6.82231H17.8484C17.9358 6.82224 18.0218 6.82217 18.1061 6.82152C18.2015 6.82077 18.2974 6.81986 18.3938 6.81894L18.3941 6.81893C19.9479 6.80409 21.6287 6.78804 23.0595 7.43976C25.4944 8.54922 26.9735 11.2722 26.5426 13.9413H26.5418ZM9.65355 9.76646C9.2107 8.4528 7.61771 8.45361 6.96777 9.40951L6.96617 9.41112C6.82997 9.6121 6.73439 9.8549 6.70094 10.1371C6.6866 10.2545 6.6874 11.4113 6.80209 11.4146C6.76498 11.4135 6.72726 11.4123 6.68902 11.4112C5.63663 11.379 4.18733 11.3346 3.94984 12.6744C3.81205 13.4518 4.33057 14.1826 5.06096 14.3964C5.61213 14.5572 6.19915 14.5146 6.77103 14.4704C6.58067 15.2478 6.44128 16.2873 7.06574 16.9047C7.51814 17.3517 8.31066 17.4804 8.88493 17.2054C9.3238 16.9948 9.60576 16.5349 9.72284 16.059C9.83043 15.6217 9.81395 15.175 9.79754 14.73C9.79597 14.6874 9.7944 14.6448 9.79293 14.6022C10.4293 14.6682 11.2242 14.6955 11.7746 14.3064C12.4238 13.8481 12.6874 12.7395 12.227 12.0634C11.9721 11.6887 11.5404 11.4668 11.0992 11.3752C10.6579 11.2827 10.2031 11.306 9.75311 11.3293C9.80568 10.806 9.82161 10.2649 9.65355 9.76646Z" fill="#1D344B"/>
<path d="M17.6997 24.4942C17.9635 24.4912 18.2272 24.3829 18.4001 24.1807C18.906 23.5903 18.4679 22.6353 17.6997 22.6353C16.8154 22.6353 16.4458 23.837 17.1782 24.3416C17.3309 24.4469 17.515 24.4965 17.6997 24.4942Z" fill="#1D344B"/>
<path d="M16.2269 25.5644C16.3695 25.5628 16.5121 25.5042 16.6056 25.3948C16.8792 25.0756 16.6423 24.5591 16.2269 24.5591C15.7486 24.5591 15.5488 25.2089 15.9449 25.4818C16.0275 25.5388 16.127 25.5656 16.2269 25.5644Z" fill="#1D344B"/>
<path d="M21.8809 10.3325C21.8849 10.1709 21.8626 10.0093 21.8108 9.85498C21.5496 9.08399 20.6025 8.64745 19.8594 8.97546C19.1195 9.30187 18.7579 10.2642 19.1235 10.9966C19.4524 11.6558 20.3206 11.9782 20.9944 11.692C21.5201 11.4685 21.8658 10.9025 21.8801 10.3325H21.8809Z" fill="#1D344B"/>
<path d="M21.8767 15.493C21.8767 15.1762 21.7843 14.8595 21.5947 14.6062C21.0109 13.8232 19.754 13.8449 19.2244 14.6705C18.7672 15.3844 18.9966 16.403 19.7524 16.801C20.3347 17.1073 21.1176 16.9521 21.5422 16.4465C21.7636 16.1828 21.8759 15.8379 21.8759 15.493H21.8767Z" fill="#1D344B"/>
<path d="M22.9838 14.3755C23.2451 14.3779 23.5055 14.3144 23.7309 14.1793C24.2988 13.8384 24.5792 13.0771 24.3697 12.4444C24.0639 11.5207 22.8747 11.1356 22.1125 11.7369C21.4522 12.2579 21.3375 13.2926 21.9165 13.918C22.1889 14.2123 22.5872 14.3707 22.9846 14.3747L22.9838 14.3755Z" fill="#1D344B"/>
<path d="M17.8714 14.3874C18.6783 14.3874 19.3322 13.7273 19.3322 12.9129C19.3322 12.113 18.7053 11.5382 17.9431 11.4578C17.1203 11.3709 16.4106 12.0961 16.4106 12.9129C16.4106 13.7273 17.0646 14.3874 17.8714 14.3874Z" fill="#1D344B"/>
</svg>
