<svg width="22" height="22" viewBox="0 0 22 22" fill="none" xmlns="http://www.w3.org/2000/svg">
<path fill-rule="evenodd" clip-rule="evenodd" d="M21.4605 18.9408C21.2514 19.4744 20.7683 20.2242 20.0761 20.7577C19.6796 21.0606 19.2037 21.3562 18.5548 21.5508C17.8627 21.7599 17.0047 21.8248 15.9376 21.8248H6.20411C5.13703 21.8248 4.28625 21.7527 3.58688 21.5508C2.93798 21.3562 2.46212 21.0678 2.06557 20.7577C1.38062 20.2314 0.890339 19.4744 0.681249 18.9408C0.263069 17.8665 0.255859 16.648 0.255859 15.8766V6.14307C0.255859 5.3716 0.263069 4.15311 0.681249 3.07882C0.890339 2.54528 1.37341 1.79544 2.06557 1.2619C2.46212 0.959084 2.93798 0.663474 3.58688 0.468804C4.28625 0.266924 5.13703 0.194824 6.20411 0.194824H15.9376C17.0047 0.194824 17.8555 0.266924 18.5548 0.468804C19.2037 0.663474 19.6796 0.951874 20.0761 1.2619C20.7611 1.78823 21.2514 2.54528 21.4605 3.07882C21.8859 4.15311 21.8859 5.37881 21.8859 6.14307V15.8766C21.8859 16.648 21.8786 17.8665 21.4605 18.9408ZM12.9238 13.2521C12.895 12.9926 12.8085 12.8051 12.6354 12.6321C12.311 12.2932 11.7414 12.0697 11.0709 12.0697C10.4003 12.0697 9.83076 12.286 9.50631 12.6321C9.34048 12.8123 9.24675 12.9926 9.21791 13.2521C9.16044 13.755 9.19601 14.1862 9.25331 14.881L9.25396 14.8888C9.31164 15.5521 9.41979 16.439 9.55678 17.333C9.65772 17.9747 9.73703 18.3208 9.80913 18.5659C9.9317 18.9697 10.3715 19.3158 11.0709 19.3158C11.7702 19.3158 12.2173 18.9625 12.3326 18.5659C12.4047 18.3208 12.484 17.9747 12.585 17.333C12.722 16.4318 12.8301 15.5521 12.8878 14.8888C12.9527 14.1894 12.9815 13.7568 12.9238 13.2521ZM11.0709 11.3487C12.0514 11.3487 12.8445 10.5556 12.8445 9.57503C12.8445 8.60168 12.0514 7.80137 11.0709 7.80137C10.0903 7.80137 9.29723 8.59447 9.29723 9.57503C9.29723 10.5556 10.0903 11.3487 11.0709 11.3487ZM11.0494 2.58863C6.91089 2.60305 3.52219 5.96291 3.46451 10.1015C3.42125 13.4541 5.56262 16.3237 8.55477 17.3763C8.62687 17.4052 8.69897 17.3403 8.69176 17.2682C8.67975 17.1817 8.66693 17.0952 8.65411 17.0087C8.62848 16.8356 8.60284 16.6626 8.58361 16.4895C8.56919 16.3958 8.51151 16.3237 8.4322 16.2804C6.06732 15.2494 4.41623 12.8773 4.44507 10.1303C4.48112 6.52529 7.4228 3.59082 11.0206 3.56198C14.7049 3.53314 17.7115 6.51808 17.7115 10.1952C17.7115 12.9134 16.0676 15.2494 13.7243 16.2804C13.6378 16.3165 13.5801 16.3958 13.5729 16.4895L13.4648 17.2682C13.4504 17.3475 13.5297 17.4052 13.6018 17.3763C16.5651 16.3381 18.692 13.5118 18.692 10.1952C18.6776 5.99896 15.2529 2.58142 11.0494 2.58863ZM5.98059 10.1374C6.01664 7.44088 8.17964 5.21299 10.8762 5.11205C13.7746 4.99669 16.1755 7.32552 16.1683 10.1951C16.1683 11.9399 15.2815 13.4901 13.9404 14.4057C13.8683 14.4562 13.7746 14.3985 13.7818 14.3192C13.7962 14.0092 13.8034 13.7352 13.789 13.454C13.789 13.3603 13.8251 13.2738 13.89 13.2089C14.6903 12.4518 15.195 11.3847 15.195 10.2023C15.195 7.88069 13.2627 5.99167 10.9122 6.0854C8.74923 6.17192 7.01162 7.93116 6.95394 10.0942C6.9251 11.3199 7.4298 12.4302 8.25895 13.2089C8.33105 13.2738 8.3671 13.3603 8.35989 13.454C8.34547 13.7424 8.34547 14.0164 8.3671 14.3264C8.3671 14.4057 8.27337 14.4562 8.20848 14.4129C6.84579 13.4829 5.95896 11.9111 5.98059 10.1374Z" fill="#00C63F"/>
</svg>
