<svg width="21" height="20" viewBox="0 0 21 20" fill="none" xmlns="http://www.w3.org/2000/svg">
<path fill-rule="evenodd" clip-rule="evenodd" d="M10.5 -8.74228e-07C4.97715 -1.35705e-06 0.500001 4.47715 0.500001 10C0.5 15.5228 4.97715 20 10.5 20C16.0228 20 20.5 15.5228 20.5 10C20.5 4.47715 16.0228 -3.91405e-07 10.5 -8.74228e-07ZM13.2305 7.04146C13.1706 7.01415 13.1055 7.00001 13.0397 7C13.0201 7.00026 13.0006 7.00176 12.9812 7.0045L9.12918 7.0045C9.06818 7.00363 9.00761 7.0149 8.951 7.03765C8.89439 7.0604 8.84286 7.09418 8.79941 7.13701C8.75597 7.17985 8.72147 7.23089 8.69792 7.28717C8.67438 7.34346 8.66225 7.40386 8.66225 7.46487C8.66225 7.52588 8.67438 7.58629 8.69792 7.64257C8.72147 7.69885 8.75597 7.7499 8.79941 7.79273C8.84286 7.83557 8.89439 7.86934 8.951 7.89209C9.00761 7.91484 9.06818 7.92611 9.12918 7.92525L11.9238 7.92525L7.72146 12.2075C7.67728 12.2499 7.642 12.3007 7.6177 12.3569C7.5934 12.4131 7.58056 12.4736 7.57994 12.5349C7.57932 12.5961 7.59092 12.6569 7.61407 12.7136C7.63722 12.7703 7.67146 12.8218 7.71477 12.8651C7.75808 12.9085 7.8096 12.9427 7.86631 12.9658C7.92302 12.989 7.98377 13.0006 8.04502 13C8.10627 12.9994 8.16678 12.9865 8.22301 12.9622C8.27923 12.9379 8.33004 12.9026 8.37246 12.8585L12.5748 8.57625L12.5748 11.3709C12.5739 11.4319 12.5852 11.4924 12.608 11.5491C12.6307 11.6057 12.6645 11.6572 12.7073 11.7006C12.7502 11.7441 12.8012 11.7786 12.8575 11.8021C12.9138 11.8257 12.9742 11.8378 13.0352 11.8378C13.0962 11.8378 13.1566 11.8257 13.2129 11.8021C13.2692 11.7786 13.3202 11.7441 13.363 11.7006C13.4059 11.6572 13.4397 11.6057 13.4624 11.5491C13.4852 11.4924 13.4964 11.4319 13.4956 11.3709L13.4956 7.52422C13.5047 7.45901 13.4997 7.3926 13.481 7.32947C13.4623 7.26635 13.4302 7.20797 13.387 7.15829C13.3438 7.1086 13.2904 7.06876 13.2305 7.04146Z" fill="white"/>
</svg>
