<svg width="30" height="31" viewBox="0 0 30 31" fill="none" xmlns="http://www.w3.org/2000/svg">
<path fill-rule="evenodd" clip-rule="evenodd" d="M24.9384 25.4029C22.3795 27.7711 18.9153 29.0758 15.1858 29.0758H15.1865C11.457 29.0758 7.9935 27.7718 5.43383 25.4029C2.8148 22.9789 1.37224 19.6309 1.37224 15.9748C1.37224 14.1295 1.70869 12.7727 1.97917 11.6821L1.98265 11.668C2.15857 10.9567 2.3106 10.342 2.32735 9.76129C2.3442 9.17089 2.02168 8.33406 1.70942 7.52437C1.16333 6.10961 0.545404 4.50563 1.48878 3.43997C2.63301 2.14769 5.24105 1.43555 8.83279 1.43555C10.9592 1.43555 13.3173 1.68051 15.8403 2.16236C19.4731 2.85617 22.7438 4.46236 25.0484 6.68534C27.6337 9.17895 29 12.3194 29 15.9748C29 19.6301 27.5575 22.9789 24.9384 25.4029ZM18.718 18.3707C18.328 18.5563 17.9051 18.6487 17.4484 18.6487C16.6853 18.6487 15.8306 18.3905 14.8946 17.8749C14.5149 17.6659 14.3764 17.1892 14.5853 16.8093C14.7942 16.4301 15.2714 16.2915 15.6511 16.5005C16.3555 16.8885 17.3399 17.2823 18.0355 16.9582C18.7143 16.6413 18.9049 15.7458 18.91 15.7202C18.9899 15.2962 19.3975 15.0168 19.8219 15.0938C20.2485 15.1716 20.5307 15.5801 20.453 16.0062C20.4405 16.0751 20.1297 17.6996 18.718 18.3707ZM18.4852 10.5558L18.4852 10.5557L18.4852 10.5556C18.5926 9.70901 18.7 8.8624 18.7481 8.00899C18.7664 7.69069 18.7994 7.37166 18.8881 7.06289C19.009 6.64337 19.2172 6.53483 19.6328 6.67784C19.8967 6.76805 20.1342 6.9118 20.3665 7.06362C21.5745 7.85864 22.6565 8.80035 23.6284 9.8682C23.9297 10.199 24.1987 10.5561 24.4333 10.9383C24.5161 11.0739 24.5747 11.2067 24.4479 11.3453C23.9773 11.8638 23.4481 12.3061 22.7715 12.5276C22.397 12.6501 22.2526 12.543 22.1573 12.1587C21.9381 11.28 21.4199 10.5906 20.766 9.98848C20.7612 9.98411 20.7563 9.97945 20.7513 9.97469C20.712 9.93723 20.6664 9.8937 20.5688 9.93274L20.5998 10.0906C20.6309 10.2482 20.6625 10.4089 20.6905 10.5708C20.8239 11.3306 20.873 12.0941 20.7206 12.8561C20.6121 13.3937 20.3753 14.0296 19.4261 13.8037C18.4768 13.5778 18.1888 13.2045 18.2782 12.3545V12.3552C18.3332 11.7538 18.4092 11.1548 18.4852 10.5558ZM8.12579 14.5674C8.0498 15.1665 7.9738 15.7655 7.91882 16.3669V16.3662C7.8294 17.2162 8.11674 17.5895 9.06671 17.8154C10.016 18.0413 10.2527 17.4055 10.3612 16.8679C10.5137 16.1058 10.4646 15.3424 10.3312 14.5825C10.3032 14.4206 10.2715 14.2599 10.2404 14.1023C10.23 14.0493 10.2196 13.9967 10.2095 13.9445C10.307 13.9054 10.3527 13.949 10.3919 13.9864C10.3969 13.9912 10.4018 13.9958 10.4067 14.0002C11.0605 14.6023 11.5787 15.2917 11.7979 16.1704C11.8932 16.5547 12.0376 16.6618 12.4122 16.5393C13.0887 16.3178 13.618 15.8755 14.0886 15.357C14.2154 15.2184 14.1567 15.0857 14.0739 14.95C13.8393 14.5679 13.5703 14.2107 13.269 13.8799C12.2971 12.8121 11.2152 11.8704 10.0072 11.0753C9.7748 10.9235 9.53731 10.7798 9.27342 10.6896C8.85781 10.5465 8.64963 10.6551 8.52869 11.0746C8.43999 11.3834 8.40701 11.7024 8.38868 12.0207C8.3406 12.8741 8.2332 13.7208 8.12579 14.5674Z" fill="#1D344B"/>
</svg>
